<?xml version="1.0" standalone="no"?>
<!DOCTYPE svg PUBLIC "-//W3C//DTD SVG 1.1//EN" "http://www.w3.org/Graphics/SVG/1.1/DTD/svg11.dtd" >
<svg xmlns="http://www.w3.org/2000/svg" xmlns:xlink="http://www.w3.org/1999/xlink" version="1.1">
<metadata>
Created by FontForge 20170731 at Tue Sep  5 18:33:01 2006
 By Aleksey,,,
(c) Copyright 2005 by Tong Duc Thinh. All Rights Reserved
</metadata>
<defs>
<font id="SFUFuturaExtraBold" horiz-adv-x="1000" >
  <font-face 
    font-family="SFU Futura"
    font-weight="800"
    font-stretch="normal"
    units-per-em="1000"
    panose-1="0 0 8 0 0 0 0 0 0 0"
    ascent="800"
    descent="-200"
    x-height="531"
    cap-height="754"
    bbox="-249 -260 1662 1187"
    underline-thickness="75"
    underline-position="-261"
    unicode-range="U+0020-F002"
  />
<missing-glyph horiz-adv-x="500" 
d="M63 0v771h375v-771h-375zM125 63h250v646h-250v-646z" />
    <glyph glyph-name=".notdef" horiz-adv-x="500" 
d="M63 0v771h375v-771h-375zM125 63h250v646h-250v-646z" />
    <glyph glyph-name=".null" horiz-adv-x="0" 
 />
    <glyph glyph-name="glyph2" horiz-adv-x="416" 
 />
    <glyph glyph-name="space" unicode=" " horiz-adv-x="416" 
 />
    <glyph glyph-name="exclam" unicode="!" horiz-adv-x="462" 
d="M361 288h-264v515h264v-515zM229 239q59 0 102 -33q47 -37 47 -94q0 -56 -47 -92q-43 -32 -102 -32t-102 32q-47 36 -47 92q0 57 47 94q43 33 102 33z" />
    <glyph glyph-name="quotedbl" unicode="&#x22;" horiz-adv-x="788" 
d="M636 381h-179l-40 373h259zM331 381h-179l-40 373h259z" />
    <glyph glyph-name="numbersign" unicode="#" horiz-adv-x="832" 
d="M311 801h142l-52 -224h136l52 224h142l-53 -224h108v-124h-132l-32 -138h126v-124h-159l-44 -191h-143l45 191h-136l-44 -191h-143l44 191h-122v124h152l32 138h-129v124h157zM373 453l-32 -138h137l35 138h-140z" />
    <glyph glyph-name="dollar" unicode="$" horiz-adv-x="832" 
d="M341 752l-5 122h171l-10 -116q96 -7 190 -58l-76 -190q-75 64 -175 64q-68 0 -68 -48q0 -25 33 -34q8 -3 52 -8q129 -15 190 -57q82 -55 82 -171q0 -99 -65.5 -167t-165.5 -80l7 -124h-162l7 123q-117 4 -239 84l77 198q114 -96 217 -96q85 0 85 48q0 36 -68 47l-43 7
q-113 18 -170 62q-71 55 -71 159q0 96 60 155q49 49 147 80z" />
    <glyph glyph-name="percent" unicode="%" horiz-adv-x="1145" 
d="M249 0l517 776h137l-513 -776h-141zM882 404q106 0 170 -50q70 -54 70 -156t-73 -159q-66 -51 -167 -51t-167 51q-73 57 -73 159t70 156q64 50 170 50zM882 254q-48 0 -48 -56q0 -53 48 -53t48 53q0 56 -48 56zM263 766q106 0 170 -50q70 -54 70 -156t-73 -159
q-66 -51 -167 -51t-167 51q-73 57 -73 159t70 156q64 50 170 50zM263 616q-48 0 -48 -56q0 -53 48 -53t48 53q0 56 -48 56z" />
    <glyph glyph-name="ampersand" unicode="&#x26;" horiz-adv-x="962" 
d="M450 602q-21 0 -34.5 -14t-13.5 -35q0 -15 11.5 -33t25.5 -26q52 29 52 64q0 17 -12.5 30.5t-28.5 13.5zM630 0l-50 57q-105 -69 -238 -69q-125 0 -207 55q-95 64 -95 183q0 78 57 129q50 43 132 59q-74 69 -74 141q0 103 91 161q78 50 187 50q103 0 183 -52
q93 -59 93 -157q0 -65 -41.5 -117t-105.5 -71l68 -69q42 27 116 114l143 -162l-118 -89l174 -163h-315zM436 196l-95 95q-45 -30 -45 -58q0 -57 68 -57q24 0 72 20z" />
    <glyph glyph-name="quotesingle" unicode="'" horiz-adv-x="493" 
d="M336 381h-179l-40 373h259z" />
    <glyph glyph-name="parenleft" unicode="(" horiz-adv-x="450" 
d="M202 839l193 -112q-50 -76 -77 -201q-23 -108 -23 -216q0 -264 100 -418l-193 -111l-46 96q-101 211 -101 433t101 433z" />
    <glyph glyph-name="parenright" unicode=")" horiz-adv-x="450" 
d="M55 727l193 112l46 -96q101 -211 101 -433t-101 -433l-46 -96l-193 111q100 154 100 418q0 108 -23 216q-27 125 -77 201z" />
    <glyph glyph-name="asterisk" unicode="*" horiz-adv-x="492" 
d="M297 380h-106v89l-77 -44l-53 86l84 51l-84 48l53 90l77 -45v99h106v-104l81 50l53 -90l-77 -48l77 -42l-53 -95l-81 47v-92z" />
    <glyph glyph-name="plus" unicode="+" horiz-adv-x="800" 
d="M300 400v200h200v-200h200v-200h-200v-200h-200v200h-200v200h200z" />
    <glyph glyph-name="comma" unicode="," horiz-adv-x="416" 
d="M201 -166h-201l121 373h259z" />
    <glyph glyph-name="hyphen" unicode="-" horiz-adv-x="485" 
d="M64 165v220h357v-220h-357z" />
    <glyph glyph-name="hyphen" unicode="&#x2010;" horiz-adv-x="485" 
d="M64 165v220h357v-220h-357z" />
    <glyph glyph-name="period" unicode="." horiz-adv-x="416" 
d="M208 239q59 0 102 -33q47 -37 47 -94q0 -56 -47 -92q-43 -32 -102 -32t-102 32q-47 36 -47 92q0 57 47 94q43 33 102 33z" />
    <glyph glyph-name="slash" unicode="/" horiz-adv-x="728" 
d="M167 -150h-149l544 961h148z" />
    <glyph glyph-name="zero" unicode="0" horiz-adv-x="832" 
d="M416 766q166 0 266 -111q94 -105 94 -271q0 -175 -93 -283q-97 -113 -267 -113t-267 113q-93 108 -93 283q0 166 95 271q99 111 265 111zM416 532q-98 0 -98 -155q0 -58 20 -105q27 -61 78 -61t78 61q20 47 20 105q0 155 -98 155z" />
    <glyph glyph-name="one" unicode="1" horiz-adv-x="832" 
d="M186 504v238l388 12v-754h-272v512z" />
    <glyph glyph-name="two" unicode="2" horiz-adv-x="832" 
d="M775 0h-749l301 267q166 147 166 215q0 25 -18 42.5t-44 17.5q-39 0 -54 -30q-11 -21 -13 -65h-268q15 167 95.5 243t249.5 76q128 0 220 -67q103 -75 103 -199q0 -106 -83 -185q-70 -67 -182 -102v-8l129 18l147 9v-232z" />
    <glyph glyph-name="three" unicode="3" horiz-adv-x="832" 
d="M62 264h276q-2 -34 21 -59.5t57 -25.5q28 0 51 20.5t23 48.5t-20.5 49t-48.5 21q-13 0 -37 -4v157l22 -2q22 -2 39.5 14.5t17.5 39.5t-15 36.5t-38 13.5t-36.5 -17.5t-11.5 -40.5h-270q23 251 326 251q115 0 203 -49q108 -60 108 -167q0 -47 -25 -87.5t-68 -58.5v-6
q58 -15 91.5 -62t33.5 -108q0 -125 -115 -189q-92 -51 -226 -51q-153 0 -245 61q-107 71 -113 215z" />
    <glyph glyph-name="four" unicode="4" horiz-adv-x="832" 
d="M399 464l-97 -119v-4l133 7v113q0 28 12 62l-6 4q-13 -28 -42 -63zM52 143v198l309 413h324v-406l95 7v-212l-102 8l7 -151h-260l10 151z" />
    <glyph glyph-name="five" unicode="5" horiz-adv-x="832" 
d="M203 754h513v-211h-323q-10 -58 -24 -87h7q30 40 128 40q107 0 181 -64q77 -67 77 -172q0 -128 -120 -205q-105 -67 -241 -67q-63 0 -153 17q-97 19 -148 44l30 204q43 -23 111.5 -42.5t113.5 -19.5q47 0 84 15q49 21 49 60q0 40 -59 60q-43 15 -92 15q-105 0 -200 -33z
" />
    <glyph glyph-name="six" unicode="6" horiz-adv-x="832" 
d="M355 754h359l-241 -212l1 -6q69 11 75 11q97 0 163 -79q62 -74 62 -173q0 -143 -108 -228q-100 -79 -246 -79q-149 0 -251 83q-111 90 -111 236q0 143 128 274zM322 296q0 -40 26.5 -66.5t66.5 -26.5q39 0 66.5 25t27.5 64q0 41 -28 69.5t-68 28.5q-38 0 -64.5 -28.5
t-26.5 -65.5z" />
    <glyph glyph-name="seven" unicode="7" horiz-adv-x="832" 
d="M297 519l-206 -7v242h732l-429 -754h-303l284 477q9 17 32 45v6z" />
    <glyph glyph-name="eight" unicode="8" horiz-adv-x="832" 
d="M416 766q121 0 211 -52q109 -63 109 -176q0 -52 -30.5 -91.5t-81.5 -54.5v-7q60 -15 98 -61t38 -108q0 -119 -121 -180q-94 -48 -223 -48t-223 48q-121 61 -121 180q0 62 38 108t98 61v7q-51 15 -81.5 54.5t-30.5 91.5q0 113 109 176q90 52 211 52zM416 576
q-24 0 -40 -17t-16 -42q0 -23 17 -39t39 -16t39 16t17 39q0 25 -16 42t-40 17zM416 317q-29 0 -51.5 -20.5t-22.5 -50.5q0 -32 21.5 -54.5t52.5 -22.5t52.5 22.5t21.5 54.5q0 30 -22.5 50.5t-51.5 20.5z" />
    <glyph glyph-name="nine" unicode="9" horiz-adv-x="832" 
d="M116 0l189 167q14 14 45 34v5l-41 -2q-114 -6 -185 73q-67 75 -67 192q0 139 107 222q97 75 240 75q158 0 259 -76q112 -84 112 -237q0 -143 -120 -269l-175 -184h-364zM328 457q0 -40 26.5 -67t66.5 -27q36 0 62 27t26 63q0 37 -25.5 64.5t-62.5 27.5t-65 -25.5
t-28 -62.5z" />
    <glyph glyph-name="colon" unicode=":" horiz-adv-x="416" 
d="M208 239q59 0 102 -33q47 -37 47 -94q0 -56 -47 -92q-43 -32 -102 -32t-102 32q-47 36 -47 92q0 57 47 94q43 33 102 33zM208 543q59 0 102 -33q47 -37 47 -94q0 -56 -47 -92q-43 -32 -102 -32t-102 32q-47 36 -47 92q0 57 47 94q43 33 102 33z" />
    <glyph glyph-name="semicolon" unicode=";" horiz-adv-x="416" 
d="M201 -166h-201l121 373h259zM258 543q59 0 102 -33q47 -37 47 -94q0 -56 -47 -92q-43 -32 -102 -32t-102 32q-47 36 -47 92q0 57 47 94q43 33 102 33z" />
    <glyph glyph-name="less" unicode="&#x3c;" horiz-adv-x="800" 
d="M100 177v244l600 182v-212l-332 -91v-2l332 -91v-212z" />
    <glyph glyph-name="equal" unicode="=" horiz-adv-x="800" 
d="M100 0v200h600v-200h-600zM100 312v200h600v-200h-600z" />
    <glyph glyph-name="greater" unicode="&#x3e;" horiz-adv-x="800" 
d="M700 421v-244l-600 -182v212l332 91v2l-332 91v212z" />
    <glyph glyph-name="question" unicode="?" horiz-adv-x="697" 
d="M266 294v194q34 -10 51 -10q38 0 63.5 21t25.5 58q0 50 -48 50q-23 0 -37 -19.5t-15 -44.5h-257q4 120 94 197q86 74 208 74q131 0 215 -70q89 -75 89 -203q0 -127 -93 -195q-83 -61 -214 -61q-41 0 -82 9zM358 239q59 0 102 -33q47 -37 47 -94q0 -56 -47 -92
q-43 -32 -102 -32t-102 32q-47 36 -47 92q0 57 47 94q43 33 102 33z" />
    <glyph glyph-name="at" unicode="@" horiz-adv-x="800" 
d="M311 353q0 -38 20 -63q21 -28 56 -28q45 0 72 41q23 36 23 83q0 36 -20 58t-53 22q-41 0 -69.5 -35t-28.5 -78zM623 565l-50 -256q-7 -34 -7 -42q0 -24 19 -22q28 3 58.5 56t33.5 115q7 120 -70 187q-72 63 -192 63q-125 0 -202 -80.5t-77 -210.5q0 -134 84 -213
q81 -77 212 -77q128 0 179 32l82 -65q-130 -67 -269 -67q-163 0 -275.5 111.5t-112.5 278.5q0 166 110.5 278.5t271.5 112.5q137 0 235 -86q112 -99 112 -230q0 -128 -62 -209q-69 -90 -154 -87q-21 1 -38.5 17.5t-23.5 39.5q-51 -57 -128 -57q-67 0 -117.5 54t-50.5 129
q0 95 56 164q58 73 148 73q79 0 123 -61l10 52h95z" />
    <glyph glyph-name="A" unicode="A" horiz-adv-x="823" 
d="M306 94l-22 -94h-290l262 754h303l269 -754h-290l-25 94h-207zM355 273h110l-32 133q-8 34 -18 97h-10z" />
    <glyph glyph-name="B" unicode="B" horiz-adv-x="736" 
d="M60 0v754h319q295 0 295 -209q0 -52 -25 -93q-27 -44 -74 -59v-6q134 -47 134 -179q0 -107 -88 -162q-74 -46 -188 -46h-373zM314 464h25q85 0 85 56q0 37 -30 47q-15 5 -61 5h-19v-108zM314 305v-125h31q49 0 72 8q38 14 38 55t-40 55q-23 7 -74 7h-27z" />
    <glyph glyph-name="C" unicode="C" horiz-adv-x="656" 
d="M613 735l8 -287q-82 76 -161 76q-62 0 -105.5 -43t-43.5 -104q0 -62 45.5 -104.5t107.5 -42.5q85 0 157 70l-8 -282q-63 -30 -195 -30q-161 0 -272 110.5t-111 271.5q0 165 114.5 280.5t279.5 115.5q94 0 184 -31z" />
    <glyph glyph-name="D" unicode="D" horiz-adv-x="827" 
d="M64 0v754h279q203 0 318 -90q129 -100 129 -298q0 -166 -105.5 -266t-273.5 -100h-347zM338 518v-292h17q72 0 115 33q46 37 46 108q0 151 -161 151h-17z" />
    <glyph glyph-name="E" unicode="E" horiz-adv-x="624" 
d="M58 0v754h507v-206h-231v-72h211v-196h-211v-74h239v-206h-515z" />
    <glyph glyph-name="F" unicode="F" horiz-adv-x="602" 
d="M62 0v754h505v-216h-229v-78h201v-196h-201v-264h-276z" />
    <glyph glyph-name="G" unicode="G" horiz-adv-x="891" 
d="M436 444h423q-2 -120 -13 -171q-19 -87 -78 -151t-144.5 -99t-175.5 -35q-178 0 -294 101q-122 107 -122 283q0 181 120 289q116 105 298 105q109 0 212 -49q117 -55 158 -145l-256 -94q-32 58 -104 58q-70 0 -113 -53q-39 -50 -39 -122q0 -66 37 -112q40 -49 104 -49
q36 0 67 16q35 18 44 50h-124v178z" />
    <glyph glyph-name="H" unicode="H" horiz-adv-x="819" 
d="M62 0v754h264v-254h168v254h264v-754h-264v262h-168v-262h-264z" />
    <glyph glyph-name="I" unicode="I" horiz-adv-x="403" 
d="M64 0v754h274v-754h-274z" />
    <glyph glyph-name="J" unicode="J" horiz-adv-x="529" 
d="M200 754h268v-508q0 -113 -72 -185.5t-185 -72.5q-121 0 -225 82l93 233q15 -38 26 -53q19 -26 47 -26q48 0 48 82v448z" />
    <glyph glyph-name="K" unicode="K" horiz-adv-x="821" 
d="M64 0v754h267l-6 -327h6q5 24 38 85l132 242h299l-236 -367l261 -387h-318l-130 228q-13 22 -27 43q-15 26 -19 45h-6l6 -316h-267z" />
    <glyph glyph-name="L" unicode="L" horiz-adv-x="579" 
d="M62 0v754h274v-512h230v-242h-504z" />
    <glyph glyph-name="M" unicode="M" horiz-adv-x="1083" 
d="M31 0l122 754h282l104 -396h7q5 34 19 100l85 296h279l124 -754h-265l-37 413h-5q-10 -51 -18 -75l-109 -338h-160l-98 319q-14 45 -17 94h-9q-2 -31 -7 -91l-32 -322h-265z" />
    <glyph glyph-name="N" unicode="N" horiz-adv-x="872" 
d="M58 0v754h263l246 -418h8q-23 132 -23 192v226h262v-754h-262l-241 396h-8q17 -98 17 -151v-245h-262z" />
    <glyph glyph-name="O" unicode="O" horiz-adv-x="904" 
d="M452 766q176 0 294 -107q123 -110 123 -284q0 -177 -122 -284q-117 -103 -295 -103t-295 103q-122 107 -122 284q0 174 123 284q118 107 294 107zM452 518q-63 0 -102 -42.5t-39 -104.5q0 -64 39.5 -104.5t101.5 -40.5t101.5 40.5t39.5 104.5q0 62 -39 104.5t-102 42.5z
" />
    <glyph glyph-name="P" unicode="P" horiz-adv-x="728" 
d="M62 0v754h347q138 0 219 -68q87 -74 87 -209q0 -115 -67 -182.5t-182 -67.5h-140v-227h-264zM326 548v-131h27q100 0 100 69q0 39 -34 53q-21 9 -67 9h-26z" />
    <glyph glyph-name="Q" unicode="Q" horiz-adv-x="924" 
d="M809 147l111 -123l-215 -90l-53 92q-87 -38 -205 -38q-173 0 -287 108t-114 279q0 176 123 286q117 105 293 105q183 0 298 -103q118 -107 118 -288q0 -131 -69 -228zM487 233l-63 70l170 32q8 23 8 42q0 63 -39.5 105t-100.5 42q-65 0 -102.5 -40.5t-37.5 -103.5
q0 -61 37.5 -105.5t96.5 -44.5q21 0 31 3z" />
    <glyph glyph-name="R" unicode="R" horiz-adv-x="757" 
d="M62 0v754h331q139 0 221 -60q93 -68 93 -202q0 -83 -33.5 -126.5t-112.5 -69.5v-6q16 -11 46 -45l164 -245h-316l-120 242h-5v-242h-268zM330 548v-128h19q90 0 90 63q0 40 -26 54q-20 11 -62 11h-21z" />
    <glyph glyph-name="S" unicode="S" horiz-adv-x="663" 
d="M23 57l84 213l14 -11q88 -69 171 -69q25 0 45 10q25 12 25 35q0 22 -21 32q-10 4 -40 10l-55 10q-87 16 -139 63q-58 53 -58 137q0 128 102 207q94 72 225 72q130 0 239 -66l-74 -193q-84 57 -159 57q-59 0 -59 -40q0 -18 20 -27q7 -4 35 -10l62 -14q200 -45 200 -216
q0 -127 -102 -202q-92 -67 -225 -67q-154 0 -290 69z" />
    <glyph glyph-name="T" unicode="T" horiz-adv-x="596" 
d="M10 509v245h576v-245l-151 7v-516h-274v516z" />
    <glyph glyph-name="U" unicode="U" horiz-adv-x="815" 
d="M482 754h274v-446q0 -160 -95 -242q-90 -78 -254 -78t-254 78q-95 82 -95 242v446h274v-420q0 -56 10 -78q16 -33 65 -33t65 33q10 22 10 78v420z" />
    <glyph glyph-name="V" unicode="V" horiz-adv-x="814" 
d="M529 754h286l-292 -754h-232l-292 754h286l100 -343q19 -65 19 -112h6q0 47 19 112z" />
    <glyph glyph-name="W" unicode="W" horiz-adv-x="1183" 
d="M-2 754h284l95 -450h6q9 86 23 139l80 311h210l103 -450h6q8 87 19 133l76 317h285l-266 -754h-239l-86 410h-9q-2 -39 -14 -114l-76 -296h-233z" />
    <glyph glyph-name="X" unicode="X" horiz-adv-x="831" 
d="M493 754h309l-236 -353l269 -401h-312l-86 160q-11 21 -16 46h-8q-8 -28 -21 -52l-84 -154h-312l264 401l-237 353h309l56 -107q12 -22 23 -62h6q5 24 24 62z" />
    <glyph glyph-name="Y" unicode="Y" horiz-adv-x="773" 
d="M-8 754h310l84 -197h8q8 24 25 71l54 126h308l-258 -429v-325h-268v325z" />
    <glyph glyph-name="Z" unicode="Z" horiz-adv-x="771" 
d="M67 754h702l-328 -521l3 -4q42 4 64 4h228v-233h-734l272 441q20 32 67 91l-4 3q-38 -9 -65 -9h-205v228z" />
    <glyph glyph-name="bracketleft" unicode="[" horiz-adv-x="470" 
d="M279 -53h131v-102h-350v966h350v-102h-131v-762z" />
    <glyph glyph-name="backslash" unicode="\" horiz-adv-x="728" 
d="M710 0h-149l-543 811h148z" />
    <glyph glyph-name="bracketright" unicode="]" horiz-adv-x="470" 
d="M60 -53h131v762h-131v102h350v-966h-350v102z" />
    <glyph glyph-name="asciicircum" unicode="^" horiz-adv-x="800" 
d="M278 754h244l178 -542h-208l-91 274h-2l-91 -274h-208z" />
    <glyph glyph-name="underscore" unicode="_" horiz-adv-x="500" 
d="M500 -188h-500v75h500v-75z" />
    <glyph glyph-name="grave" unicode="`" horiz-adv-x="420" 
d="M82 683l125 83l131 -165l-91 -62z" />
    <glyph glyph-name="a" unicode="a" horiz-adv-x="720" 
d="M288 268q0 -78 67 -78q34 0 53 25q16 21 16 55q0 31 -19 51t-50 20q-30 0 -48.5 -21.5t-18.5 -51.5zM416 0l8 70h-6q-39 -42 -71 -60q-40 -22 -91 -22q-102 0 -166 89q-58 80 -58 186q0 109 59 190q66 90 172 90q100 0 155 -75h6l-8 63h253v-531h-253z" />
    <glyph glyph-name="b" unicode="b" horiz-adv-x="720" 
d="M365 341q-31 0 -48.5 -22t-17.5 -53q0 -32 17.5 -54t48.5 -22q29 0 49 26q18 23 18 52t-19.5 51t-47.5 22zM50 0v811h258v-224l-12 -127h9q27 37 71 60t89 23q105 0 167 -91q54 -81 54 -191q0 -105 -56 -184q-63 -89 -164 -89t-173 91h-6l5 -79h-242z" />
    <glyph glyph-name="c" unicode="c" horiz-adv-x="514" 
d="M466 516v-215q-52 44 -95 44q-36 0 -58.5 -21.5t-22.5 -57.5q0 -31 22.5 -53.5t53.5 -22.5q41 0 100 41l-11 -218q-77 -25 -130 -25q-133 0 -212 71q-83 74 -83 204q0 119 78 199.5t196 80.5q79 0 162 -27z" />
    <glyph glyph-name="d" unicode="d" horiz-adv-x="720" 
d="M354 341q-31 0 -48.5 -22t-17.5 -53q0 -32 17.5 -54t48.5 -22q29 0 49 26q18 23 18 52t-19.5 51t-47.5 22zM428 0l5 79h-6q-72 -91 -173 -91t-164 89q-56 79 -56 184q0 110 54 191q62 91 167 91q45 0 89 -23t71 -60h9l-12 127v224h258v-811h-242z" />
    <glyph glyph-name="e" unicode="e" horiz-adv-x="698" 
d="M664 222h-375q0 -91 61 -91q43 0 52 44h251q-24 -90 -116 -141q-82 -46 -183 -46q-135 0 -223 66q-97 73 -97 203q0 129 89 209q86 77 216 77q146 0 238 -86q96 -90 87 -235zM289 332h121q0 28 -18 48.5t-45 20.5q-28 0 -43 -19.5t-15 -49.5z" />
    <glyph glyph-name="f" unicode="f" horiz-adv-x="430" 
d="M75 522v56q0 241 230 241q37 0 113 -12v-205q-23 9 -35 9q-54 0 -54 -71v-20l87 11v-207l-83 7v-331h-258v331l-70 -7v207z" />
    <glyph glyph-name="g" unicode="g" horiz-adv-x="722" 
d="M288 265q0 -33 20 -54t53 -21q31 0 48 21t17 53t-18 54.5t-49 22.5t-51 -22t-20 -54zM667 531v-500q0 -146 -108 -223q-95 -68 -247 -68q-107 0 -228 42l-26 9l57 179q76 -65 186 -65q51 0 82 33t36 84l5 54h-7q-19 -41 -65 -66q-42 -22 -91 -22q-103 0 -168 90
q-60 81 -60 188t59 188q66 89 170 89q100 0 155 -88h7l-7 76h250z" />
    <glyph glyph-name="h" unicode="h" horiz-adv-x="699" 
d="M50 0v811h258v-224l-12 -147h4q87 103 171 103q93 0 139 -65q40 -56 40 -152v-326h-252v274q0 63 -41 63q-49 0 -49 -63v-274h-258z" />
    <glyph glyph-name="i" unicode="i" horiz-adv-x="392" 
d="M67 0v531h258v-531h-258zM196 819q62 0 102 -33.5t40 -90.5q0 -62 -43 -95q-39 -30 -99 -30t-99 30q-43 33 -43 95q0 57 40 90.5t102 33.5z" />
    <glyph glyph-name="j" unicode="j" horiz-adv-x="392" 
d="M67 -219v750h258v-750h-258zM196 819q62 0 102 -33.5t40 -90.5q0 -62 -43 -95q-39 -30 -99 -30t-99 30q-43 33 -43 95q0 57 40 90.5t102 33.5z" />
    <glyph glyph-name="k" unicode="k" horiz-adv-x="742" 
d="M52 0v811h258v-477h6l21 45l80 152h301l-195 -260l205 -271h-304l-108 195h-6v-195h-258z" />
    <glyph glyph-name="l" unicode="l" horiz-adv-x="373" 
d="M57 0v811h258v-811h-258z" />
    <glyph glyph-name="m" unicode="m" horiz-adv-x="1011" 
d="M300 531l-8 -94h8q15 48 58.5 77t95.5 29q116 0 152 -113h6q46 113 161 113q90 0 139 -63q44 -57 44 -150v-330h-250v263q0 71 -38 71q-37 0 -37 -71v-263h-250v263q0 71 -38 71q-37 0 -37 -71v-263h-250v531h244z" />
    <glyph glyph-name="n" unicode="n" horiz-adv-x="703" 
d="M302 531l-10 -85h6q45 52 73 70q41 27 98 27q93 0 142 -64q42 -57 42 -152v-327h-258v259q0 75 -44 75q-43 0 -43 -75v-259h-258v531h252z" />
    <glyph glyph-name="o" unicode="o" horiz-adv-x="714" 
d="M357 543q138 0 227 -72q95 -78 95 -212q0 -126 -99 -201q-91 -70 -223 -70t-223 70q-99 75 -99 201q0 134 95 212q89 72 227 72zM357 341q-32 0 -52 -22.5t-20 -55.5q0 -31 21 -52t51 -21t51 21t21 52q0 33 -20 55.5t-52 22.5z" />
    <glyph glyph-name="p" unicode="p" horiz-adv-x="716" 
d="M363 341q-31 0 -48.5 -22t-17.5 -53q0 -32 17.5 -54t48.5 -22q29 0 49 26q18 23 18 52t-19.5 51t-47.5 22zM297 531l-8 -84h8q21 44 69 71q45 25 97 25q105 0 166 -87q55 -77 55 -186q0 -105 -57 -188q-65 -94 -166 -94q-45 0 -89 23q-47 24 -68 62h-7l12 -85v-207h-258
v750h246z" />
    <glyph glyph-name="q" unicode="q" horiz-adv-x="716" 
d="M352 340q-31 0 -48.5 -22t-17.5 -53q0 -32 17.5 -54t48.5 -22q29 0 49 26q18 23 18 52t-19.5 51t-47.5 22zM665 531v-750h-258v207l12 85h-7q-21 -38 -66.5 -61.5t-90.5 -23.5q-101 0 -166 94q-57 83 -57 188q0 109 55 186q61 87 166 87q52 0 98.5 -26t67.5 -70h8l-8 84
h246z" />
    <glyph glyph-name="r" unicode="r" horiz-adv-x="495" 
d="M487 543v-262q-49 29 -79 29q-101 0 -101 -106v-204h-258v531h258l-6 -71h6q33 51 75 69q37 16 105 14z" />
    <glyph glyph-name="s" unicode="s" horiz-adv-x="533" 
d="M9 47l66 160l16 -10q78 -49 132 -49q38 0 38 29q0 19 -18 26q-7 3 -34 7q-166 23 -166 147q0 92 81 143q69 43 167 43q124 0 206 -45l-63 -147q-60 44 -119 44q-37 0 -37 -24q0 -17 18 -25q9 -3 46 -9q80 -13 118 -43q49 -37 49 -111q0 -96 -83 -149q-72 -46 -174 -46
q-105 0 -243 59z" />
    <glyph glyph-name="t" unicode="t" horiz-adv-x="433" 
d="M344 702v-178l86 4v-203l-86 5v-330h-260v330l-63 -5v203l63 -4v178h260z" />
    <glyph glyph-name="u" unicode="u" horiz-adv-x="697" 
d="M49 531h256v-274q0 -64 44 -64t44 64v274h256v-300q0 -119 -92 -184q-82 -59 -208 -59t-208 59q-92 65 -92 184v300z" />
    <glyph glyph-name="v" unicode="v" horiz-adv-x="686" 
d="M-6 531h277l69 -251h7l13 65l55 186h277l-231 -531h-234z" />
    <glyph glyph-name="w" unicode="w" horiz-adv-x="949" 
d="M-15 531h272l61 -295h8l13 88l51 207h169l69 -295h6l13 88l46 207h271l-218 -531h-208l-58 236h-7l-13 -56l-49 -180h-211z" />
    <glyph glyph-name="x" unicode="x" horiz-adv-x="737" 
d="M22 531h296l33 -66l17 -45h5l20 45l32 66h296l-201 -255l216 -276h-303l-42 75l-18 42h-5l-16 -42l-41 -75h-311l223 276z" />
    <glyph glyph-name="y" unicode="y" horiz-adv-x="658" 
d="M-22 531h278l59 -208l15 -81h7l13 81l59 208h271l-340 -750h-272l137 272z" />
    <glyph glyph-name="z" unicode="z" horiz-adv-x="605" 
d="M589 501l-158 -234l-55 -67v-6l53 6h147v-200h-560v36l157 238l53 60v4l-59 -7h-125v200h547v-30z" />
    <glyph glyph-name="braceleft" unicode="{" horiz-adv-x="470" 
d="M55 236v122q35 18 47 31q23 24 23 62v207q0 153 193 153h97v-140h-25q-30 0 -40 -19q-6 -12 -6 -41v-166q0 -56 -31 -95q-19 -23 -65 -52v-2q46 -29 65 -52q31 -39 31 -96v-166q0 -29 6 -41q10 -20 40 -20h25v-140h-97q-193 0 -193 155v206q0 38 -23 62q-13 14 -47 32z
" />
    <glyph glyph-name="bar" unicode="|" horiz-adv-x="728" 
d="M264 0v811h200v-811h-200z" />
    <glyph glyph-name="braceright" unicode="}" horiz-adv-x="470" 
d="M415 358v-122q-34 -18 -47 -32q-23 -24 -23 -62v-206q0 -155 -193 -155h-97v140h25q30 0 40 20q6 12 6 41v166q0 57 32 96q18 23 64 52v2q-46 29 -64 52q-32 39 -32 95v166q0 29 -6 41q-9 19 -40 19h-25v140h97q193 0 193 -153v-207q0 -38 23 -62q12 -13 47 -31z" />
    <glyph glyph-name="asciitilde" unicode="~" horiz-adv-x="800" 
d="M590 440v0l110 -128q-25 -47 -72 -96q-63 -67 -112 -67q-65 0 -138 57q-57 44 -100 44q-17 0 -39 -21t-33 -45l-106 124q16 47 66 92q57 52 113 52q42 0 129 -54q24 -15 47 -30q29 -16 55 -16q40 0 80 88z" />
    <glyph glyph-name="euro" horiz-adv-x="498" 
d="M522 633l-23 -156l-48 6q0 157 -94 157q-103 0 -161 -211h172l-21 -48h-164q-6 -24 -16 -73h147l-21 -47h-134q-6 -41 -6 -74q0 -56 21 -91q26 -43 78 -43q58 0 101 68q24 38 51 119l55 -10l-54 -188q-77 -53 -159 -53q-111 0 -166 84q-47 71 -47 188h-74l21 47h56
q3 25 12 73h-66l21 48h59q41 112 108 183q83 88 187 88q94 0 165 -67z" />
    <glyph glyph-name="nonbreakingspace" unicode="&#xa0;" 
 />
    <glyph glyph-name="exclamdown" unicode="&#xa1;" horiz-adv-x="462" 
d="M361 296v-515h-264v515h264zM229 608q59 0 102 -33q47 -37 47 -94q0 -56 -47 -92q-43 -32 -102 -32t-102 32q-47 36 -47 92q0 57 47 94q43 33 102 33z" />
    <glyph glyph-name="cent" unicode="&#xa2;" horiz-adv-x="832" 
d="M511 657l114 -21l6 -211q-56 40 -97 40q-33 0 -54.5 -20t-21.5 -52q0 -34 21 -55t55 -21q50 0 97 41l-3 -211q-76 -22 -117 -24l5 -109h-85l6 109q-107 8 -172 85q-64 74 -64 183q0 104 66.5 178t169.5 88l-5 97h84z" />
    <glyph glyph-name="sterling" unicode="&#xa3;" horiz-adv-x="832" 
d="M282 413l-8 57q-9 64 -9 82q0 102 74 160q68 54 173 54q101 0 160 -47q64 -51 65 -149l-170 -34q0 64 -44 64q-23 0 -35.5 -19.5t-12.5 -43.5q0 -3 5 -47q7 -61 7 -58v-19l149 8v-141l-154 9l-3 -15q-11 -53 -32 -91l32 -9q57 -16 77 -16q51 0 99 38l74 -137
q-123 -74 -220 -74q-48 0 -114 18l-59 16q-26 7 -49 7q-32 0 -109 -29l-24 -9l-58 154q60 27 77 33q43 17 80 21l30 92l-96 -8v141z" />
    <glyph glyph-name="currency" unicode="&#xa4;" horiz-adv-x="832" 
d="M107 154l69 70q-52 68 -52 168q0 111 52 173l-69 71l65 66l71 -70q72 54 176 54q103 0 168 -54l71 70l64 -65l-64 -67q56 -76 56 -176q0 -103 -58 -169l68 -70l-62 -67l-71 68q-65 -56 -172 -56q-109 0 -177 57l-70 -68zM419 516q-55 0 -90 -36t-35 -91t35 -87t90 -32
t90 32t35 87t-35 91t-90 36z" />
    <glyph glyph-name="yen" unicode="&#xa5;" horiz-adv-x="832" 
d="M553 148v-148h-268v148h-203v140h203v37l-23 37h-180v140h94l-154 252h310l84 -197h8q8 24 25 71l54 126h308l-152 -252h92v-140h-176l-22 -37v-37h198v-140h-198z" />
    <glyph glyph-name="brokenbar" unicode="&#xa6;" horiz-adv-x="728" 
d="M264 0v325h200v-325h-200zM264 486v325h200v-325h-200z" />
    <glyph glyph-name="section" unicode="&#xa7;" horiz-adv-x="832" 
d="M320 300l211 -95q19 38 19 50q0 22 -36 39l-216 102q-21 -42 -21 -55q0 -22 43 -41zM156 31h180q-1 -33 21 -51t56 -18q66 0 66 50q0 23 -25 40q-11 8 -45 22l-115 48q-96 40 -131 67q-64 50 -64 126q0 111 113 161q-37 45 -37 99q0 93 81 145q70 46 168 46
q108 0 175 -53q73 -57 79 -162h-180q1 31 -18 50t-50 19q-57 0 -57 -47q0 -24 29 -41q4 -2 50 -21l120 -49q78 -32 112 -63q49 -45 49 -116q0 -57 -26 -94q-21 -29 -76 -63q26 -33 36 -55q11 -26 11 -65q1 -103 -79 -159q-71 -49 -178 -49q-120 0 -190 56q-78 61 -75 177z
" />
    <glyph glyph-name="dieresis" unicode="&#xa8;" horiz-adv-x="620" 
d="M189 766q35 0 59 -24t24 -59q0 -34 -24 -58.5t-59 -24.5q-34 0 -58.5 24.5t-24.5 58.5q0 35 24.5 59t58.5 24zM432 766q35 0 59 -24t24 -59q0 -34 -24 -58.5t-59 -24.5q-34 0 -58.5 24.5t-24.5 58.5q0 35 24.5 59t58.5 24z" />
    <glyph glyph-name="copyright" unicode="&#xa9;" horiz-adv-x="800" 
d="M400 -15q-163 0 -277 114t-114 277q0 162 114 276t277 114t277 -114t114 -276q0 -163 -114 -277t-277 -114zM400 87q127 0 208 80t81 209t-81 208.5t-208 79.5q-128 0 -208.5 -79t-80.5 -209t80.5 -209.5t208.5 -79.5zM599 457h-93q-12 70 -93 70q-55 0 -84 -44
q-27 -39 -27 -102q0 -60 29 -102q32 -47 85 -47q37 0 62.5 19.5t27.5 54.5h93q-8 -69 -60 -110.5t-123 -41.5q-96 0 -156 64.5t-60 160.5q0 99 58 162.5t156 63.5q71 0 121.5 -40t63.5 -108z" />
    <glyph glyph-name="ordfeminine" unicode="&#xaa;" horiz-adv-x="420" 
d="M170 599q0 -18 11.5 -31t30.5 -13q20 0 33 13.5t13 31.5q0 42 -45 42q-19 0 -31 -12.5t-12 -30.5zM417 757v-317h-164l5 40h-4q-49 -49 -105 -49q-66 0 -108 54q-38 48 -38 111q0 66 39 115q43 55 112 55q64 0 100 -47h4l-5 38h164zM417 277h-414v107h414v-107z" />
    <glyph glyph-name="guillemotleft" unicode="&#xab;" horiz-adv-x="572" 
d="M305 104l-96 -65l-161 236l161 228l96 -70l-109 -158zM524 104l-96 -65l-161 236l161 228l96 -70l-109 -158z" />
    <glyph glyph-name="logicalnot" unicode="&#xac;" horiz-adv-x="800" 
d="M100 312v200h600v-371h-200v171h-400z" />
    <glyph glyph-name="sfthyphen" unicode="&#xad;" horiz-adv-x="338" 
d="M8 174l33 122h246l-33 -122h-246z" />
    <glyph glyph-name="registered" unicode="&#xae;" horiz-adv-x="800" 
d="M400 -15q-163 0 -277 114t-114 277q0 162 114 276t277 114t277 -114t114 -276q0 -163 -114 -277t-277 -114zM400 87q127 0 208 80t81 209t-81 208.5t-208 79.5q-128 0 -208.5 -79t-80.5 -209t80.5 -209.5t208.5 -79.5zM483 345l99 -173h-101l-91 173h-66v-173h-86v409
h198q69 0 102 -26q37 -30 37 -99q0 -102 -92 -111zM324 423h93q42 0 56 6q24 8 24 38q0 24 -24 32q-14 4 -56 4h-93v-80z" />
    <glyph glyph-name="macron" unicode="&#xaf;" horiz-adv-x="600" 
d="M123 668v98h355v-98h-355z" />
    <glyph glyph-name="macron" unicode="&#x2c9;" horiz-adv-x="600" 
d="M123 668v98h355v-98h-355z" />
    <glyph glyph-name="degree" unicode="&#xb0;" horiz-adv-x="500" 
d="M249 754q71 0 122.5 -51t51.5 -123q0 -70 -51.5 -120.5t-122.5 -50.5t-120.5 50t-50.5 121q-1 72 49 123t122 51zM249 656q-31 0 -52 -22t-21 -52q0 -31 21.5 -53t52.5 -22t53 22t22 53q0 30 -22 52t-54 22z" />
    <glyph glyph-name="plusminus" unicode="&#xb1;" horiz-adv-x="800" 
d="M300 556v101h200v-101h200v-200h-200v-101h-200v101h-200v200h200zM100 0v200h600v-200h-600z" />
    <glyph glyph-name="twosuperior" unicode="&#xb2;" horiz-adv-x="500" 
d="M7 306l196 161q108 89 108 129q0 15 -11.5 25.5t-28.5 10.5q-42 0 -44 -57h-174q10 100 62 145.5t162 45.5q83 0 143 -41q67 -45 67 -119q0 -63 -54 -111q-45 -40 -118 -61v-5l84 11l95 6v-140h-487z" />
    <glyph glyph-name="threesuperior" unicode="&#xb3;" horiz-adv-x="500" 
d="M23 465h179q-1 -21 14 -36t37 -15q19 0 33.5 12t14.5 29t-13.5 29.5t-31.5 12.5q-8 0 -24 -2v94l14 -1q15 -1 26 8.5t11 23.5q0 30 -34 30q-15 0 -24 -10.5t-7 -24.5h-176q15 151 212 151q75 0 132 -29q70 -36 70 -101q0 -63 -60 -87v-4q38 -9 59.5 -37t21.5 -65
q0 -75 -75 -113q-60 -31 -147 -31q-99 0 -159 37q-69 42 -73 129z" />
    <glyph glyph-name="acute" unicode="&#xb4;" horiz-adv-x="420" 
d="M213 766l125 -83l-165 -144l-91 62z" />
    <glyph glyph-name="mu" unicode="&#xb5;" horiz-adv-x="697" 
d="M49 528h256v-274q0 -64 44 -64t44 64v274h256v-300q0 -117 -88 -184q-77 -59 -182 -59q-47 0 -104 19l30 -223h-256v747z" />
    <glyph glyph-name="mu" unicode="&#x3bc;" horiz-adv-x="697" 
d="M49 528h256v-274q0 -64 44 -64t44 64v274h256v-300q0 -117 -88 -184q-77 -59 -182 -59q-47 0 -104 19l30 -223h-256v747z" />
    <glyph glyph-name="paragraph" unicode="&#xb6;" horiz-adv-x="832" 
d="M310 754h466v-190h-66v-783h-190v783h-54v-783h-190v450q-100 10 -161 82.5t-61 173.5q0 115 72 191t184 76z" />
    <glyph glyph-name="ch270" unicode="&#xb7;" horiz-adv-x="249" 
d="M38 348q0 34 23 57t57 23t57.5 -23t23.5 -57t-23.5 -57.5t-57.5 -23.5t-57 23.5t-23 57.5z" />
    <glyph glyph-name="ch270" unicode="&#x2219;" horiz-adv-x="249" 
d="M38 348q0 34 23 57t57 23t57.5 -23t23.5 -57t-23.5 -57.5t-57.5 -23.5t-57 23.5t-23 57.5z" />
    <glyph glyph-name="cedilla" unicode="&#xb8;" horiz-adv-x="420" 
d="M184 -249l-101 88l159 146l96 -82z" />
    <glyph glyph-name="onesuperior" unicode="&#xb9;" horiz-adv-x="500" 
d="M124 608v143l252 7v-452h-177v307z" />
    <glyph glyph-name="ordmasculine" unicode="&#xba;" horiz-adv-x="420" 
d="M210 766q90 0 147 -43q62 -47 62 -128q0 -76 -64 -122q-59 -42 -145 -42t-145 42q-64 46 -64 122q0 81 62 128q57 43 147 43zM210 642q-21 0 -34 -13t-13 -33q0 -18 13.5 -29.5t33.5 -11.5t33.5 11.5t13.5 29.5q0 20 -13 33t-34 13zM417 277h-414v107h414v-107z" />
    <glyph glyph-name="guillemotright" unicode="&#xbb;" horiz-adv-x="572" 
d="M363 39l-96 65l109 171l-109 158l96 70l161 -228zM144 39l-96 65l109 171l-109 158l96 70l161 -228z" />
    <glyph glyph-name="onequarter" unicode="&#xbc;" horiz-adv-x="1248" 
d="M100 608v143l252 7v-452h-177v307zM901 279l-63 -72v-2l86 4v68q0 18 8 37l-4 2q-9 -16 -27 -37zM1081 91l5 -91h-169l7 91l-249 -5v119l200 247h211v-243l62 4v-127zM285 0l517 754h109l-514 -754h-112z" />
    <glyph glyph-name="onehalf" unicode="&#xbd;" horiz-adv-x="1248" 
d="M100 608v143l252 7v-452h-177v307zM661 0l196 161q108 89 108 129q0 15 -11.5 25.5t-28.5 10.5q-42 0 -44 -57h-174q10 100 62 145.5t162 45.5q83 0 143 -41q67 -45 67 -119q0 -63 -54 -111q-45 -40 -118 -61v-5l84 11l95 6v-140h-487zM258 0l517 754h108l-514 -754h-111
z" />
    <glyph glyph-name="threequarters" unicode="&#xbe;" horiz-adv-x="1248" 
d="M901 279l-63 -72v-2l86 4v68q0 18 8 37l-4 2q-9 -16 -27 -37zM1081 91l5 -91h-169l7 91l-249 -5v119l200 247h211v-243l62 4v-127zM343 0l517 754h109l-514 -754h-112zM100 465h179q-1 -21 14 -36t37 -15q19 0 33.5 12t14.5 29t-13.5 29.5t-31.5 12.5q-8 0 -24 -2v94
l14 -1q15 -1 26 8.5t11 23.5q0 30 -34 30q-15 0 -24 -10.5t-7 -24.5h-176q15 151 212 151q75 0 132 -29q70 -36 70 -101q0 -63 -60 -87v-4q38 -9 59.5 -37t21.5 -65q0 -75 -75 -113q-60 -31 -147 -31q-99 0 -159 37q-69 42 -73 129z" />
    <glyph glyph-name="questiondown" unicode="&#xbf;" horiz-adv-x="697" 
d="M431 299v-194q-34 10 -51 10q-38 0 -62 -20q-27 -22 -27 -59q0 -50 48 -50q23 0 37 19.5t15 44.5h257q-4 -120 -94 -197q-86 -74 -208 -74q-131 0 -215 70q-89 75 -89 203q0 127 93 195q83 61 214 61q42 0 82 -9zM343 608q59 0 102 -33q47 -37 47 -94q0 -56 -47 -92
q-43 -32 -102 -32t-102 32q-47 36 -47 92q0 57 47 94q43 33 102 33z" />
    <glyph glyph-name="Agrave" unicode="&#xc0;" horiz-adv-x="823" 
d="M433 873l-23 -43l-24 23l-212 109l118 54zM828 0h-290l-25 94h-207l-22 -94h-290l262 754h303zM465 273l-32 133q-8 32 -18 97h-10l-50 -230h110z" />
    <glyph glyph-name="Aacute" unicode="&#xc1;" horiz-adv-x="823" 
d="M306 94l-22 -94h-290l262 754h303l269 -754h-290l-25 94h-207zM355 273h110l-32 133q-8 32 -18 97h-10zM433 853l-24 -23l-23 43l141 143l118 -54z" />
    <glyph glyph-name="Acircumflex" unicode="&#xc2;" horiz-adv-x="823" 
d="M306 94l-22 -94h-290l262 754h303l269 -754h-290l-25 94h-207zM355 273h110l-32 133q-8 32 -18 97h-10zM255 790l-66 41l220 155l217 -157l-67 -40l-150 73z" />
    <glyph glyph-name="Atilde" unicode="&#xc3;" horiz-adv-x="823" 
d="M306 94l-22 -94h-290l262 754h303l269 -754h-290l-25 94h-207zM355 273h110l-32 133q-8 32 -18 97h-10zM584 980l55 -27q-30 -33 -83 -74q-68 -53 -102 -57q-51 -6 -84 34q-20 24 -56 21q-37 -3 -83 -49l-53 27q32 36 85 70q58 37 99 41q29 3 74 -32q31 -24 57 -22
q34 6 91 68z" />
    <glyph glyph-name="Adieresis" unicode="&#xc4;" horiz-adv-x="823" 
d="M306 94l-22 -94h-290l262 754h303l269 -754h-290l-25 94h-207zM355 273h110l-32 133q-8 34 -18 97h-10zM291 989q35 0 59 -24t24 -59q0 -34 -24 -58.5t-59 -24.5q-34 0 -58.5 24.5t-24.5 58.5q0 35 24.5 59t58.5 24zM534 989q35 0 59 -24t24 -59q0 -34 -24 -58.5
t-59 -24.5q-34 0 -58.5 24.5t-24.5 58.5q0 35 24.5 59t58.5 24z" />
    <glyph glyph-name="Aring" unicode="&#xc5;" horiz-adv-x="823" 
d="M306 94l-22 -94h-290l262 754h303l269 -754h-290l-25 94h-207zM355 273h110l-32 133q-8 34 -18 97h-10zM412 989q64 0 105 -26q49 -30 49 -90t-50 -90q-40 -24 -104 -24t-104 24q-50 30 -50 90t49 90q41 26 105 26zM412 917q-59 0 -59 -43t59 -43t59 43t-59 43z" />
    <glyph glyph-name="AE" unicode="&#xc6;" horiz-adv-x="1060" 
d="M355 273h112l-42 154q-7 26 -11 75h-8q-5 -54 -14 -87zM539 0l-26 96h-205l-24 -96h-288l263 754h530l70 -206h-225l24 -72h226l69 -196h-223l25 -74h226l72 -206h-514z" />
    <glyph glyph-name="Ccedilla" unicode="&#xc7;" horiz-adv-x="656" 
d="M613 735l8 -287q-82 76 -161 76q-62 0 -105.5 -43t-43.5 -104q0 -62 45.5 -104.5t107.5 -42.5q85 0 157 70l-8 -282q-63 -30 -195 -30q-161 0 -272 110.5t-111 271.5q0 165 114.5 280.5t279.5 115.5q94 0 184 -31zM302 -249l-101 88l159 146l96 -82z" />
    <glyph glyph-name="Egrave" unicode="&#xc8;" horiz-adv-x="624" 
d="M58 0v754h507v-206h-231v-72h211v-196h-211v-74h239v-206h-515zM332 873l-23 -43l-24 23l-212 109l118 54z" />
    <glyph glyph-name="Eacute" unicode="&#xc9;" horiz-adv-x="624" 
d="M58 0v754h507v-206h-231v-72h211v-196h-211v-74h239v-206h-515zM332 853l-24 -23l-23 43l141 143l118 -54z" />
    <glyph glyph-name="Ecircumflex" unicode="&#xca;" horiz-adv-x="624" 
d="M58 0v754h507v-206h-231v-72h211v-196h-211v-74h239v-206h-515zM156 800l-66 41l220 155l217 -157l-67 -40l-150 73z" />
    <glyph glyph-name="Edieresis" unicode="&#xcb;" horiz-adv-x="624" 
d="M58 0v754h507v-206h-231v-72h211v-196h-211v-74h239v-206h-515zM191 989q35 0 59 -24t24 -59q0 -34 -24 -58.5t-59 -24.5q-34 0 -58.5 24.5t-24.5 58.5q0 35 24.5 59t58.5 24zM434 989q35 0 59 -24t24 -59q0 -34 -24 -58.5t-59 -24.5q-34 0 -58.5 24.5t-24.5 58.5
q0 35 24.5 59t58.5 24z" />
    <glyph glyph-name="Igrave" unicode="&#xcc;" horiz-adv-x="403" 
d="M64 0v754h274v-754h-274zM223 873l-23 -43l-24 23l-212 109l118 54z" />
    <glyph glyph-name="Iacute" unicode="&#xcd;" horiz-adv-x="403" 
d="M64 0v754h274v-754h-274zM222 852l-24 -23l-23 43l141 143l118 -54z" />
    <glyph glyph-name="Icircumflex" unicode="&#xce;" horiz-adv-x="403" 
d="M64 0v754h274v-754h-274zM52 775l-48 99l200 115l197 -117l-47 -100l-150 73z" />
    <glyph glyph-name="Idieresis" unicode="&#xcf;" horiz-adv-x="403" 
d="M64 0v754h274v-754h-274zM81 989q35 0 59 -24t24 -59q0 -34 -24 -58.5t-59 -24.5q-34 0 -58.5 24.5t-24.5 58.5q0 35 24.5 59t58.5 24zM324 989q35 0 59 -24t24 -59q0 -34 -24 -58.5t-59 -24.5q-34 0 -58.5 24.5t-24.5 58.5q0 35 24.5 59t58.5 24z" />
    <glyph glyph-name="Eth" unicode="&#xd0;" horiz-adv-x="827" 
d="M64 0v320h-60v107h60v327h279q203 0 318 -90q129 -100 129 -298q0 -166 -105.5 -266t-273.5 -100h-347zM338 518v-91h70v-107h-70v-94h17q72 0 115 33q46 37 46 108q0 151 -161 151h-17z" />
    <glyph glyph-name="Ntilde" unicode="&#xd1;" horiz-adv-x="872" 
d="M58 0v754h263l246 -418h8q-23 132 -23 192v226h262v-754h-262l-241 396h-8q17 -98 17 -151v-245h-262zM319 828v0l-85 58q62 103 141 103q28 0 68 -22.5t55 -22.5q27 0 49 46l91 -50q-57 -111 -134 -111q-27 0 -56 13l-45 20q-27 12 -36 12q-26 0 -48 -46z" />
    <glyph glyph-name="Ograve" unicode="&#xd2;" horiz-adv-x="904" 
d="M452 766q176 0 294 -106q123 -111 123 -285q0 -177 -121 -284q-117 -103 -296 -103t-296 103q-121 107 -121 284q0 174 123 285q118 106 294 106zM452 518q-63 0 -102 -42t-39 -105t39 -104t102 -41t102 41t39 104t-39 105t-102 42zM475 884l-23 -43l-24 23l-212 109
l118 54z" />
    <glyph glyph-name="Oacute" unicode="&#xd3;" horiz-adv-x="904" 
d="M452 766q176 0 294 -106q123 -111 123 -285q0 -177 -121 -284q-117 -103 -296 -103t-296 103q-121 107 -121 284q0 174 123 285q118 106 294 106zM452 518q-63 0 -102 -42t-39 -105t39 -104t102 -41t102 41t39 104t-39 105t-102 42zM475 864l-24 -23l-23 43l141 143
l118 -54z" />
    <glyph glyph-name="Ocircumflex" unicode="&#xd4;" horiz-adv-x="904" 
d="M452 766q176 0 294 -106q123 -111 123 -285q0 -177 -121 -284q-117 -103 -296 -103t-296 103q-121 107 -121 284q0 174 123 285q118 106 294 106zM452 518q-63 0 -102 -42t-39 -105t39 -104t102 -41t102 41t39 104t-39 105t-102 42zM298 800l-66 41l220 155l217 -157
l-67 -40l-150 73z" />
    <glyph glyph-name="Otilde" unicode="&#xd5;" horiz-adv-x="904" 
d="M452 766q176 0 294 -106q123 -111 123 -285q0 -177 -121 -284q-117 -103 -296 -103t-296 103q-121 107 -121 284q0 174 123 285q118 106 294 106zM452 518q-63 0 -102 -42t-39 -105t39 -104t102 -41t102 41t39 104t-39 105t-102 42zM626 994l55 -27q-30 -33 -83 -74
q-68 -53 -102 -57q-51 -6 -84 34q-20 24 -56 21q-37 -3 -83 -49l-53 27q32 36 85 70q58 37 99 41q29 3 74 -32q31 -24 57 -22q34 6 91 68z" />
    <glyph glyph-name="Odieresis" unicode="&#xd6;" horiz-adv-x="904" 
d="M452 766q176 0 294 -107q123 -110 123 -284q0 -177 -122 -284q-117 -103 -295 -103t-295 103q-122 107 -122 284q0 174 123 284q118 107 294 107zM452 518q-63 0 -102 -42.5t-39 -104.5q0 -64 39.5 -104.5t101.5 -40.5t101.5 40.5t39.5 104.5q0 62 -39 104.5t-102 42.5z
M331 989q35 0 59 -24t24 -59q0 -34 -24 -58.5t-59 -24.5q-34 0 -58.5 24.5t-24.5 58.5q0 35 24.5 59t58.5 24zM574 989q35 0 59 -24t24 -59q0 -34 -24 -58.5t-59 -24.5q-34 0 -58.5 24.5t-24.5 58.5q0 35 24.5 59t58.5 24z" />
    <glyph glyph-name="multiply" unicode="&#xd7;" horiz-adv-x="800" 
d="M259 300l-159 159l142 141l158 -159l159 159l141 -141l-158 -159l158 -159l-141 -141l-159 159l-158 -159l-142 141z" />
    <glyph glyph-name="Oslash" unicode="&#xd8;" horiz-adv-x="904" 
d="M107 -41l78 112q-73 45 -113 131q-37 80 -37 173q0 174 123 284q118 107 294 107q109 0 190 -35l81 121l68 -47l-77 -112q155 -124 155 -318q0 -177 -122 -285q-116 -102 -295 -102q-98 0 -195 41l-81 -116zM452 518q-63 0 -102 -42.5t-39 -104.5q0 -64 39.5 -104.5
t101.5 -40.5t101.5 40.5t39.5 104.5q0 62 -39 104.5t-102 42.5z" />
    <glyph glyph-name="Ugrave" unicode="&#xd9;" horiz-adv-x="815" 
d="M482 754h274v-446q0 -161 -96 -243q-90 -77 -253 -77t-253 77q-96 82 -96 243v446h274v-420q0 -57 10 -78q16 -33 65 -33t65 33q10 21 10 78v420zM431 853l-23 -43l-24 23l-212 109l118 54z" />
    <glyph glyph-name="Uacute" unicode="&#xda;" horiz-adv-x="815" 
d="M482 754h274v-446q0 -161 -96 -243q-90 -77 -253 -77t-253 77q-96 82 -96 243v446h274v-420q0 -57 10 -78q16 -33 65 -33t65 33q10 21 10 78v420zM431 833l-24 -23l-23 43l141 143l118 -54z" />
    <glyph glyph-name="Ucircumflex" unicode="&#xdb;" horiz-adv-x="815" 
d="M482 754h274v-446q0 -160 -95 -242q-90 -78 -254 -78t-254 78q-95 82 -95 242v446h274v-420q0 -56 10 -78q16 -33 65 -33t65 33q10 22 10 78v420zM258 775l-48 99l200 115l197 -117l-47 -100l-150 73z" />
    <glyph glyph-name="Udieresis" unicode="&#xdc;" horiz-adv-x="815" 
d="M482 754h274v-446q0 -160 -95 -242q-90 -78 -254 -78t-254 78q-95 82 -95 242v446h274v-420q0 -56 10 -78q16 -33 65 -33t65 33q10 22 10 78v420zM287 989q35 0 59 -24t24 -59q0 -34 -24 -58.5t-59 -24.5q-34 0 -58.5 24.5t-24.5 58.5q0 35 24.5 59t58.5 24zM530 989
q35 0 59 -24t24 -59q0 -34 -24 -58.5t-59 -24.5q-34 0 -58.5 24.5t-24.5 58.5q0 35 24.5 59t58.5 24z" />
    <glyph glyph-name="Yacute" unicode="&#xdd;" horiz-adv-x="773" 
d="M-8 754h310l84 -197h8q6 20 25 71l54 126h308l-258 -429v-325h-268v325zM411 823l-24 -23l-23 43l141 143l118 -54z" />
    <glyph glyph-name="Thorn" unicode="&#xde;" horiz-adv-x="728" 
d="M326 448v-131h27q100 0 100 69q0 39 -34 53q-21 9 -67 9h-26zM326 754v-100h83q138 0 219 -68q87 -74 87 -209q0 -115 -67 -182.5t-182 -67.5h-140v-127h-264v754h264z" />
    <glyph glyph-name="germandbls" unicode="&#xdf;" horiz-adv-x="769" 
d="M312 486v-486h-258v517q0 157 68 228q72 74 241 74q113 0 191 -48q90 -56 90 -158q0 -58 -13 -89q-17 -38 -62 -66q136 -45 136 -220q0 -119 -82 -181q-75 -57 -204 -57h-43v144q54 6 69 56q6 21 6 87q0 73 -75 73v142q28 0 48 14t20 39q0 50 -64 50q-47 0 -61 -42
q-7 -21 -7 -77z" />
    <glyph glyph-name="agrave" unicode="&#xe0;" horiz-adv-x="720" 
d="M288 268q0 -78 67 -78q34 0 52 24q17 21 17 56q0 31 -19 51t-50 20q-30 0 -48.5 -21.5t-18.5 -51.5zM416 0l8 70h-6q-39 -42 -72 -60q-39 -22 -90 -22q-102 0 -166 89q-58 80 -58 186q0 110 59 191q65 89 172 89q100 0 155 -75h6l-8 63h253v-531h-253zM366 682l-20 -38
l-22 20l-191 98l106 49z" />
    <glyph glyph-name="aacute" unicode="&#xe1;" horiz-adv-x="720" 
d="M288 268q0 -78 67 -78q34 0 52 24q17 21 17 56q0 31 -19 51t-50 20q-30 0 -48.5 -21.5t-18.5 -51.5zM416 0l8 70h-6q-39 -42 -72 -60q-39 -22 -90 -22q-102 0 -166 89q-58 80 -58 186q0 110 59 191q65 89 172 89q100 0 155 -75h6l-8 63h253v-531h-253zM366 664l-22 -20
l-20 38l127 129l106 -49z" />
    <glyph glyph-name="acircumflex" unicode="&#xe2;" horiz-adv-x="720" 
d="M288 268q0 -78 67 -78q34 0 52 24q17 21 17 56q0 31 -19 51t-50 20q-30 0 -48.5 -21.5t-18.5 -51.5zM416 0l8 70h-6q-39 -42 -72 -60q-39 -22 -90 -22q-102 0 -166 89q-58 80 -58 186q0 110 59 191q65 89 172 89q100 0 155 -75h6l-8 63h253v-531h-253zM207 589l-59 37
l198 139l195 -141l-60 -36l-135 66z" />
    <glyph glyph-name="atilde" unicode="&#xe3;" horiz-adv-x="720" 
d="M288 268q0 -78 67 -78q34 0 52 24q17 21 17 56q0 31 -19 51t-50 20q-30 0 -48.5 -21.5t-18.5 -51.5zM416 0l8 70h-6q-39 -42 -72 -60q-39 -22 -90 -22q-102 0 -166 89q-58 80 -58 186q0 110 59 191q65 89 172 89q100 0 155 -75h6l-8 63h253v-531h-253zM502 787l50 -25
q-33 -34 -75 -67q-60 -47 -92 -51q-47 -5 -75 31q-21 22 -51 19q-33 -3 -74 -44l-48 24q30 33 76 63q53 34 89 37q27 2 67 -29q27 -21 51 -20q34 7 82 62z" />
    <glyph glyph-name="adieresis" unicode="&#xe4;" horiz-adv-x="720" 
d="M288 268q0 -78 67 -78q34 0 53 25q16 21 16 55q0 31 -19 51t-50 20q-30 0 -48.5 -21.5t-18.5 -51.5zM416 0l8 70h-6q-39 -42 -71 -60q-40 -22 -91 -22q-102 0 -166 89q-58 80 -58 186q0 109 59 190q66 90 172 90q100 0 155 -75h6l-8 63h253v-531h-253zM239 766
q35 0 59 -24t24 -59q0 -34 -24 -58.5t-59 -24.5q-34 0 -58.5 24.5t-24.5 58.5q0 35 24.5 59t58.5 24zM482 766q35 0 59 -24t24 -59q0 -34 -24 -58.5t-59 -24.5q-34 0 -58.5 24.5t-24.5 58.5q0 35 24.5 59t58.5 24z" />
    <glyph glyph-name="aring" unicode="&#xe5;" horiz-adv-x="720" 
d="M288 268q0 -78 67 -78q34 0 53 25q16 21 16 55q0 31 -19 51t-50 20q-30 0 -48.5 -21.5t-18.5 -51.5zM416 0l8 70h-6q-39 -42 -71 -60q-40 -22 -91 -22q-102 0 -166 89q-58 80 -58 186q0 109 59 190q66 90 172 90q100 0 155 -75h6l-8 63h253v-531h-253zM360 766
q64 0 105 -26q49 -30 49 -90t-50 -90q-40 -24 -104 -24t-104 24q-50 30 -50 90t49 90q41 26 105 26zM360 694q-59 0 -59 -43t59 -43t59 43t-59 43z" />
    <glyph glyph-name="ae" unicode="&#xe6;" horiz-adv-x="1140" 
d="M731 334h121q0 27 -18 47.5t-45 20.5q-28 0 -43 -19.5t-15 -48.5zM360 122q41 0 76 12q48 16 48 48q0 25 -46 38q-34 9 -70 9q-99 0 -99 -54q0 -53 91 -53zM1106 224h-375q0 -91 61 -91q43 0 52 44h251q-24 -90 -116 -142q-83 -47 -183 -47q-72 0 -138 22q-72 24 -114 68
q-113 -90 -258 -90q-99 0 -169 42q-85 50 -85 141q0 96 75 143q62 40 164 40q75 0 156 -26q8 99 -126 99q-96 0 -247 -51v127q149 40 250 40q82 0 132 -17q63 -21 108 -76q102 93 237 93q146 0 238 -85q96 -90 87 -234z" />
    <glyph glyph-name="ccedilla" unicode="&#xe7;" horiz-adv-x="514" 
d="M466 516v-215q-52 44 -95 44q-36 0 -58.5 -21.5t-22.5 -57.5q0 -31 22.5 -53.5t53.5 -22.5q41 0 100 41l-11 -218q-77 -25 -130 -25q-133 0 -212 71q-83 74 -83 204q0 119 78 199.5t196 80.5q79 0 162 -27zM231 -249l-101 88l159 146l96 -82z" />
    <glyph glyph-name="egrave" unicode="&#xe8;" horiz-adv-x="698" 
d="M664 222h-375q0 -91 61 -91q43 0 52 44h251q-24 -90 -117 -142q-81 -45 -182 -45q-135 0 -223 65q-97 73 -97 204q0 130 89 209q85 77 216 77q147 0 239 -86q95 -89 86 -235zM289 332h121q0 28 -18 48.5t-45 20.5q-58 0 -58 -69zM362 682l-20 -38l-22 20l-191 98l106 49z
" />
    <glyph glyph-name="eacute" unicode="&#xe9;" horiz-adv-x="698" 
d="M664 222h-375q0 -91 61 -91q43 0 52 44h251q-24 -90 -117 -142q-81 -45 -182 -45q-135 0 -223 65q-97 73 -97 204q0 130 89 209q85 77 216 77q147 0 239 -86q95 -89 86 -235zM289 332h121q0 28 -18 48.5t-45 20.5q-58 0 -58 -69zM362 664l-22 -20l-20 38l127 129l106 -49
z" />
    <glyph glyph-name="ecircumflex" unicode="&#xea;" horiz-adv-x="698" 
d="M664 222h-375q0 -91 61 -91q43 0 52 44h251q-24 -90 -117 -142q-81 -45 -182 -45q-135 0 -223 65q-97 73 -97 204q0 130 89 209q85 77 216 77q147 0 239 -86q95 -89 86 -235zM289 332h121q0 28 -18 48.5t-45 20.5q-58 0 -58 -69zM202 589l-59 37l198 139l195 -141
l-60 -36l-135 66z" />
    <glyph glyph-name="edieresis" unicode="&#xeb;" horiz-adv-x="698" 
d="M664 222h-375q0 -91 61 -91q43 0 52 44h251q-24 -90 -116 -141q-82 -46 -183 -46q-135 0 -223 66q-97 73 -97 203q0 129 89 209q86 77 216 77q146 0 238 -86q96 -90 87 -235zM289 332h121q0 28 -18 48.5t-45 20.5q-28 0 -43 -19.5t-15 -49.5zM228 766q35 0 59 -24t24 -59
q0 -34 -24 -58.5t-59 -24.5q-34 0 -58.5 24.5t-24.5 58.5q0 35 24.5 59t58.5 24zM471 766q35 0 59 -24t24 -59q0 -34 -24 -58.5t-59 -24.5q-34 0 -58.5 24.5t-24.5 58.5q0 35 24.5 59t58.5 24z" />
    <glyph glyph-name="igrave" unicode="&#xec;" horiz-adv-x="392" 
d="M67 0v531h258v-531h-258zM213 672l-20 -38l-22 20l-191 98l106 49z" />
    <glyph glyph-name="iacute" unicode="&#xed;" horiz-adv-x="392" 
d="M67 0v531h258v-531h-258zM213 654l-22 -20l-20 38l127 129l106 -49z" />
    <glyph glyph-name="icircumflex" unicode="&#xee;" horiz-adv-x="392" 
d="M67 0v531h258v-531h-258zM46 552l-48 99l200 115l197 -117l-47 -100l-150 73z" />
    <glyph glyph-name="idieresis" unicode="&#xef;" horiz-adv-x="392" 
d="M67 0v531h258v-531h-258zM75 766q35 0 59 -24t24 -59q0 -34 -24 -58.5t-59 -24.5q-34 0 -58.5 24.5t-24.5 58.5q0 35 24.5 59t58.5 24zM318 766q35 0 59 -24t24 -59q0 -34 -24 -58.5t-59 -24.5q-34 0 -58.5 24.5t-24.5 58.5q0 35 24.5 59t58.5 24z" />
    <glyph glyph-name="eth" unicode="&#xf0;" horiz-adv-x="714" 
d="M357 342q-32 0 -52 -22t-20 -55q0 -32 21 -52.5t51 -20.5t51 20.5t21 52.5q0 33 -20 55t-52 22zM140 745l134 69q33 -12 64 -33l54 -38l138 71l50 -54l-121 -62q44 -32 91 -85q51 -58 86 -130q43 -92 43 -182q0 -141 -99 -230q-92 -83 -223 -83q-132 0 -223 70
q-99 76 -99 203q0 135 95 213q89 72 227 72q-21 44 -58 70l-141 -73l-49 53l140 73q-32 28 -109 76z" />
    <glyph glyph-name="ntilde" unicode="&#xf1;" horiz-adv-x="703" 
d="M302 531l-10 -85h6q45 52 73 70q41 27 98 27q93 0 142 -64q42 -57 42 -152v-327h-258v259q0 75 -44 75q-43 0 -43 -75v-259h-258v531h252zM235 605v0l-85 58q62 103 141 103q28 0 68 -22.5t55 -22.5q27 0 49 46l91 -50q-57 -111 -134 -111q-27 0 -56 13l-45 20
q-27 12 -36 12q-26 0 -48 -46z" />
    <glyph glyph-name="ograve" unicode="&#xf2;" horiz-adv-x="714" 
d="M357 543q139 0 227 -71q95 -77 95 -213q0 -127 -100 -202q-91 -69 -222 -69t-222 69q-100 75 -100 202q0 136 95 213q88 71 227 71zM357 341q-32 0 -52 -22.5t-20 -55.5q0 -31 20.5 -52t51.5 -21t51.5 21t20.5 52q0 33 -20 55.5t-52 22.5zM379 682l-20 -38l-22 20
l-191 98l106 49z" />
    <glyph glyph-name="oacute" unicode="&#xf3;" horiz-adv-x="714" 
d="M357 543q139 0 227 -71q95 -77 95 -213q0 -127 -100 -202q-91 -69 -222 -69t-222 69q-100 75 -100 202q0 136 95 213q88 71 227 71zM357 341q-32 0 -52 -22.5t-20 -55.5q0 -31 20.5 -52t51.5 -21t51.5 21t20.5 52q0 33 -20 55.5t-52 22.5zM379 664l-22 -20l-20 38
l127 129l106 -49z" />
    <glyph glyph-name="ocircumflex" unicode="&#xf4;" horiz-adv-x="714" 
d="M357 543q139 0 227 -71q95 -77 95 -213q0 -127 -100 -202q-91 -69 -222 -69t-222 69q-100 75 -100 202q0 136 95 213q88 71 227 71zM357 341q-32 0 -52 -22.5t-20 -55.5q0 -31 20.5 -52t51.5 -21t51.5 21t20.5 52q0 33 -20 55.5t-52 22.5zM219 589l-59 37l198 139
l195 -141l-60 -36l-135 66z" />
    <glyph glyph-name="otilde" unicode="&#xf5;" horiz-adv-x="714" 
d="M357 543q139 0 227 -71q95 -77 95 -213q0 -127 -100 -202q-91 -69 -222 -69t-222 69q-100 75 -100 202q0 136 95 213q88 71 227 71zM357 341q-32 0 -52 -22.5t-20 -55.5q0 -31 20.5 -52t51.5 -21t51.5 21t20.5 52q0 33 -20 55.5t-52 22.5zM515 787l50 -25
q-33 -34 -75 -67q-60 -47 -92 -51q-47 -5 -75 31q-21 22 -51 19q-33 -3 -74 -44l-48 24q30 33 76 63q53 34 89 37q27 2 67 -29q27 -21 51 -20q34 7 82 62z" />
    <glyph glyph-name="odieresis" unicode="&#xf6;" horiz-adv-x="714" 
d="M357 543q138 0 227 -72q95 -78 95 -212q0 -126 -99 -201q-91 -70 -223 -70t-223 70q-99 75 -99 201q0 134 95 212q89 72 227 72zM357 341q-32 0 -52 -22.5t-20 -55.5q0 -31 21 -52t51 -21t51 21t21 52q0 33 -20 55.5t-52 22.5zM236 766q35 0 59 -24t24 -59
q0 -34 -24 -58.5t-59 -24.5q-34 0 -58.5 24.5t-24.5 58.5q0 35 24.5 59t58.5 24zM479 766q35 0 59 -24t24 -59q0 -34 -24 -58.5t-59 -24.5q-34 0 -58.5 24.5t-24.5 58.5q0 35 24.5 59t58.5 24z" />
    <glyph glyph-name="divide" unicode="&#xf7;" horiz-adv-x="800" 
d="M100 200v200h600v-200h-600zM416 693q53 0 91.5 -38.5t38.5 -91.5t-38.5 -91.5t-91.5 -38.5t-91.5 38.5t-38.5 91.5t38.5 91.5t91.5 38.5zM416 167q53 0 91.5 -38.5t38.5 -91.5t-38.5 -91.5t-91.5 -38.5t-91.5 38.5t-38.5 91.5t38.5 91.5t91.5 38.5z" />
    <glyph glyph-name="oslash" unicode="&#xf8;" horiz-adv-x="714" 
d="M357 341q-32 0 -52 -22.5t-20 -55.5q0 -31 21 -52t51 -21t51 21t21 52q0 33 -20 55.5t-52 22.5zM484 524l71 96l55 -40l-62 -84q131 -77 131 -237q0 -126 -99 -201q-91 -70 -223 -70q-72 0 -129 22l-67 -92l-58 39l59 81q-60 34 -95 97q-32 60 -32 124q0 134 95 212
q89 72 227 72q65 0 127 -19z" />
    <glyph glyph-name="ugrave" unicode="&#xf9;" horiz-adv-x="697" 
d="M49 531h256v-274q0 -64 44 -64t44 64v274h256v-300q0 -120 -93 -185q-82 -58 -207 -58t-207 58q-93 65 -93 185v300zM370 654l-20 -38l-22 20l-191 98l106 49z" />
    <glyph glyph-name="uacute" unicode="&#xfa;" horiz-adv-x="697" 
d="M49 531h256v-274q0 -64 44 -64t44 64v274h256v-300q0 -120 -93 -185q-82 -58 -207 -58t-207 58q-93 65 -93 185v300zM371 636l-22 -20l-20 38l127 129l106 -49z" />
    <glyph glyph-name="ucircumflex" unicode="&#xfb;" horiz-adv-x="697" 
d="M49 531h256v-274q0 -64 44 -64t44 64v274h256v-300q0 -119 -92 -184q-82 -59 -208 -59t-208 59q-92 65 -92 184v300zM199 552l-48 99l200 115l197 -117l-47 -100l-150 73z" />
    <glyph glyph-name="udieresis" unicode="&#xfc;" horiz-adv-x="697" 
d="M49 531h256v-274q0 -64 44 -64t44 64v274h256v-300q0 -119 -92 -184q-82 -59 -208 -59t-208 59q-92 65 -92 184v300zM228 766q35 0 59 -24t24 -59q0 -34 -24 -58.5t-59 -24.5q-34 0 -58.5 24.5t-24.5 58.5q0 35 24.5 59t58.5 24zM471 766q35 0 59 -24t24 -59
q0 -34 -24 -58.5t-59 -24.5q-34 0 -58.5 24.5t-24.5 58.5q0 35 24.5 59t58.5 24z" />
    <glyph glyph-name="yacute" unicode="&#xfd;" horiz-adv-x="658" 
d="M-22 531h278l59 -208l15 -81h7l13 81l59 208h271l-340 -750h-272l137 272zM352 626l-22 -20l-20 38l127 129l106 -49z" />
    <glyph glyph-name="thorn" unicode="&#xfe;" horiz-adv-x="716" 
d="M363 341q-31 0 -48.5 -22t-17.5 -53q0 -32 17.5 -54t48.5 -22q29 0 49 26q18 23 18 52t-19.5 51t-47.5 22zM51 -219v1030h258v-237l-14 -127h9q16 44 63 71q44 25 96 25q105 0 166 -87q55 -77 55 -186q0 -105 -57 -188q-65 -94 -166 -94q-45 0 -89 23q-47 24 -68 62h-7
l12 -85v-207h-258z" />
    <glyph glyph-name="ydieresis" unicode="&#xff;" horiz-adv-x="658" 
d="M-22 531h278l59 -208l15 -81h7l13 81l59 208h271l-340 -750h-272l137 272zM208 766q35 0 59 -24t24 -59q0 -34 -24 -58.5t-59 -24.5q-34 0 -58.5 24.5t-24.5 58.5q0 35 24.5 59t58.5 24zM451 766q35 0 59 -24t24 -59q0 -34 -24 -58.5t-59 -24.5q-34 0 -58.5 24.5
t-24.5 58.5q0 35 24.5 59t58.5 24z" />
    <glyph glyph-name="glyph271" unicode="&#x102;" horiz-adv-x="823" 
d="M306 94l-22 -94h-290l262 754h303l269 -754h-290l-25 94h-207zM355 273h110l-32 133q-8 32 -18 97h-10zM219 960l59 -6q12 -32 53 -51q36 -16 75 -16t76 16q44 19 56 51l64 5q-4 -72 -66 -118q-57 -41 -132 -41q-76 0 -127 42.5t-58 117.5z" />
    <glyph glyph-name="glyph272" unicode="&#x103;" horiz-adv-x="720" 
d="M288 268q0 -78 67 -78q34 0 52 24q17 21 17 56q0 31 -19 51t-50 20q-30 0 -48.5 -21.5t-18.5 -51.5zM416 0l8 70h-6q-39 -42 -72 -60q-39 -22 -90 -22q-102 0 -166 89q-58 80 -58 186q0 110 59 191q65 89 172 89q100 0 155 -75h6l-8 63h253v-531h-253zM173 747l53 -5
q11 -29 48 -46q32 -14 67 -14q36 0 69 14q40 17 50 46l58 4q-4 -65 -60 -106q-51 -37 -118 -37q-69 0 -115 38t-52 106z" />
    <glyph glyph-name="Cacute" unicode="&#x106;" horiz-adv-x="711" 
d="M613 735l8 -287q-82 76 -161 76q-62 0 -105.5 -43t-43.5 -104q0 -62 45.5 -104.5t107.5 -42.5q85 0 157 70l-8 -282q-63 -30 -195 -30q-161 0 -272 110.5t-111 271.5q0 165 114.5 280.5t279.5 115.5q94 0 184 -31zM390 1021l125 -83l-165 -144l-91 62z" />
    <glyph glyph-name="cacute" unicode="&#x107;" horiz-adv-x="441" 
d="M466 516v-215q-52 44 -95 44q-36 0 -58.5 -21.5t-22.5 -57.5q0 -31 22.5 -53.5t53.5 -22.5q41 0 100 41l-11 -218q-77 -25 -130 -25q-133 0 -212 71q-83 74 -83 204q0 119 78 199.5t196 80.5q79 0 162 -27zM191 766l125 -83l-165 -144l-91 62z" />
    <glyph glyph-name="Ccaron" unicode="&#x10c;" horiz-adv-x="711" 
d="M613 735l8 -287q-82 76 -161 76q-62 0 -105.5 -43t-43.5 -104q0 -62 45.5 -104.5t107.5 -42.5q85 0 157 70l-8 -282q-63 -30 -195 -30q-161 0 -272 110.5t-111 271.5q0 165 114.5 280.5t279.5 115.5q94 0 184 -31zM326 1021l151 -71l151 71l48 -100l-199 -115l-199 115z
" />
    <glyph glyph-name="ccaron" unicode="&#x10d;" horiz-adv-x="441" 
d="M466 516v-215q-52 44 -95 44q-36 0 -58.5 -21.5t-22.5 -57.5q0 -31 22.5 -53.5t53.5 -22.5q41 0 100 41l-11 -218q-77 -25 -130 -25q-133 0 -212 71q-83 74 -83 204q0 119 78 199.5t196 80.5q79 0 162 -27zM127 766l151 -71l151 71l48 -100l-199 -115l-199 115z" />
    <glyph glyph-name="Dslash" unicode="&#x110;" horiz-adv-x="827" 
d="M64 0v320h-60v107h60v327h279q203 0 319 -90q128 -100 128 -298q0 -167 -105.5 -266.5t-273.5 -99.5h-347zM338 518v-91h70v-107h-70v-94h17q161 0 161 141q0 151 -161 151h-17z" />
    <glyph glyph-name="dcroat" unicode="&#x111;" horiz-adv-x="720" 
d="M354 341q-31 0 -48.5 -21.5t-17.5 -53.5t17.5 -54t48.5 -22q29 0 48 24.5t19 53.5t-19.5 51t-47.5 22zM414 565h-3l-63 -5v203l64 -4v92h258v-90l41 2v-203l-41 2v-562h-242l5 79h-6q-72 -91 -173 -91q-102 0 -164 88q-56 79 -56 185q0 111 54 191q61 91 167 91
q45 0 89 -23t71 -60h9z" />
    <glyph glyph-name="Gbreve" unicode="&#x11e;" horiz-adv-x="767" 
d="M436 444h423q-2 -120 -13 -171q-19 -87 -78 -151t-144.5 -99t-175.5 -35q-178 0 -294 101q-122 107 -122 283q0 181 120 289q116 105 298 105q109 0 212 -49q117 -55 158 -145l-256 -94q-32 58 -104 58q-70 0 -113 -53q-39 -50 -39 -122q0 -66 37 -112q40 -49 104 -49
q36 0 67 16q35 18 44 50h-124v178zM288 1021h78q21 -60 110 -60t110 60h79q-4 -73 -59.5 -123.5t-129.5 -50.5q-75 0 -128 48.5t-60 125.5z" />
    <glyph glyph-name="gbreve" unicode="&#x11f;" horiz-adv-x="492" 
d="M288 265q0 -33 20 -54t53 -21q31 0 48 21t17 53t-18 54.5t-49 22.5t-51 -22t-20 -54zM667 531v-500q0 -146 -108 -223q-95 -68 -247 -68q-107 0 -228 42l-26 9l57 179q76 -65 186 -65q51 0 82 33t36 84l5 54h-7q-19 -41 -65 -66q-42 -22 -91 -22q-103 0 -168 90
q-60 81 -60 188t59 188q66 89 170 89q100 0 155 -88h7l-7 76h250zM88 766h78q21 -60 110 -60t110 60h79q-4 -73 -59.5 -123.5t-129.5 -50.5q-75 0 -128 48.5t-60 125.5z" />
    <glyph glyph-name="glyph273" unicode="&#x128;" horiz-adv-x="403" 
d="M64 0v754h274v-754h-274zM374 988l55 -27q-30 -33 -83 -74q-68 -53 -102 -57q-51 -6 -84 34q-20 24 -56 21q-37 -3 -83 -49l-53 27q32 36 85 70q58 37 99 41q29 3 74 -32q31 -24 57 -22q34 6 91 68z" />
    <glyph glyph-name="glyph274" unicode="&#x129;" horiz-adv-x="392" 
d="M67 0v531h258v-531h-258zM348 777l50 -25q-33 -34 -75 -67q-60 -47 -92 -51q-47 -5 -75 31q-21 22 -51 19q-33 -3 -74 -44l-48 24q30 33 76 63q53 34 89 37q27 2 67 -29q27 -21 51 -20q34 7 82 62z" />
    <glyph glyph-name="Idotaccent" unicode="&#x130;" horiz-adv-x="429" 
d="M64 0v754h274v-754h-274zM237 1021q35 0 59 -24t24 -59q0 -34 -24 -58.5t-59 -24.5q-34 0 -58.5 24.5t-24.5 58.5q0 35 24.5 59t58.5 24z" />
    <glyph glyph-name="dotlessi" unicode="&#x131;" horiz-adv-x="392" 
d="M67 0v531h258v-531h-258z" />
    <glyph glyph-name="Lslash" unicode="&#x141;" horiz-adv-x="649" 
d="M128 0v214l-91 -70v135l91 68v407h274v-227l120 91v-135l-120 -91v-150h228v-242h-502z" />
    <glyph glyph-name="lslash" unicode="&#x142;" horiz-adv-x="489" 
d="M113 0v299l-82 -61v134l82 60v379h258v-223l87 63v-134l-87 -64v-453h-258z" />
    <glyph glyph-name="OE" unicode="&#x152;" horiz-adv-x="1186" 
d="M321 373q0 -56 40.5 -96.5t97.5 -40.5q65 0 101 40.5t36 105.5t-36.5 103t-101.5 38q-61 0 -99 -44t-38 -106zM615 0v95h-2q-36 -52 -102 -80q-62 -27 -130 -27q-150 0 -250 121q-94 114 -94 267q0 154 95 268q100 122 251 122q71 0 131 -29q66 -31 99 -88h2v105h506
v-206h-233v-72h213v-196h-213v-74h242v-206h-515z" />
    <glyph glyph-name="oe" unicode="&#x153;" horiz-adv-x="1056" 
d="M647 334h121q0 27 -18 47.5t-45 20.5q-28 0 -43 -19.5t-15 -48.5zM1022 224h-375q0 -91 61 -91q43 0 52 44h251q-24 -90 -117 -143q-83 -48 -182 -46q-124 3 -190 73q-89 -73 -211 -73q-115 0 -198.5 78t-83.5 193q0 126 88 206q85 78 213 78q51 0 106 -19q62 -21 91 -55
q77 74 178 74q141 0 231 -85q95 -90 86 -234zM351 340q-32 0 -52 -22t-20 -55q0 -31 21 -51.5t51 -20.5t51 20.5t21 51.5q0 33 -20 55t-52 22z" />
    <glyph glyph-name="Scedilla" unicode="&#x15e;" horiz-adv-x="656" 
d="M23 57l84 213l14 -11q88 -69 171 -69q25 0 45 10q25 12 25 35q0 22 -21 32q-10 4 -40 10l-55 10q-87 16 -139 63q-58 53 -58 137q0 128 102 207q94 72 225 72q130 0 239 -66l-74 -193q-84 57 -159 57q-59 0 -59 -40q0 -18 20 -27q7 -4 35 -10l62 -14q200 -45 200 -216
q0 -127 -102 -202q-92 -67 -225 -67q-154 0 -290 69zM223 -249l-101 88l159 146l96 -82z" />
    <glyph glyph-name="scedilla" unicode="&#x15f;" horiz-adv-x="383" 
d="M9 47l66 160l16 -10q78 -49 132 -49q38 0 38 29q0 19 -18 26q-7 3 -34 7q-166 23 -166 147q0 92 81 143q69 43 167 43q124 0 206 -45l-63 -147q-60 44 -119 44q-37 0 -37 -24q0 -17 18 -25q9 -3 46 -9q80 -13 118 -43q49 -37 49 -111q0 -96 -83 -149q-72 -46 -174 -46
q-105 0 -243 59zM126 -249l-101 88l159 146l96 -82z" />
    <glyph glyph-name="Scaron" unicode="&#x160;" horiz-adv-x="663" 
d="M23 57l84 213l14 -11q88 -69 171 -69q25 0 45 10q25 12 25 35q0 22 -21 32q-10 4 -40 10l-55 10q-87 16 -139 63q-58 53 -58 137q0 128 102 207q94 72 225 72q130 0 239 -66l-74 -193q-84 57 -159 57q-59 0 -59 -40q0 -18 20 -27q7 -4 35 -10l62 -14q200 -45 200 -216
q0 -127 -102 -202q-92 -67 -225 -67q-154 0 -290 69zM181 989l151 -71l151 71l48 -100l-199 -115l-199 115z" />
    <glyph glyph-name="scaron" unicode="&#x161;" horiz-adv-x="533" 
d="M9 47l66 160l16 -10q78 -49 132 -49q38 0 38 29q0 19 -18 26q-7 3 -34 7q-166 23 -166 147q0 92 81 143q69 43 167 43q124 0 206 -45l-63 -147q-60 44 -119 44q-37 0 -37 -24q0 -17 18 -25q9 -3 46 -9q80 -13 118 -43q49 -37 49 -111q0 -96 -83 -149q-72 -46 -174 -46
q-105 0 -243 59zM116 766l151 -71l151 71l48 -100l-199 -115l-199 115z" />
    <glyph glyph-name="ch903" unicode="&#x168;" horiz-adv-x="815" 
d="M482 754h274v-446q0 -161 -96 -243q-90 -77 -253 -77t-253 77q-96 82 -96 243v446h274v-420q0 -57 10 -78q16 -33 65 -33t65 33q10 21 10 78v420zM582 974l55 -27q-30 -33 -83 -74q-68 -53 -102 -57q-51 -6 -84 34q-20 24 -56 21q-37 -3 -83 -49l-53 27q32 36 85 70
q58 37 99 41q29 3 74 -32q31 -24 57 -22q34 6 91 68z" />
    <glyph glyph-name="ch904" unicode="&#x169;" horiz-adv-x="697" 
d="M49 531h256v-274q0 -64 44 -64t44 64v274h256v-300q0 -120 -93 -185q-82 -58 -207 -58t-207 58q-93 65 -93 185v300zM507 759l50 -25q-33 -34 -75 -67q-60 -47 -92 -51q-47 -5 -75 31q-21 22 -51 19q-33 -3 -74 -44l-48 24q30 33 76 63q53 34 89 37q27 2 67 -29
q27 -21 51 -20q34 7 82 62z" />
    <glyph glyph-name="Ydieresis" unicode="&#x178;" horiz-adv-x="773" 
d="M-8 754h310l84 -197h8q8 24 25 71l54 126h308l-258 -429v-325h-268v325zM266 989q35 0 59 -24t24 -59q0 -34 -24 -58.5t-59 -24.5q-34 0 -58.5 24.5t-24.5 58.5q0 35 24.5 59t58.5 24zM509 989q35 0 59 -24t24 -59q0 -34 -24 -58.5t-59 -24.5q-34 0 -58.5 24.5
t-24.5 58.5q0 35 24.5 59t58.5 24z" />
    <glyph glyph-name="Zcaron" unicode="&#x17d;" horiz-adv-x="771" 
d="M67 754h702l-328 -521l3 -4q42 4 64 4h228v-233h-734l272 441q20 32 67 91l-4 3q-38 -9 -65 -9h-205v228zM235 989l151 -71l151 71l48 -100l-199 -115l-199 115z" />
    <glyph glyph-name="zcaron" unicode="&#x17e;" horiz-adv-x="605" 
d="M589 501l-158 -234l-55 -67v-6l53 6h147v-200h-560v36l157 238l53 60v4l-59 -7h-125v200h547v-30zM152 766l151 -71l151 71l48 -100l-199 -115l-199 115z" />
    <glyph glyph-name="florin" unicode="&#x192;" horiz-adv-x="832" 
d="M353 535l16 99q13 83 62 136q54 60 135 60q54 0 134 -30l8 -3l-32 -187q-16 21 -38 21q-29 0 -41 -24q-5 -11 -11 -48l-4 -25l80 8l-33 -187l-76 8l-40 -256q-22 -141 -91.5 -199.5t-212.5 -58.5q-41 0 -75 7l33 207l13 -1q33 -3 66 15q21 11 30 33q5 11 11 45l35 208
l-69 -8l32 187z" />
    <glyph glyph-name="glyph277" unicode="&#x1a0;" horiz-adv-x="904" 
d="M452 518q-63 0 -102 -42t-39 -105t39 -104t102 -41t102 41t39 104t-39 105t-102 42zM598 744q59 -4 127 -13q6 -3 16 -3q6 0 14 1q14 8 14 23q0 11 -16 20.5t-16 23.5q0 13 5 31q25 8 51 -2q49 -18 49 -61q0 -33 -53 -62q-37 -20 -64 -25q144 -111 144 -302
q0 -177 -121 -284q-117 -103 -296 -103t-296 103q-121 107 -121 284q0 174 123 285q118 106 294 106q74 0 146 -22z" />
    <glyph glyph-name="glyph278" unicode="&#x1a1;" horiz-adv-x="714" 
d="M357 341q-32 0 -52 -22.5t-20 -55.5q0 -31 20.5 -52t51.5 -21t51.5 21t20.5 52q0 33 -20 55.5t-52 22.5zM453 532l108 -10q14 7 18 13q1 3 1 6q0 16 -31 27q-6 2 -6 16q0 12 4 29q24 7 47 -2q43 -16 43 -58q0 -51 -74 -67q116 -78 116 -227q0 -127 -100 -202
q-91 -69 -222 -69t-222 69q-100 75 -100 202q0 136 95 213q88 71 227 71q49 0 96 -11z" />
    <glyph glyph-name="glyph279" unicode="&#x1af;" horiz-adv-x="815" 
d="M742 827q25 8 51 -2q49 -18 49 -65q0 -9 -4 -20q-16 -45 -82 -53v-379q0 -161 -96 -243q-90 -77 -253 -77t-253 77q-96 82 -96 243v446h274v-420q0 -57 10 -78q16 -33 65 -33t65 33q10 21 10 78v420l220 -5q8 -8 23 -18q9 -6 30 -2q14 8 14 23q0 11 -16 20.5t-16 23.5
q0 13 5 31z" />
    <glyph glyph-name="glyph280" unicode="&#x1b0;" horiz-adv-x="697" 
d="M649 486v-255q0 -120 -93 -185q-82 -58 -207 -58t-207 58q-93 65 -93 185v300h256v-274q0 -64 44 -64t44 64v274l256 -10v1q14 7 18 13q1 3 1 6q0 16 -31 27q-6 2 -6 16q0 12 4 29q24 7 47 -2q42 -16 42 -58q0 -27 -25 -46q-21 -16 -50 -21z" />
    <glyph glyph-name="circumflex" unicode="&#x2c6;" horiz-adv-x="600" 
d="M150 552l-48 99l200 115l197 -117l-47 -100l-150 73z" />
    <glyph glyph-name="caron" unicode="&#x2c7;" horiz-adv-x="600" 
d="M149 766l151 -71l151 71l48 -100l-199 -115l-199 115z" />
    <glyph glyph-name="breve" unicode="&#x2d8;" horiz-adv-x="560" 
d="M92 766h78q21 -60 110 -60t110 60h79q-4 -73 -59.5 -123.5t-129.5 -50.5q-75 0 -128 48.5t-60 125.5z" />
    <glyph glyph-name="dotaccent" unicode="&#x2d9;" horiz-adv-x="420" 
d="M210 766q35 0 59 -24t24 -59q0 -34 -24 -58.5t-59 -24.5q-34 0 -58.5 24.5t-24.5 58.5q0 35 24.5 59t58.5 24z" />
    <glyph glyph-name="ring" unicode="&#x2da;" horiz-adv-x="480" 
d="M240 766q64 0 105 -26q49 -30 49 -90t-50 -90q-40 -24 -104 -24t-104 24q-50 30 -50 90t49 90q41 26 105 26zM240 694q-59 0 -59 -43t59 -43t59 43t-59 43z" />
    <glyph glyph-name="ogonek" unicode="&#x2db;" horiz-adv-x="420" 
d="M199 -15h75v-2q-68 -34 -68 -69q0 -41 53 -41q30 0 54 26l2 -2l-26 -96q-34 -24 -77 -24t-75 25.5t-32 67.5q0 68 94 115z" />
    <glyph glyph-name="tilde" unicode="&#x2dc;" horiz-adv-x="560" 
d="M163 605v0l-85 58q62 103 141 103q28 0 68 -22.5t55 -22.5q27 0 49 46l91 -50q-57 -111 -134 -111q-27 0 -56 13l-45 20q-27 12 -36 12q-26 0 -48 -46z" />
    <glyph glyph-name="hungarumlaut" unicode="&#x2dd;" horiz-adv-x="620" 
d="M156 766h135l-56 -211h-102zM352 766h135l-56 -211h-102z" />
    <glyph glyph-name="Delta" unicode="&#x394;" 
 />
    <glyph glyph-name="Delta" unicode="&#x2206;" 
 />
    <glyph glyph-name="Omega" unicode="&#x3a9;" 
 />
    <glyph glyph-name="Omega" unicode="&#x2126;" 
 />
    <glyph glyph-name="pi" unicode="&#x3c0;" 
 />
    <glyph glyph-name="glyph281" unicode="&#x1ea0;" horiz-adv-x="823" 
d="M306 94l-22 -94h-290l262 754h303l269 -754h-290l-25 94h-207zM355 273h110l-32 133q-8 32 -18 97h-10zM513 -103q0 -19 -13 -38q-29 -42 -94 -42q-37 0 -67 17q-35 20 -35 54q0 18 12 35q33 48 100 48q35 0 64 -19q33 -21 33 -55z" />
    <glyph glyph-name="glyph282" unicode="&#x1ea1;" horiz-adv-x="720" 
d="M288 268q0 -78 67 -78q34 0 52 24q17 21 17 56q0 31 -19 51t-50 20q-30 0 -48.5 -21.5t-18.5 -51.5zM416 0l8 70h-6q-39 -42 -72 -60q-39 -22 -90 -22q-102 0 -166 89q-58 80 -58 186q0 110 59 191q65 89 172 89q100 0 155 -75h6l-8 63h253v-531h-253zM441 -115
q0 -18 -12 -35q-26 -37 -84 -38q-32 0 -60 15q-33 19 -33 49q0 16 11 32q30 43 90 43q32 0 58 -17q30 -19 30 -49z" />
    <glyph glyph-name="glyph283" unicode="&#x1ea2;" horiz-adv-x="823" 
d="M306 94l-22 -94h-290l262 754h303l269 -754h-290l-25 94h-207zM355 273h110l-32 133q-8 32 -18 97h-10zM423 977l-81 -25q1 43 36.5 73t79.5 30q47 0 79.5 -27t32.5 -73t-38 -70q-32 -20 -80 -20q-3 0 -20 -23t-22 -22l14 116q5 -2 29 -14t28 -12q30 0 30 16
q0 18 -28.5 40.5t-47.5 22.5q-12 0 -12 -12z" />
    <glyph glyph-name="glyph284" unicode="&#x1ea3;" horiz-adv-x="720" 
d="M288 268q0 -78 67 -78q34 0 52 24q17 21 17 56q0 31 -19 51t-50 20q-30 0 -48.5 -21.5t-18.5 -51.5zM416 0l8 70h-6q-39 -42 -72 -60q-39 -22 -90 -22q-102 0 -166 89q-58 80 -58 186q0 110 59 191q65 89 172 89q100 0 155 -75h6l-8 63h253v-531h-253zM358 791l-81 -25
q1 43 36.5 73t79.5 30q47 0 79.5 -27t32.5 -73t-38 -70q-32 -20 -80 -20q-3 0 -20 -23t-22 -22l14 116q5 -2 29 -14t28 -12q30 0 30 16q0 18 -28.5 40.5t-47.5 22.5q-12 0 -12 -12z" />
    <glyph glyph-name="glyph285" unicode="&#x1ea4;" horiz-adv-x="823" 
d="M306 94l-22 -94h-290l262 754h303l269 -754h-290l-25 94h-207zM355 273h110l-32 133q-8 32 -18 97h-10zM255 790l-66 41l220 155l217 -157l-67 -40l-150 73zM648 885l-24 -23l-23 43l141 143l118 -54z" />
    <glyph glyph-name="glyph286" unicode="&#x1ea5;" horiz-adv-x="720" 
d="M288 268q0 -78 67 -78q34 0 52 24q17 21 17 56q0 31 -19 51t-50 20q-30 0 -48.5 -21.5t-18.5 -51.5zM416 0l8 70h-6q-39 -42 -72 -60q-39 -22 -90 -22q-102 0 -166 89q-58 80 -58 186q0 110 59 191q65 89 172 89q100 0 155 -75h6l-8 63h253v-531h-253zM206 590l-59 37
l198 139l195 -141l-60 -36l-135 66zM540 705l-22 -20l-20 38l127 129l106 -49z" />
    <glyph glyph-name="glyph287" unicode="&#x1ea6;" horiz-adv-x="823" 
d="M306 94l-22 -94h-290l262 754h303l269 -754h-290l-25 94h-207zM355 273h110l-32 133q-8 32 -18 97h-10zM255 790l-66 41l220 155l217 -157l-67 -40l-150 73zM214 904l-23 -43l-24 23l-212 109l118 54z" />
    <glyph glyph-name="glyph288" unicode="&#x1ea7;" horiz-adv-x="720" 
d="M288 268q0 -78 67 -78q34 0 52 24q17 21 17 56q0 31 -19 51t-50 20q-30 0 -48.5 -21.5t-18.5 -51.5zM416 0l8 70h-6q-39 -42 -72 -60q-39 -22 -90 -22q-102 0 -166 89q-58 80 -58 186q0 110 59 191q65 89 172 89q100 0 155 -75h6l-8 63h253v-531h-253zM207 589l-59 37
l198 139l195 -141l-60 -36l-135 66zM200 721l-20 -38l-22 20l-191 98l106 49z" />
    <glyph glyph-name="glyph289" unicode="&#x1ea8;" horiz-adv-x="823" 
d="M306 94l-22 -94h-290l262 754h303l269 -754h-290l-25 94h-207zM355 273h110l-32 133q-8 32 -18 97h-10zM255 790l-66 41l220 155l217 -157l-67 -40l-150 73zM638 1019l-81 -25q1 43 36.5 73t79.5 30q47 0 79.5 -27t32.5 -73t-38 -70q-32 -20 -80 -20q-3 0 -20 -23
t-22 -22l14 116q5 -2 29 -14t28 -12q30 0 30 16q0 18 -28.5 40.5t-47.5 22.5q-12 0 -12 -12z" />
    <glyph glyph-name="glyph290" unicode="&#x1ea9;" horiz-adv-x="720" 
d="M288 268q0 -78 67 -78q34 0 52 24q17 21 17 56q0 31 -19 51t-50 20q-30 0 -48.5 -21.5t-18.5 -51.5zM416 0l8 70h-6q-39 -42 -72 -60q-39 -22 -90 -22q-102 0 -166 89q-58 80 -58 186q0 110 59 191q65 89 172 89q100 0 155 -75h6l-8 63h253v-531h-253zM206 589l-59 37
l198 139l195 -141l-60 -36l-135 65zM574 817l-81 -25q1 43 36.5 73t79.5 30q47 0 79.5 -27t32.5 -73t-38 -70q-32 -20 -80 -20q-3 0 -20 -23t-22 -22l14 116q5 -2 29 -14t28 -12q30 0 30 16q0 18 -28.5 40.5t-47.5 22.5q-12 0 -12 -12z" />
    <glyph glyph-name="glyph291" unicode="&#x1eaa;" horiz-adv-x="823" 
d="M306 94l-22 -94h-290l262 754h303l269 -754h-290l-25 94h-207zM355 273h110l-32 133q-8 32 -18 97h-10zM255 790l-66 41l220 155l217 -157l-67 -40l-150 73zM584 1172l55 -27q-30 -33 -83 -74q-68 -53 -102 -57q-51 -6 -84 34q-20 24 -56 21q-37 -3 -83 -49l-53 27
q32 36 85 70q58 37 99 41q29 3 74 -32q31 -24 57 -22q34 6 91 68z" />
    <glyph glyph-name="glyph292" unicode="&#x1eab;" horiz-adv-x="720" 
d="M288 268q0 -78 67 -78q34 0 52 24q17 21 17 56q0 31 -19 51t-50 20q-30 0 -48.5 -21.5t-18.5 -51.5zM416 0l8 70h-6q-39 -42 -72 -60q-39 -22 -90 -22q-102 0 -166 89q-58 80 -58 186q0 110 59 191q65 89 172 89q100 0 155 -75h6l-8 63h253v-531h-253zM206 589l-59 37
l198 139l195 -141l-60 -36l-135 66zM502 938l50 -25q-33 -34 -75 -67q-60 -47 -92 -51q-47 -5 -75 31q-21 22 -51 19q-33 -3 -74 -44l-48 24q30 33 76 63q53 34 89 37q27 2 67 -29q27 -21 51 -20q34 7 82 62z" />
    <glyph glyph-name="glyph293" unicode="&#x1eac;" horiz-adv-x="823" 
d="M306 94l-22 -94h-290l262 754h303l269 -754h-290l-25 94h-207zM355 273h110l-32 133q-8 32 -18 97h-10zM255 790l-66 41l220 155l217 -157l-67 -40l-150 73zM513 -103q0 -19 -13 -38q-29 -42 -94 -42q-37 0 -67 17q-35 20 -35 54q0 18 12 35q33 48 100 48q35 0 64 -19
q33 -21 33 -55z" />
    <glyph glyph-name="glyph294" unicode="&#x1ead;" horiz-adv-x="720" 
d="M288 268q0 -78 67 -78q34 0 52 24q17 21 17 56q0 31 -19 51t-50 20q-30 0 -48.5 -21.5t-18.5 -51.5zM416 0l8 70h-6q-39 -42 -72 -60q-39 -22 -90 -22q-102 0 -166 89q-58 80 -58 186q0 110 59 191q65 89 172 89q100 0 155 -75h6l-8 63h253v-531h-253zM207 589l-59 37
l198 139l195 -141l-60 -36l-135 66zM441 -115q0 -18 -12 -35q-26 -37 -84 -38q-32 0 -60 15q-33 19 -33 49q0 16 11 32q30 43 90 43q32 0 58 -17q30 -19 30 -49z" />
    <glyph glyph-name="glyph295" unicode="&#x1eae;" horiz-adv-x="823" 
d="M306 94l-22 -94h-290l262 754h303l269 -754h-290l-25 94h-207zM355 273h110l-32 133q-8 32 -18 97h-10zM219 960l59 -6q12 -32 53 -51q36 -16 75 -16t76 16q44 19 56 51l64 5q-4 -72 -66 -118q-57 -41 -132 -41q-76 0 -127 42.5t-58 117.5zM433 983l-24 -23l-23 43
l141 143l118 -54z" />
    <glyph glyph-name="glyph296" unicode="&#x1eaf;" horiz-adv-x="720" 
d="M288 268q0 -78 67 -78q34 0 52 24q17 21 17 56q0 31 -19 51t-50 20q-30 0 -48.5 -21.5t-18.5 -51.5zM416 0l8 70h-6q-39 -42 -72 -60q-39 -22 -90 -22q-102 0 -166 89q-58 80 -58 186q0 110 59 191q65 89 172 89q100 0 155 -75h6l-8 63h253v-531h-253zM173 747l53 -5
q11 -29 48 -46q32 -14 67 -14q36 0 69 14q40 17 50 46l58 4q-4 -65 -60 -106q-51 -37 -118 -37q-69 0 -115 38t-52 106zM366 768l-22 -21l-21 39l127 129l106 -49z" />
    <glyph glyph-name="glyph297" unicode="&#x1eb0;" horiz-adv-x="823" 
d="M306 94l-22 -94h-290l262 754h303l269 -754h-290l-25 94h-207zM355 273h110l-32 133q-8 32 -18 97h-10zM219 960l59 -6q12 -32 53 -51q36 -16 75 -16t76 16q44 19 56 51l64 5q-4 -72 -66 -118q-57 -41 -132 -41q-76 0 -127 42.5t-58 117.5zM433 1003l-23 -43l-24 23
l-212 109l118 54z" />
    <glyph glyph-name="glyph298" unicode="&#x1eb1;" horiz-adv-x="720" 
d="M288 268q0 -78 67 -78q34 0 52 24q17 21 17 56q0 31 -19 51t-50 20q-30 0 -48.5 -21.5t-18.5 -51.5zM416 0l8 70h-6q-39 -42 -72 -60q-39 -22 -90 -22q-102 0 -166 89q-58 80 -58 186q0 110 59 191q65 89 172 89q100 0 155 -75h6l-8 63h253v-531h-253zM173 747l53 -5
q10 -29 48 -46q31 -14 67 -14q37 0 69 14q39 16 50 46l57 4q-4 -65 -60 -106q-51 -37 -118 -37q-69 0 -114.5 38t-51.5 106zM365 786l-20 -39l-22 21l-191 98l106 49z" />
    <glyph glyph-name="glyph299" unicode="&#x1eb2;" horiz-adv-x="823" 
d="M306 94l-22 -94h-290l262 754h303l269 -754h-290l-25 94h-207zM355 273h110l-32 133q-8 32 -18 97h-10zM219 960l59 -6q12 -32 53 -51q36 -16 75 -16t76 16q44 19 56 51l64 5q-4 -72 -66 -118q-57 -41 -132 -41q-76 0 -127 42.5t-58 117.5zM414 1107l-81 -25
q1 43 36.5 73t79.5 30q47 0 79.5 -27t32.5 -73t-38 -70q-32 -20 -80 -20q-3 0 -20 -23t-22 -22l14 116q5 -2 29 -14t28 -12q30 0 30 16q0 18 -28.5 40.5t-47.5 22.5q-12 0 -12 -12z" />
    <glyph glyph-name="glyph300" unicode="&#x1eb3;" horiz-adv-x="720" 
d="M288 268q0 -78 67 -78q34 0 52 24q17 21 17 56q0 31 -19 51t-50 20q-30 0 -48.5 -21.5t-18.5 -51.5zM416 0l8 70h-6q-39 -42 -72 -60q-39 -22 -90 -22q-102 0 -166 89q-58 80 -58 186q0 110 59 191q65 89 172 89q100 0 155 -75h6l-8 63h253v-531h-253zM183 747l53 -6
q10 -29 48 -46q32 -14 67 -14q36 0 69 14q40 17 50 46l57 5q-4 -65 -60 -106q-51 -37 -118 -37q-69 0 -114.5 38t-51.5 106zM359 898l-81 -25q1 43 36.5 73t79.5 30q47 0 79.5 -27t32.5 -73t-38 -70q-32 -20 -80 -20q-3 0 -20 -23t-22 -22l14 116q5 -2 29 -14t28 -12
q30 0 30 16q0 18 -28.5 40.5t-47.5 22.5q-12 0 -12 -12z" />
    <glyph glyph-name="glyph301" unicode="&#x1eb4;" horiz-adv-x="823" 
d="M306 94l-22 -94h-290l262 754h303l269 -754h-290l-25 94h-207zM355 273h110l-32 133q-8 32 -18 97h-10zM743 1138l50 -24q-27 -30 -75 -67q-61 -47 -92 -51q-45 -5 -75 30q-18 22 -51 19t-74 -44l-48 25q27 31 76 62q54 34 89 37q26 2 67 -28q30 -22 51 -20q29 3 82 61z
M219 960l59 -6q12 -32 53 -51q36 -16 75 -16t76 16q44 19 56 51l64 5q-4 -72 -66 -118q-57 -41 -132 -41q-76 0 -127 42.5t-58 117.5z" />
    <glyph glyph-name="glyph302" unicode="&#x1eb5;" horiz-adv-x="720" 
d="M288 268q0 -78 67 -78q34 0 52 24q17 21 17 56q0 31 -19 51t-50 20q-30 0 -48.5 -21.5t-18.5 -51.5zM416 0l8 70h-6q-39 -42 -72 -60q-39 -22 -90 -22q-102 0 -166 89q-58 80 -58 186q0 110 59 191q65 89 172 89q100 0 155 -75h6l-8 63h253v-531h-253zM647 907l45 -22
q-25 -27 -67 -60q-54 -43 -83 -46q-41 -5 -67 27q-16 20 -46 17q-33 -3 -67 -39l-43 22q23 27 68 55q49 31 80 34q25 2 61 -25q27 -20 46 -18q26 3 73 55zM176 747l53 -5q10 -29 48 -47q32 -14 67 -14q37 0 69 14q40 17 50 47l57 4q-4 -65 -60 -106q-51 -37 -118 -37
q-69 0 -114.5 38t-51.5 106z" />
    <glyph glyph-name="glyph303" unicode="&#x1eb6;" horiz-adv-x="823" 
d="M306 94l-22 -94h-290l262 754h303l269 -754h-290l-25 94h-207zM355 273h110l-32 133q-8 32 -18 97h-10zM219 960l59 -6q12 -32 53 -51q36 -16 75 -16t76 16q44 19 56 51l64 5q-4 -72 -66 -118q-57 -41 -132 -41q-76 0 -127 42.5t-58 117.5zM513 -103q0 -19 -13 -38
q-29 -42 -94 -42q-37 0 -67 17q-35 20 -35 54q0 18 12 35q33 48 100 48q35 0 64 -19q33 -21 33 -55z" />
    <glyph glyph-name="glyph304" unicode="&#x1eb7;" horiz-adv-x="720" 
d="M288 268q0 -78 67 -78q34 0 52 24q17 21 17 56q0 31 -19 51t-50 20q-30 0 -48.5 -21.5t-18.5 -51.5zM416 0l8 70h-6q-39 -42 -72 -60q-39 -22 -90 -22q-102 0 -166 89q-58 80 -58 186q0 110 59 191q65 89 172 89q100 0 155 -75h6l-8 63h253v-531h-253zM441 -115
q0 -18 -12 -35q-26 -37 -84 -38q-32 0 -60 15q-33 19 -33 49q0 16 11 32q30 43 90 43q32 0 58 -17q30 -19 30 -49zM173 747l53 -5q11 -29 48 -46q32 -14 67 -14q36 0 69 14q40 17 50 46l58 4q-4 -65 -60 -106q-51 -37 -118 -37q-69 0 -115 38t-52 106z" />
    <glyph glyph-name="glyph305" unicode="&#x1eb8;" horiz-adv-x="624" 
d="M58 0v754h507v-206h-231v-72h211v-196h-211v-74h239v-206h-515zM415 -123q0 -19 -13 -38q-29 -42 -94 -42q-37 0 -67 17q-35 20 -35 54q0 18 12 35q33 48 100 48q35 0 64 -19q33 -21 33 -55z" />
    <glyph glyph-name="glyph306" unicode="&#x1eb9;" horiz-adv-x="698" 
d="M664 222h-375q0 -91 61 -91q43 0 52 44h251q-24 -90 -117 -142q-81 -45 -182 -45q-135 0 -223 65q-97 73 -97 204q0 130 89 209q85 77 216 77q147 0 239 -86q95 -89 86 -235zM289 332h121q0 28 -18 48.5t-45 20.5q-58 0 -58 -69zM437 -130q0 -18 -12 -35q-26 -37 -84 -38
q-32 0 -60 15q-33 19 -33 49q0 16 11 32q30 43 90 43q32 0 58 -17q30 -19 30 -49z" />
    <glyph glyph-name="glyph307" unicode="&#x1eba;" horiz-adv-x="624" 
d="M58 0v754h507v-206h-231v-72h211v-196h-211v-74h239v-206h-515zM322 977l-81 -25q1 43 36.5 73t79.5 30q47 0 79.5 -27t32.5 -73t-38 -70q-32 -20 -80 -20q-3 0 -20 -23t-22 -22l14 116q5 -2 29 -14t28 -12q30 0 30 16q0 18 -28.5 40.5t-47.5 22.5q-12 0 -12 -12z" />
    <glyph glyph-name="glyph308" unicode="&#x1ebb;" horiz-adv-x="698" 
d="M664 222h-375q0 -91 61 -91q43 0 52 44h251q-24 -90 -117 -142q-81 -45 -182 -45q-135 0 -223 65q-97 73 -97 204q0 130 89 209q85 77 216 77q147 0 239 -86q95 -89 86 -235zM289 332h121q0 28 -18 48.5t-45 20.5q-58 0 -58 -69zM354 791l-81 -25q1 43 36.5 73t79.5 30
q47 0 79.5 -27t32.5 -73t-38 -70q-32 -20 -80 -20q-3 0 -20 -23t-22 -22l14 116q5 -2 29 -14t28 -12q30 0 30 16q0 18 -28.5 40.5t-47.5 22.5q-12 0 -12 -12z" />
    <glyph glyph-name="glyph309" unicode="&#x1ebc;" horiz-adv-x="624" 
d="M58 0v754h507v-206h-231v-72h211v-196h-211v-74h239v-206h-515zM484 988l55 -27q-30 -33 -83 -74q-68 -53 -102 -57q-51 -6 -84 34q-20 24 -56 21q-37 -3 -83 -49l-53 27q32 36 85 70q58 37 99 41q29 3 74 -32q31 -24 57 -22q34 6 91 68z" />
    <glyph glyph-name="glyph310" unicode="&#x1ebd;" horiz-adv-x="698" 
d="M664 222h-375q0 -91 61 -91q43 0 52 44h251q-24 -90 -117 -142q-81 -45 -182 -45q-135 0 -223 65q-97 73 -97 204q0 130 89 209q85 77 216 77q147 0 239 -86q95 -89 86 -235zM289 332h121q0 28 -18 48.5t-45 20.5q-58 0 -58 -69zM498 787l50 -25q-33 -34 -75 -67
q-60 -47 -92 -51q-47 -5 -75 31q-21 22 -51 19q-33 -3 -74 -44l-48 24q30 33 76 63q53 34 89 37q27 2 67 -29q27 -21 51 -20q34 7 82 62z" />
    <glyph glyph-name="glyph311" unicode="&#x1ebe;" horiz-adv-x="624" 
d="M58 0v754h507v-206h-231v-72h211v-196h-211v-74h239v-206h-515zM156 800l-66 41l220 155l217 -157l-67 -40l-150 73zM549 895l-24 -23l-23 43l141 143l118 -54z" />
    <glyph glyph-name="glyph312" unicode="&#x1ebf;" horiz-adv-x="698" 
d="M664 222h-375q0 -91 61 -91q43 0 52 44h251q-24 -90 -117 -142q-81 -45 -182 -45q-135 0 -223 65q-97 73 -97 204q0 130 89 209q85 77 216 77q147 0 239 -86q95 -89 86 -235zM289 332h121q0 28 -18 48.5t-45 20.5q-58 0 -58 -69zM202 590l-59 37l198 139l195 -141
l-60 -36l-135 66zM536 705l-22 -20l-20 38l127 129l106 -49z" />
    <glyph glyph-name="glyph313" unicode="&#x1ec0;" horiz-adv-x="624" 
d="M58 0v754h507v-206h-231v-72h211v-196h-211v-74h239v-206h-515zM156 800l-66 41l220 155l217 -157l-67 -40l-150 73zM115 914l-23 -43l-24 23l-212 109l118 54z" />
    <glyph glyph-name="glyph314" unicode="&#x1ec1;" horiz-adv-x="698" 
d="M664 222h-375q0 -91 61 -91q43 0 52 44h251q-24 -90 -117 -142q-81 -45 -182 -45q-135 0 -223 65q-97 73 -97 204q0 130 89 209q85 77 216 77q147 0 239 -86q95 -89 86 -235zM289 332h121q0 28 -18 48.5t-45 20.5q-58 0 -58 -69zM202 589l-59 37l198 139l195 -141
l-60 -36l-135 66zM195 721l-20 -38l-22 20l-191 98l106 49z" />
    <glyph glyph-name="glyph315" unicode="&#x1ec2;" horiz-adv-x="624" 
d="M58 0v754h507v-206h-231v-72h211v-196h-211v-74h239v-206h-515zM155 800l-66 41l220 155l217 -157l-67 -40l-150 73zM538 1029l-81 -25q1 43 36.5 73t79.5 30q47 0 79.5 -27t32.5 -73t-38 -70q-32 -20 -80 -20q-3 0 -20 -23t-22 -22l14 116q5 -2 29 -14t28 -12
q30 0 30 16q0 18 -28.5 40.5t-47.5 22.5q-12 0 -12 -12z" />
    <glyph glyph-name="glyph316" unicode="&#x1ec3;" horiz-adv-x="698" 
d="M664 222h-375q0 -91 61 -91q43 0 52 44h251q-24 -90 -117 -142q-81 -45 -182 -45q-135 0 -223 65q-97 73 -97 204q0 130 89 209q85 77 216 77q147 0 239 -86q95 -89 86 -235zM289 332h121q0 28 -18 48.5t-45 20.5q-58 0 -58 -69zM202 589l-59 37l198 139l195 -141
l-60 -36l-135 65zM570 817l-81 -25q1 43 36.5 73t79.5 30q47 0 79.5 -27t32.5 -73t-38 -70q-32 -20 -80 -20q-3 0 -20 -23t-22 -22l14 116q5 -2 29 -14t28 -12q30 0 30 16q0 18 -28.5 40.5t-47.5 22.5q-12 0 -12 -12z" />
    <glyph glyph-name="glyph317" unicode="&#x1ec4;" horiz-adv-x="624" 
d="M58 0v754h507v-206h-231v-72h211v-196h-211v-74h239v-206h-515zM156 800l-66 41l220 155l217 -157l-67 -40l-150 73zM485 1182l55 -27q-30 -33 -83 -74q-68 -53 -102 -57q-51 -6 -84 34q-20 24 -56 21q-37 -3 -83 -49l-53 27q32 36 85 70q58 37 99 41q29 3 74 -32
q31 -24 57 -22q34 6 91 68z" />
    <glyph glyph-name="glyph318" unicode="&#x1ec5;" horiz-adv-x="698" 
d="M664 222h-375q0 -91 61 -91q43 0 52 44h251q-24 -90 -117 -142q-81 -45 -182 -45q-135 0 -223 65q-97 73 -97 204q0 130 89 209q85 77 216 77q147 0 239 -86q95 -89 86 -235zM289 332h121q0 28 -18 48.5t-45 20.5q-58 0 -58 -69zM202 589l-59 37l198 139l195 -141
l-60 -36l-135 66zM498 938l50 -25q-33 -34 -75 -67q-60 -47 -92 -51q-47 -5 -75 31q-21 22 -51 19q-33 -3 -74 -44l-48 24q30 33 76 63q53 34 89 37q27 2 67 -29q27 -21 51 -20q34 7 82 62z" />
    <glyph glyph-name="glyph319" unicode="&#x1ec6;" horiz-adv-x="624" 
d="M58 0v754h507v-206h-231v-72h211v-196h-211v-74h239v-206h-515zM156 800l-66 41l220 155l217 -157l-67 -40l-150 73zM415 -123q0 -19 -13 -38q-29 -42 -94 -42q-37 0 -67 17q-35 20 -35 54q0 18 12 35q33 48 100 48q35 0 64 -19q33 -21 33 -55z" />
    <glyph glyph-name="glyph320" unicode="&#x1ec7;" horiz-adv-x="698" 
d="M664 222h-375q0 -91 61 -91q43 0 52 44h251q-24 -90 -117 -142q-81 -45 -182 -45q-135 0 -223 65q-97 73 -97 204q0 130 89 209q85 77 216 77q147 0 239 -86q95 -89 86 -235zM289 332h121q0 28 -18 48.5t-45 20.5q-58 0 -58 -69zM202 589l-59 37l198 139l195 -141
l-60 -36l-135 66zM437 -130q0 -18 -12 -35q-26 -37 -84 -38q-32 0 -60 15q-33 19 -33 49q0 16 11 32q30 43 90 43q32 0 58 -17q30 -19 30 -49z" />
    <glyph glyph-name="glyph321" unicode="&#x1ec8;" horiz-adv-x="403" 
d="M64 0v754h274v-754h-274zM212 977l-81 -25q1 43 36.5 73t79.5 30q47 0 79.5 -27t32.5 -73t-38 -70q-32 -20 -80 -20q-3 0 -20 -23t-22 -22l14 116q5 -2 29 -14t28 -12q30 0 30 16q0 18 -28.5 40.5t-47.5 22.5q-12 0 -12 -12z" />
    <glyph glyph-name="glyph322" unicode="&#x1ec9;" horiz-adv-x="392" 
d="M67 0v531h258v-531h-258zM204 781l-81 -25q1 43 36.5 73t79.5 30q47 0 79.5 -27t32.5 -73t-38 -70q-32 -20 -80 -20q-3 0 -20 -23t-22 -22l14 116q5 -2 29 -14t28 -12q30 0 30 16q0 18 -28.5 40.5t-47.5 22.5q-12 0 -12 -12z" />
    <glyph glyph-name="glyph323" unicode="&#x1eca;" horiz-adv-x="403" 
d="M64 0v754h274v-754h-274zM304 -123q0 -19 -13 -38q-29 -42 -94 -42q-37 0 -67 17q-35 20 -35 54q0 18 12 35q33 48 100 48q35 0 64 -19q33 -21 33 -55z" />
    <glyph glyph-name="glyph324" unicode="&#x1ecb;" horiz-adv-x="392" 
d="M67 0v531h258v-531h-258zM287 705q0 -18 -12 -35q-26 -37 -84 -38q-32 0 -60 15q-33 19 -33 49q0 16 11 32q30 43 90 43q32 0 58 -17q30 -19 30 -49zM287 -114q0 -18 -12 -35q-26 -37 -84 -38q-32 0 -60 15q-33 19 -33 49q0 16 11 32q30 43 90 43q32 0 58 -17
q30 -19 30 -49z" />
    <glyph glyph-name="glyph325" unicode="&#x1ecc;" horiz-adv-x="904" 
d="M452 766q176 0 294 -106q123 -111 123 -285q0 -177 -121 -284q-117 -103 -296 -103t-296 103q-121 107 -121 284q0 174 123 285q118 106 294 106zM452 518q-63 0 -102 -42t-39 -105t39 -104t102 -41t102 41t39 104t-39 105t-102 42zM557 -133q0 -19 -13 -38
q-29 -42 -94 -42q-37 0 -67 17q-35 20 -35 54q0 18 12 35q33 48 100 48q35 0 64 -19q33 -21 33 -55z" />
    <glyph glyph-name="glyph326" unicode="&#x1ecd;" horiz-adv-x="714" 
d="M357 543q139 0 227 -71q95 -77 95 -213q0 -127 -100 -202q-91 -69 -222 -69t-222 69q-100 75 -100 202q0 136 95 213q88 71 227 71zM357 341q-32 0 -52 -22.5t-20 -55.5q0 -31 20.5 -52t51.5 -21t51.5 21t20.5 52q0 33 -20 55.5t-52 22.5zM454 -130q0 -18 -12 -35
q-26 -37 -84 -38q-32 0 -60 15q-33 19 -33 49q0 16 11 32q30 43 90 43q32 0 58 -17q30 -19 30 -49z" />
    <glyph glyph-name="glyph327" unicode="&#x1ece;" horiz-adv-x="904" 
d="M452 766q176 0 294 -106q123 -111 123 -285q0 -177 -121 -284q-117 -103 -296 -103t-296 103q-121 107 -121 284q0 174 123 285q118 106 294 106zM452 518q-63 0 -102 -42t-39 -105t39 -104t102 -41t102 41t39 104t-39 105t-102 42zM464 987l-81 -25q1 43 36.5 73
t79.5 30q47 0 79.5 -27t32.5 -73t-38 -70q-32 -20 -80 -20q-3 0 -20 -23t-22 -22l14 116q5 -2 29 -14t28 -12q30 0 30 16q0 18 -28.5 40.5t-47.5 22.5q-12 0 -12 -12z" />
    <glyph glyph-name="glyph328" unicode="&#x1ecf;" horiz-adv-x="714" 
d="M357 543q139 0 227 -71q95 -77 95 -213q0 -127 -100 -202q-91 -69 -222 -69t-222 69q-100 75 -100 202q0 136 95 213q88 71 227 71zM357 341q-32 0 -52 -22.5t-20 -55.5q0 -31 20.5 -52t51.5 -21t51.5 21t20.5 52q0 33 -20 55.5t-52 22.5zM371 791l-81 -25q1 43 36.5 73
t79.5 30q47 0 79.5 -27t32.5 -73t-38 -70q-32 -20 -80 -20q-3 0 -20 -23t-22 -22l14 116q5 -2 29 -14t28 -12q30 0 30 16q0 18 -28.5 40.5t-47.5 22.5q-12 0 -12 -12z" />
    <glyph glyph-name="glyph329" unicode="&#x1ed0;" horiz-adv-x="904" 
d="M452 766q176 0 294 -106q123 -111 123 -285q0 -177 -121 -284q-117 -103 -296 -103t-296 103q-121 107 -121 284q0 174 123 285q118 106 294 106zM452 518q-63 0 -102 -42t-39 -105t39 -104t102 -41t102 41t39 104t-39 105t-102 42zM298 790l-66 41l220 155l217 -157
l-67 -40l-150 73zM691 885l-24 -23l-23 43l141 143l118 -54z" />
    <glyph glyph-name="glyph330" unicode="&#x1ed1;" horiz-adv-x="714" 
d="M357 543q139 0 227 -71q95 -77 95 -213q0 -127 -100 -202q-91 -69 -222 -69t-222 69q-100 75 -100 202q0 136 95 213q88 71 227 71zM357 341q-32 0 -52 -22.5t-20 -55.5q0 -31 20.5 -52t51.5 -21t51.5 21t20.5 52q0 33 -20 55.5t-52 22.5zM219 590l-59 37l198 139
l195 -141l-60 -36l-135 66zM553 705l-22 -20l-20 38l127 129l106 -49z" />
    <glyph glyph-name="glyph331" unicode="&#x1ed2;" horiz-adv-x="904" 
d="M452 766q176 0 294 -106q123 -111 123 -285q0 -177 -121 -284q-117 -103 -296 -103t-296 103q-121 107 -121 284q0 174 123 285q118 106 294 106zM452 518q-63 0 -102 -42t-39 -105t39 -104t102 -41t102 41t39 104t-39 105t-102 42zM298 790l-66 41l220 155l217 -157
l-67 -40l-150 73zM257 904l-23 -43l-24 23l-212 109l118 54z" />
    <glyph glyph-name="glyph332" unicode="&#x1ed3;" horiz-adv-x="714" 
d="M357 543q139 0 227 -71q95 -77 95 -213q0 -127 -100 -202q-91 -69 -222 -69t-222 69q-100 75 -100 202q0 136 95 213q88 71 227 71zM357 341q-32 0 -52 -22.5t-20 -55.5q0 -31 20.5 -52t51.5 -21t51.5 21t20.5 52q0 33 -20 55.5t-52 22.5zM219 589l-59 37l198 139
l195 -141l-60 -36l-135 66zM212 721l-20 -38l-22 20l-191 98l106 49z" />
    <glyph glyph-name="glyph333" unicode="&#x1ed4;" horiz-adv-x="904" 
d="M452 766q176 0 294 -106q123 -111 123 -285q0 -177 -121 -284q-117 -103 -296 -103t-296 103q-121 107 -121 284q0 174 123 285q118 106 294 106zM452 518q-63 0 -102 -42t-39 -105t39 -104t102 -41t102 41t39 104t-39 105t-102 42zM298 790l-66 41l220 155l217 -157
l-67 -40l-150 73zM681 1019l-81 -25q1 43 36.5 73t79.5 30q47 0 79.5 -27t32.5 -73t-38 -70q-32 -20 -80 -20q-3 0 -20 -23t-22 -22l14 116q5 -2 29 -14t28 -12q30 0 30 16q0 18 -28.5 40.5t-47.5 22.5q-12 0 -12 -12z" />
    <glyph glyph-name="glyph334" unicode="&#x1ed5;" horiz-adv-x="714" 
d="M357 543q139 0 227 -71q95 -77 95 -213q0 -127 -100 -202q-91 -69 -222 -69t-222 69q-100 75 -100 202q0 136 95 213q88 71 227 71zM357 341q-32 0 -52 -22.5t-20 -55.5q0 -31 20.5 -52t51.5 -21t51.5 21t20.5 52q0 33 -20 55.5t-52 22.5zM219 589l-59 37l198 139
l195 -141l-60 -36l-135 65zM587 817l-81 -25q1 43 36.5 73t79.5 30q47 0 79.5 -27t32.5 -73t-38 -70q-32 -20 -80 -20q-3 0 -20 -23t-22 -22l14 116q5 -2 29 -14t28 -12q30 0 30 16q0 18 -28.5 40.5t-47.5 22.5q-12 0 -12 -12z" />
    <glyph glyph-name="glyph335" unicode="&#x1ed6;" horiz-adv-x="904" 
d="M452 766q176 0 294 -106q123 -111 123 -285q0 -177 -121 -284q-117 -103 -296 -103t-296 103q-121 107 -121 284q0 174 123 285q118 106 294 106zM452 518q-63 0 -102 -42t-39 -105t39 -104t102 -41t102 41t39 104t-39 105t-102 42zM298 791l-66 41l220 155l217 -157
l-67 -40l-150 73zM627 1173l55 -27q-30 -33 -83 -74q-68 -53 -102 -57q-51 -6 -84 34q-20 24 -56 21q-37 -3 -83 -49l-53 27q32 36 85 70q58 37 99 41q29 3 74 -32q31 -24 57 -22q34 6 91 68z" />
    <glyph glyph-name="glyph336" unicode="&#x1ed7;" horiz-adv-x="714" 
d="M357 543q139 0 227 -71q95 -77 95 -213q0 -127 -100 -202q-91 -69 -222 -69t-222 69q-100 75 -100 202q0 136 95 213q88 71 227 71zM357 341q-32 0 -52 -22.5t-20 -55.5q0 -31 20.5 -52t51.5 -21t51.5 21t20.5 52q0 33 -20 55.5t-52 22.5zM219 589l-59 37l198 139
l195 -141l-60 -36l-135 66zM515 938l50 -25q-33 -34 -75 -67q-60 -47 -92 -51q-47 -5 -75 31q-21 22 -51 19q-33 -3 -74 -44l-48 24q30 33 76 63q53 34 89 37q27 2 67 -29q27 -21 51 -20q34 7 82 62z" />
    <glyph glyph-name="glyph337" unicode="&#x1ed8;" horiz-adv-x="904" 
d="M452 766q176 0 294 -106q123 -111 123 -285q0 -177 -121 -284q-117 -103 -296 -103t-296 103q-121 107 -121 284q0 174 123 285q118 106 294 106zM452 518q-63 0 -102 -42t-39 -105t39 -104t102 -41t102 41t39 104t-39 105t-102 42zM298 800l-66 41l220 155l217 -157
l-67 -40l-150 73zM557 -133q0 -19 -13 -38q-29 -42 -94 -42q-37 0 -67 17q-35 20 -35 54q0 18 12 35q33 48 100 48q35 0 64 -19q33 -21 33 -55z" />
    <glyph glyph-name="glyph338" unicode="&#x1ed9;" horiz-adv-x="714" 
d="M357 543q139 0 227 -71q95 -77 95 -213q0 -127 -100 -202q-91 -69 -222 -69t-222 69q-100 75 -100 202q0 136 95 213q88 71 227 71zM357 341q-32 0 -52 -22.5t-20 -55.5q0 -31 20.5 -52t51.5 -21t51.5 21t20.5 52q0 33 -20 55.5t-52 22.5zM219 589l-59 37l198 139
l195 -141l-60 -36l-135 66zM454 -130q0 -18 -12 -35q-26 -37 -84 -38q-32 0 -60 15q-33 19 -33 49q0 16 11 32q30 43 90 43q32 0 58 -17q30 -19 30 -49z" />
    <glyph glyph-name="glyph339" unicode="&#x1eda;" horiz-adv-x="904" 
d="M452 518q-63 0 -102 -42t-39 -105t39 -104t102 -41t102 41t39 104t-39 105t-102 42zM598 744q59 -4 127 -13q6 -3 16 -3q6 0 14 1q14 8 14 23q0 11 -16 20.5t-16 23.5q0 13 5 31q25 8 51 -2q49 -18 49 -61q0 -33 -53 -62q-37 -20 -64 -25q144 -111 144 -302
q0 -177 -121 -284q-117 -103 -296 -103t-296 103q-121 107 -121 284q0 174 123 285q118 106 294 106q74 0 146 -22zM475 864l-24 -23l-23 43l141 143l118 -54z" />
    <glyph glyph-name="glyph340" unicode="&#x1edb;" horiz-adv-x="714" 
d="M357 341q-32 0 -52 -22.5t-20 -55.5q0 -31 20.5 -52t51.5 -21t51.5 21t20.5 52q0 33 -20 55.5t-52 22.5zM453 532l108 -10q14 7 18 13q1 3 1 6q0 16 -31 27q-6 2 -6 16q0 12 4 29q24 7 47 -2q43 -16 43 -58q0 -51 -74 -67q116 -78 116 -227q0 -127 -100 -202
q-91 -69 -222 -69t-222 69q-100 75 -100 202q0 136 95 213q88 71 227 71q49 0 96 -11zM379 664l-22 -20l-20 38l127 129l106 -49z" />
    <glyph glyph-name="glyph341" unicode="&#x1edc;" horiz-adv-x="904" 
d="M452 518q-63 0 -102 -42t-39 -105t39 -104t102 -41t102 41t39 104t-39 105t-102 42zM598 744q59 -4 127 -13q6 -3 16 -3q6 0 14 1q14 8 14 23q0 11 -16 20.5t-16 23.5q0 13 5 31q25 8 51 -2q49 -18 49 -61q0 -33 -53 -62q-37 -20 -64 -25q144 -111 144 -302
q0 -177 -121 -284q-117 -103 -296 -103t-296 103q-121 107 -121 284q0 174 123 285q118 106 294 106q74 0 146 -22zM475 884l-23 -43l-24 23l-212 109l118 54z" />
    <glyph glyph-name="glyph342" unicode="&#x1edd;" horiz-adv-x="714" 
d="M357 341q-32 0 -52 -22.5t-20 -55.5q0 -31 20.5 -52t51.5 -21t51.5 21t20.5 52q0 33 -20 55.5t-52 22.5zM453 532l108 -10q14 7 18 13q1 3 1 6q0 16 -31 27q-6 2 -6 16q0 12 4 29q24 7 47 -2q43 -16 43 -58q0 -51 -74 -67q116 -78 116 -227q0 -127 -100 -202
q-91 -69 -222 -69t-222 69q-100 75 -100 202q0 136 95 213q88 71 227 71q49 0 96 -11zM379 682l-20 -38l-22 20l-191 98l106 49z" />
    <glyph glyph-name="glyph343" unicode="&#x1ede;" horiz-adv-x="904" 
d="M452 518q-63 0 -102 -42t-39 -105t39 -104t102 -41t102 41t39 104t-39 105t-102 42zM598 744q59 -4 127 -13q6 -3 16 -3q6 0 14 1q14 8 14 23q0 11 -16 20.5t-16 23.5q0 13 5 31q25 8 51 -2q49 -18 49 -61q0 -33 -53 -62q-37 -20 -64 -25q144 -111 144 -302
q0 -177 -121 -284q-117 -103 -296 -103t-296 103q-121 107 -121 284q0 174 123 285q118 106 294 106q74 0 146 -22zM464 987l-81 -25q1 43 36.5 73t79.5 30q47 0 79.5 -27t32.5 -73t-38 -70q-32 -20 -80 -20q-3 0 -20 -23t-22 -22l14 116q5 -2 29 -14t28 -12q30 0 30 16
q0 18 -28.5 40.5t-47.5 22.5q-12 0 -12 -12z" />
    <glyph glyph-name="glyph344" unicode="&#x1edf;" horiz-adv-x="714" 
d="M357 341q-32 0 -52 -22.5t-20 -55.5q0 -31 20.5 -52t51.5 -21t51.5 21t20.5 52q0 33 -20 55.5t-52 22.5zM453 532l108 -10q14 7 18 13q1 3 1 6q0 16 -31 27q-6 2 -6 16q0 12 4 29q24 7 47 -2q43 -16 43 -58q0 -51 -74 -67q116 -78 116 -227q0 -127 -100 -202
q-91 -69 -222 -69t-222 69q-100 75 -100 202q0 136 95 213q88 71 227 71q49 0 96 -11zM358 791l-81 -25q1 43 36.5 73t79.5 30q47 0 79.5 -27t32.5 -73t-38 -70q-32 -20 -80 -20q-3 0 -20 -23t-22 -22l14 116q5 -2 29 -14t28 -12q30 0 30 16q0 18 -28.5 40.5t-47.5 22.5
q-12 0 -12 -12z" />
    <glyph glyph-name="glyph345" unicode="&#x1ee0;" horiz-adv-x="904" 
d="M452 518q-63 0 -102 -42t-39 -105t39 -104t102 -41t102 41t39 104t-39 105t-102 42zM598 744q59 -4 127 -13q6 -3 16 -3q6 0 14 1q14 8 14 23q0 11 -16 20.5t-16 23.5q0 13 5 31q25 8 51 -2q49 -18 49 -61q0 -33 -53 -62q-37 -20 -64 -25q144 -111 144 -302
q0 -177 -121 -284q-117 -103 -296 -103t-296 103q-121 107 -121 284q0 174 123 285q118 106 294 106q74 0 146 -22zM626 994l55 -27q-30 -33 -83 -74q-68 -53 -102 -57q-51 -6 -84 34q-20 24 -56 21q-37 -3 -83 -49l-53 27q32 36 85 70q58 37 99 41q29 3 74 -32
q31 -24 57 -22q34 6 91 68z" />
    <glyph glyph-name="glyph346" unicode="&#x1ee1;" horiz-adv-x="714" 
d="M357 341q-32 0 -52 -22.5t-20 -55.5q0 -31 20.5 -52t51.5 -21t51.5 21t20.5 52q0 33 -20 55.5t-52 22.5zM453 532l108 -10q14 7 18 13q1 3 1 6q0 16 -31 27q-6 2 -6 16q0 12 4 29q24 7 47 -2q43 -16 43 -58q0 -51 -74 -67q116 -78 116 -227q0 -127 -100 -202
q-91 -69 -222 -69t-222 69q-100 75 -100 202q0 136 95 213q88 71 227 71q49 0 96 -11zM515 787l50 -25q-33 -34 -75 -67q-60 -47 -92 -51q-47 -5 -75 31q-21 22 -51 19q-33 -3 -74 -44l-48 24q30 33 76 63q53 34 89 37q27 2 67 -29q27 -21 51 -20q34 7 82 62z" />
    <glyph glyph-name="glyph347" unicode="&#x1ee2;" horiz-adv-x="904" 
d="M452 518q-63 0 -102 -42t-39 -105t39 -104t102 -41t102 41t39 104t-39 105t-102 42zM598 744q59 -4 127 -13q6 -3 16 -3q6 0 14 1q14 8 14 23q0 11 -16 20.5t-16 23.5q0 13 5 31q25 8 51 -2q49 -18 49 -61q0 -33 -53 -62q-37 -20 -64 -25q144 -111 144 -302
q0 -177 -121 -284q-117 -103 -296 -103t-296 103q-121 107 -121 284q0 174 123 285q118 106 294 106q74 0 146 -22zM557 -133q0 -19 -13 -38q-29 -42 -94 -42q-37 0 -67 17q-35 20 -35 54q0 18 12 35q33 48 100 48q35 0 64 -19q33 -21 33 -55z" />
    <glyph glyph-name="glyph348" unicode="&#x1ee3;" horiz-adv-x="714" 
d="M357 341q-32 0 -52 -22.5t-20 -55.5q0 -31 20.5 -52t51.5 -21t51.5 21t20.5 52q0 33 -20 55.5t-52 22.5zM453 532l108 -10q14 7 18 13q1 3 1 6q0 16 -31 27q-6 2 -6 16q0 12 4 29q24 7 47 -2q43 -16 43 -58q0 -51 -74 -67q116 -78 116 -227q0 -127 -100 -202
q-91 -69 -222 -69t-222 69q-100 75 -100 202q0 136 95 213q88 71 227 71q49 0 96 -11zM454 -130q0 -18 -12 -35q-26 -37 -84 -38q-32 0 -60 15q-33 19 -33 49q0 16 11 32q30 43 90 43q32 0 58 -17q30 -19 30 -49z" />
    <glyph glyph-name="glyph349" unicode="&#x1ee4;" horiz-adv-x="815" 
d="M482 754h274v-446q0 -161 -96 -243q-90 -77 -253 -77t-253 77q-96 82 -96 243v446h274v-420q0 -57 10 -78q16 -33 65 -33t65 33q10 21 10 78v420zM513 -133q0 -19 -13 -38q-29 -42 -94 -42q-37 0 -67 17q-35 20 -35 54q0 18 12 35q33 48 100 48q35 0 64 -19
q33 -21 33 -55z" />
    <glyph glyph-name="glyph350" unicode="&#x1ee5;" horiz-adv-x="697" 
d="M49 531h256v-274q0 -64 44 -64t44 64v274h256v-300q0 -120 -93 -185q-82 -58 -207 -58t-207 58q-93 65 -93 185v300zM441 -130q0 -18 -12 -35q-26 -37 -84 -38q-32 0 -60 15q-33 19 -33 49q0 16 11 32q30 43 90 43q32 0 58 -17q30 -19 30 -49z" />
    <glyph glyph-name="glyph351" unicode="&#x1ee6;" horiz-adv-x="815" 
d="M482 754h274v-446q0 -161 -96 -243q-90 -77 -253 -77t-253 77q-96 82 -96 243v446h274v-420q0 -57 10 -78q16 -33 65 -33t65 33q10 21 10 78v420zM420 958l-81 -25q1 43 36.5 73t79.5 30q47 0 79.5 -27t32.5 -73t-38 -70q-32 -20 -80 -20q-3 0 -20 -23t-22 -22l14 116
q5 -2 29 -14t28 -12q30 0 30 16q0 18 -28.5 40.5t-47.5 22.5q-12 0 -12 -12z" />
    <glyph glyph-name="glyph352" unicode="&#x1ee7;" horiz-adv-x="697" 
d="M49 531h256v-274q0 -64 44 -64t44 64v274h256v-300q0 -120 -93 -185q-82 -58 -207 -58t-207 58q-93 65 -93 185v300zM363 763l-81 -25q1 43 36.5 73t79.5 30q47 0 79.5 -27t32.5 -73t-38 -70q-32 -20 -80 -20q-3 0 -20 -23t-22 -22l14 116q5 -2 29 -14t28 -12q30 0 30 16
q0 18 -28.5 40.5t-47.5 22.5q-12 0 -12 -12z" />
    <glyph glyph-name="glyph353" unicode="&#x1ee8;" horiz-adv-x="815" 
d="M742 827q25 8 51 -2q49 -18 49 -65q0 -9 -4 -20q-16 -45 -82 -53v-379q0 -161 -96 -243q-90 -77 -253 -77t-253 77q-96 82 -96 243v446h274v-420q0 -57 10 -78q16 -33 65 -33t65 33q10 21 10 78v420l220 -5q8 -8 23 -18q9 -6 30 -2q14 8 14 23q0 11 -16 20.5t-16 23.5
q0 13 5 31zM431 833l-24 -23l-23 43l141 143l118 -54z" />
    <glyph glyph-name="glyph354" unicode="&#x1ee9;" horiz-adv-x="697" 
d="M649 486v-255q0 -120 -93 -185q-82 -58 -207 -58t-207 58q-93 65 -93 185v300h256v-274q0 -64 44 -64t44 64v274l256 -10v1q14 7 18 13q1 3 1 6q0 16 -31 27q-6 2 -6 16q0 12 4 29q24 7 47 -2q42 -16 42 -58q0 -27 -25 -46q-21 -16 -50 -21zM371 636l-22 -20l-20 38
l127 129l106 -49z" />
    <glyph glyph-name="glyph355" unicode="&#x1eea;" horiz-adv-x="815" 
d="M742 827q25 8 51 -2q49 -18 49 -65q0 -9 -4 -20q-16 -45 -82 -53v-379q0 -161 -96 -243q-90 -77 -253 -77t-253 77q-96 82 -96 243v446h274v-420q0 -57 10 -78q16 -33 65 -33t65 33q10 21 10 78v420l220 -5q8 -8 23 -18q9 -6 30 -2q14 8 14 23q0 11 -16 20.5t-16 23.5
q0 13 5 31zM431 853l-23 -43l-24 23l-212 109l118 54z" />
    <glyph glyph-name="glyph356" unicode="&#x1eeb;" horiz-adv-x="697" 
d="M649 486v-255q0 -120 -93 -185q-82 -58 -207 -58t-207 58q-93 65 -93 185v300h256v-274q0 -64 44 -64t44 64v274l256 -10v1q14 7 18 13q1 3 1 6q0 16 -31 27q-6 2 -6 16q0 12 4 29q24 7 47 -2q42 -16 42 -58q0 -27 -25 -46q-21 -16 -50 -21zM370 654l-20 -38l-22 20
l-191 98l106 49z" />
    <glyph glyph-name="glyph357" unicode="&#x1eec;" horiz-adv-x="815" 
d="M742 827q25 8 51 -2q49 -18 49 -65q0 -9 -4 -20q-16 -45 -82 -53v-379q0 -161 -96 -243q-90 -77 -253 -77t-253 77q-96 82 -96 243v446h274v-420q0 -57 10 -78q16 -33 65 -33t65 33q10 21 10 78v420l220 -5q8 -8 23 -18q9 -6 30 -2q14 8 14 23q0 11 -16 20.5t-16 23.5
q0 13 5 31zM420 958l-81 -25q1 43 36.5 73t79.5 30q47 0 79.5 -27t32.5 -73t-38 -70q-32 -20 -80 -20q-3 0 -20 -23t-22 -22l14 116q5 -2 29 -14t28 -12q30 0 30 16q0 18 -28.5 40.5t-47.5 22.5q-12 0 -12 -12z" />
    <glyph glyph-name="glyph358" unicode="&#x1eed;" horiz-adv-x="697" 
d="M649 486v-255q0 -120 -93 -185q-82 -58 -207 -58t-207 58q-93 65 -93 185v300h256v-274q0 -64 44 -64t44 64v274l256 -10v1q14 7 18 13q1 3 1 6q0 16 -31 27q-6 2 -6 16q0 12 4 29q24 7 47 -2q42 -16 42 -58q0 -27 -25 -46q-21 -16 -50 -21zM363 763l-81 -25
q1 43 36.5 73t79.5 30q47 0 79.5 -27t32.5 -73t-38 -70q-32 -20 -80 -20q-3 0 -20 -23t-22 -22l14 116q5 -2 29 -14t28 -12q30 0 30 16q0 18 -28.5 40.5t-47.5 22.5q-12 0 -12 -12z" />
    <glyph glyph-name="glyph359" unicode="&#x1eee;" horiz-adv-x="815" 
d="M742 827q25 8 51 -2q49 -18 49 -65q0 -9 -4 -20q-16 -45 -82 -53v-379q0 -161 -96 -243q-90 -77 -253 -77t-253 77q-96 82 -96 243v446h274v-420q0 -57 10 -78q16 -33 65 -33t65 33q10 21 10 78v420l220 -5q8 -8 23 -18q9 -6 30 -2q14 8 14 23q0 11 -16 20.5t-16 23.5
q0 13 5 31zM582 974l55 -27q-30 -33 -83 -74q-68 -53 -102 -57q-51 -6 -84 34q-20 24 -56 21q-37 -3 -83 -49l-53 27q32 36 85 70q58 37 99 41q29 3 74 -32q31 -24 57 -22q34 6 91 68z" />
    <glyph glyph-name="glyph360" unicode="&#x1eef;" horiz-adv-x="697" 
d="M649 486v-255q0 -120 -93 -185q-82 -58 -207 -58t-207 58q-93 65 -93 185v300h256v-274q0 -64 44 -64t44 64v274l256 -10v1q14 7 18 13q1 3 1 6q0 16 -31 27q-6 2 -6 16q0 12 4 29q24 7 47 -2q42 -16 42 -58q0 -27 -25 -46q-21 -16 -50 -21zM507 759l50 -25
q-33 -34 -75 -67q-60 -47 -92 -51q-47 -5 -75 31q-21 22 -51 19q-33 -3 -74 -44l-48 24q30 33 76 63q53 34 89 37q27 2 67 -29q27 -21 51 -20q34 7 82 62z" />
    <glyph glyph-name="glyph361" unicode="&#x1ef0;" horiz-adv-x="815" 
d="M742 827q25 8 51 -2q49 -18 49 -65q0 -9 -4 -20q-16 -45 -82 -53v-379q0 -161 -96 -243q-90 -77 -253 -77t-253 77q-96 82 -96 243v446h274v-420q0 -57 10 -78q16 -33 65 -33t65 33q10 21 10 78v420l220 -5q8 -8 23 -18q9 -6 30 -2q14 8 14 23q0 11 -16 20.5t-16 23.5
q0 13 5 31zM513 -133q0 -19 -13 -38q-29 -42 -94 -42q-37 0 -67 17q-35 20 -35 54q0 18 12 35q33 48 100 48q35 0 64 -19q33 -21 33 -55z" />
    <glyph glyph-name="glyph362" unicode="&#x1ef1;" horiz-adv-x="697" 
d="M649 486v-255q0 -120 -93 -185q-82 -58 -207 -58t-207 58q-93 65 -93 185v300h256v-274q0 -64 44 -64t44 64v274l256 -10v1q14 7 18 13q1 3 1 6q0 16 -31 27q-6 2 -6 16q0 12 4 29q24 7 47 -2q42 -16 42 -58q0 -27 -25 -46q-21 -16 -50 -21zM441 -130q0 -18 -12 -35
q-26 -37 -84 -38q-32 0 -60 15q-33 19 -33 49q0 16 11 32q30 43 90 43q32 0 58 -17q30 -19 30 -49z" />
    <glyph glyph-name="glyph363" unicode="&#x1ef2;" horiz-adv-x="773" 
d="M-8 754h310l84 -197h8q6 20 25 71l54 126h308l-258 -429v-325h-268v325zM411 843l-23 -43l-24 23l-212 109l118 54z" />
    <glyph glyph-name="glyph364" unicode="&#x1ef3;" horiz-adv-x="658" 
d="M-22 531h278l59 -208l15 -81h7l13 81l59 208h271l-340 -750h-272l137 272zM351 644l-20 -38l-22 20l-191 98l106 49z" />
    <glyph glyph-name="glyph365" unicode="&#x1ef4;" horiz-adv-x="773" 
d="M-8 754h310l84 -197h8q6 20 25 71l54 126h308l-258 -429v-325h-268v325zM493 -123q0 -19 -13 -38q-29 -42 -94 -42q-37 0 -67 17q-35 20 -35 54q0 18 12 35q33 48 100 48q35 0 64 -19q33 -21 33 -55z" />
    <glyph glyph-name="glyph366" unicode="&#x1ef5;" horiz-adv-x="658" 
d="M-22 531h278l59 -208l15 -81h7l13 81l59 208h271l-340 -750h-272l137 272zM620 -115q0 -18 -12 -35q-26 -37 -84 -38q-32 0 -60 15q-33 19 -33 49q0 16 11 32q30 43 90 43q32 0 58 -17q30 -19 30 -49z" />
    <glyph glyph-name="glyph367" unicode="&#x1ef6;" horiz-adv-x="773" 
d="M-8 754h310l84 -197h8q6 20 25 71l54 126h308l-258 -429v-325h-268v325zM400 948l-81 -25q1 43 36.5 73t79.5 30q47 0 79.5 -27t32.5 -73t-38 -70q-32 -20 -80 -20q-3 0 -20 -23t-22 -22l14 116q5 -2 29 -14t28 -12q30 0 30 16q0 18 -28.5 40.5t-47.5 22.5q-12 0 -12 -12
z" />
    <glyph glyph-name="glyph368" unicode="&#x1ef7;" horiz-adv-x="658" 
d="M-22 531h278l59 -208l15 -81h7l13 81l59 208h271l-340 -750h-272l137 272zM344 745l-81 -25q1 43 36.5 73t79.5 30q47 0 79.5 -27t32.5 -73t-38 -70q-32 -20 -80 -20q-3 0 -20 -23t-22 -22l14 116q5 -2 29 -14t28 -12q30 0 30 16q0 18 -28.5 40.5t-47.5 22.5
q-12 0 -12 -12z" />
    <glyph glyph-name="glyph369" unicode="&#x1ef8;" horiz-adv-x="773" 
d="M-8 754h310l84 -197h8q6 20 25 71l54 126h308l-258 -429v-325h-268v325zM565 964l55 -27q-30 -33 -83 -74q-68 -53 -102 -57q-51 -6 -84 34q-20 24 -56 21q-37 -3 -83 -49l-53 27q32 36 85 70q58 37 99 41q29 3 74 -32q31 -24 57 -22q34 6 91 68z" />
    <glyph glyph-name="glyph370" unicode="&#x1ef9;" horiz-adv-x="658" 
d="M-22 531h278l59 -208l15 -81h7l13 81l59 208h271l-340 -750h-272l137 272zM489 749l50 -25q-33 -34 -75 -67q-60 -47 -92 -51q-47 -5 -75 31q-21 22 -51 19q-33 -3 -74 -44l-48 24q30 33 76 63q53 34 89 37q27 2 67 -29q27 -21 51 -20q34 7 82 62z" />
    <glyph glyph-name="endash" unicode="&#x2013;" horiz-adv-x="500" 
d="M0 165v220h500v-220h-500z" />
    <glyph glyph-name="emdash" unicode="&#x2014;" 
d="M0 165v220h1000v-220h-1000z" />
    <glyph glyph-name="quoteleft" unicode="&#x2018;" horiz-adv-x="493" 
d="M235 754h202l-121 -373h-259z" />
    <glyph glyph-name="quoteright" unicode="&#x2019;" horiz-adv-x="493" 
d="M257 381h-201l121 373h259z" />
    <glyph glyph-name="quotesinglbase" unicode="&#x201a;" horiz-adv-x="493" 
d="M258 -166h-201l121 373h259z" />
    <glyph glyph-name="quotedblleft" unicode="&#x201c;" horiz-adv-x="788" 
d="M532 754h202l-121 -373h-259zM232 754h202l-121 -373h-259z" />
    <glyph glyph-name="quotedblright" unicode="&#x201d;" horiz-adv-x="788" 
d="M255 381h-201l121 373h259zM555 381h-201l121 373h259z" />
    <glyph glyph-name="quotedblbase" unicode="&#x201e;" horiz-adv-x="788" 
d="M255 -166h-201l121 373h259zM555 -166h-201l121 373h259z" />
    <glyph glyph-name="dagger" unicode="&#x2020;" horiz-adv-x="832" 
d="M302 -151v458h-212v197h212v250h228v-250h212v-197h-212v-458h-228z" />
    <glyph glyph-name="daggerdbl" unicode="&#x2021;" horiz-adv-x="832" 
d="M302 -151v280h-194v166h194v113h-194v166h194v180h228v-180h194v-166h-194v-113h194v-166h-194v-280h-228z" />
    <glyph glyph-name="bullet" unicode="&#x2022;" horiz-adv-x="832" 
d="M417 566q80 0 134 -55t54 -134q0 -78 -54 -133t-134 -55t-134.5 55t-54.5 133q0 79 54.5 134t134.5 55z" />
    <glyph glyph-name="ellipsis" unicode="&#x2026;" 
d="M833 239q59 0 102 -33q47 -37 47 -94q0 -56 -47 -92q-43 -32 -102 -32t-102 32q-47 36 -47 92q0 57 47 94q43 33 102 33zM500 239q59 0 102 -33q47 -37 47 -94q0 -56 -47 -92q-43 -32 -102 -32t-102 32q-47 36 -47 92q0 57 47 94q43 33 102 33zM167 239q59 0 102 -33
q47 -37 47 -94q0 -56 -47 -92q-43 -32 -102 -32t-102 32q-47 36 -47 92q0 57 47 94q43 33 102 33z" />
    <glyph glyph-name="perthousand" unicode="&#x2030;" horiz-adv-x="1685" 
d="M249 0l517 776h137l-513 -776h-141zM882 404q106 0 170 -50q70 -54 70 -156t-73 -159q-66 -51 -167 -51t-167 51q-73 57 -73 159t70 156q64 50 170 50zM882 254q-48 0 -48 -56q0 -53 48 -53t48 53q0 56 -48 56zM263 766q106 0 170 -50q70 -54 70 -156t-73 -159
q-66 -51 -167 -51t-167 51q-73 57 -73 159t70 156q64 50 170 50zM263 616q-48 0 -48 -56q0 -53 48 -53t48 53q0 56 -48 56zM1422 404q106 0 170 -50q70 -54 70 -156t-73 -159q-66 -51 -167 -51t-167 51q-73 57 -73 159t70 156q64 50 170 50zM1422 254q-48 0 -48 -56
q0 -53 48 -53t48 53q0 56 -48 56z" />
    <glyph glyph-name="guilsinglleft" unicode="&#x2039;" horiz-adv-x="352" 
d="M304 104l-96 -65l-161 236l161 228l96 -70l-109 -158z" />
    <glyph glyph-name="guilsinglright" unicode="&#x203a;" horiz-adv-x="352" 
d="M144 39l-96 65l109 171l-109 158l96 70l161 -228z" />
    <glyph glyph-name="fraction" unicode="&#x2044;" horiz-adv-x="127" 
d="M-249 0l517 754h108l-514 -754h-111z" />
    <glyph glyph-name="franc" unicode="&#x20a3;" horiz-adv-x="1035" 
d="M62 0v754h505v-216h-229v-78h201v-196h-201v-264h-276zM1139 543v-262q-49 29 -79 29q-101 0 -101 -106v-204h-258v531h258l-6 -71h6q33 51 75 69q37 16 105 14z" />
    <glyph glyph-name="u20AB" unicode="&#x20ab;" horiz-adv-x="393" 
d="M197 501q-48 0 -84 -88q-20 -49 -20 -90q0 -51 39 -51q41 0 74 71q28 60 28 107q0 51 -37 51zM200 267q-53 -62 -106 -62q-45 0 -68 28t-23 74q0 80 55 153q59 78 136 78q34 0 61 -24l20 75h-100l10 36h100l2 16q0 31 -48 32l7 33q67 2 128 14l15 3q6 0 6 -9l-3 -12
l-19 -77h65l-10 -36h-65l-69 -280q-5 -20 -5 -27q0 -15 12 -15q6 0 49 42l20 -18q-70 -86 -117 -86q-43 0 -53 62zM9 160h221v-56h-221v56z" />
    <glyph glyph-name="trademark" unicode="&#x2122;" horiz-adv-x="950" 
d="M384 754v-98h-112v-316h-120v316h-111v98h343zM909 754v-414h-98v316h-2l-113 -316h-60l-113 316h-2v-316h-98v414h158l84 -239h2l84 239h158z" />
    <glyph glyph-name="partialdiff" unicode="&#x2202;" 
 />
    <glyph glyph-name="product" unicode="&#x220f;" 
 />
    <glyph glyph-name="summation" unicode="&#x2211;" 
 />
    <glyph glyph-name="minus" unicode="&#x2212;" horiz-adv-x="800" 
d="M100 200v200h600v-200h-600z" />
    <glyph glyph-name="radical" unicode="&#x221a;" 
 />
    <glyph glyph-name="infinity" unicode="&#x221e;" 
 />
    <glyph glyph-name="integral" unicode="&#x222b;" 
 />
    <glyph glyph-name="approxequal" unicode="&#x2248;" 
 />
    <glyph glyph-name="approxequal" unicode="&#x22f2;" 
 />
    <glyph glyph-name="notequal" unicode="&#x2260;" 
 />
    <glyph glyph-name="lessequal" unicode="&#x2264;" 
 />
    <glyph glyph-name="greaterequal" unicode="&#x2265;" 
 />
    <glyph glyph-name="SF370000" unicode="&#x255f;" horiz-adv-x="718" 
d="M306 94l-22 -94h-290l262 754h303l269 -754h-290l-25 94h-207zM355 273h110l-32 133q-8 34 -18 97h-10z" />
    <glyph glyph-name="SF420000" unicode="&#x2560;" horiz-adv-x="681" 
d="M58 0v754h507v-206h-231v-72h211v-196h-211v-74h239v-206h-515z" />
    <glyph glyph-name="SF190000" unicode="&#x2561;" horiz-adv-x="429" 
d="M64 0v754h274v-754h-274z" />
    <glyph glyph-name="SF200000" unicode="&#x2562;" horiz-adv-x="773" 
d="M452 766q176 0 294 -107q123 -110 123 -284q0 -177 -122 -284q-117 -103 -295 -103t-295 103q-122 107 -122 284q0 174 123 284q118 107 294 107zM452 518q-63 0 -102 -42.5t-39 -104.5q0 -64 39.5 -104.5t101.5 -40.5t101.5 40.5t39.5 104.5q0 62 -39 104.5t-102 42.5z
" />
    <glyph glyph-name="SF230000" unicode="&#x2563;" horiz-adv-x="811" 
d="M482 754h274v-446q0 -160 -95 -242q-90 -78 -254 -78t-254 78q-95 82 -95 242v446h274v-420q0 -56 10 -78q16 -33 65 -33t65 33q10 22 10 78v420z" />
    <glyph glyph-name="SF470000" unicode="&#x2564;" horiz-adv-x="699" 
d="M-8 754h310l84 -197h8q8 24 25 71l54 126h308l-258 -429v-325h-268v325z" />
    <glyph glyph-name="SF480000" unicode="&#x2565;" horiz-adv-x="541" 
d="M288 268q0 -78 67 -78q34 0 53 25q16 21 16 55q0 31 -19 51t-50 20q-30 0 -48.5 -21.5t-18.5 -51.5zM416 0l8 70h-6q-39 -42 -71 -60q-40 -22 -91 -22q-102 0 -166 89q-58 80 -58 186q0 109 59 190q66 90 172 90q100 0 155 -75h6l-8 63h253v-531h-253z" />
    <glyph glyph-name="SF410000" unicode="&#x2566;" horiz-adv-x="431" 
d="M664 222h-375q0 -91 61 -91q43 0 52 44h251q-24 -90 -116 -141q-82 -46 -183 -46q-135 0 -223 66q-97 73 -97 203q0 129 89 209q86 77 216 77q146 0 238 -86q96 -90 87 -235zM289 332h121q0 28 -18 48.5t-45 20.5q-28 0 -43 -19.5t-15 -49.5z" />
    <glyph glyph-name="SF450000" unicode="&#x2567;" horiz-adv-x="314" 
d="M67 0v531h258v-531h-258zM196 819q62 0 102 -33.5t40 -90.5q0 -62 -43 -95q-39 -30 -99 -30t-99 30q-43 33 -43 95q0 57 40 90.5t102 33.5z" />
    <glyph glyph-name="SF460000" unicode="&#x2568;" horiz-adv-x="314" 
d="M67 0v531h258v-531h-258z" />
    <glyph glyph-name="SF400000" unicode="&#x2569;" horiz-adv-x="498" 
d="M357 543q138 0 227 -72q95 -78 95 -212q0 -126 -99 -201q-91 -70 -223 -70t-223 70q-99 75 -99 201q0 134 95 212q89 72 227 72zM357 341q-32 0 -52 -22.5t-20 -55.5q0 -31 21 -52t51 -21t51 21t21 52q0 33 -20 55.5t-52 22.5z" />
    <glyph glyph-name="SF540000" unicode="&#x256a;" horiz-adv-x="557" 
d="M49 531h256v-274q0 -64 44 -64t44 64v274h256v-300q0 -119 -92 -184q-82 -59 -208 -59t-208 59q-92 65 -92 184v300z" />
    <glyph glyph-name="SF530000" unicode="&#x256b;" horiz-adv-x="497" 
d="M-22 531h278l59 -208l15 -81h7l13 81l59 208h271l-340 -750h-272l137 272z" />
    <glyph glyph-name="lozenge" unicode="&#x25ca;" 
 />
    <glyph glyph-name="circle" unicode="&#x25cb;" horiz-adv-x="718" 
d="M378 784l-48 99l200 115l197 -117l-47 -100l-150 73zM415 1186l125 -83l-165 -144l-91 62z" />
    <glyph glyph-name="H18533" unicode="&#x25cf;" horiz-adv-x="718" 
d="M378 784l-48 99l200 115l197 -117l-47 -100l-150 73zM393 1104l125 83l131 -165l-91 -62z" />
    <glyph glyph-name="invbullet" unicode="&#x25d8;" horiz-adv-x="718" 
d="M378 784l-48 99l200 115l197 -117l-47 -100l-150 73zM614 903q9 29 11 64q1 11 8 13q3 0 8 1q67 11 67 54q0 35 -28 35q-5 0 -14 -1t-14 -1q-21 0 -21 18q0 28 32 28q46 0 76 -25.5t26 -70.5q-6 -59 -87 -81q-25 -7 -31 -34h-33z" />
    <glyph glyph-name="invcircle" unicode="&#x25d9;" horiz-adv-x="718" 
d="M378 784l-48 99l200 115l197 -117l-47 -100l-150 73zM438 1025v0l-85 58q62 103 141 103q28 0 68 -22.5t55 -22.5q27 0 49 46l91 -50q-57 -111 -134 -111q-27 0 -56 13l-45 20q-27 12 -36 12q-26 0 -48 -46z" />
    <glyph glyph-name="apple" unicode="&#xf000;" 
 />
    <glyph glyph-name="fi" unicode="&#xf001;" horiz-adv-x="822" 
d="M497 0v531h258v-531h-258zM626 819q62 0 102 -33.5t40 -90.5q0 -62 -43 -95q-39 -30 -99 -30t-99 30q-43 33 -43 95q0 57 40 90.5t102 33.5zM75 522v56q0 241 230 241q37 0 113 -12v-205q-23 9 -35 9q-54 0 -54 -71v-20l87 11v-207l-83 7v-331h-258v331l-70 -7v207z" />
    <glyph glyph-name="fl" unicode="&#xf002;" horiz-adv-x="803" 
d="M487 0v811h258v-811h-258zM75 522v56q0 241 230 241q37 0 113 -12v-205q-23 9 -35 9q-54 0 -54 -71v-20l87 11v-207l-83 7v-331h-258v331l-70 -7v207z" />
    <glyph glyph-name="periodcentered" horiz-adv-x="416" 
d="M208 430q53 0 91.5 -38.5t38.5 -91.5t-38.5 -91.5t-91.5 -38.5t-91.5 38.5t-38.5 91.5t38.5 91.5t91.5 38.5z" />
    <glyph glyph-name="HT" 
 />
    <glyph glyph-name="LF" 
 />
    <glyph glyph-name="nonmarkingreturn" 
 />
    <glyph glyph-name="DLE" 
 />
    <glyph glyph-name="DC1" 
 />
    <glyph glyph-name="DC2" 
 />
    <glyph glyph-name="DC3" 
 />
    <glyph glyph-name="DC4" 
 />
    <glyph glyph-name="RS" 
 />
    <glyph glyph-name="US" 
 />
    <glyph glyph-name="DEL" 
 />
    <glyph glyph-name="glyph258" horiz-adv-x="416" 
 />
    <glyph glyph-name="glyph259" horiz-adv-x="278" 
 />
    <glyph glyph-name="glyph275" horiz-adv-x="249" 
 />
    <glyph glyph-name="glyph276" horiz-adv-x="249" 
 />
    <glyph glyph-name="glyph261" horiz-adv-x="500" 
d="M253 522q9 29 11 64q1 11 8 13q3 0 8 1q67 11 67 54q0 35 -28 35q-5 0 -14 -1t-14 -1q-21 0 -21 18q0 28 32 28q46 0 76 -25.5t26 -70.5q-6 -59 -87 -81q-25 -7 -31 -34h-33z" />
    <glyph glyph-name="glyph262" horiz-adv-x="541" 
d="M175 552l-48 99l200 115l197 -117l-47 -100l-150 73zM211 955l125 -83l-165 -144l-91 62z" />
    <glyph glyph-name="glyph263" horiz-adv-x="541" 
d="M175 552l-48 99l200 115l197 -117l-47 -100l-150 73zM190 872l125 83l131 -165l-91 -62z" />
    <glyph glyph-name="glyph264" horiz-adv-x="541" 
d="M175 552l-48 99l200 115l197 -117l-47 -100l-150 73zM411 671q9 29 11 64q1 11 8 13q3 0 8 1q67 11 67 54q0 35 -28 35q-5 0 -14 -1t-14 -1q-21 0 -21 18q0 28 32 28q46 0 76 -25.5t26 -70.5q-6 -59 -87 -81q-25 -7 -31 -34h-33z" />
    <glyph glyph-name="glyph265" horiz-adv-x="541" 
d="M175 552l-48 99l200 115l197 -117l-47 -100l-150 73zM235 793v0l-85 58q62 103 141 103q28 0 68 -22.5t55 -22.5q27 0 49 46l91 -50q-57 -111 -134 -111q-27 0 -56 13l-45 20q-27 12 -36 12q-26 0 -48 -46z" />
    <glyph glyph-name="glyph266" horiz-adv-x="541" 
d="M122 765h78q21 -60 110 -60t110 60h79q-4 -73 -59.5 -123.5t-129.5 -50.5q-75 0 -128 48.5t-60 125.5zM290 955l125 -83l-165 -144l-91 62z" />
    <glyph glyph-name="glyph267" horiz-adv-x="541" 
d="M122 765h78q21 -60 110 -60t110 60h79q-4 -73 -59.5 -123.5t-129.5 -50.5q-75 0 -128 48.5t-60 125.5zM137 872l125 83l131 -165l-91 -62z" />
    <glyph glyph-name="glyph268" horiz-adv-x="541" 
d="M122 765h78q21 -60 110 -60t110 60h79q-4 -73 -59.5 -123.5t-129.5 -50.5q-75 0 -128 48.5t-60 125.5zM306 671q9 29 11 64q1 11 8 13q3 0 8 1q67 11 67 54q0 35 -28 35q-5 0 -14 -1t-14 -1q-21 0 -21 18q0 28 32 28q46 0 76 -25.5t26 -70.5q-6 -59 -87 -81
q-25 -7 -31 -34h-33z" />
    <glyph glyph-name="glyph269" horiz-adv-x="541" 
d="M122 765h78q21 -60 110 -60t110 60h79q-4 -73 -59.5 -123.5t-129.5 -50.5q-75 0 -128 48.5t-60 125.5zM235 793v0l-85 58q62 103 141 103q28 0 68 -22.5t55 -22.5q27 0 49 46l91 -50q-57 -111 -134 -111q-27 0 -56 13l-45 20q-27 12 -36 12q-26 0 -48 -46z" />
    <glyph glyph-name="glyph270" horiz-adv-x="249" 
 />
  </font>
</defs>
</svg>
