<?xml version="1.0" standalone="no"?>
<!DOCTYPE svg PUBLIC "-//W3C//DTD SVG 1.1//EN" "http://www.w3.org/Graphics/SVG/1.1/DTD/svg11.dtd" >
<svg xmlns="http://www.w3.org/2000/svg" xmlns:xlink="http://www.w3.org/1999/xlink" version="1.1">
<metadata>
Created by FontForge 20170731 at Tue Oct  4 20:48:40 2005
 By Aleksey,,,
(c) Copyright 2005 by Tong Duc Thinh. All Rights Reserved
</metadata>
<defs>
<font id="SFUFuturaBold" horiz-adv-x="1405" >
  <font-face 
    font-family="SFU Futura"
    font-weight="700"
    font-stretch="normal"
    units-per-em="2048"
    panose-1="0 0 7 0 0 0 0 0 0 0"
    ascent="1638"
    descent="-410"
    x-height="1051"
    cap-height="1544"
    bbox="-350 -541 2951 2541"
    underline-thickness="154"
    underline-position="-538"
    unicode-range="U+0020-F002"
  />
<missing-glyph horiz-adv-x="1024" 
d="M128 0v2345h768v-2345h-768zM256 128h512v2089h-512v-2089z" />
    <glyph glyph-name=".notdef" horiz-adv-x="1024" 
d="M128 0v2345h768v-2345h-768zM256 128h512v2089h-512v-2089z" />
    <glyph glyph-name=".null" horiz-adv-x="0" 
 />
    <glyph glyph-name="nonmarkingreturn" horiz-adv-x="702" 
 />
    <glyph glyph-name="space" unicode=" " horiz-adv-x="702" 
 />
    <glyph glyph-name="exclam" unicode="!" horiz-adv-x="786" 
d="M393 438q100 0 170 -69.5t70 -169.5t-70 -170t-170 -70t-169.5 70t-69.5 170t69.5 169.5t169.5 69.5zM201 524v1020h387v-1020h-387z" />
    <glyph glyph-name="quotedbl" unicode="&#x22;" horiz-adv-x="1024" 
d="M96 1544h348l-55 -678h-237zM580 1544h348l-56 -678h-237z" />
    <glyph glyph-name="numbersign" unicode="#" 
d="M543 1487h217l-80 -416h207l80 416h215l-80 -416h164v-231h-201l-49 -254h192v-232h-241l-68 -354h-217l68 354h-207l-68 -354h-217l68 354h-187v232h232l49 254h-197v231h240zM637 840l-49 -254h209l53 254h-213z" />
    <glyph glyph-name="dollar" unicode="$" 
d="M139 178l168 309q184 -172 371 -172q71 0 128 38q64 43 64 112q0 73 -100 118q-74 25 -220 76.5t-222 129.5q-101 103 -101 272q0 187 115 325q120 144 303 156v248h191v-248q222 -21 372 -119l-151 -297q-125 101 -262 101q-174 0 -174 -115q0 -92 200 -160
q220 -75 310 -147q135 -109 135 -301q0 -394 -430 -500v-256h-191v244q-130 0 -264 51q-165 63 -242 135z" />
    <glyph glyph-name="percent" unicode="%" horiz-adv-x="1997" 
d="M461 1565q181 0 297 -95q125 -103 125 -280q0 -181 -123 -284q-115 -97 -299 -97t-299 97q-123 103 -123 284q0 177 125 280q116 95 297 95zM461 1360q-72 0 -123 -51t-51 -123q0 -73 50.5 -122.5t123.5 -49.5t123.5 50t50.5 122t-51 123t-123 51zM1346 1544h200
l-897 -1544h-200zM1536 735q182 0 298 -95q124 -102 124 -280q0 -182 -123 -284q-114 -96 -299 -96t-299 96q-123 102 -123 284q0 178 124 280q116 95 298 95zM1536 530q-73 0 -123.5 -50.5t-50.5 -123.5q0 -72 50.5 -122t123.5 -50t123.5 50t50.5 122q0 73 -50.5 123.5
t-123.5 50.5z" />
    <glyph glyph-name="ampersand" unicode="&#x26;" horiz-adv-x="1737" 
d="M883 383l-244 262q-145 -91 -145 -184q0 -65 56 -105q51 -37 118 -37q105 0 215 64zM805 981q143 80 143 188q0 61 -37.5 102.5t-97.5 41.5q-56 0 -92.5 -35.5t-36.5 -91.5q0 -69 121 -205zM1235 0l-133 143q-271 -184 -529 -184q-209 0 -347 114q-148 123 -148 328
q0 162 93 270q69 80 239 160l36 17l-32 45q-60 85 -74 112q-37 73 -37 156q0 192 146 312q136 112 333 112q196 0 334 -110q150 -119 150 -310q0 -132 -84 -227q-66 -75 -203 -143l195 -205q131 117 202 219l228 -217l-213 -227l346 -365h-502z" />
    <glyph glyph-name="quotesingle" unicode="'" horiz-adv-x="512" 
d="M82 1544h348l-55 -678h-238z" />
    <glyph glyph-name="parenleft" unicode="(" horiz-adv-x="721" 
d="M397 1618l224 -127q-236 -379 -236 -930q0 -241 56 -480q63 -270 180 -446l-224 -127q-150 197 -229 515q-68 273 -68 563q0 268 74 539q81 296 223 493z" />
    <glyph glyph-name="parenright" unicode=")" horiz-adv-x="721" 
d="M100 1491l224 127q142 -197 223 -493q74 -271 74 -539q0 -290 -68 -563q-79 -318 -229 -515l-224 127q117 176 180 446q56 239 56 480q0 551 -236 930z" />
    <glyph glyph-name="asterisk" unicode="*" horiz-adv-x="989" 
d="M401 1544h185l-11 -219l183 115l92 -156l-195 -102l193 -107l-92 -153l-181 116l9 -207h-185l13 205l-174 -110l-93 155l185 103l-191 104l94 156l179 -113z" />
    <glyph glyph-name="plus" unicode="+" 
d="M549 680v371h307v-371h371v-307h-371v-373h-307v373h-371v307h371z" />
    <glyph glyph-name="comma" unicode="," horiz-adv-x="702" 
d="M311 391h351l-377 -680h-240z" />
    <glyph glyph-name="hyphen" unicode="-" horiz-adv-x="803" 
d="M109 811h585v-307h-585v307z" />
    <glyph glyph-name="hyphen" unicode="&#x2010;" horiz-adv-x="803" 
d="M109 811h585v-307h-585v307z" />
    <glyph glyph-name="period" unicode="." horiz-adv-x="702" 
d="M352 438q100 0 170 -69.5t70 -169.5t-70 -170t-170 -70t-169.5 70t-69.5 170t69.5 169.5t169.5 69.5z" />
    <glyph glyph-name="slash" unicode="/" horiz-adv-x="1186" 
d="M838 1700h292l-782 -1890h-293z" />
    <glyph glyph-name="zero" unicode="0" 
d="M702 1606q320 0 500 -267q156 -232 156 -567q0 -337 -155 -567q-179 -266 -501 -266q-321 0 -500 266q-155 230 -155 567q0 335 156 567q180 267 499 267zM702 1251q-136 0 -205 -182q-51 -134 -51 -295t51 -297q69 -184 205 -184q137 0 206 184q50 134 50 297t-50 295
q-69 182 -206 182z" />
    <glyph glyph-name="one" unicode="1" 
d="M551 1204h-221v340h622v-1544h-401v1204z" />
    <glyph glyph-name="two" unicode="2" 
d="M803 340h506v-340h-1241l630 686q176 192 176 379q0 78 -48 138q-51 63 -128 63q-79 0 -125 -56q-43 -52 -43 -133q0 -31 7 -65h-443q10 271 171 432.5t431 161.5q251 0 419 -147q177 -155 177 -402q0 -155 -66 -275q-54 -97 -184 -219z" />
    <glyph glyph-name="three" unicode="3" 
d="M522 1100h-372q24 238 180 373q153 133 393 133q215 0 350 -115q144 -123 144 -334q0 -226 -162 -317q116 -31 187 -152q65 -109 65 -237q0 -241 -185 -383q-168 -129 -415 -129q-290 0 -461 174q-75 76 -124 179q-55 114 -52 210h409q0 -95 60.5 -157t154.5 -62
t154.5 56.5t60.5 149.5q0 87 -63 147t-150 60q-24 0 -69 -12v268h41q79 0 127.5 46t48.5 124q0 70 -44 113t-114 43q-76 0 -120.5 -50.5t-43.5 -127.5z" />
    <glyph glyph-name="four" unicode="4" 
d="M1155 627h186v-308h-186v-319h-373v319h-749v256l596 969h526v-917zM782 627v594h-4l-360 -594h364z" />
    <glyph glyph-name="five" unicode="5" horiz-adv-x="1411" 
d="M1157 1204h-534l-27 -176l127 10q25 2 42 2q224 0 368 -168q137 -159 137 -387q0 -256 -199 -417q-159 -129 -450 -129q-288 0 -504 139l59 379q199 -178 430 -178q100 0 173 64t73 163q0 130 -108 202q-94 62 -230 62q-159 0 -295 -63l135 837h803v-340z" />
    <glyph glyph-name="six" unicode="6" 
d="M627 1544h454l-438 -522l4 -4q107 47 215 47q221 0 362 -163q134 -156 134 -380q0 -272 -200 -434q-184 -149 -464 -149q-431 0 -590 324q-57 114 -57 233q0 290 248 614zM692 254q106 0 177 74.5t71 181.5q0 106 -71 179t-177 73q-105 0 -179.5 -73.5t-74.5 -178.5
q0 -106 74 -181t180 -75z" />
    <glyph glyph-name="seven" unicode="7" 
d="M791 1204h-646v340h1268l-887 -1544h-440z" />
    <glyph glyph-name="eight" unicode="8" 
d="M702 1327q-71 0 -120.5 -51t-49.5 -123t49.5 -123t120.5 -51q72 0 121 51t49 123t-49 123t-121 51zM702 649q-78 0 -131 -56.5t-53 -135.5q0 -78 53 -133.5t131 -55.5t131.5 55t53.5 134t-53 135.5t-132 56.5zM702 1606q215 0 363 -110q164 -122 164 -331
q0 -118 -66 -214q-67 -99 -178 -136v-4q143 -47 223 -150q84 -107 84 -255q0 -223 -195 -354q-169 -113 -395 -113q-225 0 -394 113q-195 131 -195 354q0 148 84 255q80 103 223 150v4q-111 37 -178 136q-66 96 -66 214q0 209 164 331q148 110 362 110z" />
    <glyph glyph-name="nine" unicode="9" 
d="M780 0h-456l440 520l-4 4q-107 -47 -217 -47q-221 0 -362 165q-134 156 -134 380q0 273 200 435q184 149 464 149q276 0 440 -133q94 -76 150.5 -191t56.5 -235q0 -290 -248 -615zM713 1288q-107 0 -177.5 -73.5t-70.5 -180.5t71 -180.5t177 -73.5q107 0 181.5 73.5
t74.5 180.5t-74.5 180.5t-181.5 73.5z" />
    <glyph glyph-name="colon" unicode=":" horiz-adv-x="702" 
d="M352 438q100 0 170 -69.5t70 -169.5t-70 -170t-170 -70t-169.5 70t-69.5 170t69.5 169.5t169.5 69.5zM352 1128q101 0 170.5 -69t69.5 -170q0 -100 -70 -170t-170 -70t-169.5 70t-69.5 170q0 101 69 170t170 69z" />
    <glyph glyph-name="semicolon" unicode=";" horiz-adv-x="702" 
d="M283 391h350l-377 -680h-240zM446 1128q101 0 170.5 -69t69.5 -170q0 -100 -70 -170t-170 -70t-169.5 70t-69.5 170t69.5 169.5t169.5 69.5z" />
    <glyph glyph-name="less" unicode="&#x3c;" 
d="M203 403v246l1001 373v-307l-561 -187v-4l561 -186v-307z" />
    <glyph glyph-name="equal" unicode="=" 
d="M178 926h1049v-308h-1049v308zM178 434h1049v-307h-1049v307z" />
    <glyph glyph-name="greater" unicode="&#x3e;" 
d="M1204 649v-246l-1001 -372v307l561 186v4l-561 187v307z" />
    <glyph glyph-name="question" unicode="?" horiz-adv-x="1219" 
d="M381 516v397q48 -10 86 -10q99 0 176 51q88 58 88 152q0 64 -42.5 109t-106.5 45q-144 0 -144 -156h-407q1 223 173 357q159 124 388 124q208 0 358 -127q176 -149 176 -354q0 -166 -107 -284q-96 -106 -263 -158v-146h-375zM575 438q100 0 170 -69.5t70 -169.5t-70 -170
t-170 -70t-169.5 70t-69.5 170t69.5 169.5t169.5 69.5z" />
    <glyph glyph-name="at" unicode="@" horiz-adv-x="1516" 
d="M573 725q0 -77 39 -129q43 -59 117 -59q92 0 147 86q48 74 48 172q0 72 -39 117q-41 49 -111 49q-85 0 -145 -77q-56 -71 -56 -159zM1212 1167l-102 -532q-14 -73 -14 -90q0 -49 39 -45q77 8 141 147q54 116 59 209q1 20 1 38q0 233 -161 370q-152 129 -389 129
q-263 0 -426 -181q-157 -174 -157 -440q0 -275 172 -447.5t446 -172.5q236 0 367 81l168 -135q-271 -139 -551 -139q-342 0 -570 236q-225 233 -225 577q0 340 220 574q225 239 563 239q282 0 481 -178q229 -205 229 -479q0 -267 -127 -436q-141 -188 -315 -181
q-45 2 -82 39q-34 33 -45 80q-103 -119 -262 -119q-146 0 -247 119q-97 114 -97 262q0 194 109 337q120 157 308 157q164 0 252 -127l21 108h194z" />
    <glyph glyph-name="A" unicode="A" horiz-adv-x="1599" 
d="M1077 268h-553l-106 -268h-426l594 1544h438l582 -1544h-428zM969 575l-164 492h-4l-166 -492h334z" />
    <glyph glyph-name="B" unicode="B" horiz-adv-x="1386" 
d="M532 639v-332h52q145 0 204 18q115 35 115 146q0 121 -116 154q-49 14 -214 14h-41zM750 0h-619v1544h574q458 0 458 -401q0 -229 -170 -316v-4q316 -41 316 -393q0 -225 -175 -337q-146 -93 -384 -93zM532 1237v-299h46q217 0 217 149q0 95 -76 128q-50 22 -158 22h-29z
" />
    <glyph glyph-name="C" unicode="C" horiz-adv-x="1352" 
d="M1235 1507v-481q-126 170 -352 170q-183 0 -297.5 -122t-114.5 -306q0 -186 116 -303t302 -117q209 0 346 164v-481q-233 -72 -354 -72q-347 0 -586 231q-242 234 -242 580q0 331 228 565q244 250 587 250q179 0 367 -78z" />
    <glyph glyph-name="D" unicode="D" horiz-adv-x="1540" 
d="M131 0v1544h569q327 0 556 -223t229 -549q0 -325 -229.5 -548.5t-555.5 -223.5h-569zM532 1204v-864h91q205 0 324.5 114t119.5 318q0 201 -119 316.5t-321 115.5h-95z" />
    <glyph glyph-name="E" unicode="E" horiz-adv-x="1126" 
d="M1010 1204h-478v-258h453v-340h-453v-266h478v-340h-879v1544h879v-340z" />
    <glyph glyph-name="F" unicode="F" horiz-adv-x="1110" 
d="M1018 1204h-486v-258h441v-340h-441v-606h-401v1544h887v-340z" />
    <glyph glyph-name="G" unicode="G" horiz-adv-x="1724" 
d="M874 862h797q-3 -198 -29 -317q-36 -162 -129 -293q-216 -303 -636 -303q-366 0 -595 225t-229 590q0 376 230.5 603.5t607.5 227.5q497 0 696 -432l-381 -159q-92 245 -334 245q-186 0 -299 -155q-102 -140 -102 -332q0 -194 105 -332q115 -151 303 -151q135 0 220 66
q91 71 103 202h-328v315z" />
    <glyph glyph-name="H" unicode="H" horiz-adv-x="1645" 
d="M532 948h580v596h401v-1544h-401v633h-580v-633h-401v1544h401v-596z" />
    <glyph glyph-name="I" unicode="I" horiz-adv-x="664" 
d="M532 1544v-1544h-401v1544h401z" />
    <glyph glyph-name="J" unicode="J" horiz-adv-x="1001" 
d="M477 1544h402v-1042q0 -253 -128 -395q-134 -148 -384 -148q-249 0 -398 227l232 244q96 -131 161 -131q78 0 102 81q13 44 13 146v1018z" />
    <glyph glyph-name="K" unicode="K" horiz-adv-x="1552" 
d="M537 907l485 637h498l-615 -731l670 -813h-520l-518 670h-5v-670h-401v1544h401v-637h5z" />
    <glyph glyph-name="L" unicode="L" horiz-adv-x="1014" 
d="M532 1544v-1204h482v-340h-883v1544h401z" />
    <glyph glyph-name="M" unicode="M" horiz-adv-x="2013" 
d="M39 0l262 1544h395l314 -825l331 825h400l233 -1544h-401l-113 889h-4l-371 -889h-159l-355 889h-4l-129 -889h-399z" />
    <glyph glyph-name="N" unicode="N" horiz-adv-x="1804" 
d="M131 0v1544h401l736 -944h4v944h401v-1544h-401l-735 946h-5v-946h-401z" />
    <glyph glyph-name="O" unicode="O" horiz-adv-x="1817" 
d="M907 1595q347 0 596 -221q258 -230 258 -573q0 -375 -239.5 -613.5t-614.5 -238.5t-614.5 238.5t-239.5 613.5q0 341 261 572q250 222 593 222zM907 1206q-171 0 -301 -117q-135 -121 -135 -290q0 -192 121 -324q125 -137 315 -137t315 137q121 132 121 324
q0 170 -135 290q-130 117 -301 117z" />
    <glyph glyph-name="P" unicode="P" horiz-adv-x="1354" 
d="M131 0v1544h614q261 0 406 -121q156 -131 156 -387q0 -524 -547 -524h-228v-512h-401zM532 1221v-385h68q146 0 199 23q90 39 90 165q0 130 -86 171q-55 26 -203 26h-68z" />
    <glyph glyph-name="Q" unicode="Q" horiz-adv-x="1817" 
d="M1163 651l109 -112q71 99 71 227q0 180 -127.5 310t-306.5 130q-171 0 -302 -117q-136 -121 -136 -290q0 -192 122 -325q126 -136 316 -136q65 0 123 20l-248 246zM1823 -39l-369 -57l-123 145q-166 -100 -424 -100q-375 0 -614.5 238.5t-239.5 613.5q0 341 261 572
q250 222 593 222q372 0 611 -226q243 -230 243 -601q0 -297 -198 -543z" />
    <glyph glyph-name="R" unicode="R" horiz-adv-x="1393" 
d="M930 633l485 -633h-500l-378 594h-5v-594h-401v1544h600q242 0 383 -114q154 -124 154 -361q0 -166 -87 -284q-92 -124 -251 -152zM532 1237v-385h39q279 0 279 192q0 193 -279 193h-39z" />
    <glyph glyph-name="S" unicode="S" horiz-adv-x="1262" 
d="M1139 1458l-160 -311q-123 102 -266 102q-64 0 -114 -32q-58 -36 -58 -97q0 -93 178 -147l102 -31q183 -56 271 -141q110 -107 110 -281q0 -273 -164 -420q-157 -141 -434 -141q-291 0 -543 176l172 324q183 -160 357 -160q79 0 133 37q61 43 61 119q0 73 -89 121
q-45 24 -154 55q-224 64 -304 133q-114 98 -114 303q0 235 148 376.5t384 141.5q260 0 484 -127z" />
    <glyph glyph-name="T" unicode="T" horiz-adv-x="1092" 
d="M745 1204v-1204h-401v1204h-332v340h1065v-340h-332z" />
    <glyph glyph-name="U" unicode="U" horiz-adv-x="1593" 
d="M1069 1544h401v-868q0 -190 -23 -291q-35 -153 -138 -254q-176 -172 -512 -172t-512 172q-104 101 -139 254q-23 99 -23 291v868h401v-813q0 -196 40 -285q61 -135 233 -135t233 135q39 87 39 285v813z" />
    <glyph glyph-name="V" unicode="V" horiz-adv-x="1559" 
d="M406 1544l372 -938l375 938h436l-659 -1544h-312l-649 1544h437z" />
    <glyph glyph-name="W" unicode="W" horiz-adv-x="2288" 
d="M387 1544l268 -997h4l324 997h320l303 -997h4l291 997h417l-493 -1544h-410l-270 895h-4l-303 -895h-408l-461 1544h418z" />
    <glyph glyph-name="X" unicode="X" horiz-adv-x="1616" 
d="M588 825l-494 719h494l235 -399l236 399h493l-493 -719l571 -825h-483l-324 504l-354 -504h-485z" />
    <glyph glyph-name="Y" unicode="Y" horiz-adv-x="1462" 
d="M530 741l-569 803h481l289 -420l289 420h481l-569 -803v-741h-402v741z" />
    <glyph glyph-name="Z" unicode="Z" horiz-adv-x="1448" 
d="M698 340h648v-340h-1323l731 1204h-607v340h1278z" />
    <glyph glyph-name="bracketleft" unicode="[" horiz-adv-x="717" 
d="M391 1401v-1675h219v-218h-504v2110h504v-217h-219z" />
    <glyph glyph-name="backslash" unicode="\" horiz-adv-x="1186" 
d="M55 1700h295l780 -1700h-290z" />
    <glyph glyph-name="bracketright" unicode="]" horiz-adv-x="717" 
d="M326 -274v1675h-220v217h504v-2110h-504v218h220z" />
    <glyph glyph-name="asciicircum" unicode="^" 
d="M444 696l-233 138l369 772h245l369 -772l-233 -138l-259 551z" />
    <glyph glyph-name="underscore" unicode="_" horiz-adv-x="1024" 
d="M1024 -385h-1024v154h1024v-154z" />
    <glyph glyph-name="grave" unicode="`" horiz-adv-x="823" 
d="M154 1516l227 163l289 -352l-166 -121z" />
    <glyph glyph-name="a" unicode="a" horiz-adv-x="1397" 
d="M672 762q-106 0 -173 -66.5t-67 -171.5q0 -107 66.5 -171t173.5 -64t173 64.5t66 170.5q0 105 -67 171.5t-172 66.5zM1272 1051v-1051h-373v117h-4q-95 -152 -317 -152q-230 0 -383 167q-148 162 -148 394t146 393q150 166 380 166q210 0 326 -137v103h373z" />
    <glyph glyph-name="b" unicode="b" horiz-adv-x="1397" 
d="M111 0v1700h372v-752q119 137 326 137q231 0 381 -166q145 -160 145 -393q0 -234 -147 -395q-151 -166 -383 -166q-220 0 -318 152h-4v-117h-372zM711 762q-106 0 -173 -66.5t-67 -171.5q0 -107 66.5 -171t173.5 -64t173 64.5t66 170.5q0 105 -67 171.5t-172 66.5z" />
    <glyph glyph-name="c" unicode="c" horiz-adv-x="989" 
d="M881 1024v-315q-100 73 -193 73q-109 0 -182.5 -73.5t-73.5 -182.5q0 -114 73.5 -186t188.5 -72q108 0 187 72v-315q-119 -60 -263 -60q-237 0 -402 155q-169 158 -169 394q0 251 168 411t420 160q135 0 246 -61z" />
    <glyph glyph-name="d" unicode="d" horiz-adv-x="1397" 
d="M913 0v117h-4q-95 -152 -317 -152q-230 0 -383 167q-148 162 -148 394q0 233 146 393q151 166 381 166q210 0 325 -137v752h373v-1700h-373zM686 762q-106 0 -173 -66.5t-67 -171.5q0 -107 66.5 -171t173.5 -64t173.5 64t66.5 171q0 105 -67 171.5t-173 66.5z" />
    <glyph glyph-name="e" unicode="e" horiz-adv-x="1249" 
d="M424 678h432q-14 75 -74 120.5t-137 45.5q-187 0 -221 -166zM1202 502v-39h-784q0 -234 233 -234q122 0 178 97h359q-42 -178 -200 -274q-142 -87 -335 -87q-269 0 -434 143q-174 151 -174 416q0 260 162 412q159 149 420 149q271 0 423 -155.5t152 -427.5z" />
    <glyph glyph-name="f" unicode="f" horiz-adv-x="795" 
d="M532 743v-743h-372v743h-131v308h131v133q0 131 15 195q22 93 91 173q145 168 367 168q89 0 160 -37v-321q-82 35 -131 35q-130 0 -130 -176v-170h261v-308h-261z" />
    <glyph glyph-name="g" unicode="g" horiz-adv-x="1386" 
d="M1276 1051v-949q0 -626 -608 -626q-208 0 -378 97q-198 113 -220 304h417q29 -104 177 -104q139 0 194 86q45 68 45 215v49q-143 -143 -334 -143q-229 0 -375 154q-143 151 -143 382q0 239 149 401q153 168 390 168q206 0 309 -145h4v111h373zM676 770q-107 0 -173.5 -66
t-66.5 -172q0 -107 66.5 -171t173.5 -64t173 64.5t66 170.5t-66.5 172t-172.5 66z" />
    <glyph glyph-name="h" unicode="h" horiz-adv-x="1354" 
d="M123 1700h373v-782h4q126 167 336 167q198 0 300 -125q95 -115 95 -317v-643h-373v539q0 249 -168 249q-194 0 -194 -249v-539h-373v1700z" />
    <glyph glyph-name="i" unicode="i" horiz-adv-x="618" 
d="M496 1051v-1051h-373v1051h373zM309 1663q87 0 148 -61t61 -148t-61 -148t-148 -61t-148 61t-61 148t61 148t148 61z" />
    <glyph glyph-name="j" unicode="j" horiz-adv-x="618" 
d="M496 1051v-1575h-373v1575h373zM309 1663q87 0 148 -61t61 -148t-61 -148t-148 -61t-148 61t-61 148t61 148t148 61z" />
    <glyph glyph-name="k" unicode="k" horiz-adv-x="1409" 
d="M496 1700v-1028l387 379h510l-527 -486l559 -565h-522l-407 428v-428h-373v1700h373z" />
    <glyph glyph-name="l" unicode="l" horiz-adv-x="618" 
d="M496 1700v-1700h-373v1700h373z" />
    <glyph glyph-name="m" unicode="m" horiz-adv-x="2025" 
d="M496 1051v-131h4q125 165 331 165q250 0 359 -200q52 95 150 149q94 51 206 51q359 0 359 -415v-670h-373v502q0 129 -18 184q-33 102 -136 102q-114 0 -153 -96q-25 -61 -25 -190v-502h-373v502q0 134 -20 191q-36 104 -145 104q-110 0 -146 -104q-20 -57 -20 -191v-502
h-373v1051h373z" />
    <glyph glyph-name="n" unicode="n" horiz-adv-x="1354" 
d="M496 1051v-136h4q115 170 336 170q395 0 395 -436v-649h-373v512q0 131 -15 176q-33 100 -153 100q-194 0 -194 -243v-545h-373v1051h373z" />
    <glyph glyph-name="o" unicode="o" horiz-adv-x="1356" 
d="M678 1085q266 0 443 -145q190 -156 190 -416q0 -259 -191 -415q-177 -144 -442 -144t-442 144q-191 155 -191 415t190 416q177 145 443 145zM678 762q-106 0 -173 -66.5t-67 -171.5q0 -107 66.5 -171t173.5 -64t173.5 64t66.5 171q0 105 -67 171.5t-173 66.5z" />
    <glyph glyph-name="p" unicode="p" horiz-adv-x="1397" 
d="M483 1051v-119h4q100 153 318 153q232 0 383 -167q147 -162 147 -396q0 -233 -145 -393q-150 -164 -381 -164q-209 0 -326 135v-624h-372v1575h372zM711 762q-106 0 -173 -66.5t-67 -171.5q0 -107 66.5 -171t173.5 -64t173 64.5t66 170.5q0 105 -67 171.5t-172 66.5z" />
    <glyph glyph-name="q" unicode="q" horiz-adv-x="1397" 
d="M1286 1051v-1575h-373v624q-114 -135 -325 -135q-231 0 -381 164q-146 159 -146 393q0 232 148 395q153 168 383 168q221 0 317 -153h4v119h373zM686 762q-106 0 -173 -66.5t-67 -171.5q0 -107 66.5 -171t173.5 -64t173.5 64t66.5 171q0 105 -67 171.5t-173 66.5z" />
    <glyph glyph-name="r" unicode="r" horiz-adv-x="928" 
d="M496 1051v-172h4q103 186 340 186h71v-358q-62 34 -157 34q-258 0 -258 -317v-424h-373v1051h373z" />
    <glyph glyph-name="s" unicode="s" horiz-adv-x="1051" 
d="M942 1018l-125 -238q-95 51 -201 51q-116 0 -116 -71q0 -46 64 -69q14 -5 104 -23q305 -61 305 -312q0 -193 -157 -299q-136 -92 -339 -92q-227 0 -424 121l135 260q152 -106 295 -106q43 0 76 18q41 22 41 61q0 62 -121 91q-176 42 -225 70q-121 70 -121 233
q0 181 146 283q128 89 317 89q197 0 346 -67z" />
    <glyph glyph-name="t" unicode="t" horiz-adv-x="737" 
d="M530 743v-743h-372v743h-121v308h121v315h372v-315h211v-308h-211z" />
    <glyph glyph-name="u" unicode="u" horiz-adv-x="1350" 
d="M117 1051h372v-562q0 -227 187 -227q107 0 150 63q36 52 36 164v562h373v-633q0 -453 -559 -453t-559 453v633z" />
    <glyph glyph-name="v" unicode="v" horiz-adv-x="1276" 
d="M387 1051l252 -539l250 539h418l-549 -1051h-238l-551 1051h418z" />
    <glyph glyph-name="w" unicode="w" horiz-adv-x="2040" 
d="M383 1051l262 -570l264 570h221l265 -570l264 570h412l-549 -1051h-242l-260 575l-260 -575h-242l-549 1051h414z" />
    <glyph glyph-name="x" unicode="x" horiz-adv-x="1458" 
d="M494 569l-426 482h473l188 -217l189 217h481l-434 -482l524 -569h-490l-270 311l-270 -311h-490z" />
    <glyph glyph-name="y" unicode="y" horiz-adv-x="1339" 
d="M477 143l-508 908h430l281 -539l274 539h424l-841 -1575h-418z" />
    <glyph glyph-name="z" unicode="z" horiz-adv-x="1145" 
d="M639 309h442v-309h-1065l494 741h-428v310h1048z" />
    <glyph glyph-name="braceleft" unicode="{" horiz-adv-x="721" 
d="M74 465v213q62 0 87 10q56 23 56 98v519q0 146 88 238q71 75 144 75h198v-246h-51q-63 0 -82 -39q-12 -24 -12 -82v-460q0 -186 -197 -218v-4q82 -10 122 -41q75 -58 75 -198v-455q0 -59 12 -83q19 -38 82 -38h51v-246h-198q-73 0 -144 74q-88 91 -88 236v518
q0 92 -56 118q-23 11 -87 11z" />
    <glyph glyph-name="bar" unicode="|" horiz-adv-x="1186" 
d="M748 1700v-1700h-308v1700h308z" />
    <glyph glyph-name="braceright" unicode="}" horiz-adv-x="721" 
d="M647 678v-213q-64 0 -87 -11q-56 -26 -56 -118v-518q0 -145 -88 -236q-71 -74 -144 -74h-198v246h51q63 0 82 38q12 24 12 83v455q0 140 75 198q40 31 122 41v4q-197 32 -197 218v460q0 59 -12 82q-20 39 -82 39h-51v246h198q73 0 144 -75q88 -92 88 -238v-519
q0 -75 56 -98q25 -10 87 -10z" />
    <glyph glyph-name="asciitilde" unicode="~" 
d="M1071 764v0l234 -199q-84 -141 -143 -205q-105 -114 -216 -114q-67 0 -137 33q-26 12 -115 65q-38 25 -113 72t-116 47q-58 0 -133 -172l-232 196q49 68 150 201q99 121 211 121q113 0 262 -115q133 -102 221 -102q63 0 127 172z" />
    <glyph glyph-name="euro" horiz-adv-x="1020" 
d="M1069 1296l-47 -319l-98 12q0 322 -193 322q-211 0 -330 -432h353l-43 -99h-336q-13 -49 -33 -149h301l-43 -96h-274q-13 -84 -13 -152q0 -115 43 -186q53 -88 160 -88q119 0 207 139q49 77 104 244l113 -21l-111 -385q-157 -109 -325 -109q-228 0 -341 173
q-95 145 -95 385h-152l43 96h115q6 51 24 149h-135l43 99h121q84 228 221 374q170 181 383 181q193 0 338 -138z" />
    <glyph glyph-name="exclamdown" unicode="&#xa1;" horiz-adv-x="786" 
d="M393 1090q101 0 170.5 -69.5t69.5 -170.5q0 -100 -70 -170t-170 -70t-169.5 70t-69.5 170q0 101 69 170.5t170 69.5zM201 522h387v-1020h-387v1020z" />
    <glyph glyph-name="cent" unicode="&#xa2;" 
d="M807 20v203q-216 9 -367 170.5t-151 378.5q0 230 144 384t374 175v191h190v-203l119 -35v-334q-81 78 -180 78q-111 0 -184.5 -70t-73.5 -180q0 -106 70.5 -179t175.5 -73q126 0 192 78v-334q-78 -28 -119 -32v-218h-190z" />
    <glyph glyph-name="sterling" unicode="&#xa3;" 
d="M979 614h-291q19 -52 19 -138q0 -84 -19 -136l23 -8q201 -70 303 -70q104 0 104 100h250q-13 -179 -104 -282q-99 -113 -273 -113q-76 0 -282 58q-181 51 -260 51q-110 0 -130 -76h-266q27 144 116 246q101 115 237 116q19 43 19 88q0 77 -56 164h-330v156h221
q-74 119 -74 262q0 231 166 391q156 150 432 150q302 0 436 -141q131 -137 134 -441h-398v72q0 78 -54 136t-132 58q-91 0 -143 -62.5t-52 -154.5q0 -147 84 -270h320v-156z" />
    <glyph glyph-name="currency" unicode="&#xa4;" 
d="M100 311l136 135q-103 136 -103 328q0 214 103 338l-136 137l127 129l138 -137q139 107 344 107q201 0 327 -107l138 137l126 -127l-126 -129q110 -148 110 -344q0 -201 -115 -329l136 -136l-123 -133l-138 135q-130 -110 -335 -110q-212 0 -347 112l-135 -135zM709 1040
q-115 0 -192 -78.5t-77 -193.5t78 -186q75 -70 191 -70t192 70.5t76 185.5t-76.5 193.5t-191.5 78.5z" />
    <glyph glyph-name="yen" unicode="&#xa5;" 
d="M1296 913h-290l-115 -172h405v-155h-405v-586h-377v586h-410v155h408l-117 172h-291v156h189l-316 475h455l270 -420l271 420h454l-317 -475h186v-156z" />
    <glyph glyph-name="brokenbar" unicode="&#xa6;" horiz-adv-x="1186" 
d="M748 676v-676h-308v676h308zM748 1700v-676h-308v676h308z" />
    <glyph glyph-name="section" unicode="&#xa7;" 
d="M584 553l342 -170q53 43 53 111q0 77 -150 153l-335 170q-64 -37 -64 -110q0 -57 52 -97q23 -18 102 -57zM1153 1206h-322q-28 123 -145 123q-48 0 -81.5 -28t-33.5 -76q0 -66 66 -114q19 -14 125 -67l227 -114q155 -78 214 -139q87 -90 87 -234q0 -185 -172 -321
q105 -93 105 -267q0 -209 -167 -331q-150 -109 -368 -109q-235 0 -396 118q-181 132 -171 359h375q-3 -78 61 -133q60 -53 139 -53q66 0 109 35q47 38 47 102q0 63 -59 107q-23 17 -113 61l-324 158q-239 117 -239 338q0 187 176 333q-92 89 -92 240q0 186 145 294
q130 97 322 97q202 0 329 -87q147 -100 156 -292z" />
    <glyph glyph-name="dieresis" unicode="&#xa8;" horiz-adv-x="1237" 
d="M356 1638q84 0 142.5 -58t58.5 -142q0 -85 -58 -143t-143 -58t-143.5 58t-58.5 143q0 84 59 142t143 58zM881 1638q84 0 142 -58t58 -142t-58 -142.5t-142 -58.5q-86 0 -144.5 58t-58.5 143q0 84 59 142t144 58z" />
    <glyph glyph-name="copyright" unicode="&#xa9;" horiz-adv-x="1638" 
d="M819 -41q-340 0 -575.5 235.5t-235.5 575.5q0 342 234.5 578.5t576.5 236.5q341 0 576 -237t235 -578q0 -340 -235.5 -575.5t-575.5 -235.5zM819 152q267 0 443 175.5t176 442.5q0 269 -175 446t-444 177q-271 0 -444.5 -176t-173.5 -447q0 -269 174.5 -443.5
t443.5 -174.5zM1233 940h-184q-25 150 -201 150q-121 0 -190 -97q-62 -86 -62 -211q0 -120 68 -212q74 -101 190 -101q75 0 130 41q60 45 65 117h184q-17 -144 -126 -232q-105 -84 -253 -84q-200 0 -325.5 133t-125.5 334q0 208 119 336q122 133 328 133q148 0 251 -80
q108 -83 132 -227z" />
    <glyph glyph-name="ordfeminine" unicode="&#xaa;" horiz-adv-x="838" 
d="M817 645h-794v154h794v-154zM428 1106q63 0 109.5 40.5t46.5 102.5t-46.5 103t-109.5 41t-109.5 -41t-46.5 -103t46.5 -102.5t109.5 -40.5zM575 934v70h-4q-60 -91 -204 -91t-244 96t-100 240q0 146 98 241t244 95q135 0 210 -82v62h242v-631h-242z" />
    <glyph glyph-name="guillemotleft" unicode="&#xab;" horiz-adv-x="1235" 
d="M862 655l264 -356l-211 -147l-352 503l352 504l205 -141zM352 655l264 -356l-210 -147l-353 503l353 504l204 -141z" />
    <glyph glyph-name="logicalnot" unicode="&#xac;" 
d="M920 289v329h-742v308h1049v-637h-307z" />
    <glyph glyph-name="sfthyphen" unicode="&#xad;" horiz-adv-x="692" 
d="M16 356l68 250h504l-68 -250h-504z" />
    <glyph glyph-name="registered" unicode="&#xae;" horiz-adv-x="1638" 
d="M819 -41q-340 0 -575.5 235.5t-235.5 575.5q0 342 234.5 578.5t576.5 236.5q341 0 576 -237t235 -578q0 -340 -235.5 -575.5t-575.5 -235.5zM819 152q267 0 443 175.5t176 442.5q0 269 -175 446t-444 177q-271 0 -444.5 -176t-173.5 -447q0 -269 174.5 -443.5
t443.5 -174.5zM1004 715l204 -357h-204l-189 357h-131v-357h-188v844h409q166 0 237 -45q91 -58 91 -213q0 -214 -229 -229zM684 842h225q76 0 108 23q40 29 40 104q0 56 -65 75q-37 11 -126 11h-182v-213z" />
    <glyph glyph-name="macron" unicode="&#xaf;" horiz-adv-x="1235" 
d="M154 1540h925v-219h-925v219z" />
    <glyph glyph-name="macron" unicode="&#x2c9;" horiz-adv-x="1235" 
d="M154 1540h925v-219h-925v219z" />
    <glyph glyph-name="degree" unicode="&#xb0;" horiz-adv-x="819" 
d="M717 1276q0 -127 -91 -216t-218 -89q-128 0 -216 88.5t-90 216.5q-2 129 87.5 219t218.5 90q127 0 218 -91t91 -218zM543 1278q0 55 -40 94t-95 39q-54 0 -93 -39.5t-39 -93.5q1 -56 39.5 -94.5t94.5 -38.5q55 0 94 39t39 94z" />
    <glyph glyph-name="plusminus" unicode="&#xb1;" 
d="M549 1049v290h307v-290h371v-308h-371v-290h-307v290h-371v308h371zM178 307h1049v-307h-1049v307z" />
    <glyph glyph-name="twosuperior" unicode="&#xb2;" horiz-adv-x="844" 
d="M641 981l-156 -135h328v-203h-807l412 412q114 114 114 227q0 47 -33.5 83t-80.5 36q-111 0 -111 -113q0 -10 4 -39h-286q6 168 115 264q106 93 276 93q158 0 267 -84q120 -93 120 -246q0 -94 -43 -165q-34 -57 -119 -130z" />
    <glyph glyph-name="threesuperior" unicode="&#xb3;" horiz-adv-x="844" 
d="M8 944h266q0 -58 40.5 -93.5t99.5 -35.5t99 32.5t40 90.5q0 53 -41.5 88t-95.5 35q-5 -1 -47 -6v159h26q115 0 115 103q0 92 -102 92q-47 0 -77 -29.5t-30 -76.5h-242q17 147 122 228q99 75 251 75q134 0 223 -66q99 -73 99 -203q0 -134 -107 -190q74 -18 121 -88
q43 -66 43 -146q0 -147 -126 -231q-109 -74 -263 -74q-186 0 -299 105q-121 113 -115 231z" />
    <glyph glyph-name="acute" unicode="&#xb4;" horiz-adv-x="823" 
d="M670 1516l-351 -310l-165 121l288 352z" />
    <glyph glyph-name="mu" unicode="&#xb5;" horiz-adv-x="1350" 
d="M117 1051h372v-562q0 -227 187 -227q107 0 150 63q36 52 36 164v562h373v-633q0 -240 -166 -360q-129 -93 -311 -93q-164 0 -269 101v-590h-372v1575z" />
    <glyph glyph-name="mu" unicode="&#x3bc;" horiz-adv-x="1350" 
d="M117 1051h372v-562q0 -227 187 -227q107 0 150 63q36 52 36 164v562h373v-633q0 -240 -166 -360q-129 -93 -311 -93q-164 0 -269 101v-590h-372v1575z" />
    <glyph glyph-name="paragraph" unicode="&#xb6;" 
d="M537 1544h772v-186h-135v-1706h-207v1704h-191v-1704h-207v942q-216 21 -342 141q-133 127 -133 340q0 176 132 321q136 148 311 148z" />
    <glyph glyph-name="ch270" unicode="&#xb7;" horiz-adv-x="510" 
d="M78 713q0 70 47 117t117 47t118 -47t48 -117t-48 -118t-118 -48t-117 48t-47 118z" />
    <glyph glyph-name="ch270" unicode="&#x2219;" horiz-adv-x="510" 
d="M78 713q0 70 47 117t117 47t118 -47t48 -117t-48 -118t-118 -48t-117 48t-47 118z" />
    <glyph glyph-name="cedilla" unicode="&#xb8;" horiz-adv-x="778" 
d="M623 -193l-310 -292l-159 100l266 324z" />
    <glyph glyph-name="onesuperior" unicode="&#xb9;" horiz-adv-x="844" 
d="M334 1366h-144v203h404v-926h-260v723z" />
    <glyph glyph-name="ordmasculine" unicode="&#xba;" horiz-adv-x="840" 
d="M420 1585q168 0 282 -82q129 -93 129 -254q0 -160 -129 -253q-115 -83 -282 -83q-166 0 -281 83q-129 93 -129 253q0 161 128 254q115 82 282 82zM420 1391q-62 0 -107 -39q-47 -42 -47 -103q0 -62 47 -102q44 -39 107 -39t109 39.5t46 101.5q0 61 -47 103
q-46 39 -108 39zM831 645h-821v154h821v-154z" />
    <glyph glyph-name="guillemotright" unicode="&#xbb;" horiz-adv-x="1235" 
d="M109 299l264 356l-258 363l204 141l353 -504l-353 -503zM618 299l265 356l-258 363l204 141l353 -504l-353 -503z" />
    <glyph glyph-name="onequarter" unicode="&#xbc;" horiz-adv-x="2107" 
d="M348 1341h-143v203h403v-926h-260v723zM1782 377h121v-184h-121v-193h-242v193h-487v153l387 580h342v-549zM1540 375v356h-4l-233 -356h237zM1321 1544h201l-897 -1544h-201z" />
    <glyph glyph-name="onehalf" unicode="&#xbd;" horiz-adv-x="2107" 
d="M348 1341h-143v203h403v-926h-260v723zM1731 338l-156 -135h328v-203h-807l411 412q115 115 115 227q0 48 -34 83.5t-81 35.5q-110 0 -110 -113q0 -10 4 -39h-287q6 168 115 264q106 93 276 93q158 0 268 -84q119 -92 119 -246q0 -93 -43 -165q-34 -58 -118 -130z
M1264 1544h200l-897 -1544h-200z" />
    <glyph glyph-name="threequarters" unicode="&#xbe;" horiz-adv-x="2107" 
d="M1884 377h121v-184h-121v-193h-242v193h-487v153l387 580h342v-549zM1642 375v356h-4l-233 -356h237zM1497 1544h201l-897 -1544h-201zM463 1153h26q115 0 115 102q0 93 -102 93q-47 0 -77 -30t-30 -77h-241q15 148 121 228q98 75 251 75q136 0 224 -65q98 -72 98 -203
q0 -134 -107 -191q74 -17 121 -88q43 -65 43 -145q0 -148 -125 -232q-109 -73 -264 -73q-153 0 -279 88q-142 99 -135 248h267q0 -58 40 -93.5t99 -35.5t99 32.5t40 90.5q0 53 -41.5 87.5t-95.5 34.5q-5 -1 -47 -6v160z" />
    <glyph glyph-name="questiondown" unicode="&#xbf;" horiz-adv-x="1219" 
d="M838 528v-397q-48 10 -86 10q-99 0 -176 -50q-89 -58 -89 -152q0 -65 43 -109.5t107 -44.5q143 0 143 156h408q-2 -223 -173 -358q-158 -124 -388 -124q-210 0 -359 127q-176 150 -176 355q0 165 107 284q97 106 264 158v145h375zM643 1090q101 0 170.5 -69.5
t69.5 -170.5q0 -100 -70 -170t-170 -70t-170 70t-70 170q0 101 69.5 170.5t170.5 69.5z" />
    <glyph glyph-name="Agrave" unicode="&#xc0;" horiz-adv-x="1599" 
d="M897 1800l-94 -88l-367 211l133 131zM1606 0h-428l-101 268h-553l-106 -268h-426l594 1544h438zM969 575l-164 492h-4l-166 -492h334z" />
    <glyph glyph-name="Aacute" unicode="&#xc1;" horiz-adv-x="1599" 
d="M1077 268h-553l-106 -268h-426l594 1544h438l582 -1544h-428zM969 575l-164 492h-4l-166 -492h334zM1167 1923l-366 -211l-94 88l327 254z" />
    <glyph glyph-name="Acircumflex" unicode="&#xc2;" horiz-adv-x="1599" 
d="M1077 268h-553l-106 -268h-426l594 1544h438l582 -1544h-428zM969 575l-164 492h-4l-166 -492h334zM469 1720l334 252l340 -252l-119 -98l-221 170l-221 -170z" />
    <glyph glyph-name="Atilde" unicode="&#xc3;" horiz-adv-x="1599" 
d="M1077 268h-553l-106 -268h-426l594 1544h438l582 -1544h-428zM969 575l-164 492h-4l-166 -492h334zM543 1737l-135 -8l12 16q42 74 125 137q112 84 200 76q40 -4 115 -38t113 -38q42 -5 102 51l139 6q-72 -97 -163 -159q-113 -77 -209 -68q-38 4 -105 39t-104 39t-90 -53
z" />
    <glyph glyph-name="Adieresis" unicode="&#xc4;" horiz-adv-x="1599" 
d="M1077 268h-553l-106 -268h-426l594 1544h438l582 -1544h-428zM969 575l-164 492h-4l-166 -492h334zM538 2132q84 0 142.5 -58t58.5 -142q0 -85 -58 -143t-143 -58t-143.5 58t-58.5 143q0 84 59 142t143 58zM1063 2132q84 0 142 -58t58 -142t-58 -142.5t-142 -58.5
q-86 0 -144.5 58t-58.5 143q0 84 59 142t144 58z" />
    <glyph glyph-name="Aring" unicode="&#xc5;" horiz-adv-x="1599" 
d="M1077 268h-553l-106 -268h-426l594 1544h438l582 -1544h-428zM969 575l-164 492h-4l-166 -492h334zM797 2163q132 0 215 -50q102 -62 102 -185q0 -122 -99 -184q-83 -52 -212 -52q-133 0 -215 49q-102 61 -102 185q0 122 99 185q82 52 212 52zM801 2016q-121 0 -121 -88
t121 -88q119 0 119 88t-119 88z" />
    <glyph glyph-name="AE" unicode="&#xc6;" horiz-adv-x="2101" 
d="M963 575l-166 459l-174 -459h340zM1171 0l-100 268h-559l-96 -268h-424l596 1544h946l125 -340h-508l94 -258h506l129 -340h-510l100 -266h508l123 -340h-930z" />
    <glyph glyph-name="Ccedilla" unicode="&#xc7;" horiz-adv-x="1352" 
d="M1235 1507v-481q-126 170 -352 170q-183 0 -297.5 -122t-114.5 -306q0 -186 116 -303t302 -117q209 0 346 164v-481q-233 -72 -354 -72q-347 0 -586 231q-242 234 -242 580q0 331 228 565q244 250 587 250q179 0 367 -78zM910 -193l-310 -292l-159 100l266 324z" />
    <glyph glyph-name="Egrave" unicode="&#xc8;" horiz-adv-x="1126" 
d="M1010 1204h-478v-258h453v-340h-453v-266h478v-340h-879v1544h879v-340zM668 1802l-95 -88l-366 211l133 131z" />
    <glyph glyph-name="Eacute" unicode="&#xc9;" horiz-adv-x="1126" 
d="M1010 1204h-478v-258h453v-340h-453v-266h478v-340h-879v1544h879v-340zM940 1925l-367 -211l-94 88l328 254z" />
    <glyph glyph-name="Ecircumflex" unicode="&#xca;" horiz-adv-x="1126" 
d="M1010 1204h-478v-258h453v-340h-453v-266h478v-340h-879v1544h879v-340zM238 1741l333 252l340 -252l-118 -99l-222 170l-221 -170z" />
    <glyph glyph-name="Edieresis" unicode="&#xcb;" horiz-adv-x="1126" 
d="M1010 1204h-478v-258h453v-340h-453v-266h478v-340h-879v1544h879v-340zM301 2132q84 0 142.5 -58t58.5 -142q0 -85 -58 -143t-143 -58t-143.5 58t-58.5 143q0 84 59 142t143 58zM826 2132q84 0 142 -58t58 -142t-58 -142.5t-142 -58.5q-86 0 -144.5 58t-58.5 143
q0 84 59 142t144 58z" />
    <glyph glyph-name="Igrave" unicode="&#xcc;" horiz-adv-x="664" 
d="M532 1544v-1544h-401v1544h401zM426 1802l-94 -88l-367 211l133 131z" />
    <glyph glyph-name="Iacute" unicode="&#xcd;" horiz-adv-x="664" 
d="M532 1544v-1544h-401v1544h401zM698 1925l-366 -211l-94 88l327 254z" />
    <glyph glyph-name="Icircumflex" unicode="&#xce;" horiz-adv-x="664" 
d="M532 1544v-1544h-401v1544h401zM-118 1856l446 336l453 -336l-158 -172l-295 227l-295 -227z" />
    <glyph glyph-name="Idieresis" unicode="&#xcf;" horiz-adv-x="664" 
d="M532 1544v-1544h-401v1544h401zM69 2132q84 0 142.5 -58t58.5 -142q0 -85 -58 -143t-143 -58t-143.5 58t-58.5 143q0 84 59 142t143 58zM594 2132q84 0 142 -58t58 -142t-58 -142.5t-142 -58.5q-86 0 -144.5 58t-58.5 143q0 84 59 142t144 58z" />
    <glyph glyph-name="Eth" unicode="&#xd0;" horiz-adv-x="1540" 
d="M532 1204v-256h226v-315h-226v-293h91q205 0 324.5 114t119.5 318q0 201 -119 316.5t-321 115.5h-95zM131 0v633h-172v315h172v596h569q327 0 556 -223t229 -549q0 -325 -229.5 -548.5t-555.5 -223.5h-569z" />
    <glyph glyph-name="Ntilde" unicode="&#xd1;" horiz-adv-x="1804" 
d="M131 0v1544h401l736 -944h4v944h401v-1544h-401l-735 946h-5v-946h-401zM664 1756v0h-168l-2 22q0 105 45 182q67 115 182 115q57 0 170.5 -35t163.5 -35q54 0 82 74h174q-11 -127 -73 -217q-73 -106 -193 -106q-52 0 -158 37.5t-154 37.5q-45 0 -69 -75z" />
    <glyph glyph-name="Ograve" unicode="&#xd2;" horiz-adv-x="1817" 
d="M907 1595q345 0 594 -221q260 -231 260 -573q0 -378 -238 -615t-616 -237q-377 0 -615.5 237.5t-238.5 614.5q0 343 260 573q249 221 594 221zM907 1206q-173 0 -302 -116q-134 -120 -134 -291q0 -192 121 -324q125 -137 315 -137q191 0 315 136q121 132 121 325
q0 171 -134 291q-129 116 -302 116zM1004 1835l-95 -88l-366 211l133 131z" />
    <glyph glyph-name="Oacute" unicode="&#xd3;" horiz-adv-x="1817" 
d="M907 1595q345 0 594 -221q260 -231 260 -573q0 -378 -238 -615t-616 -237q-377 0 -615.5 237.5t-238.5 614.5q0 343 260 573q249 221 594 221zM907 1206q-173 0 -302 -116q-134 -120 -134 -291q0 -192 121 -324q125 -137 315 -137q191 0 315 136q121 132 121 325
q0 171 -134 291q-129 116 -302 116zM1276 1958l-367 -211l-94 88l328 254z" />
    <glyph glyph-name="Ocircumflex" unicode="&#xd4;" horiz-adv-x="1817" 
d="M907 1595q345 0 594 -221q260 -231 260 -573q0 -378 -238 -615t-616 -237q-377 0 -615.5 237.5t-238.5 614.5q0 343 260 573q249 221 594 221zM907 1206q-173 0 -302 -116q-134 -120 -134 -291q0 -192 121 -324q125 -137 315 -137q191 0 315 136q121 132 121 325
q0 171 -134 291q-129 116 -302 116zM573 1737l334 252l340 -252l-119 -99l-221 170l-221 -170z" />
    <glyph glyph-name="Otilde" unicode="&#xd5;" horiz-adv-x="1817" 
d="M907 1595q345 0 594 -221q260 -231 260 -573q0 -378 -238 -615t-616 -237q-377 0 -615.5 237.5t-238.5 614.5q0 343 260 573q249 221 594 221zM907 1206q-173 0 -302 -116q-134 -120 -134 -291q0 -192 121 -324q125 -137 315 -137q191 0 315 136q121 132 121 325
q0 171 -134 291q-129 116 -302 116zM647 1767l-135 -8l12 17q43 75 125 137q111 84 201 76q40 -4 114.5 -38t112.5 -38q43 -5 103 51l139 6q-73 -98 -164 -160q-111 -76 -209 -67q-38 3 -105 38.5t-104 39.5t-90 -54z" />
    <glyph glyph-name="Odieresis" unicode="&#xd6;" horiz-adv-x="1817" 
d="M907 1595q347 0 596 -221q258 -230 258 -573q0 -375 -239.5 -613.5t-614.5 -238.5t-614.5 238.5t-239.5 613.5q0 341 261 572q250 222 593 222zM907 1206q-171 0 -301 -117q-135 -121 -135 -290q0 -192 121 -324q125 -137 315 -137t315 137q121 132 121 324
q0 170 -135 290q-130 117 -301 117zM647 2132q84 0 142.5 -58t58.5 -142q0 -85 -58 -143t-143 -58t-143.5 58t-58.5 143q0 84 59 142t143 58zM1172 2132q84 0 142 -58t58 -142t-58 -142.5t-142 -58.5q-86 0 -144.5 58t-58.5 143q0 84 59 142t144 58z" />
    <glyph glyph-name="multiply" unicode="&#xd7;" 
d="M487 524l-309 310l217 217l307 -312l306 312l217 -217l-305 -310l307 -307l-217 -217l-308 307l-307 -307l-217 217z" />
    <glyph glyph-name="Oslash" unicode="&#xd8;" horiz-adv-x="1817" 
d="M1790 1456l-188 -184q159 -224 159 -473q0 -371 -240.5 -610.5t-611.5 -239.5q-299 0 -532 168l-195 -185l-159 168l190 183q-160 233 -160 516q0 347 252 575q243 221 594 221q356 0 537 -161l196 190zM524 578l598 571q-83 57 -213 57q-171 0 -302 -117
q-136 -121 -136 -290q0 -134 53 -221zM1290 985l-610 -586q123 -61 229 -61q189 0 314 137q120 133 120 324q0 109 -53 186z" />
    <glyph glyph-name="Ugrave" unicode="&#xd9;" horiz-adv-x="1593" 
d="M1069 1544h401v-868q0 -195 -22 -291q-35 -152 -139 -254q-176 -172 -512 -172t-512 172q-105 102 -140 254q-22 94 -22 291v868h401v-813q0 -198 39 -285q61 -135 234 -135q172 0 233 135q39 87 39 285v813zM893 1759l-94 -88l-367 211l133 131z" />
    <glyph glyph-name="Uacute" unicode="&#xda;" horiz-adv-x="1593" 
d="M1069 1544h401v-868q0 -195 -22 -291q-35 -152 -139 -254q-176 -172 -512 -172t-512 172q-105 102 -140 254q-22 94 -22 291v868h401v-813q0 -198 39 -285q61 -135 234 -135q172 0 233 135q39 87 39 285v813zM1165 1882l-366 -211l-94 88l327 254z" />
    <glyph glyph-name="Ucircumflex" unicode="&#xdb;" horiz-adv-x="1593" 
d="M1069 1544h401v-868q0 -190 -23 -291q-35 -153 -138 -254q-176 -172 -512 -172t-512 172q-104 101 -139 254q-23 99 -23 291v868h401v-813q0 -196 40 -285q61 -135 233 -135t233 135q39 87 39 285v813zM347 1856l446 336l453 -336l-158 -172l-295 227l-295 -227z" />
    <glyph glyph-name="Udieresis" unicode="&#xdc;" horiz-adv-x="1593" 
d="M1069 1544h401v-868q0 -190 -23 -291q-35 -153 -138 -254q-176 -172 -512 -172t-512 172q-104 101 -139 254q-23 99 -23 291v868h401v-813q0 -196 40 -285q61 -135 233 -135t233 135q39 87 39 285v813zM534 2132q84 0 142.5 -58t58.5 -142q0 -85 -58 -143t-143 -58
t-143.5 58t-58.5 143q0 84 59 142t143 58zM1059 2132q84 0 142 -58t58 -142t-58 -142.5t-142 -58.5q-86 0 -144.5 58t-58.5 143q0 84 59 142t144 58z" />
    <glyph glyph-name="Yacute" unicode="&#xdd;" horiz-adv-x="1462" 
d="M530 741l-569 803h481l289 -420l289 420h481l-569 -803v-741h-402v741zM1100 1851l-367 -211l-94 89l328 253z" />
    <glyph glyph-name="Thorn" unicode="&#xde;" horiz-adv-x="1354" 
d="M131 0v1544h401v-246h213q260 0 405 -121q157 -131 157 -386q0 -525 -547 -525h-228v-266h-401zM532 975v-385h68q146 0 199 23q90 39 90 165q0 131 -86 172q-53 25 -203 25h-68z" />
    <glyph glyph-name="germandbls" unicode="&#xdf;" horiz-adv-x="1333" 
d="M123 905v301q0 264 127 379q149 135 405 135q221 0 360 -113q150 -123 150 -339q0 -185 -182 -322q162 -65 232 -162q73 -102 73 -274q0 -114 -41 -223q-44 -119 -123 -187q-156 -135 -440 -135h-80v318q120 -5 197 60q80 69 80 187q0 115 -81 186.5t-196 63.5v297
q203 -7 203 166q0 156 -156 156q-100 0 -134 -74q-21 -46 -21 -160v-1165h-373v608h-107v297h107z" />
    <glyph glyph-name="agrave" unicode="&#xe0;" horiz-adv-x="1397" 
d="M672 762q-107 0 -173.5 -66t-66.5 -172q0 -107 66.5 -171t173.5 -64t173 64t66 171q0 106 -66 172t-173 66zM1272 1051v-1051h-373v117h-4q-94 -152 -317 -152q-229 0 -382 168q-149 162 -149 393q0 234 145 394q149 165 381 165q209 0 326 -137v103h373zM758 1346
l-94 -89l-367 211l133 131z" />
    <glyph glyph-name="aacute" unicode="&#xe1;" horiz-adv-x="1397" 
d="M672 762q-107 0 -173.5 -66t-66.5 -172q0 -107 66.5 -171t173.5 -64t173 64t66 171q0 106 -66 172t-173 66zM1272 1051v-1051h-373v117h-4q-94 -152 -317 -152q-229 0 -382 168q-149 162 -149 393q0 234 145 394q149 165 381 165q209 0 326 -137v103h373zM1030 1468
l-366 -211l-95 89l328 253z" />
    <glyph glyph-name="acircumflex" unicode="&#xe2;" horiz-adv-x="1397" 
d="M672 762q-107 0 -173.5 -66t-66.5 -172q0 -107 66.5 -171t173.5 -64t173 64t66 171q0 106 -66 172t-173 66zM1272 1051v-1051h-373v117h-4q-94 -152 -317 -152q-229 0 -382 168q-149 162 -149 393q0 234 145 394q149 165 381 165q209 0 326 -137v103h373zM330 1280
l334 252l340 -252l-119 -98l-221 170l-222 -170z" />
    <glyph glyph-name="atilde" unicode="&#xe3;" horiz-adv-x="1397" 
d="M672 762q-107 0 -173.5 -66t-66.5 -172q0 -107 66.5 -171t173.5 -64t173 64t66 171q0 106 -66 172t-173 66zM1272 1051v-1051h-373v117h-4q-94 -152 -317 -152q-229 0 -382 168q-149 162 -149 393q0 234 145 394q149 165 381 165q209 0 326 -137v103h373zM401 1280
l-135 -8l13 16q42 75 124 137q112 84 201 76q39 -4 115.5 -38t111.5 -38q43 -4 103 52l139 6q-72 -96 -162 -159q-112 -78 -211 -69q-37 3 -104.5 38.5t-103.5 39.5q-37 4 -91 -53z" />
    <glyph glyph-name="adieresis" unicode="&#xe4;" horiz-adv-x="1397" 
d="M672 762q-106 0 -173 -66.5t-67 -171.5q0 -107 66.5 -171t173.5 -64t173 64.5t66 170.5q0 105 -67 171.5t-172 66.5zM1272 1051v-1051h-373v117h-4q-95 -152 -317 -152q-230 0 -383 167q-148 162 -148 394t146 393q150 166 380 166q210 0 326 -137v103h373zM436 1638
q84 0 142.5 -58t58.5 -142q0 -85 -58 -143t-143 -58t-143.5 58t-58.5 143q0 84 59 142t143 58zM961 1638q84 0 142 -58t58 -142t-58 -142.5t-142 -58.5q-86 0 -144.5 58t-58.5 143q0 84 59 142t144 58z" />
    <glyph glyph-name="aring" unicode="&#xe5;" horiz-adv-x="1397" 
d="M672 762q-106 0 -173 -66.5t-67 -171.5q0 -107 66.5 -171t173.5 -64t173 64.5t66 170.5q0 105 -67 171.5t-172 66.5zM1272 1051v-1051h-373v117h-4q-95 -152 -317 -152q-230 0 -383 167q-148 162 -148 394t146 393q150 166 380 166q210 0 326 -137v103h373zM696 1669
q132 0 215 -50q102 -62 102 -185q0 -122 -99 -184q-83 -52 -212 -52q-133 0 -215 49q-102 61 -102 185q0 122 99 185q82 52 212 52zM700 1522q-121 0 -121 -88t121 -88q119 0 119 88t-119 88z" />
    <glyph glyph-name="ae" unicode="&#xe6;" horiz-adv-x="1925" 
d="M1108 678h432q-13 75 -73.5 120.5t-137.5 45.5q-187 0 -221 -166zM561 446q-61 0 -103 -25q-52 -30 -52 -87q0 -113 167 -113q63 0 117 24q70 31 70 87q0 62 -73 92q-53 22 -126 22zM1880 463h-784q0 -234 233 -234q122 0 178 97h359q-43 -178 -200 -274
q-141 -87 -335 -87q-330 0 -422 207q-161 -207 -426 -207q-169 0 -295 82q-145 95 -145 256q0 176 133 269q115 81 299 81q148 0 277 -53v31q0 184 -250 184q-113 0 -293 -57v278q181 49 305 49q299 0 395 -186q123 186 396 186q271 0 423 -155.5t152 -427.5v-39z" />
    <glyph glyph-name="ccedilla" unicode="&#xe7;" horiz-adv-x="989" 
d="M881 1024v-315q-100 73 -193 73q-109 0 -182.5 -73.5t-73.5 -182.5q0 -114 73.5 -186t188.5 -72q108 0 187 72v-315q-119 -60 -263 -60q-237 0 -402 155q-169 158 -169 394q0 251 168 411t420 160q135 0 246 -61zM729 -193l-310 -292l-159 100l266 324z" />
    <glyph glyph-name="egrave" unicode="&#xe8;" horiz-adv-x="1249" 
d="M424 678h432q-14 75 -73.5 120.5t-137.5 45.5q-186 0 -221 -166zM1202 502v-39h-784q0 -234 233 -234q121 0 178 97h359q-44 -179 -200 -275q-141 -86 -335 -86q-270 0 -434 142q-174 151 -174 417q0 262 161 413q158 148 421 148q272 0 423.5 -155t151.5 -428zM721 1346
l-94 -89l-367 211l133 131z" />
    <glyph glyph-name="eacute" unicode="&#xe9;" horiz-adv-x="1249" 
d="M424 678h432q-14 75 -73.5 120.5t-137.5 45.5q-186 0 -221 -166zM1202 502v-39h-784q0 -234 233 -234q121 0 178 97h359q-44 -179 -200 -275q-141 -86 -335 -86q-270 0 -434 142q-174 151 -174 417q0 262 161 413q158 148 421 148q272 0 423.5 -155t151.5 -428zM993 1470
l-366 -210l-95 88l328 254z" />
    <glyph glyph-name="ecircumflex" unicode="&#xea;" horiz-adv-x="1249" 
d="M424 678h432q-14 75 -73.5 120.5t-137.5 45.5q-186 0 -221 -166zM1202 502v-39h-784q0 -234 233 -234q121 0 178 97h359q-44 -179 -200 -275q-141 -86 -335 -86q-270 0 -434 142q-174 151 -174 417q0 262 161 413q158 148 421 148q272 0 423.5 -155t151.5 -428zM293 1278
l334 252l340 -252l-119 -98l-221 170l-221 -170z" />
    <glyph glyph-name="edieresis" unicode="&#xeb;" horiz-adv-x="1249" 
d="M424 678h432q-14 75 -74 120.5t-137 45.5q-187 0 -221 -166zM1202 502v-39h-784q0 -234 233 -234q122 0 178 97h359q-42 -178 -200 -274q-142 -87 -335 -87q-269 0 -434 143q-174 151 -174 416q0 260 162 412q159 149 420 149q271 0 423 -155.5t152 -427.5zM362 1638
q84 0 142.5 -58t58.5 -142q0 -85 -58 -143t-143 -58t-143.5 58t-58.5 143q0 84 59 142t143 58zM887 1638q84 0 142 -58t58 -142t-58 -142.5t-142 -58.5q-86 0 -144.5 58t-58.5 143q0 84 59 142t144 58z" />
    <glyph glyph-name="igrave" unicode="&#xec;" horiz-adv-x="618" 
d="M496 1063v-1063h-373v1051zM401 1335l-94 -88l-366 211l133 131z" />
    <glyph glyph-name="iacute" unicode="&#xed;" horiz-adv-x="618" 
d="M496 1063v-1063h-373v1051zM674 1456l-367 -211l-94 88l328 254z" />
    <glyph glyph-name="icircumflex" unicode="&#xee;" horiz-adv-x="618" 
d="M496 1051v-1051h-373v1051h373zM-141 1362l446 336l453 -336l-158 -172l-295 227l-295 -227z" />
    <glyph glyph-name="idieresis" unicode="&#xef;" horiz-adv-x="618" 
d="M496 1051v-1051h-373v1051h373zM47 1638q84 0 142.5 -58t58.5 -142q0 -85 -58 -143t-143 -58t-143.5 58t-58.5 143q0 84 59 142t143 58zM572 1638q84 0 142 -58t58 -142t-58 -142.5t-142 -58.5q-86 0 -144.5 58t-58.5 143q0 84 59 142t144 58z" />
    <glyph glyph-name="eth" unicode="&#xf0;" horiz-adv-x="1356" 
d="M678 762q-98 0 -169 -70t-71 -168q0 -99 70 -167t170 -68q99 0 160 69q59 66 59 166q0 99 -59 167q-62 71 -160 71zM846 1577l-203 -135l143 -115q305 -245 418 -488q66 -141 66 -315q0 -209 -169 -379q-179 -180 -423 -180q-265 0 -442 144q-191 155 -191 415
q0 240 183 400q142 124 309 149q40 6 40 32q0 35 -67 98q-55 52 -113 87l-239 -174l-158 121l229 156l-233 143l127 164q192 -69 336 -152l225 152z" />
    <glyph glyph-name="ntilde" unicode="&#xf1;" horiz-adv-x="1354" 
d="M496 1051v-136h4q115 170 336 170q395 0 395 -436v-649h-373v512q0 131 -15 176q-33 100 -153 100q-194 0 -194 -243v-545h-373v1051h373zM439 1262v0h-168l-2 22q0 105 45 182q67 115 182 115q57 0 170.5 -35t163.5 -35q54 0 82 74h174q-11 -127 -73 -217
q-73 -106 -193 -106q-52 0 -158 37.5t-154 37.5q-45 0 -69 -75z" />
    <glyph glyph-name="ograve" unicode="&#xf2;" horiz-adv-x="1356" 
d="M678 1085q266 0 442 -145q191 -157 191 -416q0 -256 -191 -413q-178 -146 -442 -146t-442 145q-191 156 -191 414t191 416q176 145 442 145zM678 762q-107 0 -173.5 -66t-66.5 -172q0 -107 66.5 -171t173.5 -64t173.5 64t66.5 171q0 106 -66.5 172t-173.5 66zM772 1346
l-94 -89l-367 211l133 131z" />
    <glyph glyph-name="oacute" unicode="&#xf3;" horiz-adv-x="1356" 
d="M678 1085q266 0 442 -145q191 -157 191 -416q0 -256 -191 -413q-178 -146 -442 -146t-442 145q-191 156 -191 414t191 416q176 145 442 145zM678 762q-107 0 -173.5 -66t-66.5 -172q0 -107 66.5 -171t173.5 -64t173.5 64t66.5 171q0 106 -66.5 172t-173.5 66zM1042 1470
l-366 -210l-94 88l327 254z" />
    <glyph glyph-name="ocircumflex" unicode="&#xf4;" horiz-adv-x="1356" 
d="M678 1085q266 0 442 -145q191 -157 191 -416q0 -256 -191 -413q-178 -146 -442 -146t-442 145q-191 156 -191 414t191 416q176 145 442 145zM678 762q-107 0 -173.5 -66t-66.5 -172q0 -107 66.5 -171t173.5 -64t173.5 64t66.5 171q0 106 -66.5 172t-173.5 66zM344 1278
l334 252l340 -252l-119 -98l-221 170l-221 -170z" />
    <glyph glyph-name="otilde" unicode="&#xf5;" horiz-adv-x="1356" 
d="M678 1085q266 0 442 -145q191 -157 191 -416q0 -256 -191 -413q-178 -146 -442 -146t-442 145q-191 156 -191 414t191 416q176 145 442 145zM678 762q-107 0 -173.5 -66t-66.5 -172q0 -107 66.5 -171t173.5 -64t173.5 64t66.5 171q0 106 -66.5 172t-173.5 66zM381 1282
l-135 -8l12 16q43 75 125 137q111 84 201 76q39 -4 115 -38t112 -38q41 -5 102 52l140 6q-72 -96 -162 -159q-112 -78 -211 -69q-37 3 -105 38.5t-104 39.5q-37 4 -90 -53z" />
    <glyph glyph-name="odieresis" unicode="&#xf6;" horiz-adv-x="1356" 
d="M678 1085q266 0 443 -145q190 -156 190 -416q0 -259 -191 -415q-177 -144 -442 -144t-442 144q-191 155 -191 415t190 416q177 145 443 145zM678 762q-106 0 -173 -66.5t-67 -171.5q0 -107 66.5 -171t173.5 -64t173.5 64t66.5 171q0 105 -67 171.5t-173 66.5zM415 1638
q84 0 142.5 -58t58.5 -142q0 -85 -58 -143t-143 -58t-143.5 58t-58.5 143q0 84 59 142t143 58zM940 1638q84 0 142 -58t58 -142t-58 -142.5t-142 -58.5q-86 0 -144.5 58t-58.5 143q0 84 59 142t144 58z" />
    <glyph glyph-name="divide" unicode="&#xf7;" 
d="M178 680h1049v-307h-1049v307zM702 260q62 0 105 -42.5t43 -104.5t-43 -105t-105 -43t-104.5 43t-42.5 105q0 61 43 104t104 43zM702 1087q62 0 105 -42.5t43 -104.5t-43 -104.5t-105 -42.5q-61 0 -104 43t-43 104t43 104t104 43z" />
    <glyph glyph-name="oslash" unicode="&#xf8;" horiz-adv-x="1356" 
d="M901 612l-352 -284q54 -39 123 -39q100 0 170.5 67.5t70.5 167.5q0 45 -12 88zM262 88l-196 -160l-101 127l182 144q-102 142 -102 323q0 264 187 418q175 145 444 145q266 0 418 -127l206 168l101 -127l-195 -153q105 -138 105 -293q0 -282 -180 -439
q-171 -149 -457 -149q-258 0 -412 123zM455 430l356 295q-49 37 -127 37q-104 0 -175 -66.5t-71 -169.5q0 -55 17 -96z" />
    <glyph glyph-name="ugrave" unicode="&#xf9;" horiz-adv-x="1350" 
d="M117 1051h372v-562q0 -112 36 -164q44 -63 151 -63t150 63q36 52 36 164v562h373v-633q0 -453 -559 -453t-559 453v633zM772 1298l-94 -88l-367 211l133 131z" />
    <glyph glyph-name="uacute" unicode="&#xfa;" horiz-adv-x="1350" 
d="M117 1051h372v-562q0 -112 36 -164q44 -63 151 -63t150 63q36 52 36 164v562h373v-633q0 -453 -559 -453t-559 453v633zM1042 1421l-366 -211l-94 88l327 254z" />
    <glyph glyph-name="ucircumflex" unicode="&#xfb;" horiz-adv-x="1350" 
d="M117 1051h372v-562q0 -227 187 -227q107 0 150 63q36 52 36 164v562h373v-633q0 -453 -559 -453t-559 453v633zM226 1362l446 336l453 -336l-158 -172l-295 227l-295 -227z" />
    <glyph glyph-name="udieresis" unicode="&#xfc;" horiz-adv-x="1350" 
d="M117 1051h372v-562q0 -227 187 -227q107 0 150 63q36 52 36 164v562h373v-633q0 -453 -559 -453t-559 453v633zM413 1638q84 0 142.5 -58t58.5 -142q0 -85 -58 -143t-143 -58t-143.5 58t-58.5 143q0 84 59 142t143 58zM938 1638q84 0 142 -58t58 -142t-58 -142.5
t-142 -58.5q-86 0 -144.5 58t-58.5 143q0 84 59 142t144 58z" />
    <glyph glyph-name="yacute" unicode="&#xfd;" horiz-adv-x="1339" 
d="M477 143l-508 908h430l281 -539l274 539h424l-841 -1575h-418zM1044 1393l-366 -211l-94 88l327 254z" />
    <glyph glyph-name="thorn" unicode="&#xfe;" horiz-adv-x="1397" 
d="M496 1700v-768h4q99 153 317 153q232 0 384 -167q147 -162 147 -396q0 -233 -146 -392q-151 -165 -381 -165q-208 0 -325 135v-624h-373v2224h373zM723 762q-98 0 -169 -70t-71 -168q0 -99 70 -167t170 -68t170 68t70 167q0 98 -71 168t-169 70z" />
    <glyph glyph-name="ydieresis" unicode="&#xff;" horiz-adv-x="1339" 
d="M477 143l-508 908h430l281 -539l274 539h424l-841 -1575h-418zM407 1638q84 0 142.5 -58t58.5 -142q0 -85 -58 -143t-143 -58t-143.5 58t-58.5 143q0 84 59 142t143 58zM932 1638q84 0 142 -58t58 -142t-58 -142.5t-142 -58.5q-86 0 -144.5 58t-58.5 143q0 84 59 142
t144 58z" />
    <glyph glyph-name="glyph271" unicode="&#x102;" horiz-adv-x="1599" 
d="M1077 268h-553l-106 -268h-426l594 1544h438l582 -1544h-428zM969 575l-164 492h-4l-166 -492h334zM485 1907h183q20 -111 135 -111q119 0 135 111h182q-14 -236 -317 -236t-318 236z" />
    <glyph glyph-name="glyph272" unicode="&#x103;" horiz-adv-x="1397" 
d="M672 762q-107 0 -173.5 -66t-66.5 -172q0 -107 66.5 -171t173.5 -64t173 64t66 171q0 106 -66 172t-173 66zM1272 1051v-1051h-373v117h-4q-94 -152 -317 -152q-229 0 -382 168q-149 162 -149 393q0 234 145 394q149 165 381 165q209 0 326 -137v103h373zM346 1446h182
q21 -111 136 -111q118 0 135 111h182q-14 -236 -317 -236q-304 0 -318 236z" />
    <glyph glyph-name="Cacute" unicode="&#x106;" horiz-adv-x="1456" 
d="M1235 1507v-481q-126 170 -352 170q-183 0 -297.5 -122t-114.5 -306q0 -186 116 -303t302 -117q209 0 346 164v-481q-233 -72 -354 -72q-347 0 -586 231q-242 234 -242 580q0 331 228 565q244 250 587 250q179 0 367 -78zM1032 2038l-351 -310l-165 121l288 352z" />
    <glyph glyph-name="cacute" unicode="&#x107;" horiz-adv-x="903" 
d="M881 1024v-315q-100 73 -193 73q-109 0 -182.5 -73.5t-73.5 -182.5q0 -114 73.5 -186t188.5 -72q108 0 187 72v-315q-119 -60 -263 -60q-237 0 -402 155q-169 158 -169 394q0 251 168 411t420 160q135 0 246 -61zM625 1516l-351 -310l-165 121l288 352z" />
    <glyph glyph-name="Ccaron" unicode="&#x10c;" horiz-adv-x="1456" 
d="M1235 1507v-481q-126 170 -352 170q-183 0 -297.5 -122t-114.5 -306q0 -186 116 -303t302 -117q209 0 346 164v-481q-233 -72 -354 -72q-347 0 -586 231q-242 234 -242 580q0 331 228 565q244 250 587 250q179 0 367 -78zM516 2046l151 174l295 -230l295 230l158 -174
l-453 -334z" />
    <glyph glyph-name="ccaron" unicode="&#x10d;" horiz-adv-x="903" 
d="M881 1024v-315q-100 73 -193 73q-109 0 -182.5 -73.5t-73.5 -182.5q0 -114 73.5 -186t188.5 -72q108 0 187 72v-315q-119 -60 -263 -60q-237 0 -402 155q-169 158 -169 394q0 251 168 411t420 160q135 0 246 -61zM109 1524l151 174l295 -230l295 230l158 -174l-453 -334z
" />
    <glyph glyph-name="Dslash" unicode="&#x110;" horiz-adv-x="1540" 
d="M532 1204v-256h226v-315h-226v-293h91q205 0 324.5 114t119.5 318q0 201 -119 316.5t-321 115.5h-95zM131 0v633h-172v315h172v596h569q329 0 557 -222t228 -550t-228 -550t-557 -222h-569z" />
    <glyph glyph-name="dcroat" unicode="&#x111;" horiz-adv-x="1397" 
d="M686 762q-107 0 -173.5 -66t-66.5 -172q0 -107 66.5 -171t173.5 -64t173.5 64t66.5 171q0 106 -66.5 172t-173.5 66zM913 1204h-325v154h325v342h373v-342h123v-154h-123v-1204h-373v117h-4q-94 -152 -317 -152q-229 0 -382 168q-149 162 -149 393q0 235 145 394
q150 165 382 165q209 0 325 -137v256z" />
    <glyph glyph-name="Gbreve" unicode="&#x11e;" horiz-adv-x="1571" 
d="M874 862h797q-3 -198 -29 -317q-36 -162 -129 -293q-216 -303 -636 -303q-366 0 -595 225t-229 590q0 376 230.5 603.5t607.5 227.5q497 0 696 -432l-381 -159q-92 245 -334 245q-186 0 -299 -155q-102 -140 -102 -332q0 -194 105 -332q115 -151 303 -151q135 0 220 66
q91 71 103 202h-328v315zM555 2128h229q22 -138 168 -138q148 0 170 138h227q-9 -166 -121 -259q-106 -87 -276 -87t-276 87q-112 93 -121 259z" />
    <glyph glyph-name="gbreve" unicode="&#x11f;" horiz-adv-x="1008" 
d="M1276 1051v-949q0 -626 -608 -626q-208 0 -378 97q-198 113 -220 304h417q29 -104 177 -104q139 0 194 86q45 68 45 215v49q-143 -143 -334 -143q-229 0 -375 154q-143 151 -143 382q0 239 149 401q153 168 390 168q206 0 309 -145h4v111h373zM676 770q-107 0 -173.5 -66
t-66.5 -172q0 -107 66.5 -171t173.5 -64t173 64.5t66 170.5t-66.5 172t-172.5 66zM146 1606h229q22 -138 168 -138q148 0 170 138h227q-9 -166 -121 -259q-106 -87 -276 -87t-276 87q-112 93 -121 259z" />
    <glyph glyph-name="glyph273" unicode="&#x128;" horiz-adv-x="664" 
d="M532 1544v-1544h-401v1544h401zM70 1737l-136 -8l13 16q42 74 125 137q112 84 200 76q40 -4 115 -38t113 -38q42 -5 102 51l139 6q-74 -98 -163 -159q-113 -77 -209 -68q-38 4 -105 39t-104 39t-90 -53z" />
    <glyph glyph-name="glyph274" unicode="&#x129;" horiz-adv-x="618" 
d="M496 1063v-1063h-373v1051zM45 1262l-135 -9l12 17q43 75 125 137q111 84 201 76q40 -4 114.5 -38t112.5 -38q42 -5 103 51l139 6q-72 -96 -164 -159q-113 -77 -209 -68q-38 3 -105 38.5t-104 39.5t-90 -53z" />
    <glyph glyph-name="Idotaccent" unicode="&#x130;" horiz-adv-x="879" 
d="M532 1544v-1544h-401v1544h401zM469 2160q84 0 142 -58t58 -142t-58 -142.5t-142 -58.5q-86 0 -144.5 58t-58.5 143q0 84 59 142t144 58z" />
    <glyph glyph-name="dotlessi" unicode="&#x131;" horiz-adv-x="618" 
d="M496 1051v-1051h-373v1051h373z" />
    <glyph glyph-name="Lslash" unicode="&#x141;" horiz-adv-x="1092" 
d="M606 1544v-385l236 170v-336l-236 -159v-494h481v-340h-882v610l-166 -123v328l166 121v608h401z" />
    <glyph glyph-name="lslash" unicode="&#x142;" horiz-adv-x="750" 
d="M559 1700v-615l174 123v-338l-174 -114v-756h-373v553l-170 -121v336l170 115v817h373z" />
    <glyph glyph-name="OE" unicode="&#x152;" horiz-adv-x="2335" 
d="M1352 0v170q-204 -221 -492 -221q-332 0 -569.5 245t-237.5 578t237.5 578t569.5 245q299 0 492 -192v141h868v-340h-469v-258h436v-340h-436v-266h469v-340h-868zM903 1206q-180 0 -306 -127t-126 -307q0 -179 126.5 -306.5t305.5 -127.5q180 0 305 127t125 307
q0 181 -124.5 307.5t-305.5 126.5z" />
    <glyph glyph-name="oe" unicode="&#x153;" horiz-adv-x="2093" 
d="M1266 678h432q-14 75 -74 120.5t-137 45.5q-187 0 -221 -166zM676 762q-98 0 -169 -70t-71 -168q0 -99 70 -167t170 -68t169.5 67.5t69.5 167.5q0 98 -70.5 168t-168.5 70zM2050 502v-39h-784q0 -234 233 -234q122 0 178 97h359q-43 -178 -200 -274q-141 -87 -335 -87
q-296 0 -426 182q-163 -182 -426 -182q-267 0 -432 144q-174 152 -174 415q0 259 173 413q166 148 429 148q264 0 430 -157q120 157 400 157q271 0 423 -155.5t152 -427.5z" />
    <glyph glyph-name="Scedilla" unicode="&#x15e;" horiz-adv-x="1343" 
d="M1139 1458l-160 -311q-123 102 -266 102q-64 0 -114 -32q-58 -36 -58 -97q0 -93 178 -147l102 -31q183 -56 271 -141q110 -107 110 -281q0 -273 -164 -420q-157 -141 -434 -141q-291 0 -543 176l172 324q183 -160 357 -160q79 0 133 37q61 43 61 119q0 73 -89 121
q-45 24 -154 55q-224 64 -304 133q-114 98 -114 303q0 235 148 376.5t384 141.5q260 0 484 -127zM703 -193l-310 -292l-159 100l266 324z" />
    <glyph glyph-name="scedilla" unicode="&#x15f;" horiz-adv-x="784" 
d="M942 1018l-125 -238q-95 51 -201 51q-116 0 -116 -71q0 -46 64 -69q14 -5 104 -23q305 -61 305 -312q0 -193 -157 -299q-136 -92 -339 -92q-227 0 -424 121l135 260q152 -106 295 -106q43 0 76 18q41 22 41 61q0 62 -121 91q-176 42 -225 70q-121 70 -121 233
q0 181 146 283q128 89 317 89q197 0 346 -67zM504 -193l-310 -292l-159 100l266 324z" />
    <glyph glyph-name="Scaron" unicode="&#x160;" horiz-adv-x="1262" 
d="M1139 1458l-160 -311q-123 102 -266 102q-64 0 -114 -32q-58 -36 -58 -97q0 -93 178 -147l102 -31q183 -56 271 -141q110 -107 110 -281q0 -273 -164 -420q-157 -141 -434 -141q-291 0 -543 176l172 324q183 -160 357 -160q79 0 133 37q61 43 61 119q0 73 -89 121
q-45 24 -154 55q-224 64 -304 133q-114 98 -114 303q0 235 148 376.5t384 141.5q260 0 484 -127zM181 2018l151 174l295 -230l295 230l158 -174l-453 -334z" />
    <glyph glyph-name="scaron" unicode="&#x161;" horiz-adv-x="1051" 
d="M942 1018l-125 -238q-95 51 -201 51q-116 0 -116 -71q0 -46 64 -69q14 -5 104 -23q305 -61 305 -312q0 -193 -157 -299q-136 -92 -339 -92q-227 0 -424 121l135 260q152 -106 295 -106q43 0 76 18q41 22 41 61q0 62 -121 91q-176 42 -225 70q-121 70 -121 233
q0 181 146 283q128 89 317 89q197 0 346 -67zM76 1524l151 174l295 -230l295 230l158 -174l-453 -334z" />
    <glyph glyph-name="ch903" unicode="&#x168;" horiz-adv-x="1593" 
d="M1069 1544h401v-868q0 -195 -22 -291q-35 -152 -139 -254q-176 -172 -512 -172t-512 172q-105 102 -140 254q-22 94 -22 291v868h401v-813q0 -198 39 -285q61 -135 234 -135q172 0 233 135q39 87 39 285v813zM539 1716l-136 -8l13 16q42 75 125 138q110 83 200 75
q41 -4 115.5 -37.5t112.5 -37.5q42 -5 102 51l139 6q-74 -100 -163 -160q-111 -76 -209 -67q-38 3 -105 38t-104 39t-90 -53z" />
    <glyph glyph-name="ch904" unicode="&#x169;" horiz-adv-x="1350" 
d="M117 1051h372v-562q0 -112 36 -164q44 -63 151 -63t150 63q36 52 36 164v562h373v-633q0 -453 -559 -453t-559 453v633zM381 1251l-135 -8l12 17q43 75 125 137q111 84 201 76q40 -4 114.5 -38t112.5 -38q42 -5 102 51l140 6q-73 -98 -164 -160q-111 -76 -209 -67
q-38 3 -105 38.5t-104 39.5t-90 -54z" />
    <glyph glyph-name="Ydieresis" unicode="&#x178;" horiz-adv-x="1462" 
d="M530 741l-569 803h481l289 -420l289 420h481l-569 -803v-741h-402v741zM469 2132q84 0 142.5 -58t58.5 -142q0 -85 -58 -143t-143 -58t-143.5 58t-58.5 143q0 84 59 142t143 58zM994 2132q84 0 142 -58t58 -142t-58 -142.5t-142 -58.5q-86 0 -144.5 58t-58.5 143
q0 84 59 142t144 58z" />
    <glyph glyph-name="Zcaron" unicode="&#x17d;" horiz-adv-x="1448" 
d="M698 340h648v-340h-1323l731 1204h-607v340h1278zM275 2018l151 174l295 -230l295 230l158 -174l-453 -334z" />
    <glyph glyph-name="zcaron" unicode="&#x17e;" horiz-adv-x="1145" 
d="M639 309h442v-309h-1065l494 741h-428v310h1048zM123 1524l151 174l295 -230l295 230l158 -174l-453 -334z" />
    <glyph glyph-name="florin" unicode="&#x192;" 
d="M965 1034h225l-27 -155h-225l-104 -572q-30 -167 -58 -253q-42 -132 -117 -228q-154 -199 -395 -199q-36 0 -59 2l-217 19l61 338q106 -19 146 -19q154 0 211 139q28 69 69 295l86 478h-176l25 155h180l41 221q38 205 127 304q127 141 332 141q164 0 266 -70l-60 -321
q-84 61 -159 61q-79 0 -115 -78q-18 -39 -37 -145z" />
    <glyph glyph-name="glyph277" unicode="&#x1a0;" horiz-adv-x="1817" 
d="M907 1206q-173 0 -302 -116q-134 -120 -134 -291q0 -192 121 -324q125 -137 315 -137q191 0 315 136q121 132 121 325q0 171 -134 291q-129 116 -302 116zM1202 1546h180q46 16 46 56q0 9 -3 20q-12 49 -94 49l103 90q42 2 94 -28q63 -36 63 -109q0 -60 -69 -115
q-61 -49 -125 -57q170 -110 266 -279q98 -173 98 -372q0 -378 -238 -615t-616 -237q-377 0 -615.5 237.5t-238.5 614.5q0 343 260 573q249 221 594 221q154 0 295 -49z" />
    <glyph glyph-name="glyph278" unicode="&#x1a1;" horiz-adv-x="1356" 
d="M678 762q-107 0 -173.5 -66t-66.5 -172q0 -107 66.5 -171t173.5 -64t173.5 64t66.5 171q0 106 -66.5 172t-173.5 66zM969 1030h110q21 6 35 27q8 20 8 35q0 51 -88 51l90 80q33 2 86 -25q56 -35 56 -98q0 -59 -61 -99q-52 -34 -115 -38q221 -156 221 -439
q0 -256 -191 -413q-178 -146 -442 -146t-442 145q-191 156 -191 414t191 416q176 145 442 145q160 0 291 -55z" />
    <glyph glyph-name="glyph279" unicode="&#x1af;" horiz-adv-x="1593" 
d="M1470 1473v-797q0 -195 -22 -291q-35 -152 -139 -254q-176 -172 -512 -172t-512 172q-105 102 -140 254q-22 94 -22 291v868h401v-813q0 -198 39 -285q61 -135 234 -135q172 0 233 135q39 87 39 285v813h399q46 16 46 56q0 9 -3 20q-12 49 -94 49l103 90q42 2 94 -28
q63 -36 63 -109q0 -65 -73 -111q-62 -39 -131 -41z" />
    <glyph glyph-name="glyph280" unicode="&#x1b0;" horiz-adv-x="1350" 
d="M1235 965v-547q0 -453 -559 -453t-559 453v633h372v-562q0 -112 36 -164q44 -63 151 -63t150 63q36 52 36 164v562l371 -21q20 6 35 27q8 20 8 35q0 51 -88 51l90 80q33 2 86 -25q57 -37 57 -98t-65 -101q-55 -34 -119 -36z" />
    <glyph glyph-name="circumflex" unicode="&#x2c6;" horiz-adv-x="1208" 
d="M154 1362l446 336l453 -336l-158 -172l-295 227l-295 -227z" />
    <glyph glyph-name="caron" unicode="&#x2c7;" horiz-adv-x="1208" 
d="M154 1524l151 174l295 -230l295 230l158 -174l-453 -334z" />
    <glyph glyph-name="breve" unicode="&#x2d8;" horiz-adv-x="1104" 
d="M154 1606h229q22 -138 168 -138q148 0 170 138h227q-9 -166 -121 -259q-106 -87 -276 -87t-276 87q-112 93 -121 259z" />
    <glyph glyph-name="dotaccent" unicode="&#x2d9;" horiz-adv-x="823" 
d="M414 1638q84 0 142 -58t58 -142t-58 -142.5t-142 -58.5q-86 0 -144.5 58t-58.5 143q0 84 59 142t144 58z" />
    <glyph glyph-name="ring" unicode="&#x2da;" horiz-adv-x="936" 
d="M465 1669q132 0 215 -50q102 -62 102 -185q0 -122 -99 -184q-83 -52 -212 -52q-133 0 -215 49q-102 61 -102 185q0 122 99 185q82 52 212 52zM469 1522q-121 0 -121 -88t121 -88q119 0 119 88t-119 88z" />
    <glyph glyph-name="ogonek" unicode="&#x2db;" horiz-adv-x="717" 
d="M326 0h153v-4q-123 -69 -123 -152q0 -39 28 -66.5t67 -27.5q44 0 110 39l-45 -188q-63 -39 -164 -39q-77 0 -136 49q-62 52 -62 127q0 159 172 262z" />
    <glyph glyph-name="tilde" unicode="&#x2dc;" horiz-adv-x="1124" 
d="M324 1262v0h-168l-2 22q0 105 45 182q67 115 182 115q57 0 170.5 -35t163.5 -35q54 0 82 74h174q-11 -127 -73 -217q-73 -106 -193 -106q-52 0 -158 37.5t-154 37.5q-45 0 -69 -75z" />
    <glyph glyph-name="hungarumlaut" unicode="&#x2dd;" horiz-adv-x="1104" 
d="M520 1667l-102 -438h-191l29 438h264zM877 1667l-103 -438h-190l28 438h265z" />
    <glyph glyph-name="glyph281" unicode="&#x1ea0;" horiz-adv-x="1599" 
d="M1077 268h-553l-106 -268h-426l594 1544h438l582 -1544h-428zM969 575l-164 492h-4l-166 -492h334zM805 -45q68 0 115 -47t47 -115q0 -67 -47.5 -114.5t-114.5 -47.5t-114.5 47.5t-47.5 114.5q0 68 47 115t115 47z" />
    <glyph glyph-name="glyph282" unicode="&#x1ea1;" horiz-adv-x="1397" 
d="M672 762q-107 0 -173.5 -66t-66.5 -172q0 -107 66.5 -171t173.5 -64t173 64t66 171q0 106 -66 172t-173 66zM1272 1051v-1051h-373v117h-4q-94 -152 -317 -152q-229 0 -382 168q-149 162 -149 393q0 234 145 394q149 165 381 165q209 0 326 -137v103h373zM664 -127
q65 0 109 -44.5t44 -109.5q0 -64 -44.5 -108.5t-108.5 -44.5t-109 44.5t-45 108.5t45 109t109 45z" />
    <glyph glyph-name="glyph283" unicode="&#x1ea2;" horiz-adv-x="1599" 
d="M1077 268h-553l-106 -268h-426l594 1544h438l582 -1544h-428zM969 575l-164 492h-4l-166 -492h334zM729 1712v139q10 -4 33 -4q39 0 70 20q36 23 36 60q0 62 -59 62q-57 0 -57 -62h-164q2 91 70 144q62 49 155 49q83 0 143 -52q70 -60 70 -141q0 -131 -147 -178v-37
l-76 -31z" />
    <glyph glyph-name="glyph284" unicode="&#x1ea3;" horiz-adv-x="1397" 
d="M672 762q-107 0 -173.5 -66t-66.5 -172q0 -107 66.5 -171t173.5 -64t173 64t66 171q0 106 -66 172t-173 66zM1272 1051v-1051h-373v117h-4q-94 -152 -317 -152q-229 0 -382 168q-149 162 -149 393q0 234 145 394q149 165 381 165q209 0 326 -137v103h373zM590 1257v140
q10 -4 33 -4q40 0 71 19q35 23 35 61q0 61 -59 61q-58 0 -58 -61h-163q2 91 69 144q62 48 156 48q83 0 143 -51q70 -60 70 -141q0 -132 -148 -179v-37l-75 -30z" />
    <glyph glyph-name="glyph285" unicode="&#x1ea4;" horiz-adv-x="1599" 
d="M1077 268h-553l-106 -268h-426l594 1544h438l582 -1544h-428zM969 575l-164 492h-4l-166 -492h334zM469 1720l334 252l340 -252l-119 -98l-221 170l-221 -170zM1509 2005l-366 -211l-94 88l327 254z" />
    <glyph glyph-name="glyph286" unicode="&#x1ea5;" horiz-adv-x="1397" 
d="M672 762q-107 0 -173.5 -66t-66.5 -172q0 -107 66.5 -171t173.5 -64t173 64t66 171q0 106 -66 172t-173 66zM1272 1051v-1051h-373v117h-4q-94 -152 -317 -152q-229 0 -382 168q-149 162 -149 393q0 234 145 394q149 165 381 165q209 0 326 -137v103h373zM330 1280
l334 252l340 -252l-119 -98l-221 170l-222 -170zM1370 1565l-366 -211l-95 88l328 254z" />
    <glyph glyph-name="glyph287" unicode="&#x1ea6;" horiz-adv-x="1599" 
d="M1077 268h-553l-106 -268h-426l594 1544h438l582 -1544h-428zM969 575l-164 492h-4l-166 -492h334zM469 1720l334 252l340 -252l-119 -98l-221 170l-221 -170zM559 1880l-94 -88l-367 211l133 131z" />
    <glyph glyph-name="glyph288" unicode="&#x1ea7;" horiz-adv-x="1397" 
d="M672 762q-107 0 -173.5 -66t-66.5 -172q0 -107 66.5 -171t173.5 -64t173 64t66 171q0 106 -66 172t-173 66zM1272 1051v-1051h-373v117h-4q-94 -152 -317 -152q-229 0 -382 168q-149 162 -149 393q0 234 145 394q149 165 381 165q209 0 326 -137v103h373zM330 1278
l334 252l340 -252l-119 -98l-221 170l-222 -170zM420 1438l-94 -88l-367 211l133 131z" />
    <glyph glyph-name="glyph289" unicode="&#x1ea8;" horiz-adv-x="1599" 
d="M1077 268h-553l-106 -268h-426l594 1544h438l582 -1544h-428zM969 575l-164 492h-4l-166 -492h334zM469 1720l334 252l340 -252l-119 -98l-221 170l-221 -170zM1120 1823v139q10 -4 33 -4q40 0 71 20q36 23 36 60q0 61 -60 61q-57 0 -57 -61h-164q2 90 70 143
q62 49 155 49q84 0 147 -53q66 -56 66 -139q0 -131 -147 -178v-37l-76 -31z" />
    <glyph glyph-name="glyph290" unicode="&#x1ea9;" horiz-adv-x="1397" 
d="M672 762q-107 0 -173.5 -66t-66.5 -172q0 -107 66.5 -171t173.5 -64t173 64t66 171q0 106 -66 172t-173 66zM1272 1051v-1051h-373v117h-4q-94 -152 -317 -152q-229 0 -382 168q-149 162 -149 393q0 234 145 394q149 165 381 165q209 0 326 -137v103h373zM330 1278
l334 252l340 -252l-119 -98l-221 170l-222 -170zM981 1380v140q10 -4 33 -4q40 0 70 19q36 22 36 60q0 62 -59 62q-57 0 -57 -62h-164q2 92 69 144q62 49 156 49q84 0 143 -51q70 -60 70 -142q0 -131 -148 -178v-37l-75 -30z" />
    <glyph glyph-name="glyph291" unicode="&#x1eaa;" horiz-adv-x="1599" 
d="M1077 268h-553l-106 -268h-426l594 1544h438l582 -1544h-428zM969 575l-164 492h-4l-166 -492h334zM469 1720l334 252l340 -252l-119 -98l-221 170l-221 -170zM543 2060l-135 -8l12 16q42 75 125 138q110 83 200 75q41 -4 115.5 -37.5t112.5 -37.5q42 -5 102 51l139 6
q-73 -99 -163 -160q-112 -76 -209 -67q-38 3 -105 38.5t-104 39.5t-90 -54z" />
    <glyph glyph-name="glyph292" unicode="&#x1eab;" horiz-adv-x="1397" 
d="M672 762q-107 0 -173.5 -66t-66.5 -172q0 -107 66.5 -171t173.5 -64t173 64t66 171q0 106 -66 172t-173 66zM1272 1051v-1051h-373v117h-4q-94 -152 -317 -152q-229 0 -382 168q-149 162 -149 393q0 234 145 394q149 165 381 165q209 0 326 -137v103h373zM328 1278
l334 252l339 -252l-118 -98l-221 170l-222 -170zM401 1638l-135 -8l13 17q42 75 124 137q112 84 201 76q40 -4 115 -38t112 -38q43 -5 103 51l139 6q-73 -98 -164 -160q-111 -76 -209 -67q-38 3 -104.5 38.5t-103.5 39.5t-91 -54z" />
    <glyph glyph-name="glyph293" unicode="&#x1eac;" horiz-adv-x="1599" 
d="M1077 268h-553l-106 -268h-426l594 1544h438l582 -1544h-428zM969 575l-164 492h-4l-166 -492h334zM469 1720l334 252l340 -252l-119 -98l-221 170l-221 -170zM805 -45q68 0 115 -47t47 -115q0 -67 -47.5 -114.5t-114.5 -47.5t-114.5 47.5t-47.5 114.5q0 68 47 115
t115 47z" />
    <glyph glyph-name="glyph294" unicode="&#x1ead;" horiz-adv-x="1397" 
d="M672 762q-107 0 -173.5 -66t-66.5 -172q0 -107 66.5 -171t173.5 -64t173 64t66 171q0 106 -66 172t-173 66zM1272 1051v-1051h-373v117h-4q-94 -152 -317 -152q-229 0 -382 168q-149 162 -149 393q0 234 145 394q149 165 381 165q209 0 326 -137v103h373zM330 1280
l334 252l340 -252l-119 -98l-221 170l-222 -170zM664 -127q65 0 109 -44.5t44 -109.5q0 -64 -44.5 -108.5t-108.5 -44.5t-109 44.5t-45 108.5t45 109t109 45z" />
    <glyph glyph-name="glyph295" unicode="&#x1eae;" horiz-adv-x="1599" 
d="M1077 268h-553l-106 -268h-426l594 1544h438l582 -1544h-428zM969 575l-164 492h-4l-166 -492h334zM485 1907h183q20 -111 135 -111q119 0 135 111h182q-14 -236 -317 -236t-318 236zM1169 2138l-366 -211l-94 88l327 254z" />
    <glyph glyph-name="glyph296" unicode="&#x1eaf;" horiz-adv-x="1397" 
d="M672 762q-107 0 -173.5 -66t-66.5 -172q0 -107 66.5 -171t173.5 -64t173 64t66 171q0 106 -66 172t-173 66zM1272 1051v-1051h-373v117h-4q-94 -152 -317 -152q-229 0 -382 168q-149 162 -149 393q0 234 145 394q149 165 381 165q209 0 326 -137v103h373zM346 1446h182
q21 -111 136 -111q118 0 135 111h182q-14 -236 -317 -236q-304 0 -318 236zM1030 1698l-366 -211l-95 88l328 254z" />
    <glyph glyph-name="glyph297" unicode="&#x1eb0;" horiz-adv-x="1599" 
d="M1077 268h-553l-106 -268h-426l594 1544h438l582 -1544h-428zM969 575l-164 492h-4l-166 -492h334zM489 1907h183q20 -111 135 -111q119 0 135 111h182q-14 -236 -317 -236t-318 236zM897 2017l-94 -88l-367 211l133 131z" />
    <glyph glyph-name="glyph298" unicode="&#x1eb1;" horiz-adv-x="1397" 
d="M672 762q-107 0 -173.5 -66t-66.5 -172q0 -107 66.5 -171t173.5 -64t173 64t66 171q0 106 -66 172t-173 66zM1272 1051v-1051h-373v117h-4q-94 -152 -317 -152q-229 0 -382 168q-149 162 -149 393q0 234 145 394q149 165 381 165q209 0 326 -137v103h373zM346 1448h182
q21 -111 136 -111q118 0 135 111h182q-14 -236 -317 -236q-304 0 -318 236zM754 1579l-95 -88l-366 211l133 131z" />
    <glyph glyph-name="glyph299" unicode="&#x1eb2;" horiz-adv-x="1599" 
d="M1077 268h-553l-106 -268h-426l594 1544h438l582 -1544h-428zM969 575l-164 492h-4l-166 -492h334zM487 1907h183q20 -111 135 -111q119 0 135 111h182q-14 -236 -317 -236t-318 236zM729 1937v140q10 -4 33 -4q40 0 70 19q36 22 36 60q0 62 -59 62q-57 0 -57 -62h-164
q2 91 70 144q62 49 155 49q84 0 143 -51q70 -60 70 -142q0 -131 -147 -178v-37l-76 -30z" />
    <glyph glyph-name="glyph300" unicode="&#x1eb3;" horiz-adv-x="1397" 
d="M672 762q-107 0 -173.5 -66t-66.5 -172q0 -107 66.5 -171t173.5 -64t173 64t66 171q0 106 -66 172t-173 66zM1272 1051v-1051h-373v117h-4q-94 -152 -317 -152q-229 0 -382 168q-149 162 -149 393q0 234 145 394q149 165 381 165q209 0 326 -137v103h373zM348 1446h182
q21 -111 136 -111q118 0 135 111h182q-14 -236 -317 -236q-304 0 -318 236zM590 1497v139q10 -4 33 -4q39 0 70 20q36 23 36 60q0 62 -59 62q-58 0 -58 -62h-163q2 92 69 144q62 49 156 49q82 0 143 -52q70 -60 70 -141q0 -131 -148 -178v-37l-75 -31z" />
    <glyph glyph-name="glyph301" unicode="&#x1eb4;" horiz-adv-x="1599" 
d="M1077 268h-553l-106 -268h-426l594 1544h438l582 -1544h-428zM969 575l-164 492h-4l-166 -492h334zM485 1907h183q20 -111 135 -111q119 0 135 111h182q-14 -236 -317 -236t-318 236zM860 2030l-135 -9l12 17q43 75 125 137q111 84 201 76q40 -4 114.5 -38t112.5 -38
q43 -5 103 51l139 6q-72 -96 -164 -159q-113 -77 -209 -68q-38 3 -105 38.5t-104 39.5t-90 -53z" />
    <glyph glyph-name="glyph302" unicode="&#x1eb5;" horiz-adv-x="1397" 
d="M672 762q-107 0 -173.5 -66t-66.5 -172q0 -107 66.5 -171t173.5 -64t173 64t66 171q0 106 -66 172t-173 66zM1272 1051v-1051h-373v117h-4q-94 -152 -317 -152q-229 0 -382 168q-149 162 -149 393q0 234 145 394q149 165 381 165q209 0 326 -137v103h373zM348 1446h182
q21 -111 136 -111q118 0 135 111h182q-14 -236 -317 -236q-304 0 -318 236zM723 1569l-135 -8l12 16q43 75 125 137q111 84 201 76q40 -4 114.5 -38t112.5 -38q42 -5 102 51l140 7q-72 -96 -162 -159q-112 -78 -211 -69q-37 3 -105 38.5t-104 39.5q-37 4 -90 -53z" />
    <glyph glyph-name="glyph303" unicode="&#x1eb6;" horiz-adv-x="1599" 
d="M1077 268h-553l-106 -268h-426l594 1544h438l582 -1544h-428zM969 575l-164 492h-4l-166 -492h334zM489 1907h183q20 -111 135 -111q119 0 135 111h182q-14 -236 -317 -236t-318 236zM805 -45q68 0 115 -47t47 -115q0 -67 -47.5 -114.5t-114.5 -47.5t-114.5 47.5
t-47.5 114.5q0 68 47 115t115 47z" />
    <glyph glyph-name="glyph304" unicode="&#x1eb7;" horiz-adv-x="1397" 
d="M672 762q-107 0 -173.5 -66t-66.5 -172q0 -107 66.5 -171t173.5 -64t173 64t66 171q0 106 -66 172t-173 66zM1272 1051v-1051h-373v117h-4q-94 -152 -317 -152q-229 0 -382 168q-149 162 -149 393q0 234 145 394q149 165 381 165q209 0 326 -137v103h373zM664 -127
q65 0 109 -44.5t44 -109.5q0 -64 -44.5 -108.5t-108.5 -44.5t-109 44.5t-45 108.5t45 109t109 45zM346 1446h182q21 -111 136 -111q118 0 135 111h182q-14 -236 -317 -236q-304 0 -318 236z" />
    <glyph glyph-name="glyph305" unicode="&#x1eb8;" horiz-adv-x="1126" 
d="M1010 1204h-478v-258h453v-340h-453v-266h478v-340h-879v1544h879v-340zM575 -86q69 0 115.5 -46.5t46.5 -115.5q0 -67 -47.5 -114.5t-114.5 -47.5t-114 47.5t-47 114.5q0 68 46.5 115t114.5 47z" />
    <glyph glyph-name="glyph306" unicode="&#x1eb9;" horiz-adv-x="1249" 
d="M424 678h432q-14 75 -73.5 120.5t-137.5 45.5q-186 0 -221 -166zM1202 502v-39h-784q0 -234 233 -234q121 0 178 97h359q-44 -179 -200 -275q-141 -86 -335 -86q-270 0 -434 142q-174 151 -174 417q0 262 161 413q158 148 421 148q272 0 423.5 -155t151.5 -428zM653 -147
q65 0 109.5 -44.5t44.5 -109.5q0 -64 -45 -109t-109 -45t-108.5 45t-44.5 109t44.5 109t108.5 45z" />
    <glyph glyph-name="glyph307" unicode="&#x1eba;" horiz-adv-x="1126" 
d="M1010 1204h-478v-258h453v-340h-453v-266h478v-340h-879v1544h879v-340zM500 1712v139q10 -4 32 -4q40 0 71 20q36 23 36 60q0 62 -59 62q-58 0 -58 -62h-164q2 91 70 144q62 49 156 49q82 0 143 -52q70 -60 70 -141q0 -131 -148 -178v-37l-76 -31z" />
    <glyph glyph-name="glyph308" unicode="&#x1ebb;" horiz-adv-x="1249" 
d="M424 678h432q-14 75 -73.5 120.5t-137.5 45.5q-186 0 -221 -166zM1202 502v-39h-784q0 -234 233 -234q121 0 178 97h359q-44 -179 -200 -275q-141 -86 -335 -86q-270 0 -434 142q-174 151 -174 417q0 262 161 413q158 148 421 148q272 0 423.5 -155t151.5 -428zM553 1257
v140q10 -4 33 -4q40 0 71 19q35 23 35 61q0 61 -59 61q-58 0 -58 -61h-163q2 91 69 144q62 48 156 48q84 0 143 -51q70 -60 70 -141q0 -132 -148 -179v-37l-75 -30z" />
    <glyph glyph-name="glyph309" unicode="&#x1ebc;" horiz-adv-x="1126" 
d="M1010 1204h-478v-258h453v-340h-453v-266h478v-340h-879v1544h879v-340zM311 1735l-135 -9l12 17q43 76 125 137q112 84 201 76q40 -4 115 -38t112 -38q43 -5 103 51l139 6q-72 -96 -164 -159q-113 -77 -209 -68q-38 3 -105 38.5t-104 39.5t-90 -53z" />
    <glyph glyph-name="glyph310" unicode="&#x1ebd;" horiz-adv-x="1249" 
d="M424 678h432q-14 75 -73.5 120.5t-137.5 45.5q-186 0 -221 -166zM1202 502v-39h-784q0 -234 233 -234q121 0 178 97h359q-44 -179 -200 -275q-141 -86 -335 -86q-270 0 -434 142q-174 151 -174 417q0 262 161 413q158 148 421 148q272 0 423.5 -155t151.5 -428zM367 1282
l-136 -8l13 16q42 74 125 137q112 84 200 76q40 -4 116.5 -38t111.5 -38q41 -5 102 52l139 6q-72 -96 -162 -159q-112 -78 -210 -69q-38 3 -105 38.5t-104 39.5t-90 -53z" />
    <glyph glyph-name="glyph311" unicode="&#x1ebe;" horiz-adv-x="1126" 
d="M1010 1204h-478v-258h453v-340h-453v-266h478v-340h-879v1544h879v-340zM238 1741l333 252l340 -252l-118 -99l-222 170l-221 -170zM1278 2025l-367 -210l-94 88l328 254z" />
    <glyph glyph-name="glyph312" unicode="&#x1ebf;" horiz-adv-x="1249" 
d="M424 678h432q-14 75 -73.5 120.5t-137.5 45.5q-186 0 -221 -166zM1202 502v-39h-784q0 -234 233 -234q121 0 178 97h359q-44 -179 -200 -275q-141 -86 -335 -86q-270 0 -434 142q-174 151 -174 417q0 262 161 413q158 148 421 148q272 0 423.5 -155t151.5 -428zM293 1278
l334 252l340 -252l-119 -98l-221 170l-221 -170zM1333 1563l-366 -211l-95 88l328 254z" />
    <glyph glyph-name="glyph313" unicode="&#x1ec0;" horiz-adv-x="1126" 
d="M1010 1204h-478v-258h453v-340h-453v-266h478v-340h-879v1544h879v-340zM240 1739l333 252l340 -252l-118 -99l-222 170l-221 -170zM330 1898l-94 -88l-367 211l133 131z" />
    <glyph glyph-name="glyph314" unicode="&#x1ec1;" horiz-adv-x="1249" 
d="M424 678h432q-14 75 -73.5 120.5t-137.5 45.5q-186 0 -221 -166zM1202 502v-39h-784q0 -234 233 -234q121 0 178 97h359q-44 -179 -200 -275q-141 -86 -335 -86q-270 0 -434 142q-174 151 -174 417q0 262 161 413q158 148 421 148q272 0 423.5 -155t151.5 -428zM293 1278
l334 252l340 -252l-119 -98l-221 170l-221 -170zM383 1438l-94 -88l-367 211l133 131z" />
    <glyph glyph-name="glyph315" unicode="&#x1ec2;" horiz-adv-x="1126" 
d="M1010 1204h-478v-258h453v-340h-453v-266h478v-340h-879v1544h879v-340zM240 1741l333 252l340 -252l-118 -99l-222 170l-221 -170zM891 1843v139q10 -4 33 -4q39 0 70 20q36 23 36 60q0 62 -59 62q-58 0 -58 -62h-163q2 92 69 144q62 49 156 49q83 0 143 -51
q70 -60 70 -142q0 -131 -148 -178v-37l-75 -31z" />
    <glyph glyph-name="glyph316" unicode="&#x1ec3;" horiz-adv-x="1249" 
d="M424 678h432q-14 75 -73.5 120.5t-137.5 45.5q-186 0 -221 -166zM1202 502v-39h-784q0 -234 233 -234q121 0 178 97h359q-44 -179 -200 -275q-141 -86 -335 -86q-270 0 -434 142q-174 151 -174 417q0 262 161 413q158 148 421 148q272 0 423.5 -155t151.5 -428zM293 1278
l334 252l340 -252l-119 -98l-221 170l-221 -170zM944 1380v140q10 -4 33 -4q40 0 70 19q36 22 36 60q0 62 -59 62q-57 0 -57 -62h-164q2 91 70 144q62 49 155 49q84 0 143 -51q70 -60 70 -142q0 -131 -147 -178v-37l-76 -30z" />
    <glyph glyph-name="glyph317" unicode="&#x1ec4;" horiz-adv-x="1126" 
d="M1010 1204h-478v-258h453v-340h-453v-266h478v-340h-879v1544h879v-340zM240 1739l333 252l340 -252l-118 -99l-222 170l-221 -170zM313 2079l-135 -8l12 16q43 76 125 137q112 84 201 76q40 -4 115 -38t112 -38q43 -5 103 51l139 6q-73 -96 -164 -159q-113 -77 -209 -68
q-38 4 -105 39t-104 39t-90 -53z" />
    <glyph glyph-name="glyph318" unicode="&#x1ec5;" horiz-adv-x="1249" 
d="M424 678h432q-14 75 -73.5 120.5t-137.5 45.5q-186 0 -221 -166zM1202 502v-39h-784q0 -234 233 -234q121 0 178 97h359q-44 -179 -200 -275q-141 -86 -335 -86q-270 0 -434 142q-174 151 -174 417q0 262 161 413q158 148 421 148q272 0 423.5 -155t151.5 -428zM293 1278
l334 252l340 -252l-119 -98l-221 170l-221 -170zM367 1638l-136 -8l13 17q42 74 125 137q112 84 200 76q40 -4 115 -38t113 -38q42 -5 102 51l139 6q-73 -98 -164 -160q-111 -76 -208 -67q-38 3 -105 38.5t-104 39.5t-90 -54z" />
    <glyph glyph-name="glyph319" unicode="&#x1ec6;" horiz-adv-x="1126" 
d="M1010 1204h-478v-258h453v-340h-453v-266h478v-340h-879v1544h879v-340zM238 1741l333 252l340 -252l-118 -99l-222 170l-221 -170zM575 -86q69 0 115.5 -46.5t46.5 -115.5q0 -67 -47.5 -114.5t-114.5 -47.5t-114 47.5t-47 114.5q0 68 46.5 115t114.5 47z" />
    <glyph glyph-name="glyph320" unicode="&#x1ec7;" horiz-adv-x="1249" 
d="M424 678h432q-14 75 -73.5 120.5t-137.5 45.5q-186 0 -221 -166zM1202 502v-39h-784q0 -234 233 -234q121 0 178 97h359q-44 -179 -200 -275q-141 -86 -335 -86q-270 0 -434 142q-174 151 -174 417q0 262 161 413q158 148 421 148q272 0 423.5 -155t151.5 -428zM293 1278
l334 252l340 -252l-119 -98l-221 170l-221 -170zM653 -147q65 0 109.5 -44.5t44.5 -109.5q0 -64 -45 -109t-109 -45t-108.5 45t-44.5 109t44.5 109t108.5 45z" />
    <glyph glyph-name="glyph321" unicode="&#x1ec8;" horiz-adv-x="664" 
d="M532 1544v-1544h-401v1544h401zM256 1712v139q10 -4 33 -4q39 0 70 20q36 23 36 60q0 62 -59 62q-57 0 -57 -62h-164q2 92 69 144q62 49 156 49q83 0 143 -52q70 -60 70 -141q0 -131 -147 -178v-37l-76 -31z" />
    <glyph glyph-name="glyph322" unicode="&#x1ec9;" horiz-adv-x="618" 
d="M496 1063v-1063h-373v1051zM233 1247v139q11 -4 33 -4q40 0 71 20q36 23 36 60q0 62 -60 62q-57 0 -57 -62h-164q2 91 69 144q63 49 156 49q85 0 147 -53q66 -56 66 -140q0 -131 -147 -178v-37l-76 -30z" />
    <glyph glyph-name="glyph323" unicode="&#x1eca;" horiz-adv-x="664" 
d="M532 1544v-1544h-401v1544h401zM334 -86q68 0 115 -47t47 -115q0 -67 -47.5 -114.5t-114.5 -47.5t-114.5 47.5t-47.5 114.5q0 68 47 115t115 47z" />
    <glyph glyph-name="glyph324" unicode="&#x1ecb;" horiz-adv-x="618" 
d="M496 1063v-1063h-373v1051zM309 -127q65 0 109.5 -44.5t44.5 -109.5q0 -64 -45 -108.5t-109 -44.5t-108.5 44.5t-44.5 108.5t44.5 109t108.5 45zM309 1571q68 0 115 -47t47 -115q0 -67 -47.5 -114.5t-114.5 -47.5t-114.5 47.5t-47.5 114.5q0 68 47 115t115 47z" />
    <glyph glyph-name="glyph325" unicode="&#x1ecc;" horiz-adv-x="1817" 
d="M907 1595q345 0 594 -221q260 -231 260 -573q0 -378 -238 -615t-616 -237q-377 0 -615.5 237.5t-238.5 614.5q0 343 260 573q249 221 594 221zM907 1206q-173 0 -302 -116q-134 -120 -134 -291q0 -192 121 -324q125 -137 315 -137q191 0 315 136q121 132 121 325
q0 171 -134 291q-129 116 -302 116zM907 -127q68 0 115 -47t47 -115q0 -67 -47.5 -114.5t-114.5 -47.5t-114.5 47.5t-47.5 114.5q0 68 47 115t115 47z" />
    <glyph glyph-name="glyph326" unicode="&#x1ecd;" horiz-adv-x="1356" 
d="M678 1085q266 0 442 -145q191 -157 191 -416q0 -256 -191 -413q-178 -146 -442 -146t-442 145q-191 156 -191 414t191 416q176 145 442 145zM678 762q-107 0 -173.5 -66t-66.5 -172q0 -107 66.5 -171t173.5 -64t173.5 64t66.5 171q0 106 -66.5 172t-173.5 66zM678 -147
q65 0 109 -44.5t44 -109.5q0 -64 -44.5 -109t-108.5 -45t-109 45t-45 109t45 109t109 45z" />
    <glyph glyph-name="glyph327" unicode="&#x1ece;" horiz-adv-x="1817" 
d="M907 1595q345 0 594 -221q260 -231 260 -573q0 -378 -238 -615t-616 -237q-377 0 -615.5 237.5t-238.5 614.5q0 343 260 573q249 221 594 221zM907 1206q-173 0 -302 -116q-134 -120 -134 -291q0 -192 121 -324q125 -137 315 -137q191 0 315 136q121 132 121 325
q0 171 -134 291q-129 116 -302 116zM834 1743v139q10 -4 32 -4q40 0 71 20q36 23 36 60q0 61 -60 61q-57 0 -57 -61h-164q2 91 70 143q63 49 156 49q84 0 146 -53q66 -56 66 -139q0 -131 -147 -178v-37l-76 -31z" />
    <glyph glyph-name="glyph328" unicode="&#x1ecf;" horiz-adv-x="1356" 
d="M678 1085q266 0 442 -145q191 -157 191 -416q0 -256 -191 -413q-178 -146 -442 -146t-442 145q-191 156 -191 414t191 416q176 145 442 145zM678 762q-107 0 -173.5 -66t-66.5 -172q0 -107 66.5 -171t173.5 -64t173.5 64t66.5 171q0 106 -66.5 172t-173.5 66zM604 1257
v140q10 -4 33 -4q41 0 71 19q35 22 35 61q0 61 -59 61q-57 0 -57 -61h-164q2 90 70 143q62 49 155 49q84 0 143 -51q70 -60 70 -141q0 -132 -147 -179v-37l-76 -30z" />
    <glyph glyph-name="glyph329" unicode="&#x1ed0;" horiz-adv-x="1817" 
d="M907 1595q345 0 594 -221q260 -231 260 -573q0 -378 -238 -615t-616 -237q-377 0 -615.5 237.5t-238.5 614.5q0 343 260 573q249 221 594 221zM907 1206q-173 0 -302 -116q-134 -120 -134 -291q0 -192 121 -324q125 -137 315 -137q191 0 315 136q121 132 121 325
q0 171 -134 291q-129 116 -302 116zM573 1737l334 252l340 -252l-119 -99l-221 170l-221 -170zM1614 2021l-367 -211l-94 88l328 254z" />
    <glyph glyph-name="glyph330" unicode="&#x1ed1;" horiz-adv-x="1356" 
d="M678 1085q266 0 442 -145q191 -157 191 -416q0 -256 -191 -413q-178 -146 -442 -146t-442 145q-191 156 -191 414t191 416q176 145 442 145zM678 762q-107 0 -173.5 -66t-66.5 -172q0 -107 66.5 -171t173.5 -64t173.5 64t66.5 171q0 106 -66.5 172t-173.5 66zM344 1278
l334 252l340 -252l-119 -98l-221 170l-221 -170zM1384 1563l-366 -211l-94 88l327 254z" />
    <glyph glyph-name="glyph331" unicode="&#x1ed2;" horiz-adv-x="1817" 
d="M907 1595q345 0 594 -221q260 -231 260 -573q0 -378 -238 -615t-616 -237q-377 0 -615.5 237.5t-238.5 614.5q0 343 260 573q249 221 594 221zM907 1206q-173 0 -302 -116q-134 -120 -134 -291q0 -192 121 -324q125 -137 315 -137q191 0 315 136q121 132 121 325
q0 171 -134 291q-129 116 -302 116zM573 1739l334 252l340 -252l-119 -99l-221 170l-221 -170zM664 1898l-95 -88l-366 211l133 131z" />
    <glyph glyph-name="glyph332" unicode="&#x1ed3;" horiz-adv-x="1356" 
d="M678 1085q266 0 442 -145q191 -157 191 -416q0 -256 -191 -413q-178 -146 -442 -146t-442 145q-191 156 -191 414t191 416q176 145 442 145zM678 762q-107 0 -173.5 -66t-66.5 -172q0 -107 66.5 -171t173.5 -64t173.5 64t66.5 171q0 106 -66.5 172t-173.5 66zM344 1278
l334 252l340 -252l-119 -98l-221 170l-221 -170zM434 1438l-94 -88l-367 211l133 131z" />
    <glyph glyph-name="glyph333" unicode="&#x1ed4;" horiz-adv-x="1817" 
d="M907 1595q345 0 594 -221q260 -231 260 -573q0 -378 -238 -615t-616 -237q-377 0 -615.5 237.5t-238.5 614.5q0 343 260 573q249 221 594 221zM907 1206q-173 0 -302 -116q-134 -120 -134 -291q0 -192 121 -324q125 -137 315 -137q191 0 315 136q121 132 121 325
q0 171 -134 291q-129 116 -302 116zM573 1741l334 252l340 -252l-119 -99l-221 170l-221 -170zM1225 1843v139q10 -4 32 -4q40 0 71 20q36 23 36 60q0 62 -59 62q-58 0 -58 -62h-164q2 91 70 144q62 49 156 49q83 0 143 -51q70 -60 70 -142q0 -131 -148 -178v-37l-76 -31z
" />
    <glyph glyph-name="glyph334" unicode="&#x1ed5;" horiz-adv-x="1356" 
d="M678 1085q266 0 442 -145q191 -157 191 -416q0 -256 -191 -413q-178 -146 -442 -146t-442 145q-191 156 -191 414t191 416q176 145 442 145zM678 762q-107 0 -173.5 -66t-66.5 -172q0 -107 66.5 -171t173.5 -64t173.5 64t66.5 171q0 106 -66.5 172t-173.5 66zM344 1278
l334 252l340 -252l-119 -98l-221 170l-221 -170zM995 1380v140q11 -4 33 -4q40 0 71 19q36 22 36 60q0 62 -60 62q-57 0 -57 -62h-164q2 91 70 144q62 49 155 49q85 0 147 -53q66 -56 66 -140q0 -131 -147 -178v-37l-76 -30z" />
    <glyph glyph-name="glyph335" unicode="&#x1ed6;" horiz-adv-x="1817" 
d="M907 1595q345 0 594 -221q260 -231 260 -573q0 -378 -238 -615t-616 -237q-377 0 -615.5 237.5t-238.5 614.5q0 343 260 573q249 221 594 221zM907 1206q-173 0 -302 -116q-134 -120 -134 -291q0 -192 121 -324q125 -137 315 -137q191 0 315 136q121 132 121 325
q0 171 -134 291q-129 116 -302 116zM573 1737l334 252l340 -252l-119 -99l-221 170l-221 -170zM647 2077l-135 -9l12 17q43 75 125 137q111 84 201 76q40 -4 114.5 -38t112.5 -38q43 -5 103 51l139 6q-73 -96 -164 -159q-113 -77 -209 -68q-38 4 -105 39t-104 39t-90 -53z
" />
    <glyph glyph-name="glyph336" unicode="&#x1ed7;" horiz-adv-x="1356" 
d="M678 1085q266 0 442 -145q191 -157 191 -416q0 -256 -191 -413q-178 -146 -442 -146t-442 145q-191 156 -191 414t191 416q176 145 442 145zM678 762q-107 0 -173.5 -66t-66.5 -172q0 -107 66.5 -171t173.5 -64t173.5 64t66.5 171q0 106 -66.5 172t-173.5 66zM307 1278
l334 252l340 -252l-119 -98l-221 170l-221 -170zM381 1638l-135 -8l12 17q43 75 125 137q111 84 201 76q40 -4 114.5 -38t112.5 -38q42 -5 102 51l140 6q-73 -98 -164 -160q-111 -76 -209 -67q-38 3 -105 38.5t-104 39.5t-90 -54z" />
    <glyph glyph-name="glyph337" unicode="&#x1ed8;" horiz-adv-x="1817" 
d="M907 1595q345 0 594 -221q260 -231 260 -573q0 -378 -238 -615t-616 -237q-377 0 -615.5 237.5t-238.5 614.5q0 343 260 573q249 221 594 221zM907 1206q-173 0 -302 -116q-134 -120 -134 -291q0 -192 121 -324q125 -137 315 -137q191 0 315 136q121 132 121 325
q0 171 -134 291q-129 116 -302 116zM573 1737l334 252l340 -252l-119 -99l-221 170l-221 -170zM907 -127q68 0 115 -47t47 -115q0 -67 -47.5 -114.5t-114.5 -47.5t-114.5 47.5t-47.5 114.5q0 68 47 115t115 47z" />
    <glyph glyph-name="glyph338" unicode="&#x1ed9;" horiz-adv-x="1356" 
d="M678 1085q266 0 442 -145q191 -157 191 -416q0 -256 -191 -413q-178 -146 -442 -146t-442 145q-191 156 -191 414t191 416q176 145 442 145zM678 762q-107 0 -173.5 -66t-66.5 -172q0 -107 66.5 -171t173.5 -64t173.5 64t66.5 171q0 106 -66.5 172t-173.5 66zM344 1278
l334 252l340 -252l-119 -98l-221 170l-221 -170zM678 -147q65 0 109 -44.5t44 -109.5q0 -64 -44.5 -109t-108.5 -45t-109 45t-45 109t45 109t109 45z" />
    <glyph glyph-name="glyph339" unicode="&#x1eda;" horiz-adv-x="1817" 
d="M907 1206q-173 0 -302 -116q-134 -120 -134 -291q0 -192 121 -324q125 -137 315 -137q191 0 315 136q121 132 121 325q0 171 -134 291q-129 116 -302 116zM1202 1546h180q46 16 46 56q0 9 -3 20q-12 49 -94 49l103 90q42 2 94 -28q63 -36 63 -109q0 -60 -69 -115
q-61 -49 -125 -57q170 -110 266 -279q98 -173 98 -372q0 -378 -238 -615t-616 -237q-377 0 -615.5 237.5t-238.5 614.5q0 343 260 573q249 221 594 221q154 0 295 -49zM1276 1958l-367 -211l-94 88l328 254z" />
    <glyph glyph-name="glyph340" unicode="&#x1edb;" horiz-adv-x="1356" 
d="M678 762q-107 0 -173.5 -66t-66.5 -172q0 -107 66.5 -171t173.5 -64t173.5 64t66.5 171q0 106 -66.5 172t-173.5 66zM969 1030h110q21 6 35 27q8 20 8 35q0 51 -88 51l90 80q33 2 86 -25q56 -35 56 -98q0 -59 -61 -99q-52 -34 -115 -38q221 -156 221 -439
q0 -256 -191 -413q-178 -146 -442 -146t-442 145q-191 156 -191 414t191 416q176 145 442 145q160 0 291 -55zM1042 1470l-366 -210l-94 88l327 254z" />
    <glyph glyph-name="glyph341" unicode="&#x1edc;" horiz-adv-x="1817" 
d="M907 1206q-173 0 -302 -116q-134 -120 -134 -291q0 -192 121 -324q125 -137 315 -137q191 0 315 136q121 132 121 325q0 171 -134 291q-129 116 -302 116zM1202 1546h180q46 16 46 56q0 9 -3 20q-12 49 -94 49l103 90q42 2 94 -28q63 -36 63 -109q0 -60 -69 -115
q-61 -49 -125 -57q170 -110 266 -279q98 -173 98 -372q0 -378 -238 -615t-616 -237q-377 0 -615.5 237.5t-238.5 614.5q0 343 260 573q249 221 594 221q154 0 295 -49zM1004 1835l-95 -88l-366 211l133 131z" />
    <glyph glyph-name="glyph342" unicode="&#x1edd;" horiz-adv-x="1356" 
d="M678 762q-107 0 -173.5 -66t-66.5 -172q0 -107 66.5 -171t173.5 -64t173.5 64t66.5 171q0 106 -66.5 172t-173.5 66zM969 1030h110q21 6 35 27q8 20 8 35q0 51 -88 51l90 80q33 2 86 -25q56 -35 56 -98q0 -59 -61 -99q-52 -34 -115 -38q221 -156 221 -439
q0 -256 -191 -413q-178 -146 -442 -146t-442 145q-191 156 -191 414t191 416q176 145 442 145q160 0 291 -55zM772 1346l-94 -89l-367 211l133 131z" />
    <glyph glyph-name="glyph343" unicode="&#x1ede;" horiz-adv-x="1817" 
d="M907 1206q-173 0 -302 -116q-134 -120 -134 -291q0 -192 121 -324q125 -137 315 -137q191 0 315 136q121 132 121 325q0 171 -134 291q-129 116 -302 116zM1202 1546h180q46 16 46 56q0 9 -3 20q-12 49 -94 49l103 90q42 2 94 -28q63 -36 63 -109q0 -60 -69 -115
q-61 -49 -125 -57q170 -110 266 -279q98 -173 98 -372q0 -378 -238 -615t-616 -237q-377 0 -615.5 237.5t-238.5 614.5q0 343 260 573q249 221 594 221q154 0 295 -49zM834 1743v139q10 -4 32 -4q40 0 71 20q36 23 36 60q0 61 -60 61q-57 0 -57 -61h-164q2 91 70 143
q63 49 156 49q84 0 146 -53q66 -56 66 -139q0 -131 -147 -178v-37l-76 -31z" />
    <glyph glyph-name="glyph344" unicode="&#x1edf;" horiz-adv-x="1356" 
d="M678 762q-107 0 -173.5 -66t-66.5 -172q0 -107 66.5 -171t173.5 -64t173.5 64t66.5 171q0 106 -66.5 172t-173.5 66zM969 1030h110q21 6 35 27q8 20 8 35q0 51 -88 51l90 80q33 2 86 -25q56 -35 56 -98q0 -59 -61 -99q-52 -34 -115 -38q221 -156 221 -439
q0 -256 -191 -413q-178 -146 -442 -146t-442 145q-191 156 -191 414t191 416q176 145 442 145q160 0 291 -55zM604 1257v140q10 -4 33 -4q41 0 71 19q35 22 35 61q0 61 -59 61q-57 0 -57 -61h-164q2 90 70 143q62 49 155 49q84 0 143 -51q70 -60 70 -141q0 -132 -147 -179
v-37l-76 -30z" />
    <glyph glyph-name="glyph345" unicode="&#x1ee0;" horiz-adv-x="1817" 
d="M907 1206q-173 0 -302 -116q-134 -120 -134 -291q0 -192 121 -324q125 -137 315 -137q191 0 315 136q121 132 121 325q0 171 -134 291q-129 116 -302 116zM1202 1546h180q46 16 46 56q0 9 -3 20q-12 49 -94 49l103 90q42 2 94 -28q63 -36 63 -109q0 -60 -69 -115
q-61 -49 -125 -57q170 -110 266 -279q98 -173 98 -372q0 -378 -238 -615t-616 -237q-377 0 -615.5 237.5t-238.5 614.5q0 343 260 573q249 221 594 221q154 0 295 -49zM647 1767l-135 -8l12 17q43 75 125 137q111 84 201 76q40 -4 114.5 -38t112.5 -38q43 -5 103 51l139 6
q-73 -98 -164 -160q-111 -76 -209 -67q-38 3 -105 38.5t-104 39.5t-90 -54z" />
    <glyph glyph-name="glyph346" unicode="&#x1ee1;" horiz-adv-x="1356" 
d="M678 762q-107 0 -173.5 -66t-66.5 -172q0 -107 66.5 -171t173.5 -64t173.5 64t66.5 171q0 106 -66.5 172t-173.5 66zM969 1030h110q21 6 35 27q8 20 8 35q0 51 -88 51l90 80q33 2 86 -25q56 -35 56 -98q0 -59 -61 -99q-52 -34 -115 -38q221 -156 221 -439
q0 -256 -191 -413q-178 -146 -442 -146t-442 145q-191 156 -191 414t191 416q176 145 442 145q160 0 291 -55zM381 1282l-135 -8l12 16q43 75 125 137q111 84 201 76q39 -4 115 -38t112 -38q41 -5 102 52l140 6q-72 -96 -162 -159q-112 -78 -211 -69q-37 3 -105 38.5
t-104 39.5q-37 4 -90 -53z" />
    <glyph glyph-name="glyph347" unicode="&#x1ee2;" horiz-adv-x="1817" 
d="M907 1206q-173 0 -302 -116q-134 -120 -134 -291q0 -192 121 -324q125 -137 315 -137q191 0 315 136q121 132 121 325q0 171 -134 291q-129 116 -302 116zM1202 1546h180q46 16 46 56q0 9 -3 20q-12 49 -94 49l103 90q42 2 94 -28q63 -36 63 -109q0 -60 -69 -115
q-61 -49 -125 -57q170 -110 266 -279q98 -173 98 -372q0 -378 -238 -615t-616 -237q-377 0 -615.5 237.5t-238.5 614.5q0 343 260 573q249 221 594 221q154 0 295 -49zM907 -127q68 0 115 -47t47 -115q0 -67 -47.5 -114.5t-114.5 -47.5t-114.5 47.5t-47.5 114.5q0 68 47 115
t115 47z" />
    <glyph glyph-name="glyph348" unicode="&#x1ee3;" horiz-adv-x="1356" 
d="M678 762q-107 0 -173.5 -66t-66.5 -172q0 -107 66.5 -171t173.5 -64t173.5 64t66.5 171q0 106 -66.5 172t-173.5 66zM969 1030h110q21 6 35 27q8 20 8 35q0 51 -88 51l90 80q33 2 86 -25q56 -35 56 -98q0 -59 -61 -99q-52 -34 -115 -38q221 -156 221 -439
q0 -256 -191 -413q-178 -146 -442 -146t-442 145q-191 156 -191 414t191 416q176 145 442 145q160 0 291 -55zM678 -147q65 0 109 -44.5t44 -109.5q0 -64 -44.5 -109t-108.5 -45t-109 45t-45 109t45 109t109 45z" />
    <glyph glyph-name="glyph349" unicode="&#x1ee4;" horiz-adv-x="1593" 
d="M1069 1544h401v-868q0 -195 -22 -291q-35 -152 -139 -254q-176 -172 -512 -172t-512 172q-105 102 -140 254q-22 94 -22 291v868h401v-813q0 -198 39 -285q61 -135 234 -135q172 0 233 135q39 87 39 285v813zM799 -127q68 0 115 -47t47 -115q0 -67 -47.5 -114.5
t-114.5 -47.5t-114.5 47.5t-47.5 114.5q0 68 47 115t115 47z" />
    <glyph glyph-name="glyph350" unicode="&#x1ee5;" horiz-adv-x="1350" 
d="M117 1051h372v-562q0 -112 36 -164q44 -63 151 -63t150 63q36 52 36 164v562h373v-633q0 -453 -559 -453t-559 453v633zM678 -147q65 0 109 -44.5t44 -109.5q0 -64 -44.5 -109t-108.5 -45t-109 45t-45 109t45 109t109 45z" />
    <glyph glyph-name="glyph351" unicode="&#x1ee6;" horiz-adv-x="1593" 
d="M1069 1544h401v-868q0 -195 -22 -291q-35 -152 -139 -254q-176 -172 -512 -172t-512 172q-105 102 -140 254q-22 94 -22 291v868h401v-813q0 -198 39 -285q61 -135 234 -135q172 0 233 135q39 87 39 285v813zM725 1671v139q10 -4 33 -4q39 0 70 20q36 23 36 60
q0 62 -59 62q-57 0 -57 -62h-164q2 92 69 144q62 49 156 49q84 0 143 -51q70 -60 70 -142q0 -131 -148 -178v-37l-75 -31z" />
    <glyph glyph-name="glyph352" unicode="&#x1ee7;" horiz-adv-x="1350" 
d="M117 1051h372v-562q0 -112 36 -164q44 -63 151 -63t150 63q36 52 36 164v562h373v-633q0 -453 -559 -453t-559 453v633zM604 1212v140q10 -4 33 -4q41 0 71 19q35 22 35 60q0 62 -59 62q-57 0 -57 -62h-164q2 91 70 144q62 49 155 49q84 0 143 -51q70 -60 70 -142
q0 -131 -147 -178v-37l-76 -30z" />
    <glyph glyph-name="glyph353" unicode="&#x1ee8;" horiz-adv-x="1593" 
d="M1470 1473v-797q0 -195 -22 -291q-35 -152 -139 -254q-176 -172 -512 -172t-512 172q-105 102 -140 254q-22 94 -22 291v868h401v-813q0 -198 39 -285q61 -135 234 -135q172 0 233 135q39 87 39 285v813h399q46 16 46 56q0 9 -3 20q-12 49 -94 49l103 90q42 2 94 -28
q63 -36 63 -109q0 -65 -73 -111q-62 -39 -131 -41zM1165 1882l-366 -211l-94 88l327 254z" />
    <glyph glyph-name="glyph354" unicode="&#x1ee9;" horiz-adv-x="1350" 
d="M1235 965v-547q0 -453 -559 -453t-559 453v633h372v-562q0 -112 36 -164q44 -63 151 -63t150 63q36 52 36 164v562l371 -21q20 6 35 27q8 20 8 35q0 51 -88 51l90 80q33 2 86 -25q57 -37 57 -98t-65 -101q-55 -34 -119 -36zM1042 1421l-366 -211l-94 88l327 254z" />
    <glyph glyph-name="glyph355" unicode="&#x1eea;" horiz-adv-x="1593" 
d="M1470 1473v-797q0 -195 -22 -291q-35 -152 -139 -254q-176 -172 -512 -172t-512 172q-105 102 -140 254q-22 94 -22 291v868h401v-813q0 -198 39 -285q61 -135 234 -135q172 0 233 135q39 87 39 285v813h399q46 16 46 56q0 9 -3 20q-12 49 -94 49l103 90q42 2 94 -28
q63 -36 63 -109q0 -65 -73 -111q-62 -39 -131 -41zM893 1759l-94 -88l-367 211l133 131z" />
    <glyph glyph-name="glyph356" unicode="&#x1eeb;" horiz-adv-x="1350" 
d="M1235 965v-547q0 -453 -559 -453t-559 453v633h372v-562q0 -112 36 -164q44 -63 151 -63t150 63q36 52 36 164v562l371 -21q20 6 35 27q8 20 8 35q0 51 -88 51l90 80q33 2 86 -25q57 -37 57 -98t-65 -101q-55 -34 -119 -36zM772 1298l-94 -88l-367 211l133 131z" />
    <glyph glyph-name="glyph357" unicode="&#x1eec;" horiz-adv-x="1593" 
d="M1470 1473v-797q0 -195 -22 -291q-35 -152 -139 -254q-176 -172 -512 -172t-512 172q-105 102 -140 254q-22 94 -22 291v868h401v-813q0 -198 39 -285q61 -135 234 -135q172 0 233 135q39 87 39 285v813h399q46 16 46 56q0 9 -3 20q-12 49 -94 49l103 90q42 2 94 -28
q63 -36 63 -109q0 -65 -73 -111q-62 -39 -131 -41zM725 1671v139q10 -4 33 -4q39 0 70 20q36 23 36 60q0 62 -59 62q-57 0 -57 -62h-164q2 92 69 144q62 49 156 49q84 0 143 -51q70 -60 70 -142q0 -131 -148 -178v-37l-75 -31z" />
    <glyph glyph-name="glyph358" unicode="&#x1eed;" horiz-adv-x="1350" 
d="M1235 965v-547q0 -453 -559 -453t-559 453v633h372v-562q0 -112 36 -164q44 -63 151 -63t150 63q36 52 36 164v562l371 -21q20 6 35 27q8 20 8 35q0 51 -88 51l90 80q33 2 86 -25q57 -37 57 -98t-65 -101q-55 -34 -119 -36zM604 1212v140q10 -4 33 -4q41 0 71 19
q35 22 35 60q0 62 -59 62q-57 0 -57 -62h-164q2 91 70 144q62 49 155 49q84 0 143 -51q70 -60 70 -142q0 -131 -147 -178v-37l-76 -30z" />
    <glyph glyph-name="glyph359" unicode="&#x1eee;" horiz-adv-x="1593" 
d="M1470 1473v-797q0 -195 -22 -291q-35 -152 -139 -254q-176 -172 -512 -172t-512 172q-105 102 -140 254q-22 94 -22 291v868h401v-813q0 -198 39 -285q61 -135 234 -135q172 0 233 135q39 87 39 285v813h399q46 16 46 56q0 9 -3 20q-12 49 -94 49l103 90q42 2 94 -28
q63 -36 63 -109q0 -65 -73 -111q-62 -39 -131 -41zM539 1716l-136 -8l13 16q42 75 125 138q110 83 200 75q41 -4 115.5 -37.5t112.5 -37.5q42 -5 102 51l139 6q-74 -100 -163 -160q-111 -76 -209 -67q-38 3 -105 38t-104 39t-90 -53z" />
    <glyph glyph-name="glyph360" unicode="&#x1eef;" horiz-adv-x="1350" 
d="M1235 965v-547q0 -453 -559 -453t-559 453v633h372v-562q0 -112 36 -164q44 -63 151 -63t150 63q36 52 36 164v562l371 -21q20 6 35 27q8 20 8 35q0 51 -88 51l90 80q33 2 86 -25q57 -37 57 -98t-65 -101q-55 -34 -119 -36zM381 1251l-135 -8l12 17q43 75 125 137
q111 84 201 76q40 -4 114.5 -38t112.5 -38q42 -5 102 51l140 6q-73 -98 -164 -160q-111 -76 -209 -67q-38 3 -105 38.5t-104 39.5t-90 -54z" />
    <glyph glyph-name="glyph361" unicode="&#x1ef0;" horiz-adv-x="1593" 
d="M1470 1473v-797q0 -195 -22 -291q-35 -152 -139 -254q-176 -172 -512 -172t-512 172q-105 102 -140 254q-22 94 -22 291v868h401v-813q0 -198 39 -285q61 -135 234 -135q172 0 233 135q39 87 39 285v813h399q46 16 46 56q0 9 -3 20q-12 49 -94 49l103 90q42 2 94 -28
q63 -36 63 -109q0 -65 -73 -111q-62 -39 -131 -41zM799 -127q68 0 115 -47t47 -115q0 -67 -47.5 -114.5t-114.5 -47.5t-114.5 47.5t-47.5 114.5q0 68 47 115t115 47z" />
    <glyph glyph-name="glyph362" unicode="&#x1ef1;" horiz-adv-x="1350" 
d="M1235 965v-547q0 -453 -559 -453t-559 453v633h372v-562q0 -112 36 -164q44 -63 151 -63t150 63q36 52 36 164v562l371 -21q20 6 35 27q8 20 8 35q0 51 -88 51l90 80q33 2 86 -25q57 -37 57 -98t-65 -101q-55 -34 -119 -36zM678 -147q65 0 109 -44.5t44 -109.5
q0 -64 -44.5 -109t-108.5 -45t-109 45t-45 109t45 109t109 45z" />
    <glyph glyph-name="glyph363" unicode="&#x1ef2;" horiz-adv-x="1462" 
d="M530 741l-569 803h481l289 -420l289 420h481l-569 -803v-741h-402v741zM827 1726l-94 -88l-366 211l133 131z" />
    <glyph glyph-name="glyph364" unicode="&#x1ef3;" horiz-adv-x="1339" 
d="M477 143l-508 908h430l281 -539l274 539h424l-841 -1575h-418zM774 1268l-94 -88l-367 211l133 131z" />
    <glyph glyph-name="glyph365" unicode="&#x1ef4;" horiz-adv-x="1462" 
d="M530 741l-569 803h481l289 -420l289 420h481l-569 -803v-741h-402v741zM735 -86q68 0 115 -47t47 -115q0 -67 -47.5 -114.5t-114.5 -47.5t-114.5 47.5t-47.5 114.5q0 68 47 115t115 47z" />
    <glyph glyph-name="glyph366" unicode="&#x1ef5;" horiz-adv-x="1339" 
d="M477 143l-508 908h430l281 -539l274 539h424l-841 -1575h-418zM946 -127q65 0 109.5 -44.5t44.5 -109.5q0 -64 -45 -108.5t-109 -44.5t-108.5 44.5t-44.5 108.5t44.5 109t108.5 45z" />
    <glyph glyph-name="glyph367" unicode="&#x1ef6;" horiz-adv-x="1462" 
d="M530 741l-569 803h481l289 -420l289 420h481l-569 -803v-741h-402v741zM659 1640v140q11 -4 33 -4q40 0 71 19q36 22 36 60q0 62 -60 62q-57 0 -57 -62h-164q2 91 69 144q63 49 156 49q85 0 147 -53q66 -56 66 -140q0 -131 -147 -178v-37l-76 -30z" />
    <glyph glyph-name="glyph368" unicode="&#x1ef7;" horiz-adv-x="1339" 
d="M477 143l-508 908h430l281 -539l274 539h424l-841 -1575h-418zM606 1182v139q10 -4 33 -4q39 0 70 20q36 23 36 60q0 61 -59 61q-57 0 -57 -61h-164q2 90 70 143q62 49 155 49q84 0 147 -53q66 -56 66 -139q0 -131 -147 -178v-37l-76 -31z" />
    <glyph glyph-name="glyph369" unicode="&#x1ef8;" horiz-adv-x="1462" 
d="M530 741l-569 803h481l289 -420l289 420h481l-569 -803v-741h-402v741zM471 1706l-135 -8l12 16q43 75 125 137q111 84 201 76q39 -4 114.5 -38t112.5 -38q42 -4 103 52l139 6q-72 -96 -162 -159q-112 -78 -211 -69q-37 3 -105 38.5t-104 39.5q-37 4 -90 -53z" />
    <glyph glyph-name="glyph370" unicode="&#x1ef9;" horiz-adv-x="1339" 
d="M477 143l-508 908h430l281 -539l274 539h424l-841 -1575h-418zM383 1231l-135 -8l12 16q43 75 125 137q111 84 201 76q40 -4 114.5 -38t112.5 -38q42 -5 102 51l140 7q-72 -96 -162 -159q-112 -78 -211 -69q-37 3 -105 38.5t-104 39.5q-37 4 -90 -53z" />
    <glyph glyph-name="endash" unicode="&#x2013;" horiz-adv-x="1024" 
d="M0 811h1024v-307h-1024v307z" />
    <glyph glyph-name="emdash" unicode="&#x2014;" horiz-adv-x="2048" 
d="M0 811h2048v-307h-2048v307z" />
    <glyph glyph-name="quoteleft" unicode="&#x2018;" horiz-adv-x="762" 
d="M387 866h-348l377 678h237z" />
    <glyph glyph-name="quoteright" unicode="&#x2019;" horiz-adv-x="762" 
d="M375 1544h348l-377 -678h-237z" />
    <glyph glyph-name="quotesinglbase" unicode="&#x201a;" horiz-adv-x="692" 
d="M305 391h348l-377 -678h-237z" />
    <glyph glyph-name="quotedblleft" unicode="&#x201c;" horiz-adv-x="1286" 
d="M911 866h-348l377 678h238zM387 866h-348l377 678h237z" />
    <glyph glyph-name="quotedblright" unicode="&#x201d;" horiz-adv-x="1286" 
d="M375 1544h348l-377 -678h-237zM899 1544h348l-377 -678h-237z" />
    <glyph glyph-name="quotedblbase" unicode="&#x201e;" horiz-adv-x="1217" 
d="M305 391h348l-377 -678h-237zM829 391h349l-377 -678h-238z" />
    <glyph glyph-name="dagger" unicode="&#x2020;" 
d="M532 1544h340v-420h363v-295h-363v-1198h-340v1198h-360v295h360v420z" />
    <glyph glyph-name="daggerdbl" unicode="&#x2021;" 
d="M535 1544h339v-379h361v-295h-361v-290h361v-295h-361v-652h-339v652h-363v295h363v290h-363v295h363v379z" />
    <glyph glyph-name="bullet" unicode="&#x2022;" 
d="M705 1159q163 0 274 -111.5t111 -275.5q0 -163 -111 -274t-274 -111q-164 0 -276 111t-112 274q0 164 112 275.5t276 111.5z" />
    <glyph glyph-name="ellipsis" unicode="&#x2026;" horiz-adv-x="2048" 
d="M1024 438q100 0 170 -69.5t70 -169.5t-70 -170t-170 -70t-170 70t-70 170t70 169.5t170 69.5zM1706 438q100 0 170 -69.5t70 -169.5t-70 -170t-170 -70t-170 70t-70 170t70 169.5t170 69.5zM342 438q100 0 170 -69.5t70 -169.5t-70 -170t-170 -70t-170 70t-70 170
t70 169.5t170 69.5z" />
    <glyph glyph-name="perthousand" unicode="&#x2030;" horiz-adv-x="2990" 
d="M461 1565q181 0 297 -95q125 -103 125 -280q0 -181 -123 -284q-115 -97 -299 -97t-299 97q-123 103 -123 284q0 177 125 280q116 95 297 95zM461 1360q-72 0 -123 -51t-51 -123q0 -73 50.5 -122.5t123.5 -49.5t123.5 50t50.5 122t-51 123t-123 51zM1346 1544h200
l-897 -1544h-200zM1536 735q182 0 298 -95q124 -102 124 -280q0 -182 -123 -284q-114 -96 -299 -96t-299 96q-123 102 -123 284q0 178 124 280q116 95 298 95zM1536 530q-73 0 -123.5 -50.5t-50.5 -123.5q0 -72 50.5 -122t123.5 -50t123.5 50t50.5 122q0 73 -50.5 123.5
t-123.5 50.5zM2529 735q182 0 298 -95q124 -102 124 -280q0 -182 -122 -285q-114 -95 -300 -95q-185 0 -299 96q-123 102 -123 284q0 178 124 280q116 95 298 95zM2529 530q-73 0 -123.5 -50.5t-50.5 -123.5q0 -72 50.5 -122t123.5 -50t123.5 49.5t50.5 122.5t-50.5 123.5
t-123.5 50.5z" />
    <glyph glyph-name="guilsinglleft" unicode="&#x2039;" horiz-adv-x="725" 
d="M352 655l264 -356l-210 -147l-353 503l353 504l204 -141z" />
    <glyph glyph-name="guilsinglright" unicode="&#x203a;" horiz-adv-x="725" 
d="M109 299l264 356l-258 363l204 141l353 -504l-353 -503z" />
    <glyph glyph-name="fraction" unicode="&#x2044;" horiz-adv-x="397" 
d="M547 1544h201l-898 -1544h-200z" />
    <glyph glyph-name="franc" unicode="&#x20a3;" horiz-adv-x="2120" 
d="M1018 1204h-486v-258h441v-340h-441v-606h-401v1544h887v-340zM1831 1051v-172h4q103 186 340 186h71v-358q-62 34 -157 34q-258 0 -258 -317v-424h-373v1051h373z" />
    <glyph glyph-name="u20AB" unicode="&#x20ab;" horiz-adv-x="805" 
d="M403 1026q-98 0 -172 -180q-41 -100 -41 -184q0 -105 80 -105q85 0 152 145q57 123 57 220q0 104 -76 104zM410 547q-109 -127 -217 -127q-92 0 -141 60q-46 55 -46 149q0 161 113 311q122 162 278 162q70 0 125 -49l41 153h-205l21 74h205l4 33q0 63 -99 65l15 68
q136 4 262 29l31 6q12 0 12 -19l-6 -24l-39 -158h133l-20 -74h-134l-141 -573q-10 -41 -10 -55q0 -31 24 -31q13 0 101 86l41 -37q-144 -176 -240 -176q-88 0 -108 127zM18 328h453v-115h-453v115z" />
    <glyph glyph-name="trademark" unicode="&#x2122;" horiz-adv-x="1925" 
d="M1841 1544v-827h-180v667h-4l-240 -667h-106l-240 667h-4v-667h-180v827h291l186 -489l186 489h291zM786 1544v-160h-251v-667h-199v667h-252v160h702z" />
    <glyph glyph-name="minus" unicode="&#x2212;" 
d="M178 680h1049v-307h-1049v307z" />
    <glyph glyph-name="SF370000" unicode="&#x255f;" horiz-adv-x="1470" 
d="M1077 268h-553l-106 -268h-426l594 1544h438l582 -1544h-428zM969 575l-164 492h-4l-166 -492h334z" />
    <glyph glyph-name="SF420000" unicode="&#x2560;" horiz-adv-x="1395" 
d="M1010 1204h-478v-258h453v-340h-453v-266h478v-340h-879v1544h879v-340z" />
    <glyph glyph-name="SF190000" unicode="&#x2561;" horiz-adv-x="879" 
d="M532 1544v-1544h-401v1544h401z" />
    <glyph glyph-name="SF200000" unicode="&#x2562;" horiz-adv-x="1583" 
d="M907 1595q347 0 596 -221q258 -230 258 -573q0 -375 -239.5 -613.5t-614.5 -238.5t-614.5 238.5t-239.5 613.5q0 341 261 572q250 222 593 222zM907 1206q-171 0 -301 -117q-135 -121 -135 -290q0 -192 121 -324q125 -137 315 -137t315 137q121 132 121 324
q0 170 -135 290q-130 117 -301 117z" />
    <glyph glyph-name="SF230000" unicode="&#x2563;" horiz-adv-x="1661" 
d="M1069 1544h401v-868q0 -190 -23 -291q-35 -153 -138 -254q-176 -172 -512 -172t-512 172q-104 101 -139 254q-23 99 -23 291v868h401v-813q0 -196 40 -285q61 -135 233 -135t233 135q39 87 39 285v813z" />
    <glyph glyph-name="SF470000" unicode="&#x2564;" horiz-adv-x="1432" 
d="M530 741l-569 803h481l289 -420l289 420h481l-569 -803v-741h-402v741z" />
    <glyph glyph-name="SF480000" unicode="&#x2565;" horiz-adv-x="1108" 
d="M672 762q-106 0 -173 -66.5t-67 -171.5q0 -107 66.5 -171t173.5 -64t173 64.5t66 170.5q0 105 -67 171.5t-172 66.5zM1272 1051v-1051h-373v117h-4q-95 -152 -317 -152q-230 0 -383 167q-148 162 -148 394t146 393q150 166 380 166q210 0 326 -137v103h373z" />
    <glyph glyph-name="SF410000" unicode="&#x2566;" horiz-adv-x="883" 
d="M424 678h432q-14 75 -74 120.5t-137 45.5q-187 0 -221 -166zM1202 502v-39h-784q0 -234 233 -234q122 0 178 97h359q-42 -178 -200 -274q-142 -87 -335 -87q-269 0 -434 143q-174 151 -174 416q0 260 162 412q159 149 420 149q271 0 423 -155.5t152 -427.5z" />
    <glyph glyph-name="SF450000" unicode="&#x2567;" horiz-adv-x="643" 
d="M496 1051v-1051h-373v1051h373zM309 1663q87 0 148 -61t61 -148t-61 -148t-148 -61t-148 61t-61 148t61 148t148 61z" />
    <glyph glyph-name="SF460000" unicode="&#x2568;" horiz-adv-x="643" 
d="M496 1051v-1051h-373v1051h373z" />
    <glyph glyph-name="SF400000" unicode="&#x2569;" horiz-adv-x="1020" 
d="M678 1085q266 0 443 -145q190 -156 190 -416q0 -259 -191 -415q-177 -144 -442 -144t-442 144q-191 155 -191 415t190 416q177 145 443 145zM678 762q-106 0 -173 -66.5t-67 -171.5q0 -107 66.5 -171t173.5 -64t173.5 64t66.5 171q0 105 -67 171.5t-173 66.5z" />
    <glyph glyph-name="SF540000" unicode="&#x256a;" horiz-adv-x="1141" 
d="M117 1051h372v-562q0 -227 187 -227q107 0 150 63q36 52 36 164v562h373v-633q0 -453 -559 -453t-559 453v633z" />
    <glyph glyph-name="SF530000" unicode="&#x256b;" horiz-adv-x="1018" 
d="M477 143l-508 908h430l281 -539l274 539h424l-841 -1575h-418z" />
    <glyph glyph-name="circle" unicode="&#x25cb;" horiz-adv-x="1470" 
d="M621 1837l446 336l453 -336l-158 -172l-295 227l-295 -227zM1084 2376l-351 -310l-165 121l288 352z" />
    <glyph glyph-name="H18533" unicode="&#x25cf;" horiz-adv-x="1470" 
d="M621 1837l446 336l453 -336l-158 -172l-295 227l-295 -227zM791 2378l227 163l289 -352l-166 -121z" />
    <glyph glyph-name="invbullet" unicode="&#x25d8;" horiz-adv-x="1470" 
d="M621 1837l446 336l453 -336l-158 -172l-295 227l-295 -227zM1257 1849q19 61 23 131q1 22 16 27q4 0 16 2q138 22 138 110q0 72 -58 72q-10 0 -28.5 -2t-28.5 -2q-43 0 -43 37q0 57 65 57q86 0 145 -43q65 -49 65 -132q0 -138 -179 -187q-51 -14 -63 -70h-68z" />
    <glyph glyph-name="invcircle" unicode="&#x25d9;" horiz-adv-x="1470" 
d="M621 1837l446 336l453 -336l-158 -172l-295 227l-295 -227zM887 2122v0h-168l-2 22q0 105 45 182q67 115 182 115q57 0 170.5 -35t163.5 -35q54 0 82 74h174q-11 -127 -73 -217q-73 -106 -193 -106q-52 0 -158 37.5t-154 37.5q-45 0 -69 -75z" />
    <glyph glyph-name="fi" unicode="&#xf001;" horiz-adv-x="1391" 
d="M520 743v-743h-373v743h-131v308h131v133q0 128 16 195q23 94 91 173q145 168 367 168q88 0 159 -37v-321q-81 35 -131 35q-129 0 -129 -176v-170h260v-308h-260zM1268 1051v-1051h-373v1051h373zM1081 1663q87 0 148 -61t61 -148t-61 -148t-148 -61t-148 61t-61 148
t61 148t148 61z" />
    <glyph glyph-name="fl" unicode="&#xf002;" horiz-adv-x="1413" 
d="M1290 1700v-1700h-372v1700h372zM520 743v-743h-373v743h-131v308h131v133q0 128 16 195q23 94 91 173q145 168 367 168q88 0 159 -37v-321q-81 35 -131 35q-129 0 -129 -176v-170h260v-308h-260z" />
    <glyph glyph-name="periodcentered" horiz-adv-x="702" 
d="M352 764q101 0 170.5 -69.5t69.5 -170.5q0 -100 -70 -169.5t-170 -69.5q-99 0 -169 70t-70 169q0 101 69 170.5t170 69.5z" />
    <glyph glyph-name="glyph231" horiz-adv-x="702" 
 />
    <glyph glyph-name="glyph232" horiz-adv-x="702" 
 />
    <glyph glyph-name="glyph258" horiz-adv-x="702" 
 />
    <glyph glyph-name="glyph259" horiz-adv-x="569" 
 />
    <glyph glyph-name="glyph275" horiz-adv-x="510" 
 />
    <glyph glyph-name="glyph276" horiz-adv-x="510" 
 />
    <glyph glyph-name="glyph261" horiz-adv-x="1024" 
d="M518 1069q19 61 23 131q1 22 16 27q4 0 16 2q138 22 138 110q0 72 -58 72q-10 0 -28.5 -2t-28.5 -2q-43 0 -43 37q0 57 65 57q86 0 145 -43q65 -49 65 -132q0 -138 -179 -187q-51 -14 -63 -70h-68z" />
    <glyph glyph-name="glyph262" horiz-adv-x="1108" 
d="M205 1362l446 336l453 -336l-158 -172l-295 227l-295 -227zM666 1903l-351 -310l-165 121l288 352z" />
    <glyph glyph-name="glyph263" horiz-adv-x="1108" 
d="M205 1362l446 336l453 -336l-158 -172l-295 227l-295 -227zM375 1903l227 163l289 -352l-166 -121z" />
    <glyph glyph-name="glyph264" horiz-adv-x="1108" 
d="M205 1362l446 336l453 -336l-158 -172l-295 227l-295 -227zM842 1374q19 61 23 131q1 22 16 27q4 0 16 2q138 22 138 110q0 72 -58 72q-10 0 -28.5 -2t-28.5 -2q-43 0 -43 37q0 57 65 57q86 0 145 -43q65 -49 65 -132q0 -138 -179 -187q-51 -14 -63 -70h-68z" />
    <glyph glyph-name="glyph265" horiz-adv-x="1108" 
d="M205 1362l446 336l453 -336l-158 -172l-295 227l-295 -227zM471 1647v0h-168l-2 22q0 105 45 182q67 115 182 115q57 0 170.5 -35t163.5 -35q54 0 82 74h174q-11 -127 -73 -217q-73 -106 -193 -106q-52 0 -158 37.5t-154 37.5q-45 0 -69 -75z" />
    <glyph glyph-name="glyph266" horiz-adv-x="1108" 
d="M215 1604h229q22 -138 168 -138q148 0 170 138h227q-9 -166 -121 -259q-106 -87 -276 -87t-276 87q-112 93 -121 259zM828 1903l-351 -310l-165 121l288 352z" />
    <glyph glyph-name="glyph267" horiz-adv-x="1108" 
d="M215 1604h229q22 -138 168 -138q148 0 170 138h227q-9 -166 -121 -259q-106 -87 -276 -87t-276 87q-112 93 -121 259zM267 1903l227 163l289 -352l-166 -121z" />
    <glyph glyph-name="glyph268" horiz-adv-x="1108" 
d="M215 1604h229q22 -138 168 -138q148 0 170 138h227q-9 -166 -121 -259q-106 -87 -276 -87t-276 87q-112 93 -121 259zM627 1374q19 61 23 131q1 22 16 27q4 0 16 2q138 22 138 110q0 72 -58 72q-10 0 -28.5 -2t-28.5 -2q-43 0 -43 37q0 57 65 57q86 0 145 -43
q65 -49 65 -132q0 -138 -179 -187q-51 -14 -63 -70h-68z" />
    <glyph glyph-name="glyph269" horiz-adv-x="1108" 
d="M215 1604h229q22 -138 168 -138q148 0 170 138h227q-9 -166 -121 -259q-106 -87 -276 -87t-276 87q-112 93 -121 259zM471 1647v0h-168l-2 22q0 105 45 182q67 115 182 115q57 0 170.5 -35t163.5 -35q54 0 82 74h174q-11 -127 -73 -217q-73 -106 -193 -106
q-52 0 -158 37.5t-154 37.5q-45 0 -69 -75z" />
    <glyph glyph-name="glyph270" horiz-adv-x="510" 
 />
  </font>
</defs>
</svg>
