<?xml version="1.0" standalone="no"?>
<!DOCTYPE svg PUBLIC "-//W3C//DTD SVG 1.1//EN" "http://www.w3.org/Graphics/SVG/1.1/DTD/svg11.dtd" >
<svg xmlns="http://www.w3.org/2000/svg" xmlns:xlink="http://www.w3.org/1999/xlink" version="1.1">
<metadata>
Created by FontForge 20170731 at Wed Sep 27 22:46:30 2006
 By Aleksey,,,
(c) Copyright 2005 by Tong Duc Thinh. All Rights Reserved
</metadata>
<defs>
<font id="SFUFuturaOblique" horiz-adv-x="578" >
  <font-face 
    font-family="SFU Futura"
    font-weight="400"
    font-style="oblique"
    font-stretch="normal"
    units-per-em="1000"
    panose-1="0 0 4 0 0 0 0 0 0 0"
    ascent="800"
    descent="-200"
    x-height="468"
    cap-height="754"
    bbox="-161 -268 1232 1155"
    underline-thickness="75"
    underline-position="-261"
    slope="-11"
    unicode-range="U+0020-F002"
  />
<missing-glyph horiz-adv-x="500" 
d="M63 0v1134h375v-1134h-375zM125 63h250v1009h-250v-1009z" />
    <glyph glyph-name=".notdef" horiz-adv-x="500" 
d="M63 0v1134h375v-1134h-375zM125 63h250v1009h-250v-1009z" />
    <glyph glyph-name=".null" horiz-adv-x="0" 
 />
    <glyph glyph-name="glyph2" horiz-adv-x="289" 
 />
    <glyph glyph-name="space" unicode=" " horiz-adv-x="289" 
 />
    <glyph glyph-name="exclam" unicode="!" horiz-adv-x="321" 
d="M177 100q24 0 38 -17.5t11 -40.5q-4 -24 -24 -41t-44 -17t-38 17t-10 41t23.5 41t43.5 17zM144 174l91 580h90l-91 -580h-90z" />
    <glyph glyph-name="quotedbl" unicode="&#x22;" horiz-adv-x="439" 
d="M209 754h98l-70 -328h-62zM370 754h98l-70 -328h-62z" />
    <glyph glyph-name="numbersign" unicode="#" 
d="M331 718h77l-67 -194h124l66 194h79l-66 -194h92l-13 -80h-107l-51 -154h101l-13 -80h-117l-71 -210h-76l70 210h-123l-73 -210h-75l70 210h-100l13 80h115l51 154h-105l13 80h119zM315 444l-51 -154h123l51 154h-123z" />
    <glyph glyph-name="dollar" unicode="$" 
d="M388 349l-43 -271q54 12 91.5 57t37.5 99q0 66 -86 115zM405 770l14 90h50l-14 -90q113 -11 153 -116l-87 -45q-20 55 -80 74l-37 -235q161 -76 161 -195q0 -94 -71 -175.5t-164 -93.5l-15 -95h-50l15 95q-88 1 -143.5 61.5t-55.5 148.5l93 19q4 -126 120 -141l48 300
l-33 18q-56 31 -82 59q-36 40 -36 93q0 91 77 164q62 58 137 64zM358 472l33 211q-46 -7 -78.5 -40.5t-32.5 -79.5q0 -58 78 -91z" />
    <glyph glyph-name="percent" unicode="%" horiz-adv-x="708" 
d="M315 770q65 0 108 -40.5t43 -105.5q0 -79 -62.5 -138t-142.5 -59q-64 0 -107.5 40.5t-43.5 104.5q0 80 62.5 139t142.5 59zM305 710q-52 0 -93.5 -38t-41.5 -90q0 -41 29.5 -68t70.5 -27q52 0 93.5 38t41.5 90q0 42 -29 68.5t-71 26.5zM674 770l41 -26l-561 -760l-42 25z
M568 327q65 0 108 -41t43 -105q0 -80 -63 -138.5t-143 -58.5q-64 0 -107 40.5t-43 104.5q0 80 62.5 139t142.5 59zM558 267q-52 0 -93.5 -38t-41.5 -90q0 -41 29.5 -68t70.5 -27q52 0 93.5 38t41.5 90q0 42 -29 68.5t-71 26.5z" />
    <glyph glyph-name="ampersand" unicode="&#x26;" horiz-adv-x="692" 
d="M346 372l-10 -6q-76 -46 -105 -71q-59 -52 -59 -106q0 -49 35.5 -85t84.5 -36q73 0 189 100zM385 490l13 8q51 31 73 53q37 36 37 79q0 66 -77 66q-39 0 -68.5 -27.5t-29.5 -66.5q0 -29 32 -80zM592 0l-66 102q-119 -118 -245 -118q-85 0 -140 50q-58 52 -58 136
q0 86 60 152q35 39 106 84l53 34q-59 74 -59 140q0 83 59 136.5t143 53.5q64 0 107.5 -34t43.5 -97q0 -72 -64 -135q-33 -33 -105 -79l127 -190l104 102l51 -62l-110 -108l109 -167h-116z" />
    <glyph glyph-name="quotesingle" unicode="'" horiz-adv-x="277" 
d="M209 754h98l-70 -328h-62z" />
    <glyph glyph-name="parenleft" unicode="(" horiz-adv-x="292" 
d="M289 809l65 -55q-114 -180 -156 -446q-17 -107 -17 -207q0 -138 32 -239l-83 -55q-41 119 -41 286q0 107 17 215q47 299 183 501z" />
    <glyph glyph-name="parenright" unicode=")" horiz-adv-x="292" 
d="M176 754l83 55q42 -118 42 -285q0 -108 -17 -216q-47 -297 -184 -501l-65 55q115 180 157 446q17 107 17 207q0 138 -33 239z" />
    <glyph glyph-name="asterisk" unicode="*" horiz-adv-x="432" 
d="M303 754h69l-15 -95l89 48l26 -59l-93 -50l77 -50l-44 -58l-73 50l-16 -96h-69l16 97l-95 -49l-25 57l93 49l-76 50l40 57l81 -49z" />
    <glyph glyph-name="plus" unicode="+" 
d="M327 512h86l-34 -213h213l-13 -86h-213l-34 -213h-86l34 213h-213l13 86h213z" />
    <glyph glyph-name="comma" unicode="," horiz-adv-x="289" 
d="M183 119l73 -31l-175 -267l-52 23z" />
    <glyph glyph-name="hyphen" unicode="-" horiz-adv-x="332" 
d="M114 358h219l-12 -75h-219z" />
    <glyph glyph-name="hyphen" unicode="&#x2010;" horiz-adv-x="332" 
d="M114 358h219l-12 -75h-219z" />
    <glyph glyph-name="period" unicode="." horiz-adv-x="289" 
d="M161 100q24 0 38 -17.5t11 -40.5q-4 -24 -24 -41t-44 -17t-38 17t-10 41t23.5 41t43.5 17z" />
    <glyph glyph-name="slash" unicode="/" horiz-adv-x="551" 
d="M585 868l67 -32l-569 -962l-66 32z" />
    <glyph glyph-name="zero" unicode="0" 
d="M286 -16q-112 0 -165 100q-42 78 -42 200q0 194 105 348q94 138 227 138q111 0 165 -99q43 -79 43 -200q0 -192 -106 -348q-95 -139 -227 -139zM398 690q-89 0 -155 -117q-74 -131 -74 -282q0 -86 24 -143q33 -80 107 -80q89 0 155 116q74 130 74 282q0 86 -24 144
q-33 80 -107 80z" />
    <glyph glyph-name="one" unicode="1" 
d="M360 668h-131l65 86h169l-119 -754h-90z" />
    <glyph glyph-name="two" unicode="2" 
d="M242 86h304l-14 -86h-487l394 405q90 93 90 156q0 53 -37 88t-90 35q-58 0 -106 -40t-61 -98h-94q28 101 100.5 162.5t174.5 61.5q87 0 145 -51q60 -54 60 -140q0 -105 -83 -190z" />
    <glyph glyph-name="three" unicode="3" 
d="M332 360l12 78q149 0 168 121q1 6 1 23q0 49 -31.5 77.5t-80.5 28.5q-51 0 -89 -29.5t-53 -78.5h-93q58 190 251 190q82 0 133 -42q56 -46 56 -126q0 -17 -3 -35q-19 -116 -123 -170q81 -41 81 -144q0 -19 -4 -43q-17 -104 -94 -165t-183 -61q-84 0 -140 46
q-59 50 -59 132q0 12 1 24h91q-2 -54 35 -87t92 -33q72 0 121 52.5t49 125.5q0 60 -40 92q-37 29 -98 24z" />
    <glyph glyph-name="four" unicode="4" 
d="M499 192h86l-13 -82h-86l-17 -110h-90l17 110h-372l569 676zM409 192l50 311h-2l-262 -311h214z" />
    <glyph glyph-name="five" unicode="5" 
d="M634 668h-237l-72 -155l54 3q93 5 150 -61q54 -62 54 -156q0 -22 -4 -47q-19 -118 -110 -193t-212 -75q-69 0 -125 34q-61 36 -84 98l81 66q9 -48 55 -81q43 -31 94 -31q85 0 149.5 63.5t64.5 148.5q0 65 -44.5 108.5t-109.5 43.5q-89 0 -152 -67h-18l177 387h302z" />
    <glyph glyph-name="six" unicode="6" 
d="M501 770l61 -46l-244 -272l1 -2q39 18 77 18q83 0 135 -59q49 -55 49 -140q0 -115 -88 -200t-204 -85q-89 0 -152 59t-63 148q0 104 116 233zM301 68q72 0 129 54t57 125q0 58 -39 97.5t-97 39.5q-71 0 -129 -55t-58 -126q0 -58 39.5 -96.5t97.5 -38.5z" />
    <glyph glyph-name="seven" unicode="7" 
d="M543 668h-390l13 86h543l-592 -770l-65 45z" />
    <glyph glyph-name="eight" unicode="8" 
d="M345 352q-65 0 -117.5 -48.5t-52.5 -112.5q0 -51 37 -87t88 -36q64 0 117 50t53 113q0 52 -36.5 86.5t-88.5 34.5zM234 391q-75 46 -75 136q0 14 3 33q14 91 85 150.5t164 59.5q80 0 133 -48t53 -127q0 -16 -3 -35q-18 -113 -126 -169q93 -34 93 -145q0 -122 -99 -201
q-77 -61 -176 -61q-88 0 -144 48q-59 52 -59 138q0 76 40.5 137t110.5 84zM398 690q-56 0 -102.5 -44t-46.5 -100q0 -44 32.5 -79t75.5 -35q55 0 102.5 46.5t47.5 101.5q0 47 -31 78.5t-78 31.5z" />
    <glyph glyph-name="nine" unicode="9" 
d="M210 -16l-60 47l244 271l-2 2q-30 -14 -75 -14q-83 0 -134 56.5t-51 139.5q0 114 88 199t203 85q89 0 152.5 -59t63.5 -148q0 -103 -117 -233zM361 370q73 0 129.5 53.5t56.5 126.5q0 56 -37 96t-93 40q-74 0 -133.5 -54t-59.5 -127q0 -56 40.5 -95.5t96.5 -39.5z" />
    <glyph glyph-name="colon" unicode=":" horiz-adv-x="289" 
d="M161 100q24 0 38 -17.5t11 -40.5q-4 -24 -24 -41t-44 -17t-38 17t-10 41t23.5 41t43.5 17zM221 482q24 0 38.5 -17t10.5 -41t-23.5 -41t-43.5 -17t-38.5 17t-10.5 41q4 23 24 40.5t43 17.5z" />
    <glyph glyph-name="semicolon" unicode=";" horiz-adv-x="289" 
d="M175 119l73 -31l-175 -267l-52 23zM268 482q24 0 38.5 -17t10.5 -41t-23.5 -41t-43.5 -17t-38.5 17t-10.5 41q4 23 24 40.5t43 17.5z" />
    <glyph glyph-name="less" unicode="&#x3c;" 
d="M624 498l-15 -94l-407 -148l360 -148l-15 -94l-479 207l11 70z" />
    <glyph glyph-name="equal" unicode="=" 
d="M94 385h512l-14 -86h-512zM67 213h512l-14 -86h-512z" />
    <glyph glyph-name="greater" unicode="&#x3e;" 
d="M97 404l15 94l479 -207l-11 -70l-545 -207l15 94l408 148z" />
    <glyph glyph-name="question" unicode="?" horiz-adv-x="453" 
d="M355 345h91q-8 -66 -64.5 -113.5t-123.5 -47.5q-59 0 -98.5 37.5t-39.5 96.5q0 98 86 145l129 51q80 32 80 99q0 34 -22.5 53t-57.5 19q-36 0 -65 -25t-34 -61q-2 -13 1 -32h-94l3 33q7 72 71 122q61 48 135 48q68 0 111 -40.5t43 -107.5q0 -95 -76 -153
q-37 -28 -133 -56q-76 -22 -84 -73q-5 -30 11.5 -51t46.5 -21q32 0 55.5 22.5t28.5 54.5zM245 100q24 0 38 -17.5t11 -40.5q-4 -24 -24 -41t-44 -17t-38 17t-10 41t23.5 41t43.5 17z" />
    <glyph glyph-name="at" unicode="@" horiz-adv-x="800" 
d="M562 372q7 24 7 45q0 82 -89 82q-64 0 -111 -54.5t-47 -119.5q0 -41 22 -67t62 -26q116 0 156 140zM608 506l24 62h71l-91 -257q-18 -51 -18 -66q0 -20 19 -20q46 0 92 75q50 82 50 169q0 103 -63.5 162t-167.5 59q-143 0 -247.5 -111t-104.5 -254q0 -117 76.5 -189
t193.5 -72q129 0 194 48l65 -60q-69 -34 -119 -48q-71 -20 -161 -20q-146 0 -238.5 90.5t-92.5 235.5q0 29 6 67q26 166 152 279.5t292 113.5q122 0 209 -74q91 -78 91 -199q0 -68 -26.5 -137.5t-72.5 -118.5q-83 -90 -168 -87q-44 2 -44 62q-72 -62 -146 -62
q-62 0 -101.5 45.5t-39.5 108.5q0 100 71 183q75 86 173 86q79 0 122 -71z" />
    <glyph glyph-name="A" unicode="A" horiz-adv-x="703" 
d="M555 189h-346l-116 -189h-101l484 786l236 -786h-101zM530 275l-86 305l-182 -305h268z" />
    <glyph glyph-name="B" unicode="B" horiz-adv-x="535" 
d="M264 670l-39 -250h24q79 0 120 24q50 29 61 102q3 20 3 30q0 57 -46 79q-32 15 -97 15h-26zM213 345l-42 -261h72q85 0 138 34q63 40 63 121q0 106 -173 106h-58zM64 0l119 754h92q247 0 247 -164q0 -58 -27 -109q-30 -55 -80 -77v-2q57 -10 90 -55.5t33 -105.5
q0 -11 -3 -30q-17 -105 -105 -161q-78 -50 -190 -50h-176z" />
    <glyph glyph-name="C" unicode="C" horiz-adv-x="661" 
d="M735 719l-17 -109q-72 74 -188 74q-141 0 -245.5 -108.5t-104.5 -249.5q0 -111 70.5 -183.5t180.5 -72.5q114 0 213 78l-17 -111q-99 -53 -207 -53q-146 0 -241 91.5t-95 236.5q0 29 5 61q26 168 160 282.5t304 114.5q107 0 182 -51z" />
    <glyph glyph-name="D" unicode="D" horiz-adv-x="665" 
d="M64 0l119 754h156q159 0 258 -70q112 -81 112 -234q0 -31 -6 -69q-29 -184 -166 -285q-129 -96 -320 -96h-153zM264 668l-92 -582h33q163 0 264 65q115 74 140 226q5 31 5 59q0 232 -317 232h-33z" />
    <glyph glyph-name="E" unicode="E" horiz-adv-x="521" 
d="M72 0l119 754h405l-13 -86h-311l-34 -211h302l-13 -86h-302l-45 -285h311l-14 -86h-405z" />
    <glyph glyph-name="F" unicode="F" horiz-adv-x="474" 
d="M542 668h-271l-34 -212h262l-13 -86h-262l-59 -370h-94l119 754h365z" />
    <glyph glyph-name="G" unicode="G" horiz-adv-x="780" 
d="M520 380h299l-5 -30q-26 -158 -140 -261q-117 -105 -275 -105q-141 0 -232 94.5t-91 236.5q0 197 163 339q133 116 295 116q87 0 161 -37q78 -39 123 -109l-76 -63q-33 58 -91.5 90.5t-126.5 32.5q-141 0 -247 -105.5t-106 -246.5q0 -109 69 -184q71 -78 179 -78
q93 0 179 67t104 157h-195z" />
    <glyph glyph-name="H" unicode="H" horiz-adv-x="675" 
d="M229 450h359l48 304h94l-119 -754h-94l57 362h-359l-57 -362h-94l119 754h94z" />
    <glyph glyph-name="I" unicode="I" horiz-adv-x="232" 
d="M282 754l-119 -754h-94l119 754h94z" />
    <glyph glyph-name="J" unicode="J" horiz-adv-x="362" 
d="M328 754h94l-75 -479q-21 -132 -69 -200q-63 -91 -182 -91q-62 0 -112 33l59 80q29 -25 71 -25q70 0 105 73q20 43 34 130z" />
    <glyph glyph-name="K" unicode="K" horiz-adv-x="600" 
d="M234 427l371 327h123l-392 -339l279 -415h-127l-228 351l-44 -36l-50 -315h-94l119 754h94z" />
    <glyph glyph-name="L" unicode="L" horiz-adv-x="385" 
d="M285 754l-105 -668h229l-14 -86h-323l119 754h94z" />
    <glyph glyph-name="M" unicode="M" horiz-adv-x="851" 
d="M423 -16l-144 514h-2l-167 -498h-97l278 786l165 -594l353 594l30 -786h-97l-9 498h-2z" />
    <glyph glyph-name="N" unicode="N" horiz-adv-x="785" 
d="M63 0l125 790l472 -593l88 557h94l-124 -785l-472 593l-89 -562h-94z" />
    <glyph glyph-name="O" unicode="O" horiz-adv-x="828" 
d="M536 770q145 0 241.5 -93.5t96.5 -238.5q0 -30 -5 -61q-27 -167 -158 -280t-300 -113q-147 0 -242 91t-95 237q0 201 164 343q134 115 298 115zM425 72q141 0 247.5 107.5t106.5 248.5q0 113 -71.5 183.5t-185.5 70.5q-131 0 -230 -87.5t-119 -217.5q-4 -26 -4 -49
q0 -112 72 -184t184 -72z" />
    <glyph glyph-name="P" unicode="P" horiz-adv-x="495" 
d="M216 316l-50 -316h-94l119 754h108q119 0 181 -27q93 -39 93 -142q0 -24 -4 -49q-18 -112 -104 -169q-76 -51 -195 -51h-54zM272 670l-43 -270h30q200 0 222 138q2 13 2 25q0 107 -186 107h-25z" />
    <glyph glyph-name="Q" unicode="Q" horiz-adv-x="828" 
d="M805 -16h-114l-54 67q-107 -67 -226 -67q-147 0 -242 91t-95 237q0 201 164 343q134 115 298 115q145 0 241.5 -93.5t96.5 -238.5q0 -96 -45.5 -186t-121.5 -153zM553 284l100 -118q58 44 92 117q34 70 34 145q0 114 -71 184t-186 70q-131 0 -230 -87.5t-119 -217.5
q-4 -26 -4 -49q0 -112 72 -184t184 -72q82 0 157 43l-146 169h117z" />
    <glyph glyph-name="R" unicode="R" horiz-adv-x="543" 
d="M355 328l186 -328h-114l-171 319h-39l-51 -319h-94l119 754h114q139 0 194 -35q73 -47 73 -146q0 -92 -62.5 -163t-154.5 -82zM272 670l-43 -273h30q200 0 222 138q2 13 2 25q0 110 -186 110h-25z" />
    <glyph glyph-name="S" unicode="S" horiz-adv-x="537" 
d="M586 656l-82 -45q-31 71 -110 71q-54 0 -97 -33q-47 -35 -47 -87q0 -58 89 -95l51 -21q154 -63 154 -186q0 -127 -98 -209q-80 -67 -184 -67q-92 0 -147 59.5t-52 151.5l98 20q-2 -13 -2 -25q0 -53 35.5 -85.5t89.5 -32.5q66 0 115 51t49 117q0 45 -34 77q-22 21 -75 45
l-48 22q-136 62 -136 161q0 17 2 30q13 88 90 143q71 52 163 52q130 0 176 -114z" />
    <glyph glyph-name="T" unicode="T" horiz-adv-x="456" 
d="M381 668l-106 -668h-94l106 668h-179l13 86h452l-13 -86h-179z" />
    <glyph glyph-name="U" unicode="U" horiz-adv-x="669" 
d="M178 754h94l-70 -445q-6 -38 -6 -74q0 -163 150 -163q183 0 220 237l70 445h94l-75 -477q-20 -129 -106 -209q-89 -84 -217 -84q-108 0 -171 63t-63 171q0 27 5 59z" />
    <glyph glyph-name="V" unicode="V" horiz-adv-x="640" 
d="M215 754l137 -558l312 558h103l-452 -794l-203 794h103z" />
    <glyph glyph-name="W" unicode="W" horiz-adv-x="1027" 
d="M209 754l126 -540l301 556l125 -556l296 540h102l-437 -784l-125 553l-301 -553l-189 784h102z" />
    <glyph glyph-name="X" unicode="X" horiz-adv-x="574" 
d="M300 395l-152 359h107l111 -275l207 275h107l-273 -359l166 -395h-105l-129 309l-234 -309h-105z" />
    <glyph glyph-name="Y" unicode="Y" horiz-adv-x="573" 
d="M292 328l-179 426h108l134 -322l236 322h108l-313 -426l-52 -328h-94z" />
    <glyph glyph-name="Z" unicode="Z" horiz-adv-x="552" 
d="M176 86h382l-14 -86h-535l488 668h-328l13 86h481z" />
    <glyph glyph-name="bracketleft" unicode="[" horiz-adv-x="311" 
d="M268 725l-132 -834h98l-14 -84h-190l159 1002h190l-13 -84h-98z" />
    <glyph glyph-name="backslash" unicode="\" horiz-adv-x="551" 
d="M168 868h84l267 -868h-84z" />
    <glyph glyph-name="bracketright" unicode="]" horiz-adv-x="311" 
d="M141 -109l132 834h-98l13 84h190l-159 -1002h-190l14 84h98z" />
    <glyph glyph-name="asciicircum" unicode="^" 
d="M82 308l270 446h112l130 -446h-94l-105 362l-220 -362h-93z" />
    <glyph glyph-name="underscore" unicode="_" horiz-adv-x="500" 
d="M482 -113l-12 -75h-500l12 75h500z" />
    <glyph glyph-name="grave" unicode="`" horiz-adv-x="360" 
d="M185 690l90 44l99 -166l-48 -27z" />
    <glyph glyph-name="a" unicode="a" horiz-adv-x="556" 
d="M274 64q81 0 133 63q49 58 49 141q0 61 -34 97.5t-94 36.5q-77 0 -129 -64q-49 -59 -49 -138q0 -59 33 -97.5t91 -38.5zM575 468l-74 -468h-90l12 73h-2q-75 -89 -174 -89q-88 0 -139 58q-49 55 -49 145q0 115 74 202q77 93 190 93q102 0 148 -92h2l12 78h90z" />
    <glyph glyph-name="b" unicode="b" horiz-adv-x="556" 
d="M298 64q81 0 133 63q49 58 49 141q0 61 -34 97.5t-94 36.5q-77 0 -129 -64q-49 -59 -49 -138q0 -59 33 -97.5t91 -38.5zM55 0l137 868h90l-75 -478h2q75 92 177 92q86 0 137 -58q48 -54 48 -142q0 -119 -73 -206q-78 -92 -195 -92q-98 0 -144 89h-2l-12 -73h-90z" />
    <glyph glyph-name="c" unicode="c" horiz-adv-x="441" 
d="M477 451l-18 -116q-45 63 -124 63q-76 0 -130 -59.5t-54 -135.5q0 -62 38 -98.5t100 -36.5q72 0 138 62l-19 -115q-62 -31 -134 -31q-92 0 -153.5 57t-61.5 149q0 130 106 220q85 72 193 72q71 0 119 -31z" />
    <glyph glyph-name="d" unicode="d" horiz-adv-x="556" 
d="M274 64q81 0 133 63q49 58 49 141q0 61 -34 97.5t-94 36.5q-77 0 -129 -64q-49 -59 -49 -138q0 -59 33 -97.5t91 -38.5zM411 0l12 73h-2q-75 -89 -174 -89q-89 0 -138.5 56t-49.5 146q0 116 73 203q76 93 190 93q103 0 149 -92h2l75 478h90l-137 -868h-90z" />
    <glyph glyph-name="e" unicode="e" horiz-adv-x="488" 
d="M508 219h-357q-2 -13 -2 -26q0 -55 32 -92t86 -37q85 0 155 91l69 -43q-92 -128 -238 -128q-90 0 -142.5 54t-52.5 144q0 23 4 48q18 113 85 180q72 72 183 72q89 0 137 -50.5t48 -140.5q0 -23 -5 -58zM166 287h262q0 54 -28.5 85.5t-81.5 31.5q-52 0 -93.5 -33
t-58.5 -84z" />
    <glyph glyph-name="f" unicode="f" horiz-adv-x="275" 
d="M431 868l-14 -91q-40 19 -57 19q-64 0 -84 -127l-32 -201h124l-13 -84h-124l-61 -384h-90l61 384h-41l13 84h41l36 228q29 184 180 184q33 0 61 -12z" />
    <glyph glyph-name="g" unicode="g" horiz-adv-x="555" 
d="M273 64q81 0 133 63q49 58 49 141q0 61 -34 97.5t-94 36.5q-77 0 -129 -64q-49 -59 -49 -138q0 -59 33 -97.5t91 -38.5zM574 468l-73 -459q-21 -133 -77 -199q-67 -78 -194 -78q-86 0 -139 44q-57 47 -57 131q0 18 3 37h90q-2 -13 -2 -26q0 -52 34 -79t87 -27
q78 0 116 50q31 39 45 122l15 89h-2q-75 -89 -174 -89q-89 0 -138.5 56t-49.5 146q0 116 73 203q76 93 190 93q103 0 148 -94h2l13 80h90z" />
    <glyph glyph-name="h" unicode="h" horiz-adv-x="523" 
d="M199 868h90l-73 -463h2q55 77 153 77q140 0 140 -138q0 -27 -6 -65l-44 -279h-90l42 268q6 38 6 56q0 78 -87 78q-77 0 -112 -62q-20 -35 -34 -125l-34 -215h-90z" />
    <glyph glyph-name="i" unicode="i" horiz-adv-x="254" 
d="M246 468l-74 -468h-90l74 468h90zM245 745q26 0 41 -18.5t11 -44.5q-4 -25 -25 -43t-47 -18q-25 0 -40.5 18t-11.5 43q4 26 25 44.5t47 18.5z" />
    <glyph glyph-name="j" unicode="j" horiz-adv-x="254" 
d="M246 468l-116 -736h-90l116 736h90zM245 745q26 0 41 -18.5t11 -44.5q-4 -25 -25 -43t-47 -18q-25 0 -40.5 18t-11.5 43q4 26 25 44.5t47 18.5z" />
    <glyph glyph-name="k" unicode="k" horiz-adv-x="462" 
d="M295 868l-91 -576l204 176h119l-231 -194l177 -274h-117l-133 213l-36 -31l-29 -182h-90l137 868h90z" />
    <glyph glyph-name="l" unicode="l" horiz-adv-x="222" 
d="M293 868l-137 -868h-90l137 868h90z" />
    <glyph glyph-name="m" unicode="m" horiz-adv-x="767" 
d="M223 468l-9 -59h2q58 73 135 73q87 0 122 -83q61 83 157 83q129 0 129 -139q0 -25 -6 -63l-44 -280h-90l42 265q5 32 5 54q0 83 -70 83q-104 0 -131 -172l-36 -230h-90l39 248q7 45 7 68q0 86 -68 86q-105 0 -132 -172l-36 -230h-90l74 468h90z" />
    <glyph glyph-name="n" unicode="n" horiz-adv-x="523" 
d="M226 468l-10 -63h2q55 77 153 77q140 0 140 -138q0 -27 -6 -65l-44 -279h-90l42 268q6 38 6 56q0 78 -87 78q-77 0 -112 -62q-20 -35 -34 -125l-34 -215h-90l74 468h90z" />
    <glyph glyph-name="o" unicode="o" horiz-adv-x="540" 
d="M346 482q94 0 154 -57.5t60 -150.5q0 -22 -3 -41q-17 -106 -100 -177.5t-190 -71.5q-94 0 -153.5 57.5t-59.5 150.5q0 22 3 41q17 106 99.5 177.5t189.5 71.5zM333 396q-75 0 -131.5 -56.5t-56.5 -131.5q0 -59 38.5 -98.5t97.5 -39.5q76 0 132 56.5t56 132.5
q0 59 -38.5 98t-97.5 39z" />
    <glyph glyph-name="p" unicode="p" horiz-adv-x="556" 
d="M298 64q81 0 133 63q49 58 49 141q0 61 -34 97.5t-94 36.5q-77 0 -129 -64q-49 -59 -49 -138q0 -59 33 -97.5t91 -38.5zM219 468l-12 -78h2q75 92 177 92q86 0 137 -58q48 -54 48 -142q0 -119 -73 -206q-78 -92 -195 -92q-98 0 -144 89h-2l-54 -341h-90l116 736h90z" />
    <glyph glyph-name="q" unicode="q" horiz-adv-x="556" 
d="M274 64q81 0 133 63q49 58 49 141q0 61 -34 97.5t-94 36.5q-77 0 -129 -64q-49 -59 -49 -138q0 -59 33 -97.5t91 -38.5zM575 468l-116 -736h-90l54 341h-2q-75 -89 -174 -89q-89 0 -138.5 56t-49.5 146q0 116 73 203q76 93 190 93q103 0 149 -92h2l12 78h90z" />
    <glyph glyph-name="r" unicode="r" horiz-adv-x="351" 
d="M232 468l-12 -76h3q50 90 142 90q38 0 71 -23l-54 -82q-19 19 -52 19q-110 0 -136 -166l-36 -230h-90l74 468h90z" />
    <glyph glyph-name="s" unicode="s" horiz-adv-x="384" 
d="M386 400l-79 -39q-13 41 -53 41q-20 0 -37 -13.5t-20 -32.5q-5 -32 51 -64q28 -14 83 -42q51 -35 51 -89q0 -78 -66 -132q-55 -45 -122 -45q-52 0 -93 28t-52 77l83 35q23 -60 75 -60q30 0 54 18.5t28 47.5t-25 51l-81 47q-73 42 -73 96q0 70 58 119q46 39 103 39
q88 0 115 -82z" />
    <glyph glyph-name="t" unicode="t" horiz-adv-x="240" 
d="M226 384l-61 -384h-90l61 384h-49l13 84h49l28 179h90l-28 -179h88l-13 -84h-88z" />
    <glyph glyph-name="u" unicode="u" horiz-adv-x="512" 
d="M132 468h90l-41 -259q-4 -25 -4 -48q0 -93 90 -93q108 0 130 141l41 259h90l-42 -269q-34 -215 -233 -215q-168 0 -168 161q0 22 5 54z" />
    <glyph glyph-name="v" unicode="v" horiz-adv-x="445" 
d="M162 468l88 -292l181 292h101l-313 -484l-158 484h101z" />
    <glyph glyph-name="w" unicode="w" horiz-adv-x="718" 
d="M160 468l89 -298l189 324l86 -324l183 298h102l-315 -484l-87 313l-188 -313l-161 484h102z" />
    <glyph glyph-name="x" unicode="x" horiz-adv-x="489" 
d="M235 254l-134 214h106l87 -151l145 151h109l-206 -214l161 -254h-105l-124 190l-179 -190h-109z" />
    <glyph glyph-name="y" unicode="y" horiz-adv-x="484" 
d="M214 80l-153 388h105l111 -297l194 297h101l-495 -736h-102z" />
    <glyph glyph-name="z" unicode="z" horiz-adv-x="495" 
d="M190 84h304l-13 -84h-479l378 384h-263l13 84h438z" />
    <glyph glyph-name="braceleft" unicode="{" horiz-adv-x="334" 
d="M91 271l11 73q80 33 99 151l29 182q6 40 36 83q34 49 70 49h78l-13 -84h-40q-20 0 -30 -19q-6 -12 -11 -43l-29 -184q-19 -119 -103 -172q52 -36 52 -127q0 -26 -3 -44l-30 -184q-3 -18 -3 -34q0 -28 25 -28h40l-14 -84h-78q-31 0 -50 40q-16 33 -16 66q0 13 2 26l29 182
q4 25 4 44q0 81 -55 107z" />
    <glyph glyph-name="bar" unicode="|" horiz-adv-x="570" 
d="M465 868l-137 -868h-86l137 868h86z" />
    <glyph glyph-name="braceright" unicode="}" horiz-adv-x="334" 
d="M340 344l-11 -73q-80 -33 -99 -151l-29 -182q-7 -41 -35 -83q-33 -49 -71 -49h-78l14 84h40q21 0 30 19q5 10 10 43l30 184q12 75 53 126q24 31 50 45q-53 41 -53 128q0 19 4 44l29 184q4 25 4 34q0 28 -25 28h-40l13 84h78q31 0 50 -40q16 -33 16 -66q0 -13 -2 -26
l-29 -182q-3 -19 -3 -44q0 -81 54 -107z" />
    <glyph glyph-name="asciitilde" unicode="~" 
d="M531 334v0l59 -50q-86 -122 -171 -122q-36 0 -108 51t-81 51q-42 0 -105 -82l-56 45q49 58 76 81q49 42 96 42q43 0 82 -26q11 -7 60 -50q30 -26 48 -26q26 0 50 24q12 12 50 62z" />
    <glyph glyph-name="euro" horiz-adv-x="498" 
d="M522 633l-23 -156l-48 6q0 157 -94 157q-103 0 -161 -211h172l-21 -48h-164q-6 -24 -16 -73h147l-21 -47h-134q-6 -41 -6 -74q0 -56 21 -91q26 -43 78 -43q58 0 101 68q24 38 51 119l55 -10l-54 -188q-77 -53 -159 -53q-111 0 -166 84q-47 71 -47 188h-74l21 47h56
q3 25 12 73h-66l21 48h59q41 112 108 183q83 88 187 88q94 0 165 -67z" />
    <glyph glyph-name="exclamdown" unicode="&#xa1;" horiz-adv-x="321" 
d="M241 508q24 0 38.5 -17t10.5 -41t-23.5 -41t-43.5 -17t-38.5 17t-10.5 41q4 23 24 40.5t43 17.5zM167 323h90l-92 -581h-90z" />
    <glyph glyph-name="cent" unicode="&#xa2;" 
d="M468 704l-13 -76q73 -4 118 -31l-19 -115h-2q-36 61 -110 63l-52 -328q75 10 132 62l-18 -117q-57 -25 -110 -28l-17 -1l-13 -85h-48l14 89q-78 13 -125.5 67t-47.5 133q0 107 72 190t178 99l13 78h48zM343 220l50 319q-59 -7 -103 -65.5t-44 -119.5q0 -48 25 -85
q27 -40 72 -49z" />
    <glyph glyph-name="sterling" unicode="&#xa3;" 
d="M87 -16l-72 40q80 109 172 113q29 64 29 109q0 29 -11 55h-129l9 58h100q-32 86 -32 148q0 107 89 185t197 78q94 0 149.5 -53t55.5 -147q0 -17 -2 -34l-95 -34l4 28q2 14 2 26q0 55 -34.5 90.5t-89.5 35.5q-70 0 -128.5 -54t-58.5 -123q0 -42 46 -146h148l-9 -58h-124
q3 -24 3 -45q0 -58 -31 -127l70 -26l44 -18q27 -11 46 -11q41 0 94 74l68 -46q-69 -118 -175 -118q-40 0 -120.5 32.5t-115.5 32.5q-62 0 -99 -65z" />
    <glyph glyph-name="currency" unicode="&#xa4;" 
d="M569 546l51 -60l-48 -44q23 -48 23 -99q0 -100 -68 -185l34 -44l-69 -60l-39 44q-71 -48 -156 -48t-140 48l-53 -44l-51 60l48 44q-23 48 -23 99q0 99 68 185l-34 44l69 60l40 -44q70 48 155 48t141 -48zM310 130q82 0 143 59t61 141q0 65 -43 104q-42 36 -108 36
q-82 0 -142.5 -55.5t-60.5 -137.5q0 -65 42.5 -106t107.5 -41z" />
    <glyph glyph-name="yen" unicode="&#xa5;" 
d="M377 260l-41 -260h-94l41 260h-236l9 58h236l2 10l-39 94h-182l9 58h148l-115 274h108l134 -322l236 322h108l-201 -274h148l-9 -58h-181l-70 -94l-2 -10h236l-9 -58h-236z" />
    <glyph glyph-name="brokenbar" unicode="&#xa6;" horiz-adv-x="570" 
d="M383 347l-55 -347h-86l55 347h86zM465 868l-54 -347h-86l54 347h86z" />
    <glyph glyph-name="section" unicode="&#xa7;" 
d="M267 335l161 -87q31 18 54.5 51.5t23.5 66.5q0 40 -63 75l-169 93q-32 -18 -55 -51t-23 -67q0 -43 71 -81zM340 192l-130 69q-54 29 -75 50q-31 32 -31 78q0 108 124 191q-29 40 -29 85q0 82 70 144q67 59 151 59q80 0 128 -43q52 -46 45 -125h-87q4 42 -27 67
q-27 22 -71 22q-47 0 -82.5 -34t-35.5 -80q0 -49 70 -87l123 -67q55 -30 77 -51q38 -36 38 -80q0 -51 -37 -106q-33 -50 -80 -81q36 -40 36 -95q0 -101 -89 -168q-69 -52 -157 -52q-85 0 -138 44q-57 47 -57 131q0 25 3 40l3 15h89q-3 -16 -3 -31q0 -52 31.5 -84.5
t83.5 -32.5q54 0 98.5 37t44.5 90q0 33 -28 58q-17 15 -58 37z" />
    <glyph glyph-name="dieresis" unicode="&#xa8;" horiz-adv-x="470" 
d="M240 694q25 0 39.5 -17.5t10.5 -42.5t-24 -43t-45 -18q-26 0 -41 17.5t-11 43.5q4 25 24.5 42.5t46.5 17.5zM451 694q25 0 39.5 -17.5t10.5 -42.5t-24 -43t-45 -18q-26 0 -41 17.5t-11 43.5q4 25 24.5 42.5t46.5 17.5z" />
    <glyph glyph-name="copyright" unicode="&#xa9;" horiz-adv-x="800" 
d="M397 -16q-146 0 -241 92t-95 238q0 31 5 63q26 166 157.5 279.5t298.5 113.5q147 0 242 -92t95 -238q0 -31 -5 -63q-26 -166 -158 -279.5t-299 -113.5zM512 706q-154 0 -270 -114t-116 -267q0 -122 80 -199.5t202 -77.5q140 0 250 95.5t132 233.5q4 25 4 53
q0 121 -80 198.5t-202 77.5zM673 458h-61q-6 85 -112 85q-80 0 -130.5 -57t-50.5 -138q0 -61 35.5 -95.5t96.5 -34.5q101 0 137 89h61q-20 -69 -78.5 -111t-130.5 -42q-84 0 -135 50.5t-51 134.5q0 124 88 205q69 63 169 63q71 0 115 -39.5t47 -109.5z" />
    <glyph glyph-name="ordfeminine" unicode="&#xaa;" horiz-adv-x="334" 
d="M249 519q50 0 83.5 35.5t33.5 85.5q0 38 -23 60t-62 22q-48 0 -80.5 -35.5t-32.5 -84.5q0 -37 22 -60t59 -23zM443 761l-45 -280h-59l7 43h-2q-48 -53 -111 -53q-57 0 -91 33.5t-34 90.5q0 71 49.5 123t120.5 52q64 0 97 -55h1l8 46h59zM380 368h-310l8 48h310z" />
    <glyph glyph-name="guillemotleft" unicode="&#xab;" horiz-adv-x="523" 
d="M362 320l118 -191l-62 -41l-145 232l220 240l49 -41zM170 320l118 -191l-62 -41l-145 232l220 240l49 -41z" />
    <glyph glyph-name="logicalnot" unicode="&#xac;" 
d="M477 115l29 184h-426l14 86h512l-43 -270h-86z" />
    <glyph glyph-name="sfthyphen" unicode="&#xad;" horiz-adv-x="338" 
d="M8 174l33 122h246l-33 -122h-246z" />
    <glyph glyph-name="registered" unicode="&#xae;" horiz-adv-x="800" 
d="M397 -16q-146 0 -241 92t-95 238q0 31 5 63q26 166 157.5 279.5t298.5 113.5q147 0 242 -92t95 -238q0 -31 -5 -63q-26 -166 -158 -279.5t-299 -113.5zM512 706q-154 0 -270 -114t-116 -267q0 -122 80 -199.5t202 -77.5q140 0 250 95.5t132 233.5q4 25 4 53
q0 121 -80 198.5t-202 77.5zM525 357l79 -204h-73l-80 204h-82l-33 -204h-64l70 442h186q136 0 136 -93q0 -69 -47 -111q-37 -32 -92 -34zM506 531h-110l-17 -110h68q82 0 94 2q57 9 57 61q0 32 -33 42q-17 5 -59 5z" />
    <glyph glyph-name="macron" unicode="&#xaf;" horiz-adv-x="500" 
d="M180 694h361l-11 -68h-361z" />
    <glyph glyph-name="macron" unicode="&#x2c9;" horiz-adv-x="500" 
d="M180 694h361l-11 -68h-361z" />
    <glyph glyph-name="degree" unicode="&#xb0;" horiz-adv-x="400" 
d="M274 470q-55 0 -91.5 36t-36.5 91q0 69 53 121t123 52q55 0 91.5 -36t36.5 -91q0 -69 -53 -121t-123 -52zM313 720q-47 0 -81.5 -35t-34.5 -82q0 -37 24 -60t61 -23q47 0 82.5 34.5t35.5 81.5q0 38 -24.5 61t-62.5 23z" />
    <glyph glyph-name="plusminus" unicode="&#xb1;" 
d="M33 0l14 86h512l-14 -86h-512zM335 562h86l-27 -173h213l-14 -86h-213l-27 -173h-86l27 173h-213l14 86h213z" />
    <glyph glyph-name="twosuperior" unicode="&#xb2;" horiz-adv-x="346" 
d="M201 360h188l-9 -58h-317l253 243q45 43 51 81q5 33 -19.5 56.5t-58.5 23.5q-36 0 -64.5 -20.5t-35.5 -55.5h-67q16 62 63.5 98t112.5 36q55 0 93 -30q42 -33 42 -86q0 -66 -49 -113z" />
    <glyph glyph-name="threesuperior" unicode="&#xb3;" horiz-adv-x="346" 
d="M245 518l9 58q94 0 105 67q5 33 -16.5 51t-55.5 18q-75 0 -84 -56h-67q36 114 162 114q52 0 87 -25q40 -28 40 -78q0 -81 -84 -121q57 -27 57 -91q0 -72 -57 -116q-52 -41 -126 -41q-59 0 -95 31q-40 34 -34 91h64q0 -64 79 -64q42 0 73.5 26t31.5 67q0 36 -28 54
q-24 16 -61 15z" />
    <glyph glyph-name="acute" unicode="&#xb4;" horiz-adv-x="360" 
d="M317 734l76 -44l-187 -149l-40 27z" />
    <glyph glyph-name="mu" unicode="&#xb5;" horiz-adv-x="512" 
d="M132 468h90l-41 -259q-4 -25 -4 -48q0 -93 90 -93q108 0 130 141l41 259h90l-42 -269q-34 -215 -233 -215q-56 0 -101 44l-46 -296h-90z" />
    <glyph glyph-name="mu" unicode="&#x3bc;" horiz-adv-x="512" 
d="M132 468h90l-41 -259q-4 -25 -4 -48q0 -93 90 -93q108 0 130 141l41 259h90l-42 -269q-34 -215 -233 -215q-56 0 -101 44l-46 -296h-90z" />
    <glyph glyph-name="paragraph" unicode="&#xb6;" 
d="M657 754l-13 -84h-61l-130 -823h-84l130 823h-62l-130 -823h-84l69 436q-83 0 -128 51t-45 135q0 108 73 194q77 91 183 91h282z" />
    <glyph glyph-name="ch270" unicode="&#xb7;" horiz-adv-x="249" 
d="M38 348q0 34 23 57t57 23t57.5 -23t23.5 -57t-23.5 -57.5t-57.5 -23.5t-57 23.5t-23 57.5z" />
    <glyph glyph-name="ch270" unicode="&#x2219;" horiz-adv-x="249" 
d="M38 348q0 34 23 57t57 23t57.5 -23t23.5 -57t-23.5 -57.5t-57.5 -23.5t-57 23.5t-23 57.5z" />
    <glyph glyph-name="cedilla" unicode="&#xb8;" horiz-adv-x="330" 
d="M237 -46l-127 -135l-48 27l108 137z" />
    <glyph glyph-name="onesuperior" unicode="&#xb9;" horiz-adv-x="346" 
d="M261 696h-86l43 58h116l-71 -452h-64z" />
    <glyph glyph-name="ordmasculine" unicode="&#xba;" horiz-adv-x="324" 
d="M284 770q60 0 100.5 -34t40.5 -93q0 -73 -56.5 -122.5t-131.5 -49.5q-59 0 -100 34t-41 92q0 74 58 124q55 49 130 49zM276 718q-47 0 -83.5 -33t-36.5 -79q0 -37 26 -60t63 -23q47 0 83.5 32.5t36.5 79.5q0 37 -26 60t-63 23zM383 368h-325l8 48h325z" />
    <glyph glyph-name="guillemotright" unicode="&#xbb;" horiz-adv-x="523" 
d="M83 129l180 191l-118 199l63 41l144 -240l-219 -232zM275 129l180 191l-118 199l63 41l144 -240l-219 -232z" />
    <glyph glyph-name="onequarter" unicode="&#xbc;" horiz-adv-x="867" 
d="M236 696h-86l43 58h116l-71 -452h-64zM798 124h49l-10 -58h-49l-10 -66h-64l10 66h-243l372 407zM734 124l26 164h-3l-149 -164h126zM753 770l47 -26l-561 -760l-46 28z" />
    <glyph glyph-name="onehalf" unicode="&#xbd;" horiz-adv-x="867" 
d="M174 302l62 394h-86l43 58h116l-71 -452h-64zM648 58h188l-9 -58h-317l253 243q45 43 51 81q6 34 -19 57t-59 23q-36 0 -64 -20.5t-36 -55.5h-67q16 62 63.5 98t112.5 36q55 0 93 -30q42 -33 42 -86q0 -66 -49 -113zM701 770l47 -26l-561 -760l-46 28z" />
    <glyph glyph-name="threequarters" unicode="&#xbe;" horiz-adv-x="867" 
d="M798 124h49l-10 -58h-49l-10 -66h-64l10 66h-243l372 407zM734 124l26 164h-3l-149 -164h126zM266 518l9 58q94 0 105 67q5 33 -16.5 51t-55.5 18q-75 0 -84 -56h-67q36 114 162 114q52 0 87 -25q40 -28 40 -78q0 -81 -84 -121q57 -27 57 -91q0 -72 -57 -116
q-52 -41 -126 -41q-59 0 -95 31q-40 34 -34 91h64q0 -64 79 -64q42 0 73.5 26t31.5 67q0 36 -28 54q-24 16 -61 15zM809 770l47 -26l-561 -760l-46 28z" />
    <glyph glyph-name="questiondown" unicode="&#xbf;" horiz-adv-x="453" 
d="M177 157h-91q7 66 63.5 113.5t123.5 47.5q59 0 98.5 -37.5t39.5 -96.5q0 -98 -86 -145q-61 -24 -123 -47q-76 -37 -84 -86q-1 -6 -1 -17q0 -34 22 -53t57 -19t65 25.5t35 60.5q1 7 -1 32h94l-4 -33q-9 -73 -70 -121.5t-135 -48.5q-67 0 -111 40.5t-44 107.5q0 95 76 153
q37 28 133 56q78 22 85 73q4 30 -12.5 51t-46.5 21q-32 0 -55.5 -22.5t-27.5 -54.5zM303 508q24 0 38.5 -17t10.5 -41t-23.5 -41t-43.5 -17t-38.5 17t-10.5 41q4 23 24 40.5t43 17.5z" />
    <glyph glyph-name="Agrave" unicode="&#xc0;" horiz-adv-x="703" 
d="M492 893l-16 -46l-169 145l60 50zM712 0h-101l-56 189h-346l-116 -189h-101l484 786zM530 275l-86 305l-182 -305h268z" />
    <glyph glyph-name="Aacute" unicode="&#xc1;" horiz-adv-x="703" 
d="M555 189h-346l-116 -189h-101l484 786l236 -786h-101zM530 275l-86 305l-182 -305h268zM584 1042l60 -50l-169 -145l-16 46z" />
    <glyph glyph-name="Acircumflex" unicode="&#xc2;" horiz-adv-x="703" 
d="M555 189h-346l-116 -189h-101l484 786l236 -786h-101zM530 275l-86 305l-182 -305h268zM342 842l146 116l110 -116l-52 -36l-70 76l-93 -76z" />
    <glyph glyph-name="Atilde" unicode="&#xc3;" horiz-adv-x="703" 
d="M555 189h-346l-116 -189h-101l484 786l236 -786h-101zM530 275l-86 305l-182 -305h268zM368 848l-26 28l6 5q70 58 106 58q22 0 61.5 -19t44.5 -19q27 1 64 38l27 -27q-59 -64 -117 -65q-17 0 -54 19t-53 19q-27 0 -59 -37z" />
    <glyph glyph-name="Adieresis" unicode="&#xc4;" horiz-adv-x="703" 
d="M555 189h-346l-116 -189h-101l484 786l236 -786h-101zM530 275l-86 305l-182 -305h268zM402 980q25 0 39.5 -17.5t10.5 -42.5t-24 -43t-45 -18q-26 0 -41 17.5t-11 43.5q4 25 24.5 42.5t46.5 17.5zM613 980q25 0 39.5 -17.5t10.5 -42.5t-24 -43t-45 -18q-26 0 -41 17.5
t-11 43.5q4 25 24.5 42.5t46.5 17.5z" />
    <glyph glyph-name="Aring" unicode="&#xc5;" horiz-adv-x="703" 
d="M555 189h-346l-116 -189h-101l484 786l236 -786h-101zM530 275l-86 305l-182 -305h268zM513 1020q34 0 56 -21.5t22 -55.5q0 -42 -32 -73t-74 -31q-34 0 -55.5 21t-21.5 55q0 41 32 73t73 32zM492 884q19 0 34.5 13t18.5 32t-8.5 32.5t-30.5 13.5t-34 -13.5t-18 -32.5
t8 -32t30 -13z" />
    <glyph glyph-name="AE" unicode="&#xc6;" horiz-adv-x="997" 
d="M562 189h-343l-116 -189h-103l481 754h330l25 -86h-309l57 -211h301l27 -86h-302l76 -285h311l24 -86h-406zM541 275l-84 292l-184 -292h268z" />
    <glyph glyph-name="Ccedilla" unicode="&#xc7;" horiz-adv-x="661" 
d="M735 719l-17 -109q-72 74 -188 74q-141 0 -245.5 -108.5t-104.5 -249.5q0 -111 70.5 -183.5t180.5 -72.5q114 0 213 78l-17 -111q-99 -53 -207 -53q-146 0 -241 91.5t-95 236.5q0 29 5 61q26 168 160 282.5t304 114.5q107 0 182 -51zM403 -46l-127 -135l-48 27l108 137z
" />
    <glyph glyph-name="Egrave" unicode="&#xc8;" horiz-adv-x="521" 
d="M72 0l119 754h405l-13 -86h-311l-34 -211h302l-13 -86h-302l-45 -285h311l-14 -86h-405zM409 895l-16 -46l-169 145l60 50z" />
    <glyph glyph-name="Eacute" unicode="&#xc9;" horiz-adv-x="521" 
d="M72 0l119 754h405l-13 -86h-311l-34 -211h302l-13 -86h-302l-45 -285h311l-14 -86h-405zM499 1043l60 -50l-169 -145l-16 46z" />
    <glyph glyph-name="Ecircumflex" unicode="&#xca;" horiz-adv-x="521" 
d="M72 0l119 754h405l-13 -86h-311l-34 -211h302l-13 -86h-302l-45 -285h311l-14 -86h-405zM266 829l146 116l110 -116l-52 -36l-70 76l-93 -76z" />
    <glyph glyph-name="Edieresis" unicode="&#xcb;" horiz-adv-x="521" 
d="M72 0l119 754h405l-13 -86h-311l-34 -211h302l-13 -86h-302l-45 -285h311l-14 -86h-405zM323 980q25 0 39.5 -17.5t10.5 -42.5t-24 -43t-45 -18q-26 0 -41 17.5t-11 43.5q4 25 24.5 42.5t46.5 17.5zM534 980q25 0 39.5 -17.5t10.5 -42.5t-24 -43t-45 -18q-26 0 -41 17.5
t-11 43.5q4 25 24.5 42.5t46.5 17.5z" />
    <glyph glyph-name="Igrave" unicode="&#xcc;" horiz-adv-x="232" 
d="M282 754l-119 -754h-94l119 754h94zM254 883l-16 -46l-169 145l60 50z" />
    <glyph glyph-name="Iacute" unicode="&#xcd;" horiz-adv-x="232" 
d="M282 754l-119 -754h-94l119 754h94zM345 1032l60 -50l-169 -145l-16 46z" />
    <glyph glyph-name="Icircumflex" unicode="&#xce;" horiz-adv-x="232" 
d="M282 754l-119 -754h-94l119 754h94zM94 875l182 145l138 -145l-66 -46l-87 96l-116 -96z" />
    <glyph glyph-name="Idieresis" unicode="&#xcf;" horiz-adv-x="232" 
d="M282 754l-119 -754h-94l119 754h94zM166 980q25 0 39.5 -17.5t10.5 -42.5t-24 -43t-45 -18q-26 0 -41 17.5t-11 43.5q4 25 24.5 42.5t46.5 17.5zM377 980q25 0 39.5 -17.5t10.5 -42.5t-24 -43t-45 -18q-26 0 -41 17.5t-11 43.5q4 25 24.5 42.5t46.5 17.5z" />
    <glyph glyph-name="Eth" unicode="&#xd0;" horiz-adv-x="665" 
d="M135 450l48 304h156q159 0 258 -70q112 -81 112 -234q0 -31 -6 -69q-29 -184 -166 -285q-129 -96 -320 -96h-153l57 362h-64l14 88h64zM264 668l-35 -218h134l-14 -88h-134l-43 -276h33q163 0 264 65q115 74 140 226q5 31 5 59q0 232 -317 232h-33z" />
    <glyph glyph-name="Ntilde" unicode="&#xd1;" horiz-adv-x="785" 
d="M63 0l125 790l472 -593l88 557h94l-124 -785l-472 593l-89 -562h-94zM385 859v0l-41 40l4 5q61 76 120 76q31 0 84 -26.5t69 -26.5q34 0 71 48l41 -39q-53 -82 -131 -82q-26 0 -77.5 25.5t-75.5 25.5q-35 0 -64 -46z" />
    <glyph glyph-name="Ograve" unicode="&#xd2;" horiz-adv-x="828" 
d="M536 770q146 0 242 -93t96 -239q0 -30 -5 -61q-27 -168 -157.5 -280.5t-300.5 -112.5q-148 0 -242.5 90.5t-94.5 237.5q0 200 165 343q133 115 297 115zM425 72q143 0 248.5 107t105.5 249q0 115 -71 184.5t-186 69.5q-145 0 -249 -105t-104 -250q0 -113 71.5 -184
t184.5 -71zM552 905l-16 -46l-169 145l60 50z" />
    <glyph glyph-name="Oacute" unicode="&#xd3;" horiz-adv-x="828" 
d="M536 770q146 0 242 -93t96 -239q0 -30 -5 -61q-27 -168 -157.5 -280.5t-300.5 -112.5q-148 0 -242.5 90.5t-94.5 237.5q0 200 165 343q133 115 297 115zM425 72q143 0 248.5 107t105.5 249q0 115 -71 184.5t-186 69.5q-145 0 -249 -105t-104 -250q0 -113 71.5 -184
t184.5 -71zM645 1052l60 -50l-169 -145l-16 46z" />
    <glyph glyph-name="Ocircumflex" unicode="&#xd4;" horiz-adv-x="828" 
d="M536 770q146 0 242 -93t96 -239q0 -30 -5 -61q-27 -168 -157.5 -280.5t-300.5 -112.5q-148 0 -242.5 90.5t-94.5 237.5q0 200 165 343q133 115 297 115zM425 72q143 0 248.5 107t105.5 249q0 115 -71 184.5t-186 69.5q-145 0 -249 -105t-104 -250q0 -113 71.5 -184
t184.5 -71zM416 840l146 116l110 -116l-52 -36l-70 76l-93 -76z" />
    <glyph glyph-name="Otilde" unicode="&#xd5;" horiz-adv-x="828" 
d="M536 770q146 0 242 -93t96 -239q0 -30 -5 -61q-27 -168 -157.5 -280.5t-300.5 -112.5q-148 0 -242.5 90.5t-94.5 237.5q0 200 165 343q133 115 297 115zM425 72q143 0 248.5 107t105.5 249q0 115 -71 184.5t-186 69.5q-145 0 -249 -105t-104 -250q0 -113 71.5 -184
t184.5 -71zM442 858l-26 28l6 5q70 58 106 58q22 0 61.5 -19t44.5 -19q27 1 64 38l27 -27q-59 -64 -117 -65q-17 0 -54 19t-53 19q-27 0 -59 -37z" />
    <glyph glyph-name="Odieresis" unicode="&#xd6;" horiz-adv-x="828" 
d="M536 770q145 0 241.5 -93.5t96.5 -238.5q0 -30 -5 -61q-27 -167 -158 -280t-300 -113q-147 0 -242 91t-95 237q0 201 164 343q134 115 298 115zM425 72q141 0 247.5 107.5t106.5 248.5q0 113 -71.5 183.5t-185.5 70.5q-131 0 -230 -87.5t-119 -217.5q-4 -26 -4 -49
q0 -112 72 -184t184 -72zM464 980q25 0 39.5 -17.5t10.5 -42.5t-24 -43t-45 -18q-26 0 -41 17.5t-11 43.5q4 25 24.5 42.5t46.5 17.5zM675 980q25 0 39.5 -17.5t10.5 -42.5t-24 -43t-45 -18q-26 0 -41 17.5t-11 43.5q4 25 24.5 42.5t46.5 17.5z" />
    <glyph glyph-name="multiply" unicode="&#xd7;" 
d="M104 451l70 61l165 -195l227 195l50 -61l-225 -195l164 -195l-70 -61l-165 195l-227 -195l-50 61l226 195z" />
    <glyph glyph-name="Oslash" unicode="&#xd8;" horiz-adv-x="828" 
d="M930 729l-115 -100q58 -91 58 -197q0 -30 -4 -55q-26 -167 -157.5 -280t-300.5 -113q-139 0 -244 95l-116 -100l-35 42l115 99q-58 79 -58 183q0 35 6 74q25 163 158.5 278t298.5 115q155 0 245 -100l116 100zM207 181l499 428q-64 73 -184 73q-145 0 -249 -106
t-104 -251q0 -81 38 -144zM739 566l-494 -424q62 -70 180 -70q141 0 247.5 106t106.5 247q0 77 -40 141z" />
    <glyph glyph-name="Ugrave" unicode="&#xd9;" horiz-adv-x="669" 
d="M178 754h94l-70 -445q-6 -38 -6 -74q0 -163 150 -163q183 0 220 237l70 445h94l-75 -477q-20 -129 -106 -209q-89 -84 -217 -84q-108 0 -171 63t-63 171q0 27 5 59zM474 850l-16 -46l-169 145l60 50z" />
    <glyph glyph-name="Uacute" unicode="&#xda;" horiz-adv-x="669" 
d="M178 754h94l-70 -445q-6 -38 -6 -74q0 -163 150 -163q183 0 220 237l70 445h94l-75 -477q-20 -129 -106 -209q-89 -84 -217 -84q-108 0 -171 63t-63 171q0 27 5 59zM564 1000l60 -50l-169 -145l-16 46z" />
    <glyph glyph-name="Ucircumflex" unicode="&#xdb;" horiz-adv-x="669" 
d="M178 754h94l-70 -445q-6 -38 -6 -74q0 -163 150 -163q183 0 220 237l70 445h94l-75 -477q-20 -129 -106 -209q-89 -84 -217 -84q-108 0 -171 63t-63 171q0 27 5 59zM313 875l182 145l138 -145l-66 -46l-87 96l-116 -96z" />
    <glyph glyph-name="Udieresis" unicode="&#xdc;" horiz-adv-x="669" 
d="M178 754h94l-70 -445q-6 -38 -6 -74q0 -163 150 -163q183 0 220 237l70 445h94l-75 -477q-20 -129 -106 -209q-89 -84 -217 -84q-108 0 -171 63t-63 171q0 27 5 59zM385 980q25 0 39.5 -17.5t10.5 -42.5t-24 -43t-45 -18q-26 0 -41 17.5t-11 43.5q4 25 24.5 42.5
t46.5 17.5zM596 980q25 0 39.5 -17.5t10.5 -42.5t-24 -43t-45 -18q-26 0 -41 17.5t-11 43.5q4 25 24.5 42.5t46.5 17.5z" />
    <glyph glyph-name="Yacute" unicode="&#xdd;" horiz-adv-x="573" 
d="M292 328l-179 426h108l134 -322l236 322h108l-313 -426l-52 -328h-94zM513 999l60 -50l-169 -145l-16 46z" />
    <glyph glyph-name="Thorn" unicode="&#xde;" horiz-adv-x="495" 
d="M194 176l-28 -176h-94l119 754h94l-22 -140h14q119 0 181 -27q93 -39 93 -142q0 -24 -4 -49q-18 -112 -104 -169q-76 -51 -195 -51h-54zM250 530l-43 -270h30q200 0 222 138q2 13 2 25q0 107 -186 107h-25z" />
    <glyph glyph-name="germandbls" unicode="&#xdf;" horiz-adv-x="580" 
d="M279 -16l14 84q90 0 159 66.5t69 156.5q0 71 -50 111q-45 36 -119 41l14 88q64 -1 111.5 47t47.5 112q0 48 -32 77t-80 29q-86 0 -127 -82q-21 -43 -39 -155l-89 -559h-90l61 386h-40l13 84h40l24 148q42 262 263 262q82 0 134 -48t52 -130q0 -138 -125 -205
q60 -21 92 -77q29 -51 29 -119q0 -131 -100.5 -227t-231.5 -90z" />
    <glyph glyph-name="agrave" unicode="&#xe0;" horiz-adv-x="556" 
d="M274 64q81 0 133 63q49 58 49 141q0 61 -34 97.5t-94 36.5q-77 0 -129 -64q-49 -59 -49 -138q0 -60 32.5 -98t91.5 -38zM575 468l-74 -468h-90l12 73h-2q-76 -89 -174 -89q-88 0 -139 58q-48 54 -48 144q0 116 72 203q77 93 191 93q102 0 148 -92h2l12 78h90zM338 609
l-15 -44l-161 138l57 47z" />
    <glyph glyph-name="aacute" unicode="&#xe1;" horiz-adv-x="556" 
d="M274 64q81 0 133 63q49 58 49 141q0 61 -34 97.5t-94 36.5q-77 0 -129 -64q-49 -59 -49 -138q0 -60 32.5 -98t91.5 -38zM575 468l-74 -468h-90l12 73h-2q-76 -89 -174 -89q-88 0 -139 58q-48 54 -48 144q0 116 72 203q77 93 191 93q102 0 148 -92h2l12 78h90zM426 751
l57 -47l-160 -138l-16 44z" />
    <glyph glyph-name="acircumflex" unicode="&#xe2;" horiz-adv-x="556" 
d="M274 64q81 0 133 63q49 58 49 141q0 61 -34 97.5t-94 36.5q-77 0 -129 -64q-49 -59 -49 -138q0 -60 32.5 -98t91.5 -38zM575 468l-74 -468h-90l12 73h-2q-76 -89 -174 -89q-88 0 -139 58q-48 54 -48 144q0 116 72 203q77 93 191 93q102 0 148 -92h2l12 78h90zM229 563
l139 110l104 -110l-49 -34l-66 72l-89 -72z" />
    <glyph glyph-name="atilde" unicode="&#xe3;" horiz-adv-x="556" 
d="M274 64q81 0 133 63q49 58 49 141q0 61 -34 97.5t-94 36.5q-77 0 -129 -64q-49 -59 -49 -138q0 -60 32.5 -98t91.5 -38zM575 468l-74 -468h-90l12 73h-2q-76 -89 -174 -89q-88 0 -139 58q-48 54 -48 144q0 116 72 203q77 93 191 93q102 0 148 -92h2l12 78h90zM256 566
l-25 27l6 4q58 54 100 55q20 0 57.5 -18t43.5 -18q26 1 61 36l25 -25q-56 -61 -111 -62q-16 0 -51 18t-50 18q-26 0 -56 -35z" />
    <glyph glyph-name="adieresis" unicode="&#xe4;" horiz-adv-x="556" 
d="M274 64q81 0 133 63q49 58 49 141q0 61 -34 97.5t-94 36.5q-77 0 -129 -64q-49 -59 -49 -138q0 -59 33 -97.5t91 -38.5zM575 468l-74 -468h-90l12 73h-2q-75 -89 -174 -89q-88 0 -139 58q-49 55 -49 145q0 115 74 202q77 93 190 93q102 0 148 -92h2l12 78h90zM283 694
q25 0 39.5 -17.5t10.5 -42.5t-24 -43t-45 -18q-26 0 -41 17.5t-11 43.5q4 25 24.5 42.5t46.5 17.5zM494 694q25 0 39.5 -17.5t10.5 -42.5t-24 -43t-45 -18q-26 0 -41 17.5t-11 43.5q4 25 24.5 42.5t46.5 17.5z" />
    <glyph glyph-name="aring" unicode="&#xe5;" horiz-adv-x="556" 
d="M274 64q81 0 133 63q49 58 49 141q0 61 -34 97.5t-94 36.5q-77 0 -129 -64q-49 -59 -49 -138q0 -59 33 -97.5t91 -38.5zM575 468l-74 -468h-90l12 73h-2q-75 -89 -174 -89q-88 0 -139 58q-49 55 -49 145q0 115 74 202q77 93 190 93q102 0 148 -92h2l12 78h90zM394 734
q34 0 56 -21.5t22 -55.5q0 -42 -32 -73t-74 -31q-34 0 -55.5 21t-21.5 55q0 41 32 73t73 32zM373 598q19 0 34.5 13t18.5 32t-8.5 32.5t-30.5 13.5t-34 -13.5t-18 -32.5t8 -32t30 -13z" />
    <glyph glyph-name="ae" unicode="&#xe6;" horiz-adv-x="807" 
d="M487 287h262q0 54 -28.5 85.5t-81.5 31.5q-52 0 -93.5 -33t-58.5 -84zM256 218q-42 0 -77 -19q-41 -22 -47 -60t31 -59q30 -16 71 -16q44 0 79 18q42 21 49 60q6 38 -33 59q-32 17 -73 17zM827 219h-357q-2 -13 -2 -26q0 -55 32 -92t86 -37q85 0 155 91l69 -43
q-92 -128 -238 -128q-104 0 -166 87q-71 -87 -193 -87q-68 0 -114 30q-53 34 -53 99q0 11 2 24q11 74 70 117q55 40 132 40q89 0 135 -43l5 32q2 13 2 31q0 90 -106 90q-81 0 -130 -15l12 80q69 13 143 13q116 0 148 -77q74 77 190 77q89 0 137 -50.5t48 -140.5
q0 -23 -5 -58z" />
    <glyph glyph-name="ccedilla" unicode="&#xe7;" horiz-adv-x="441" 
d="M477 451l-18 -116q-45 63 -124 63q-76 0 -130 -59.5t-54 -135.5q0 -62 38 -98.5t100 -36.5q72 0 138 62l-19 -115q-62 -31 -134 -31q-92 0 -153.5 57t-61.5 149q0 130 106 220q85 72 193 72q71 0 119 -31zM293 -46l-127 -135l-48 27l108 137z" />
    <glyph glyph-name="egrave" unicode="&#xe8;" horiz-adv-x="488" 
d="M508 219h-357q-2 -13 -2 -27q0 -55 32 -91.5t86 -36.5q85 0 155 91l69 -43q-41 -59 -104 -93.5t-134 -34.5q-90 0 -142.5 54t-52.5 144q0 23 4 48q18 113 85 180q72 72 183 72q90 0 137 -51.5t47 -142.5q0 -27 -4 -55zM166 287h262q1 54 -28 85.5t-82 31.5
q-52 0 -93.5 -33t-58.5 -84zM344 609l-15 -44l-161 138l57 47z" />
    <glyph glyph-name="eacute" unicode="&#xe9;" horiz-adv-x="488" 
d="M508 219h-357q-2 -13 -2 -27q0 -55 32 -91.5t86 -36.5q85 0 155 91l69 -43q-41 -59 -104 -93.5t-134 -34.5q-90 0 -142.5 54t-52.5 144q0 23 4 48q18 113 85 180q72 72 183 72q90 0 137 -51.5t47 -142.5q0 -27 -4 -55zM166 287h262q1 54 -28 85.5t-82 31.5
q-52 0 -93.5 -33t-58.5 -84zM432 751l57 -47l-160 -138l-16 44z" />
    <glyph glyph-name="ecircumflex" unicode="&#xea;" horiz-adv-x="488" 
d="M508 219h-357q-2 -13 -2 -27q0 -55 32 -91.5t86 -36.5q85 0 155 91l69 -43q-41 -59 -104 -93.5t-134 -34.5q-90 0 -142.5 54t-52.5 144q0 23 4 48q18 113 85 180q72 72 183 72q90 0 137 -51.5t47 -142.5q0 -27 -4 -55zM166 287h262q1 54 -28 85.5t-82 31.5
q-52 0 -93.5 -33t-58.5 -84zM224 563l139 110l104 -110l-49 -34l-66 72l-89 -72z" />
    <glyph glyph-name="edieresis" unicode="&#xeb;" horiz-adv-x="488" 
d="M508 219h-357q-2 -13 -2 -26q0 -55 32 -92t86 -37q85 0 155 91l69 -43q-92 -128 -238 -128q-90 0 -142.5 54t-52.5 144q0 23 4 48q18 113 85 180q72 72 183 72q89 0 137 -50.5t48 -140.5q0 -23 -5 -58zM166 287h262q0 54 -28.5 85.5t-81.5 31.5q-52 0 -93.5 -33
t-58.5 -84zM249 694q25 0 39.5 -17.5t10.5 -42.5t-24 -43t-45 -18q-26 0 -41 17.5t-11 43.5q4 25 24.5 42.5t46.5 17.5zM460 694q25 0 39.5 -17.5t10.5 -42.5t-24 -43t-45 -18q-26 0 -41 17.5t-11 43.5q4 25 24.5 42.5t46.5 17.5z" />
    <glyph glyph-name="igrave" unicode="&#xec;" horiz-adv-x="254" 
d="M246 468l-74 -468h-90l74 468h90zM216 586l-15 -44l-161 138l57 47z" />
    <glyph glyph-name="iacute" unicode="&#xed;" horiz-adv-x="254" 
d="M246 468l-74 -468h-90l74 468h90zM303 727l57 -47l-160 -138l-16 44z" />
    <glyph glyph-name="icircumflex" unicode="&#xee;" horiz-adv-x="254" 
d="M246 468l-74 -468h-90l74 468h90zM60 589l182 145l138 -145l-66 -46l-87 96l-116 -96z" />
    <glyph glyph-name="idieresis" unicode="&#xef;" horiz-adv-x="254" 
d="M246 468l-74 -468h-90l74 468h90zM132 694q25 0 39.5 -17.5t10.5 -42.5t-24 -43t-45 -18q-26 0 -41 17.5t-11 43.5q4 25 24.5 42.5t46.5 17.5zM343 694q25 0 39.5 -17.5t10.5 -42.5t-24 -43t-45 -18q-26 0 -41 17.5t-11 43.5q4 25 24.5 42.5t46.5 17.5z" />
    <glyph glyph-name="eth" unicode="&#xf0;" horiz-adv-x="540" 
d="M333 396q-75 0 -131.5 -56.5t-56.5 -131.5q0 -59 38.5 -98.5t97.5 -39.5q76 0 132 56.5t56 132.5q0 59 -38.5 98t-97.5 39zM177 824l84 44l84 -111l159 83l40 -54l-158 -84q62 -91 128 -234q46 -99 46 -189q0 -125 -84 -210t-209 -85q-94 0 -153.5 57.5t-59.5 150.5
q0 22 3 41q17 106 99.5 177.5t189.5 71.5q35 0 64 -14l2 2q-65 140 -111 188l-172 -91l-41 55l172 91z" />
    <glyph glyph-name="ntilde" unicode="&#xf1;" horiz-adv-x="523" 
d="M226 468l-10 -63h2q55 77 153 77q140 0 140 -138q0 -27 -6 -65l-44 -279h-90l42 268q6 38 6 56q0 78 -87 78q-77 0 -112 -62q-20 -35 -34 -125l-34 -215h-90l74 468h90zM209 573v0l-41 40l4 5q61 76 120 76q31 0 84 -26.5t69 -26.5q34 0 71 48l41 -39q-53 -82 -131 -82
q-26 0 -77.5 25.5t-75.5 25.5q-35 0 -64 -46z" />
    <glyph glyph-name="ograve" unicode="&#xf2;" horiz-adv-x="540" 
d="M346 482q94 0 154 -57.5t60 -150.5q0 -130 -103 -218q-84 -72 -190 -72q-94 0 -153.5 57t-59.5 151q0 129 103 218q84 72 189 72zM333 396q-77 0 -132.5 -56t-55.5 -133q0 -59 38.5 -98t97.5 -39q77 0 132.5 56t55.5 133q0 59 -38.5 98t-97.5 39zM361 609l-15 -44
l-161 138l57 47z" />
    <glyph glyph-name="oacute" unicode="&#xf3;" horiz-adv-x="540" 
d="M346 482q94 0 154 -57.5t60 -150.5q0 -130 -103 -218q-84 -72 -190 -72q-94 0 -153.5 57t-59.5 151q0 129 103 218q84 72 189 72zM333 396q-77 0 -132.5 -56t-55.5 -133q0 -59 38.5 -98t97.5 -39q77 0 132.5 56t55.5 133q0 59 -38.5 98t-97.5 39zM449 751l57 -47
l-160 -138l-16 44z" />
    <glyph glyph-name="ocircumflex" unicode="&#xf4;" horiz-adv-x="540" 
d="M346 482q94 0 154 -57.5t60 -150.5q0 -130 -103 -218q-84 -72 -190 -72q-94 0 -153.5 57t-59.5 151q0 129 103 218q84 72 189 72zM333 396q-77 0 -132.5 -56t-55.5 -133q0 -59 38.5 -98t97.5 -39q77 0 132.5 56t55.5 133q0 59 -38.5 98t-97.5 39zM234 563l139 110
l104 -110l-49 -34l-66 72l-89 -72z" />
    <glyph glyph-name="otilde" unicode="&#xf5;" horiz-adv-x="540" 
d="M346 482q94 0 154 -57.5t60 -150.5q0 -130 -103 -218q-84 -72 -190 -72q-94 0 -153.5 57t-59.5 151q0 129 103 218q84 72 189 72zM333 396q-77 0 -132.5 -56t-55.5 -133q0 -59 38.5 -98t97.5 -39q77 0 132.5 56t55.5 133q0 59 -38.5 98t-97.5 39zM261 566l-25 27l6 4
q58 54 100 55q20 0 57.5 -18t43.5 -18q26 1 61 36l25 -25q-56 -61 -111 -62q-16 0 -51 18t-50 18q-26 0 -56 -35z" />
    <glyph glyph-name="odieresis" unicode="&#xf6;" horiz-adv-x="540" 
d="M346 482q94 0 154 -57.5t60 -150.5q0 -22 -3 -41q-17 -106 -100 -177.5t-190 -71.5q-94 0 -153.5 57.5t-59.5 150.5q0 22 3 41q17 106 99.5 177.5t189.5 71.5zM333 396q-75 0 -131.5 -56.5t-56.5 -131.5q0 -59 38.5 -98.5t97.5 -39.5q76 0 132 56.5t56 132.5
q0 59 -38.5 98t-97.5 39zM275 694q25 0 39.5 -17.5t10.5 -42.5t-24 -43t-45 -18q-26 0 -41 17.5t-11 43.5q4 25 24.5 42.5t46.5 17.5zM486 694q25 0 39.5 -17.5t10.5 -42.5t-24 -43t-45 -18q-26 0 -41 17.5t-11 43.5q4 25 24.5 42.5t46.5 17.5z" />
    <glyph glyph-name="divide" unicode="&#xf7;" 
d="M67 213l13 86h512l-13 -86h-512zM309 124q26 0 41 -18.5t11 -44.5q-4 -25 -25 -43t-47 -18t-41 17.5t-11 43.5t25 44.5t47 18.5zM370 512q26 0 41 -18.5t11 -44.5q-4 -25 -25 -43t-47 -18q-25 0 -40.5 18t-11.5 43q4 26 25 44.5t47 18.5z" />
    <glyph glyph-name="oslash" unicode="&#xf8;" horiz-adv-x="540" 
d="M599 459l-75 -64q36 -61 36 -127q0 -116 -88 -200t-205 -84q-93 0 -153 58l-71 -64l-27 31l71 62q-33 60 -33 122q0 128 103 217q83 72 189 72q92 0 150 -58l77 67zM163 134l259 229q-36 33 -89 33q-76 0 -132 -57t-56 -133q0 -36 18 -72zM447 330l-258 -228
q34 -32 92 -32q75 0 131.5 56t56.5 131q0 43 -22 73z" />
    <glyph glyph-name="ugrave" unicode="&#xf9;" horiz-adv-x="512" 
d="M132 468h90l-41 -259q-4 -25 -4 -47q0 -94 90 -94q108 0 130 141l41 259h90l-42 -269q-34 -215 -233 -215q-168 0 -168 161q0 22 5 54zM346 573l-15 -44l-161 138l57 47z" />
    <glyph glyph-name="uacute" unicode="&#xfa;" horiz-adv-x="512" 
d="M132 468h90l-41 -259q-4 -25 -4 -47q0 -94 90 -94q108 0 130 141l41 259h90l-42 -269q-34 -215 -233 -215q-168 0 -168 161q0 22 5 54zM432 714l57 -47l-160 -138l-16 44z" />
    <glyph glyph-name="ucircumflex" unicode="&#xfb;" horiz-adv-x="512" 
d="M132 468h90l-41 -259q-4 -25 -4 -48q0 -93 90 -93q108 0 130 141l41 259h90l-42 -269q-34 -215 -233 -215q-168 0 -168 161q0 22 5 54zM189 589l182 145l138 -145l-66 -46l-87 96l-116 -96z" />
    <glyph glyph-name="udieresis" unicode="&#xfc;" horiz-adv-x="512" 
d="M132 468h90l-41 -259q-4 -25 -4 -48q0 -93 90 -93q108 0 130 141l41 259h90l-42 -269q-34 -215 -233 -215q-168 0 -168 161q0 22 5 54zM261 694q25 0 39.5 -17.5t10.5 -42.5t-24 -43t-45 -18q-26 0 -41 17.5t-11 43.5q4 25 24.5 42.5t46.5 17.5zM472 694q25 0 39.5 -17.5
t10.5 -42.5t-24 -43t-45 -18q-26 0 -41 17.5t-11 43.5q4 25 24.5 42.5t46.5 17.5z" />
    <glyph glyph-name="yacute" unicode="&#xfd;" horiz-adv-x="484" 
d="M214 80l-153 388h105l111 -297l194 297h101l-495 -736h-102zM420 704l57 -47l-160 -138l-16 44z" />
    <glyph glyph-name="thorn" unicode="&#xfe;" horiz-adv-x="556" 
d="M282 868l-75 -478h2q75 92 177 92q86 0 137 -58q48 -54 48 -142q0 -119 -73 -206q-78 -92 -195 -92q-98 0 -144 89h-2l-54 -341h-90l179 1136h90zM298 64q81 0 133 63q49 58 49 141q0 61 -34 97.5t-94 36.5q-77 0 -129 -64q-49 -59 -49 -138q0 -59 33 -97.5t91 -38.5z
" />
    <glyph glyph-name="ydieresis" unicode="&#xff;" horiz-adv-x="484" 
d="M214 80l-153 388h105l111 -297l194 297h101l-495 -736h-102zM247 694q25 0 39.5 -17.5t10.5 -42.5t-24 -43t-45 -18q-26 0 -41 17.5t-11 43.5q4 25 24.5 42.5t46.5 17.5zM458 694q25 0 39.5 -17.5t10.5 -42.5t-24 -43t-45 -18q-26 0 -41 17.5t-11 43.5q4 25 24.5 42.5
t46.5 17.5z" />
    <glyph glyph-name="glyph271" unicode="&#x102;" horiz-adv-x="703" 
d="M555 189h-346l-116 -189h-101l484 786l236 -786h-101zM530 275l-86 305l-182 -305h268zM355 929h57q16 -60 72 -60t92 60h57q-16 -49 -60.5 -81t-96.5 -32q-51 0 -85.5 31t-35.5 82z" />
    <glyph glyph-name="glyph272" unicode="&#x103;" horiz-adv-x="556" 
d="M274 64q81 0 133 63q49 58 49 141q0 61 -34 97.5t-94 36.5q-77 0 -129 -64q-49 -59 -49 -138q0 -60 32.5 -98t91.5 -38zM575 468l-74 -468h-90l12 73h-2q-76 -89 -174 -89q-88 0 -139 58q-48 54 -48 144q0 116 72 203q77 93 191 93q102 0 148 -92h2l12 78h90zM209 649h54
q16 -57 68 -57q53 0 88 57h54q-15 -47 -57 -77t-92 -30q-48 0 -81 29.5t-34 77.5z" />
    <glyph glyph-name="Cacute" unicode="&#x106;" horiz-adv-x="711" 
d="M735 719l-17 -109q-72 74 -188 74q-141 0 -245.5 -108.5t-104.5 -249.5q0 -111 70.5 -183.5t180.5 -72.5q114 0 213 78l-17 -111q-99 -53 -207 -53q-146 0 -241 91.5t-95 236.5q0 29 5 61q26 168 160 282.5t304 114.5q107 0 182 -51zM494 989l76 -44l-187 -149l-40 27z
" />
    <glyph glyph-name="cacute" unicode="&#x107;" horiz-adv-x="441" 
d="M477 451l-18 -116q-45 63 -124 63q-76 0 -130 -59.5t-54 -135.5q0 -62 38 -98.5t100 -36.5q72 0 138 62l-19 -115q-62 -31 -134 -31q-92 0 -153.5 57t-61.5 149q0 130 106 220q85 72 193 72q71 0 119 -31zM295 734l76 -44l-187 -149l-40 27z" />
    <glyph glyph-name="Ccaron" unicode="&#x10c;" horiz-adv-x="711" 
d="M735 719l-17 -109q-72 74 -188 74q-141 0 -245.5 -108.5t-104.5 -249.5q0 -111 70.5 -183.5t180.5 -72.5q114 0 213 78l-17 -111q-99 -53 -207 -53q-146 0 -241 91.5t-95 236.5q0 29 5 61q26 168 160 282.5t304 114.5q107 0 182 -51zM362 943l65 46l86 -96l117 96l52 -46
l-184 -145z" />
    <glyph glyph-name="ccaron" unicode="&#x10d;" horiz-adv-x="441" 
d="M477 451l-18 -116q-45 63 -124 63q-76 0 -130 -59.5t-54 -135.5q0 -62 38 -98.5t100 -36.5q72 0 138 62l-19 -115q-62 -31 -134 -31q-92 0 -153.5 57t-61.5 149q0 130 106 220q85 72 193 72q71 0 119 -31zM163 688l65 46l86 -96l117 96l52 -46l-184 -145z" />
    <glyph glyph-name="Dslash" unicode="&#x110;" horiz-adv-x="665" 
d="M135 450l48 304h156q160 0 258 -70q112 -80 112 -234q0 -31 -6 -69q-29 -184 -166 -285q-129 -96 -320 -96h-153l57 362h-64l14 88h64zM264 668l-35 -218h134l-14 -88h-134l-43 -276h33q162 0 264 65q116 74 140 226q5 32 5 59q0 232 -317 232h-33z" />
    <glyph glyph-name="dcroat" unicode="&#x111;" horiz-adv-x="556" 
d="M274 64q81 0 133 63q49 58 49 141q0 61 -34 97.5t-94 36.5q-77 0 -129 -64q-49 -59 -49 -138q0 -60 32.5 -98t91.5 -38zM499 560h-177l8 55h178q12 69 40 253h90l-40 -253h56l-8 -55h-57l-88 -560h-90l12 73h-2q-76 -89 -174 -89q-89 0 -139 57q-48 54 -48 144
q0 118 71 205q75 92 191 92q103 0 149 -92h2q14 85 26 170z" />
    <glyph glyph-name="Gbreve" unicode="&#x11e;" horiz-adv-x="767" 
d="M520 380h299l-5 -30q-26 -158 -140 -261q-117 -105 -275 -105q-141 0 -232 94.5t-91 236.5q0 197 163 339q133 116 295 116q87 0 161 -37q78 -39 123 -109l-76 -63q-33 58 -91.5 90.5t-126.5 32.5q-141 0 -247 -105.5t-106 -246.5q0 -109 69 -184q71 -78 179 -78
q93 0 179 67t104 157h-195zM377 949h72q20 -75 90 -75t115 75h71q-21 -62 -76 -101.5t-120 -39.5q-64 0 -107 39t-45 102z" />
    <glyph glyph-name="gbreve" unicode="&#x11f;" horiz-adv-x="492" 
d="M273 64q81 0 133 63q49 58 49 141q0 61 -34 97.5t-94 36.5q-77 0 -129 -64q-49 -59 -49 -138q0 -59 33 -97.5t91 -38.5zM574 468l-73 -459q-21 -133 -77 -199q-67 -78 -194 -78q-86 0 -139 44q-57 47 -57 131q0 18 3 37h90q-2 -13 -2 -26q0 -52 34 -79t87 -27
q78 0 116 50q31 39 45 122l15 89h-2q-75 -89 -174 -89q-89 0 -138.5 56t-49.5 146q0 116 73 203q76 93 190 93q103 0 148 -94h2l13 80h90zM177 694h72q20 -75 90 -75t115 75h71q-21 -62 -76 -101.5t-120 -39.5q-64 0 -107 39t-45 102z" />
    <glyph glyph-name="glyph273" unicode="&#x128;" horiz-adv-x="232" 
d="M282 754l-119 -754h-94l119 754h94zM129 833l-26 28l6 5q70 58 106 58q22 0 61.5 -19t44.5 -19q27 1 64 38l27 -27q-59 -64 -117 -65q-17 0 -54 19t-53 19q-27 0 -59 -37z" />
    <glyph glyph-name="glyph274" unicode="&#x129;" horiz-adv-x="254" 
d="M246 468l-74 -468h-90l74 468h90zM99 538l-25 27l6 4q58 54 100 55q20 0 57.5 -18t43.5 -18q26 1 61 36l25 -25q-56 -61 -111 -62q-16 0 -51 18t-50 18q-26 0 -56 -35z" />
    <glyph glyph-name="Idotaccent" unicode="&#x130;" horiz-adv-x="429" 
d="M282 754l-119 -754h-94l119 754h94zM318 949q25 0 39.5 -17.5t10.5 -42.5t-24 -43t-45 -18q-26 0 -41 17.5t-11 43.5q4 25 24.5 42.5t46.5 17.5z" />
    <glyph glyph-name="dotlessi" unicode="&#x131;" horiz-adv-x="254" 
d="M246 468l-74 -468h-90l74 468h90z" />
    <glyph glyph-name="Lslash" unicode="&#x141;" horiz-adv-x="385" 
d="M285 754l-45 -284l132 83l-16 -96l-130 -79l-46 -292h229l-14 -86h-323l51 320l-91 -58l16 97l89 54l54 341h94z" />
    <glyph glyph-name="lslash" unicode="&#x142;" horiz-adv-x="255" 
d="M316 868l-50 -316l93 64l-15 -94l-92 -61l-73 -461h-90l65 412l-90 -61l14 93l90 57l58 367h90z" />
    <glyph glyph-name="OE" unicode="&#x152;" horiz-adv-x="1143" 
d="M718 0l20 126h-2q-127 -142 -325 -142q-147 0 -242 91t-95 237q0 202 164 344q134 116 298 114q88 -1 160 -37q80 -39 119 -111h2l20 132h395l-13 -86h-310l-34 -211h301l-13 -86h-301l-45 -285h310l-14 -86h-395zM425 72q141 0 247.5 107.5t106.5 248.5
q0 113 -71.5 183.5t-185.5 70.5q-131 0 -230 -87.5t-119 -217.5q-4 -26 -4 -49q0 -112 72 -184t184 -72z" />
    <glyph glyph-name="oe" unicode="&#x153;" horiz-adv-x="897" 
d="M574 287h262q0 54 -28.5 85.5t-81.5 31.5q-52 0 -93.5 -33t-58.5 -84zM333 396q-75 0 -131.5 -56.5t-56.5 -131.5q0 -59 38.5 -98.5t97.5 -39.5q76 0 132 56.5t56 132.5q0 59 -38.5 98t-97.5 39zM917 219h-357q-2 -13 -2 -26q0 -55 32 -92t86 -37q85 0 155 91l69 -43
q-92 -128 -238 -128q-58 0 -105 25q-52 28 -73 78q-86 -103 -217 -103q-94 0 -153.5 57.5t-59.5 150.5q0 22 3 41q17 106 100 178t189 71q57 -1 108 -28.5t76 -76.5q81 103 209 105q90 1 137.5 -50t47.5 -141q0 -23 -5 -58z" />
    <glyph glyph-name="Scedilla" unicode="&#x15e;" horiz-adv-x="656" 
d="M586 656l-82 -45q-31 71 -110 71q-54 0 -97 -33q-47 -35 -47 -87q0 -58 89 -95l51 -21q154 -63 154 -186q0 -127 -98 -209q-80 -67 -184 -67q-92 0 -147 59.5t-52 151.5l98 20q-2 -13 -2 -25q0 -53 35.5 -85.5t89.5 -32.5q66 0 115 51t49 117q0 45 -34 77q-22 21 -75 45
l-48 22q-136 62 -136 161q0 17 2 30q13 88 90 143q71 52 163 52q130 0 176 -114zM276 -46l-127 -135l-48 27l108 137z" />
    <glyph glyph-name="scedilla" unicode="&#x15f;" horiz-adv-x="383" 
d="M386 400l-79 -39q-13 41 -53 41q-20 0 -37 -13.5t-20 -32.5q-5 -32 51 -64q28 -14 83 -42q51 -35 51 -89q0 -78 -66 -132q-55 -45 -122 -45q-52 0 -93 28t-52 77l83 35q23 -60 75 -60q30 0 54 18.5t28 47.5t-25 51l-81 47q-73 42 -73 96q0 70 58 119q46 39 103 39
q88 0 115 -82zM179 -46l-127 -135l-48 27l108 137z" />
    <glyph glyph-name="Scaron" unicode="&#x160;" horiz-adv-x="537" 
d="M586 656l-82 -45q-31 71 -110 71q-54 0 -97 -33q-47 -35 -47 -87q0 -58 89 -95l51 -21q154 -63 154 -186q0 -127 -98 -209q-80 -67 -184 -67q-92 0 -147 59.5t-52 151.5l98 20q-2 -13 -2 -25q0 -53 35.5 -85.5t89.5 -32.5q66 0 115 51t49 117q0 45 -34 77q-22 21 -75 45
l-48 22q-136 62 -136 161q0 17 2 30q13 88 90 143q71 52 163 52q130 0 176 -114zM263 974l65 46l86 -96l117 96l52 -46l-184 -145z" />
    <glyph glyph-name="scaron" unicode="&#x161;" horiz-adv-x="384" 
d="M386 400l-79 -39q-13 41 -53 41q-20 0 -37 -13.5t-20 -32.5q-5 -32 51 -64q28 -14 83 -42q51 -35 51 -89q0 -78 -66 -132q-55 -45 -122 -45q-52 0 -93 28t-52 77l83 35q23 -60 75 -60q30 0 54 18.5t28 47.5t-25 51l-81 47q-73 42 -73 96q0 70 58 119q46 39 103 39
q88 0 115 -82zM141 688l65 46l86 -96l117 96l52 -46l-184 -145z" />
    <glyph glyph-name="ch903" unicode="&#x168;" horiz-adv-x="669" 
d="M178 754h94l-70 -445q-6 -38 -6 -74q0 -163 150 -163q183 0 220 237l70 445h94l-75 -477q-20 -129 -106 -209q-89 -84 -217 -84q-108 0 -171 63t-63 171q0 27 5 59zM341 805l-26 28l6 5q70 58 106 58q22 0 61.5 -19t44.5 -19q27 1 64 38l27 -27q-59 -64 -117 -65
q-17 0 -54 19t-53 19q-27 0 -59 -37z" />
    <glyph glyph-name="ch904" unicode="&#x169;" horiz-adv-x="512" 
d="M132 468h90l-41 -259q-4 -25 -4 -47q0 -94 90 -94q108 0 130 141l41 259h90l-42 -269q-34 -215 -233 -215q-168 0 -168 161q0 22 5 54zM210 543l-25 27l6 4q58 54 100 55q20 0 57.5 -18t43.5 -18q26 1 61 36l25 -25q-56 -61 -111 -62q-16 0 -51 18t-50 18q-26 0 -56 -35z
" />
    <glyph glyph-name="Ydieresis" unicode="&#x178;" horiz-adv-x="573" 
d="M292 328l-179 426h108l134 -322l236 322h108l-313 -426l-52 -328h-94zM337 980q25 0 39.5 -17.5t10.5 -42.5t-24 -43t-45 -18q-26 0 -41 17.5t-11 43.5q4 25 24.5 42.5t46.5 17.5zM548 980q25 0 39.5 -17.5t10.5 -42.5t-24 -43t-45 -18q-26 0 -41 17.5t-11 43.5
q4 25 24.5 42.5t46.5 17.5z" />
    <glyph glyph-name="Zcaron" unicode="&#x17d;" horiz-adv-x="552" 
d="M176 86h382l-14 -86h-535l488 668h-328l13 86h481zM270 974l65 46l86 -96l117 96l52 -46l-184 -145z" />
    <glyph glyph-name="zcaron" unicode="&#x17e;" horiz-adv-x="495" 
d="M190 84h304l-13 -84h-479l378 384h-263l13 84h438zM197 688l65 46l86 -96l117 96l52 -46l-184 -145z" />
    <glyph glyph-name="florin" unicode="&#x192;" 
d="M435 505h129l-20 -68h-131l-103 -303q-50 -148 -96 -202q-69 -81 -200 -81h-24l29 86h19q77 0 120 59q24 32 57 133l102 308h-65l20 68h70l41 124q34 103 78 148q57 59 151 59q34 0 59 -7l-29 -84q-17 7 -40 7q-54 0 -85 -42q-18 -24 -42 -92z" />
    <glyph glyph-name="glyph277" unicode="&#x1a0;" horiz-adv-x="828" 
d="M425 72q143 0 248.5 107t105.5 249q0 115 -71 184.5t-186 69.5q-145 0 -249 -105t-104 -250q0 -113 71.5 -184t184.5 -71zM677 742l113 7q37 17 37 39q0 13 -13.5 22t-27.5 9l47 28q20 -1 43 -14q17 -14 17 -37q0 -47 -79 -78q-33 -13 -64 -19q124 -98 124 -261
q0 -30 -5 -61q-27 -168 -157.5 -280.5t-300.5 -112.5q-148 0 -242.5 90.5t-94.5 237.5q0 200 165 343q133 115 297 115q76 0 141 -28z" />
    <glyph glyph-name="glyph278" unicode="&#x1a1;" horiz-adv-x="540" 
d="M333 396q-77 0 -132.5 -56t-55.5 -133q0 -59 38.5 -98t97.5 -39q77 0 132.5 56t55.5 133q0 59 -38.5 98t-97.5 39zM439 464l76 -8q12 -1 18.5 12t6.5 26q0 12 -6 15q-7 2 -32 0l33 31q60 6 60 -42q0 -14 -10 -28q-14 -20 -91 -41q66 -59 66 -155q0 -22 -3 -41
q-17 -107 -99.5 -178t-190.5 -71q-94 0 -153.5 57t-59.5 151q0 129 103 218q84 72 189 72q49 0 93 -18z" />
    <glyph glyph-name="glyph279" unicode="&#x1af;" horiz-adv-x="669" 
d="M724 717l-69 -440q-20 -129 -106 -209q-89 -84 -217 -84q-108 0 -171 63t-63 171q0 27 5 59l75 477h94l-70 -445q-6 -38 -6 -74q0 -163 150 -163q183 0 220 237l70 445l93 -8q27 19 27 40q0 14 -17.5 21.5t-31.5 4.5l38 35q23 2 42 -5q30 -15 30 -46t-32 -54
q-26 -19 -61 -25z" />
    <glyph glyph-name="glyph280" unicode="&#x1b0;" horiz-adv-x="512" 
d="M537 509q-7 2 -32 0l33 31q59 6 59 -41q0 -53 -75 -71q-9 -65 -28 -196q-18 -113 -66 -173q-60 -75 -175 -75q-168 0 -168 161q0 22 5 54l42 269h90l-41 -259q-4 -25 -4 -47q0 -94 90 -94q108 0 130 141l41 259l80 -12q11 -2 18 12q7 11 7 26q0 12 -6 15z" />
    <glyph glyph-name="circumflex" unicode="&#x2c6;" horiz-adv-x="470" 
d="M168 589l182 145l138 -145l-66 -46l-87 96l-116 -96z" />
    <glyph glyph-name="caron" unicode="&#x2c7;" horiz-adv-x="472" 
d="M185 688l65 46l86 -96l117 96l52 -46l-184 -145z" />
    <glyph glyph-name="breve" unicode="&#x2d8;" horiz-adv-x="490" 
d="M181 694h72q20 -75 90 -75t115 75h71q-21 -62 -76 -101.5t-120 -39.5q-64 0 -107 39t-45 102z" />
    <glyph glyph-name="dotaccent" unicode="&#x2d9;" horiz-adv-x="360" 
d="M291 694q25 0 39.5 -17.5t10.5 -42.5t-24 -43t-45 -18q-26 0 -41 17.5t-11 43.5q4 25 24.5 42.5t46.5 17.5z" />
    <glyph glyph-name="ring" unicode="&#x2da;" horiz-adv-x="360" 
d="M296 734q34 0 56 -21.5t22 -55.5q0 -42 -32 -73t-74 -31q-34 0 -55.5 21t-21.5 55q0 41 32 73t73 32zM275 598q19 0 34.5 13t18.5 32t-8.5 32.5t-30.5 13.5t-34 -13.5t-18 -32.5t8 -32t30 -13z" />
    <glyph glyph-name="ogonek" unicode="&#x2db;" horiz-adv-x="340" 
d="M162 -16h46v-2q-67 -41 -74 -85q-8 -47 48 -47q31 0 52 13l-16 -58q-29 -17 -67 -17q-35 0 -60 17q-29 20 -29 53q0 71 100 126z" />
    <glyph glyph-name="tilde" unicode="&#x2dc;" horiz-adv-x="510" 
d="M202 573v0l-41 40l4 5q61 76 120 76q31 0 84 -26.5t69 -26.5q34 0 71 48l41 -39q-53 -82 -131 -82q-26 0 -77.5 25.5t-75.5 25.5q-35 0 -64 -46z" />
    <glyph glyph-name="hungarumlaut" unicode="&#x2dd;" horiz-adv-x="470" 
d="M464 725l76 -44l-188 -149l-39 27zM279 734l76 -44l-187 -149l-40 27z" />
    <glyph glyph-name="glyph281" unicode="&#x1ea0;" horiz-adv-x="703" 
d="M555 189h-346l-116 -189h-101l484 786l236 -786h-101zM530 275l-86 305l-182 -305h268zM357 -20q22 0 34.5 -15t9.5 -37t-21 -37t-40 -15t-34 15t-9 37t20.5 37t39.5 15z" />
    <glyph glyph-name="glyph282" unicode="&#x1ea1;" horiz-adv-x="556" 
d="M274 64q81 0 133 63q49 58 49 141q0 61 -34 97.5t-94 36.5q-77 0 -129 -64q-49 -59 -49 -138q0 -60 32.5 -98t91.5 -38zM575 468l-74 -468h-90l12 73h-2q-76 -89 -174 -89q-88 0 -139 58q-48 54 -48 144q0 116 72 203q77 93 191 93q102 0 148 -92h2l12 78h90zM258 -65
q20 0 32 -14.5t9 -34.5q-3 -21 -20 -35t-38 -14t-32 14t-8 35q3 20 19.5 34.5t37.5 14.5z" />
    <glyph glyph-name="glyph283" unicode="&#x1ea2;" horiz-adv-x="703" 
d="M555 189h-346l-116 -189h-101l484 786l236 -786h-101zM530 275l-86 305l-182 -305h268zM553 948q2 11 -6.5 18.5t-19.5 7.5q-22 0 -28 -29h-33q3 24 26 44.5t47 20.5q25 0 45.5 -18.5t16.5 -43.5q-7 -44 -64 -61q-55 -23 -61 -55q0 8 -4 24t-4 24q0 17 18 27q30 11 39 15
q25 12 28 26z" />
    <glyph glyph-name="glyph284" unicode="&#x1ea3;" horiz-adv-x="556" 
d="M274 64q81 0 133 63q49 58 49 141q0 61 -34 97.5t-94 36.5q-77 0 -129 -64q-49 -59 -49 -138q0 -60 32.5 -98t91.5 -38zM575 468l-74 -468h-90l12 73h-2q-76 -89 -174 -89q-88 0 -139 58q-48 54 -48 144q0 116 72 203q77 93 191 93q102 0 148 -92h2l12 78h90zM400 665
q2 11 -6.5 18.5t-19.5 7.5q-22 0 -28 -29h-33q3 24 26 44.5t47 20.5t45 -18t18 -42q-7 -47 -68 -65q-53 -22 -58 -53q0 8 -4 24t-4 24q0 17 18 27q30 11 39 15q25 12 28 26z" />
    <glyph glyph-name="glyph285" unicode="&#x1ea4;" horiz-adv-x="703" 
d="M555 189h-346l-116 -189h-101l484 786l236 -786h-101zM530 275l-86 305l-182 -305h268zM342 842l146 116l110 -116l-52 -36l-70 76l-93 -76zM706 1077l60 -50l-169 -145l-16 46z" />
    <glyph glyph-name="glyph286" unicode="&#x1ea5;" horiz-adv-x="556" 
d="M274 64q81 0 133 63q49 58 49 141q0 61 -34 97.5t-94 36.5q-77 0 -129 -64q-49 -59 -49 -138q0 -60 32.5 -98t91.5 -38zM575 468l-74 -468h-90l12 73h-2q-76 -89 -174 -89q-88 0 -139 58q-48 54 -48 144q0 116 72 203q77 93 191 93q102 0 148 -92h2l12 78h90zM229 563
l139 110l104 -110l-49 -34l-66 72l-89 -72zM575 786l57 -47l-160 -138l-16 44z" />
    <glyph glyph-name="glyph287" unicode="&#x1ea6;" horiz-adv-x="703" 
d="M555 189h-346l-116 -189h-101l484 786l236 -786h-101zM530 275l-86 305l-182 -305h268zM342 842l146 116l110 -116l-52 -36l-70 76l-93 -76zM359 928l-16 -46l-169 145l60 50z" />
    <glyph glyph-name="glyph288" unicode="&#x1ea7;" horiz-adv-x="556" 
d="M274 64q81 0 133 63q49 58 49 141q0 61 -34 97.5t-94 36.5q-77 0 -129 -64q-49 -59 -49 -138q0 -60 32.5 -98t91.5 -38zM575 468l-74 -468h-90l12 73h-2q-76 -89 -174 -89q-88 0 -139 58q-48 54 -48 144q0 116 72 203q77 93 191 93q102 0 148 -92h2l12 78h90zM231 563
l138 110l105 -110l-50 -34l-66 72l-88 -72zM247 645l-15 -44l-161 138l57 47z" />
    <glyph glyph-name="glyph289" unicode="&#x1ea8;" horiz-adv-x="703" 
d="M555 189h-346l-116 -189h-101l484 786l236 -786h-101zM530 275l-86 305l-182 -305h268zM342 842l146 116l110 -116l-52 -36l-70 76l-93 -76zM675 998q2 11 -6.5 18.5t-19.5 7.5q-22 0 -28 -29h-33q3 24 26 44.5t47 20.5q25 0 45.5 -18.5t16.5 -43.5q-7 -44 -64 -61
q-55 -23 -61 -55q0 8 -4 24t-4 24q0 17 18 27q30 11 39 15q25 12 28 26z" />
    <glyph glyph-name="glyph290" unicode="&#x1ea9;" horiz-adv-x="556" 
d="M274 64q81 0 133 63q49 58 49 141q0 61 -34 97.5t-94 36.5q-77 0 -129 -64q-49 -59 -49 -138q0 -60 32.5 -98t91.5 -38zM575 468l-74 -468h-90l12 73h-2q-76 -89 -174 -89q-88 0 -139 58q-48 54 -48 144q0 116 72 203q77 93 191 93q102 0 148 -92h2l12 78h90zM231 563
l138 110l105 -110l-50 -34l-66 72l-89 -72zM557 718q2 11 -6.5 18.5t-19.5 7.5q-22 0 -28 -29h-33q3 24 26 44.5t47 20.5t45 -18t18 -42q-7 -47 -68 -65q-53 -22 -58 -53q0 8 -4 24t-4 24q0 17 18 27q30 11 39 15q25 12 28 26z" />
    <glyph glyph-name="glyph291" unicode="&#x1eaa;" horiz-adv-x="703" 
d="M555 189h-346l-116 -189h-101l484 786l236 -786h-101zM530 275l-86 305l-182 -305h268zM342 842l146 116l110 -116l-52 -36l-70 76l-93 -76zM368 992l-26 28l6 5q70 58 106 58q22 0 61.5 -19t44.5 -19q27 1 64 38l27 -27q-59 -64 -117 -65q-17 0 -54 19t-53 19
q-27 0 -59 -37z" />
    <glyph glyph-name="glyph292" unicode="&#x1eab;" horiz-adv-x="556" 
d="M274 64q81 0 133 63q49 58 49 141q0 61 -34 97.5t-94 36.5q-77 0 -129 -64q-49 -59 -49 -138q0 -60 32.5 -98t91.5 -38zM575 468l-74 -468h-90l12 73h-2q-76 -89 -174 -89q-88 0 -139 58q-48 54 -48 144q0 116 72 203q77 93 191 93q102 0 148 -92h2l12 78h90zM230 563
l138 110l105 -110l-49 -35l-67 73l-88 -73zM255 705l-25 27l6 4q58 54 100 55q20 0 57.5 -18t43.5 -18q26 1 61 36l25 -25q-56 -61 -111 -62q-16 0 -51 18t-50 18q-26 0 -56 -35z" />
    <glyph glyph-name="glyph293" unicode="&#x1eac;" horiz-adv-x="703" 
d="M555 189h-346l-116 -189h-101l484 786l236 -786h-101zM530 275l-86 305l-182 -305h268zM342 842l146 116l110 -116l-52 -36l-70 76l-93 -76zM357 -20q22 0 34.5 -15t9.5 -37t-21 -37t-40 -15t-34 15t-9 37t20.5 37t39.5 15z" />
    <glyph glyph-name="glyph294" unicode="&#x1ead;" horiz-adv-x="556" 
d="M274 64q81 0 133 63q49 58 49 141q0 61 -34 97.5t-94 36.5q-77 0 -129 -64q-49 -59 -49 -138q0 -60 32.5 -98t91.5 -38zM575 468l-74 -468h-90l12 73h-2q-76 -89 -174 -89q-88 0 -139 58q-48 54 -48 144q0 116 72 203q77 93 191 93q102 0 148 -92h2l12 78h90zM229 563
l139 110l104 -110l-49 -34l-66 72l-89 -72zM258 -65q20 0 32 -14.5t9 -34.5q-3 -21 -20 -35t-38 -14t-32 14t-8 35q3 20 19.5 34.5t37.5 14.5z" />
    <glyph glyph-name="glyph295" unicode="&#x1eae;" horiz-adv-x="703" 
d="M555 189h-346l-116 -189h-101l484 786l236 -786h-101zM530 275l-86 305l-182 -305h268zM355 929h57q16 -60 72 -60t92 60h57q-16 -49 -60.5 -81t-96.5 -32q-51 0 -85.5 31t-35.5 82zM593 1124l60 -50l-169 -145l-16 46z" />
    <glyph glyph-name="glyph296" unicode="&#x1eaf;" horiz-adv-x="556" 
d="M274 64q81 0 133 63q49 58 49 141q0 61 -34 97.5t-94 36.5q-77 0 -129 -64q-49 -59 -49 -138q0 -60 32.5 -98t91.5 -38zM575 468l-74 -468h-90l12 73h-2q-76 -89 -174 -89q-88 0 -139 58q-48 54 -48 144q0 116 72 203q77 93 191 93q102 0 148 -92h2l12 78h90zM209 649h54
q16 -57 68 -57q53 0 88 57h54q-15 -47 -57 -77t-92 -30q-48 0 -81 29.5t-34 77.5zM435 844l57 -47l-161 -138l-15 44z" />
    <glyph glyph-name="glyph297" unicode="&#x1eb0;" horiz-adv-x="703" 
d="M555 189h-346l-116 -189h-101l484 786l236 -786h-101zM530 275l-86 305l-182 -305h268zM355 929h57q16 -60 72 -60t92 60h57q-16 -49 -60.5 -81t-96.5 -32q-51 0 -85.5 31t-35.5 82zM500 976l-16 -46l-169 145l60 50z" />
    <glyph glyph-name="glyph298" unicode="&#x1eb1;" horiz-adv-x="556" 
d="M274 64q81 0 133 63q49 58 49 141q0 61 -34 97.5t-94 36.5q-77 0 -129 -64q-49 -59 -49 -138q0 -60 32.5 -98t91.5 -38zM575 468l-74 -468h-90l12 73h-2q-76 -89 -174 -89q-88 0 -139 58q-48 54 -48 144q0 116 72 203q77 93 191 93q102 0 148 -92h2l12 78h90zM209 649h54
q16 -57 69 -57q52 0 87 57h54q-16 -47 -57.5 -77t-91.5 -30q-48 0 -81 29.5t-34 77.5zM347 704l-15 -44l-161 138l57 47z" />
    <glyph glyph-name="glyph299" unicode="&#x1eb2;" horiz-adv-x="703" 
d="M555 189h-346l-116 -189h-101l484 786l236 -786h-101zM530 275l-86 305l-182 -305h268zM355 929h57q16 -60 72 -60t92 60h57q-16 -49 -60.5 -81t-96.5 -32q-51 0 -85.5 31t-35.5 82zM561 1044q2 11 -6.5 18.5t-19.5 7.5q-22 0 -28 -29h-33q3 24 26 44.5t47 20.5
q25 0 45.5 -18.5t16.5 -43.5q-7 -44 -64 -61q-55 -23 -61 -55q0 8 -4 24t-4 24q0 17 18 27q30 11 39 15q25 12 28 26z" />
    <glyph glyph-name="glyph300" unicode="&#x1eb3;" horiz-adv-x="556" 
d="M274 64q81 0 133 63q49 58 49 141q0 61 -34 97.5t-94 36.5q-77 0 -129 -64q-49 -59 -49 -138q0 -60 32.5 -98t91.5 -38zM575 468l-74 -468h-90l12 73h-2q-76 -89 -174 -89q-88 0 -139 58q-48 54 -48 144q0 116 72 203q77 93 191 93q102 0 148 -92h2l12 78h90zM208 650h54
q14 -57 68 -57t88 57h54q-16 -47 -58 -77.5t-91 -30.5q-48 0 -81 30t-34 78zM407 774q2 11 -6.5 18.5t-19.5 7.5q-22 0 -28 -29h-33q3 24 26 44.5t47 20.5t45 -18t18 -42q-7 -47 -68 -65q-53 -22 -58 -53q0 8 -4 24t-4 24q0 17 18 27q30 11 39 15q25 12 28 26z" />
    <glyph glyph-name="glyph301" unicode="&#x1eb4;" horiz-adv-x="703" 
d="M555 189h-346l-116 -189h-101l484 786l236 -786h-101zM530 275l-86 305l-182 -305h268zM355 929h57q16 -60 72 -60t92 60h57q-16 -49 -60.5 -81t-96.5 -32q-51 0 -85.5 31t-35.5 82zM510 970l-26 28l6 5q70 58 106 58q22 0 61.5 -19t44.5 -19q27 1 64 38l27 -27
q-59 -64 -117 -65q-17 0 -54 19t-53 19q-27 0 -59 -37z" />
    <glyph glyph-name="glyph302" unicode="&#x1eb5;" horiz-adv-x="556" 
d="M274 64q81 0 133 63q49 58 49 141q0 61 -34 97.5t-94 36.5q-77 0 -129 -64q-49 -59 -49 -138q0 -60 32.5 -98t91.5 -38zM575 468l-74 -468h-90l12 73h-2q-76 -89 -174 -89q-88 0 -139 58q-48 54 -48 144q0 116 72 203q77 93 191 93q102 0 148 -92h2l12 78h90zM208 649h54
q16 -57 69 -57q52 0 87 57h54q-16 -46 -58 -76.5t-91 -30.5q-48 0 -81 29.5t-34 77.5zM355 688l-24 27l5 5q54 54 101 55q23 0 57 -17q27 -19 44 -19q24 0 60 36l26 -26q-56 -61 -111 -62q-16 0 -51.5 18t-50.5 18q-23 0 -56 -35z" />
    <glyph glyph-name="glyph303" unicode="&#x1eb6;" horiz-adv-x="703" 
d="M555 189h-346l-116 -189h-101l484 786l236 -786h-101zM530 275l-86 305l-182 -305h268zM355 929h57q16 -60 72 -60t92 60h57q-16 -49 -60.5 -81t-96.5 -32q-51 0 -85.5 31t-35.5 82zM357 -20q22 0 34.5 -15t9.5 -37t-21 -37t-40 -15t-34 15t-9 37t20.5 37t39.5 15z" />
    <glyph glyph-name="glyph304" unicode="&#x1eb7;" horiz-adv-x="556" 
d="M274 64q81 0 133 63q49 58 49 141q0 61 -34 97.5t-94 36.5q-77 0 -129 -64q-49 -59 -49 -138q0 -60 32.5 -98t91.5 -38zM575 468l-74 -468h-90l12 73h-2q-76 -89 -174 -89q-88 0 -139 58q-48 54 -48 144q0 116 72 203q77 93 191 93q102 0 148 -92h2l12 78h90zM258 -65
q20 0 32 -14.5t9 -34.5q-3 -21 -20 -35t-38 -14t-32 14t-8 35q3 20 19.5 34.5t37.5 14.5zM209 649h54q16 -57 68 -57q53 0 88 57h54q-15 -47 -57 -77t-92 -30q-48 0 -81 29.5t-34 77.5z" />
    <glyph glyph-name="glyph305" unicode="&#x1eb8;" horiz-adv-x="521" 
d="M72 0l119 754h405l-13 -86h-311l-34 -211h302l-13 -86h-302l-45 -285h311l-14 -86h-405zM291 -40q22 0 34.5 -15t9.5 -37t-21 -37t-40 -15t-34 15t-9 37t20.5 37t39.5 15z" />
    <glyph glyph-name="glyph306" unicode="&#x1eb9;" horiz-adv-x="488" 
d="M508 219h-357q-2 -13 -2 -27q0 -55 32 -91.5t86 -36.5q85 0 155 91l69 -43q-41 -59 -104 -93.5t-134 -34.5q-90 0 -142.5 54t-52.5 144q0 23 4 48q18 113 85 180q72 72 183 72q90 0 137 -51.5t47 -142.5q0 -27 -4 -55zM166 287h262q1 54 -28 85.5t-82 31.5
q-52 0 -93.5 -33t-58.5 -84zM248 -65q20 0 32 -14.5t9 -34.5q-3 -21 -20 -35t-38 -14t-32 14t-8 35q3 20 19.5 34.5t37.5 14.5z" />
    <glyph glyph-name="glyph307" unicode="&#x1eba;" horiz-adv-x="521" 
d="M72 0l119 754h405l-13 -86h-311l-34 -211h302l-13 -86h-302l-45 -285h311l-14 -86h-405zM469 948q2 11 -6.5 18.5t-19.5 7.5q-22 0 -28 -29h-33q3 24 26 44.5t47 20.5q25 0 45.5 -18.5t16.5 -43.5q-7 -44 -64 -61q-55 -23 -61 -55q0 8 -4 24t-4 24q0 17 18 27
q30 11 39 15q25 12 28 26z" />
    <glyph glyph-name="glyph308" unicode="&#x1ebb;" horiz-adv-x="488" 
d="M508 219h-357q-2 -13 -2 -27q0 -55 32 -91.5t86 -36.5q85 0 155 91l69 -43q-41 -59 -104 -93.5t-134 -34.5q-90 0 -142.5 54t-52.5 144q0 23 4 48q18 113 85 180q72 72 183 72q90 0 137 -51.5t47 -142.5q0 -27 -4 -55zM166 287h262q1 54 -28 85.5t-82 31.5
q-52 0 -93.5 -33t-58.5 -84zM406 665q2 11 -6.5 18.5t-19.5 7.5q-22 0 -28 -29h-33q3 24 26 44.5t47 20.5t45 -18t18 -42q-7 -47 -68 -65q-53 -22 -58 -53q0 8 -4 24t-4 24q0 17 18 27q30 11 39 15q25 12 28 26z" />
    <glyph glyph-name="glyph309" unicode="&#x1ebc;" horiz-adv-x="521" 
d="M72 0l119 754h405l-13 -86h-311l-34 -211h302l-13 -86h-302l-45 -285h311l-14 -86h-405zM283 848l-26 28l6 5q70 58 106 58q22 0 61.5 -19t44.5 -19q27 1 64 38l27 -27q-59 -64 -117 -65q-17 0 -54 19t-53 19q-27 0 -59 -37z" />
    <glyph glyph-name="glyph310" unicode="&#x1ebd;" horiz-adv-x="488" 
d="M508 219h-357q-2 -13 -2 -27q0 -55 32 -91.5t86 -36.5q85 0 155 91l69 -43q-41 -59 -104 -93.5t-134 -34.5q-90 0 -142.5 54t-52.5 144q0 23 4 48q18 113 85 180q72 72 183 72q90 0 137 -51.5t47 -142.5q0 -27 -4 -55zM166 287h262q1 54 -28 85.5t-82 31.5
q-52 0 -93.5 -33t-58.5 -84zM251 566l-25 27l6 4q58 54 100 55q20 0 57.5 -18t43.5 -18q26 1 61 36l25 -25q-56 -61 -111 -62q-16 0 -51 18t-50 18q-26 0 -56 -35z" />
    <glyph glyph-name="glyph311" unicode="&#x1ebe;" horiz-adv-x="521" 
d="M72 0l119 754h405l-13 -86h-311l-34 -211h302l-13 -86h-302l-45 -285h311l-14 -86h-405zM266 829l146 116l110 -116l-52 -36l-70 76l-93 -76zM630 1064l60 -50l-169 -145l-16 46z" />
    <glyph glyph-name="glyph312" unicode="&#x1ebf;" horiz-adv-x="488" 
d="M508 219h-357q-2 -13 -2 -27q0 -55 32 -91.5t86 -36.5q85 0 155 91l69 -43q-41 -59 -104 -93.5t-134 -34.5q-90 0 -142.5 54t-52.5 144q0 23 4 48q18 113 85 180q72 72 183 72q90 0 137 -51.5t47 -142.5q0 -27 -4 -55zM166 287h262q1 54 -28 85.5t-82 31.5
q-52 0 -93.5 -33t-58.5 -84zM224 563l139 110l104 -110l-49 -34l-66 72l-89 -72zM570 786l57 -47l-160 -138l-16 44z" />
    <glyph glyph-name="glyph313" unicode="&#x1ec0;" horiz-adv-x="521" 
d="M72 0l119 754h405l-13 -86h-311l-34 -211h302l-13 -86h-302l-45 -285h311l-14 -86h-405zM266 829l146 116l110 -116l-52 -36l-70 76l-93 -76zM283 915l-16 -46l-169 145l60 50z" />
    <glyph glyph-name="glyph314" unicode="&#x1ec1;" horiz-adv-x="488" 
d="M508 219h-357q-2 -13 -2 -27q0 -55 32 -91.5t86 -36.5q85 0 155 91l69 -43q-41 -59 -104 -93.5t-134 -34.5q-90 0 -142.5 54t-52.5 144q0 23 4 48q18 113 85 180q72 72 183 72q90 0 137 -51.5t47 -142.5q0 -27 -4 -55zM166 287h262q1 54 -28 85.5t-82 31.5
q-52 0 -93.5 -33t-58.5 -84zM226 563l138 110l105 -110l-50 -34l-66 72l-88 -72zM242 645l-15 -44l-161 138l57 47z" />
    <glyph glyph-name="glyph315" unicode="&#x1ec2;" horiz-adv-x="521" 
d="M72 0l119 754h405l-13 -86h-311l-34 -211h302l-13 -86h-302l-45 -285h311l-14 -86h-405zM266 828l146 116l110 -116l-52 -36l-70 76l-93 -76zM599 984q2 11 -6.5 18.5t-19.5 7.5q-22 0 -28 -29h-33q3 24 26 44.5t47 20.5q25 0 45.5 -18.5t16.5 -43.5q-7 -44 -64 -61
q-55 -23 -61 -55q0 8 -4 24t-4 24q0 17 18 27q30 11 39 15q25 12 28 26z" />
    <glyph glyph-name="glyph316" unicode="&#x1ec3;" horiz-adv-x="488" 
d="M508 219h-357q-2 -13 -2 -27q0 -55 32 -91.5t86 -36.5q85 0 155 91l69 -43q-41 -59 -104 -93.5t-134 -34.5q-90 0 -142.5 54t-52.5 144q0 23 4 48q18 113 85 180q72 72 183 72q90 0 137 -51.5t47 -142.5q0 -27 -4 -55zM166 287h262q1 54 -28 85.5t-82 31.5
q-52 0 -93.5 -33t-58.5 -84zM226 563l138 110l105 -110l-50 -34l-66 72l-89 -72zM552 718q2 11 -6.5 18.5t-19.5 7.5q-22 0 -28 -29h-33q3 24 26 44.5t47 20.5t45 -18t18 -42q-7 -47 -68 -65q-53 -22 -58 -53q0 8 -4 24t-4 24q0 17 18 27q30 11 39 15q25 12 28 26z" />
    <glyph glyph-name="glyph317" unicode="&#x1ec4;" horiz-adv-x="521" 
d="M72 0l119 754h405l-13 -86h-311l-34 -211h302l-13 -86h-302l-45 -285h311l-14 -86h-405zM258 828l146 116l110 -116l-52 -36l-70 76l-93 -76zM284 978l-26 28l6 5q70 58 106 58q22 0 61.5 -19t44.5 -19q27 1 64 38l27 -27q-59 -64 -117 -65q-17 0 -54 19t-53 19
q-27 0 -59 -37z" />
    <glyph glyph-name="glyph318" unicode="&#x1ec5;" horiz-adv-x="488" 
d="M508 219h-357q-2 -13 -2 -27q0 -55 32 -91.5t86 -36.5q85 0 155 91l69 -43q-41 -59 -104 -93.5t-134 -34.5q-90 0 -142.5 54t-52.5 144q0 23 4 48q18 113 85 180q72 72 183 72q90 0 137 -51.5t47 -142.5q0 -27 -4 -55zM166 287h262q1 54 -28 85.5t-82 31.5
q-52 0 -93.5 -33t-58.5 -84zM226 563l138 110l105 -110l-49 -35l-67 73l-88 -73zM251 705l-25 27l6 4q58 54 100 55q20 0 57.5 -18t43.5 -18q26 1 61 36l25 -25q-56 -61 -111 -62q-16 0 -51 18t-50 18q-26 0 -56 -35z" />
    <glyph glyph-name="glyph319" unicode="&#x1ec6;" horiz-adv-x="521" 
d="M72 0l119 754h405l-13 -86h-311l-34 -211h302l-13 -86h-302l-45 -285h311l-14 -86h-405zM266 829l146 116l110 -116l-52 -36l-70 76l-93 -76zM291 -40q22 0 34.5 -15t9.5 -37t-21 -37t-40 -15t-34 15t-9 37t20.5 37t39.5 15z" />
    <glyph glyph-name="glyph320" unicode="&#x1ec7;" horiz-adv-x="488" 
d="M508 219h-357q-2 -13 -2 -27q0 -55 32 -91.5t86 -36.5q85 0 155 91l69 -43q-41 -59 -104 -93.5t-134 -34.5q-90 0 -142.5 54t-52.5 144q0 23 4 48q18 113 85 180q72 72 183 72q90 0 137 -51.5t47 -142.5q0 -27 -4 -55zM166 287h262q1 54 -28 85.5t-82 31.5
q-52 0 -93.5 -33t-58.5 -84zM224 563l139 110l104 -110l-49 -34l-66 72l-89 -72zM248 -65q20 0 32 -14.5t9 -34.5q-3 -21 -20 -35t-38 -14t-32 14t-8 35q3 20 19.5 34.5t37.5 14.5z" />
    <glyph glyph-name="glyph321" unicode="&#x1ec8;" horiz-adv-x="232" 
d="M282 754l-119 -754h-94l119 754h94zM314 938q2 11 -6.5 18.5t-19.5 7.5q-22 0 -28 -29h-33q3 24 26 44.5t47 20.5q25 0 45.5 -18.5t16.5 -43.5q-7 -44 -64 -61q-55 -23 -61 -55q0 8 -4 24t-4 24q0 17 18 27q30 11 39 15q25 12 28 26z" />
    <glyph glyph-name="glyph322" unicode="&#x1ec9;" horiz-adv-x="254" 
d="M246 468l-74 -468h-90l74 468h90zM278 643q2 11 -6.5 18.5t-19.5 7.5q-22 0 -28 -29h-33q3 24 26 44.5t47 20.5t45 -18t18 -42q-7 -47 -68 -65q-53 -22 -58 -53q0 8 -4 24t-4 24q0 17 18 27q30 11 39 15q25 12 28 26z" />
    <glyph glyph-name="glyph323" unicode="&#x1eca;" horiz-adv-x="232" 
d="M282 754l-119 -754h-94l119 754h94zM111 -40q22 0 34.5 -15t9.5 -37t-21 -37t-40 -15t-34 15t-9 37t20.5 37t39.5 15z" />
    <glyph glyph-name="glyph324" unicode="&#x1ecb;" horiz-adv-x="254" 
d="M246 468l-74 -468h-90l74 468h90zM229 648q22 0 35 -16t9 -38t-22 -37t-40 -15t-35 15t-9 37t22 38t40 16zM118 -55q20 0 32 -14.5t9 -34.5q-3 -21 -20 -35t-38 -14t-32 14t-8 35q3 20 19.5 34.5t37.5 14.5z" />
    <glyph glyph-name="glyph325" unicode="&#x1ecc;" horiz-adv-x="828" 
d="M536 770q146 0 242 -93t96 -239q0 -30 -5 -61q-27 -168 -157.5 -280.5t-300.5 -112.5q-148 0 -242.5 90.5t-94.5 237.5q0 200 165 343q133 115 297 115zM425 72q143 0 248.5 107t105.5 249q0 115 -71 184.5t-186 69.5q-145 0 -249 -105t-104 -250q0 -113 71.5 -184
t184.5 -71zM411 -60q22 0 34.5 -15t9.5 -37t-21 -37t-40 -15t-34 15t-9 37t20.5 37t39.5 15z" />
    <glyph glyph-name="glyph326" unicode="&#x1ecd;" horiz-adv-x="540" 
d="M346 482q94 0 154 -57.5t60 -150.5q0 -130 -103 -218q-84 -72 -190 -72q-94 0 -153.5 57t-59.5 151q0 129 103 218q84 72 189 72zM333 396q-77 0 -132.5 -56t-55.5 -133q0 -59 38.5 -98t97.5 -39q77 0 132.5 56t55.5 133q0 59 -38.5 98t-97.5 39zM259 -65q20 0 32 -14.5
t9 -34.5q-3 -21 -20 -35t-38 -14t-32 14t-8 35q3 20 19.5 34.5t37.5 14.5z" />
    <glyph glyph-name="glyph327" unicode="&#x1ece;" horiz-adv-x="828" 
d="M536 770q146 0 242 -93t96 -239q0 -30 -5 -61q-27 -168 -157.5 -280.5t-300.5 -112.5q-148 0 -242.5 90.5t-94.5 237.5q0 200 165 343q133 115 297 115zM425 72q143 0 248.5 107t105.5 249q0 115 -71 184.5t-186 69.5q-145 0 -249 -105t-104 -250q0 -113 71.5 -184
t184.5 -71zM613 957q2 11 -6.5 18.5t-19.5 7.5q-22 0 -28 -29h-33q3 24 26 44.5t47 20.5q25 0 45.5 -18.5t16.5 -43.5q-7 -44 -64 -61q-55 -23 -61 -55q0 8 -4 24t-4 24q0 17 18 27q30 11 39 15q25 12 28 26z" />
    <glyph glyph-name="glyph328" unicode="&#x1ecf;" horiz-adv-x="540" 
d="M346 482q94 0 154 -57.5t60 -150.5q0 -130 -103 -218q-84 -72 -190 -72q-94 0 -153.5 57t-59.5 151q0 129 103 218q84 72 189 72zM333 396q-77 0 -132.5 -56t-55.5 -133q0 -59 38.5 -98t97.5 -39q77 0 132.5 56t55.5 133q0 59 -38.5 98t-97.5 39zM423 665q2 11 -6.5 18.5
t-19.5 7.5q-22 0 -28 -29h-33q3 24 26 44.5t47 20.5t45 -18t18 -42q-7 -47 -68 -65q-53 -22 -58 -53q0 8 -4 24t-4 24q0 17 18 27q30 11 39 15q25 12 28 26z" />
    <glyph glyph-name="glyph329" unicode="&#x1ed0;" horiz-adv-x="828" 
d="M536 770q146 0 242 -93t96 -239q0 -30 -5 -61q-27 -168 -157.5 -280.5t-300.5 -112.5q-148 0 -242.5 90.5t-94.5 237.5q0 200 165 343q133 115 297 115zM425 72q143 0 248.5 107t105.5 249q0 115 -71 184.5t-186 69.5q-145 0 -249 -105t-104 -250q0 -113 71.5 -184
t184.5 -71zM416 840l146 116l110 -116l-52 -36l-70 76l-93 -76zM780 1075l60 -50l-169 -145l-16 46z" />
    <glyph glyph-name="glyph330" unicode="&#x1ed1;" horiz-adv-x="540" 
d="M346 482q94 0 154 -57.5t60 -150.5q0 -130 -103 -218q-84 -72 -190 -72q-94 0 -153.5 57t-59.5 151q0 129 103 218q84 72 189 72zM333 396q-77 0 -132.5 -56t-55.5 -133q0 -59 38.5 -98t97.5 -39q77 0 132.5 56t55.5 133q0 59 -38.5 98t-97.5 39zM234 563l139 110
l104 -110l-49 -34l-66 72l-89 -72zM580 786l57 -47l-160 -138l-16 44z" />
    <glyph glyph-name="glyph331" unicode="&#x1ed2;" horiz-adv-x="828" 
d="M536 770q146 0 242 -93t96 -239q0 -30 -5 -61q-27 -168 -157.5 -280.5t-300.5 -112.5q-148 0 -242.5 90.5t-94.5 237.5q0 200 165 343q133 115 297 115zM425 72q143 0 248.5 107t105.5 249q0 115 -71 184.5t-186 69.5q-145 0 -249 -105t-104 -250q0 -113 71.5 -184
t184.5 -71zM416 840l146 116l110 -116l-52 -36l-70 76l-93 -76zM433 926l-16 -46l-169 145l60 50z" />
    <glyph glyph-name="glyph332" unicode="&#x1ed3;" horiz-adv-x="540" 
d="M346 482q94 0 154 -57.5t60 -150.5q0 -130 -103 -218q-84 -72 -190 -72q-94 0 -153.5 57t-59.5 151q0 129 103 218q84 72 189 72zM333 396q-77 0 -132.5 -56t-55.5 -133q0 -59 38.5 -98t97.5 -39q77 0 132.5 56t55.5 133q0 59 -38.5 98t-97.5 39zM236 563l138 110
l105 -110l-50 -34l-66 72l-88 -72zM252 645l-15 -44l-161 138l57 47z" />
    <glyph glyph-name="glyph333" unicode="&#x1ed4;" horiz-adv-x="828" 
d="M536 770q146 0 242 -93t96 -239q0 -30 -5 -61q-27 -168 -157.5 -280.5t-300.5 -112.5q-148 0 -242.5 90.5t-94.5 237.5q0 200 165 343q133 115 297 115zM425 72q143 0 248.5 107t105.5 249q0 115 -71 184.5t-186 69.5q-145 0 -249 -105t-104 -250q0 -113 71.5 -184
t184.5 -71zM415 842l146 116l110 -116l-52 -36l-70 76l-93 -76zM748 998q2 11 -6.5 18.5t-19.5 7.5q-22 0 -28 -29h-33q3 24 26 44.5t47 20.5q25 0 45.5 -18.5t16.5 -43.5q-7 -44 -64 -61q-55 -23 -61 -55q0 8 -4 24t-4 24q0 17 18 27q30 11 39 15q25 12 28 26z" />
    <glyph glyph-name="glyph334" unicode="&#x1ed5;" horiz-adv-x="540" 
d="M346 482q94 0 154 -57.5t60 -150.5q0 -130 -103 -218q-84 -72 -190 -72q-94 0 -153.5 57t-59.5 151q0 129 103 218q84 72 189 72zM333 396q-77 0 -132.5 -56t-55.5 -133q0 -59 38.5 -98t97.5 -39q77 0 132.5 56t55.5 133q0 59 -38.5 98t-97.5 39zM236 563l138 110
l105 -110l-50 -34l-66 72l-89 -72zM562 718q2 11 -6.5 18.5t-19.5 7.5q-22 0 -28 -29h-33q3 24 26 44.5t47 20.5t45 -18t18 -42q-7 -47 -68 -65q-53 -22 -58 -53q0 8 -4 24t-4 24q0 17 18 27q30 11 39 15q25 12 28 26z" />
    <glyph glyph-name="glyph335" unicode="&#x1ed6;" horiz-adv-x="828" 
d="M536 770q146 0 242 -93t96 -239q0 -30 -5 -61q-27 -168 -157.5 -280.5t-300.5 -112.5q-148 0 -242.5 90.5t-94.5 237.5q0 200 165 343q133 115 297 115zM425 72q143 0 248.5 107t105.5 249q0 115 -71 184.5t-186 69.5q-145 0 -249 -105t-104 -250q0 -113 71.5 -184
t184.5 -71zM416 841l146 116l110 -116l-52 -36l-70 76l-93 -76zM442 991l-26 28l6 5q70 58 106 58q22 0 61.5 -19t44.5 -19q27 1 64 38l27 -27q-59 -64 -117 -65q-17 0 -54 19t-53 19q-27 0 -59 -37z" />
    <glyph glyph-name="glyph336" unicode="&#x1ed7;" horiz-adv-x="540" 
d="M346 482q94 0 154 -57.5t60 -150.5q0 -130 -103 -218q-84 -72 -190 -72q-94 0 -153.5 57t-59.5 151q0 129 103 218q84 72 189 72zM333 396q-77 0 -132.5 -56t-55.5 -133q0 -59 38.5 -98t97.5 -39q77 0 132.5 56t55.5 133q0 59 -38.5 98t-97.5 39zM235 563l138 110
l105 -110l-49 -35l-67 73l-88 -73zM260 705l-25 27l6 4q58 54 100 55q20 0 57.5 -18t43.5 -18q26 1 61 36l25 -25q-56 -61 -111 -62q-16 0 -51 18t-50 18q-26 0 -56 -35z" />
    <glyph glyph-name="glyph337" unicode="&#x1ed8;" horiz-adv-x="828" 
d="M536 770q146 0 242 -93t96 -239q0 -30 -5 -61q-27 -168 -157.5 -280.5t-300.5 -112.5q-148 0 -242.5 90.5t-94.5 237.5q0 200 165 343q133 115 297 115zM425 72q143 0 248.5 107t105.5 249q0 115 -71 184.5t-186 69.5q-145 0 -249 -105t-104 -250q0 -113 71.5 -184
t184.5 -71zM416 840l146 116l110 -116l-52 -36l-70 76l-93 -76zM411 -60q22 0 34.5 -15t9.5 -37t-21 -37t-40 -15t-34 15t-9 37t20.5 37t39.5 15z" />
    <glyph glyph-name="glyph338" unicode="&#x1ed9;" horiz-adv-x="540" 
d="M346 482q94 0 154 -57.5t60 -150.5q0 -130 -103 -218q-84 -72 -190 -72q-94 0 -153.5 57t-59.5 151q0 129 103 218q84 72 189 72zM333 396q-77 0 -132.5 -56t-55.5 -133q0 -59 38.5 -98t97.5 -39q77 0 132.5 56t55.5 133q0 59 -38.5 98t-97.5 39zM234 563l139 110
l104 -110l-49 -34l-66 72l-89 -72zM259 -65q20 0 32 -14.5t9 -34.5q-3 -21 -20 -35t-38 -14t-32 14t-8 35q3 20 19.5 34.5t37.5 14.5z" />
    <glyph glyph-name="glyph339" unicode="&#x1eda;" horiz-adv-x="828" 
d="M425 72q143 0 248.5 107t105.5 249q0 115 -71 184.5t-186 69.5q-145 0 -249 -105t-104 -250q0 -113 71.5 -184t184.5 -71zM677 742l113 7q37 17 37 39q0 13 -13.5 22t-27.5 9l47 28q20 -1 43 -14q17 -14 17 -37q0 -47 -79 -78q-33 -13 -64 -19q124 -98 124 -261
q0 -30 -5 -61q-27 -168 -157.5 -280.5t-300.5 -112.5q-148 0 -242.5 90.5t-94.5 237.5q0 200 165 343q133 115 297 115q76 0 141 -28zM645 1052l60 -50l-169 -145l-16 46z" />
    <glyph glyph-name="glyph340" unicode="&#x1edb;" horiz-adv-x="540" 
d="M333 396q-77 0 -132.5 -56t-55.5 -133q0 -59 38.5 -98t97.5 -39q77 0 132.5 56t55.5 133q0 59 -38.5 98t-97.5 39zM439 464l76 -8q12 -1 18.5 12t6.5 26q0 12 -6 15q-7 2 -32 0l33 31q60 6 60 -42q0 -14 -10 -28q-14 -20 -91 -41q66 -59 66 -155q0 -22 -3 -41
q-17 -107 -99.5 -178t-190.5 -71q-94 0 -153.5 57t-59.5 151q0 129 103 218q84 72 189 72q49 0 93 -18zM449 751l57 -47l-160 -138l-16 44z" />
    <glyph glyph-name="glyph341" unicode="&#x1edc;" horiz-adv-x="828" 
d="M425 72q143 0 248.5 107t105.5 249q0 115 -71 184.5t-186 69.5q-145 0 -249 -105t-104 -250q0 -113 71.5 -184t184.5 -71zM677 742l113 7q37 17 37 39q0 13 -13.5 22t-27.5 9l47 28q20 -1 43 -14q17 -14 17 -37q0 -47 -79 -78q-33 -13 -64 -19q124 -98 124 -261
q0 -30 -5 -61q-27 -168 -157.5 -280.5t-300.5 -112.5q-148 0 -242.5 90.5t-94.5 237.5q0 200 165 343q133 115 297 115q76 0 141 -28zM552 905l-16 -46l-169 145l60 50z" />
    <glyph glyph-name="glyph342" unicode="&#x1edd;" horiz-adv-x="540" 
d="M333 396q-77 0 -132.5 -56t-55.5 -133q0 -59 38.5 -98t97.5 -39q77 0 132.5 56t55.5 133q0 59 -38.5 98t-97.5 39zM439 464l76 -8q12 -1 18.5 12t6.5 26q0 12 -6 15q-7 2 -32 0l33 31q60 6 60 -42q0 -14 -10 -28q-14 -20 -91 -41q66 -59 66 -155q0 -22 -3 -41
q-17 -107 -99.5 -178t-190.5 -71q-94 0 -153.5 57t-59.5 151q0 129 103 218q84 72 189 72q49 0 93 -18zM361 609l-15 -44l-161 138l57 47z" />
    <glyph glyph-name="glyph343" unicode="&#x1ede;" horiz-adv-x="828" 
d="M425 72q143 0 248.5 107t105.5 249q0 115 -71 184.5t-186 69.5q-145 0 -249 -105t-104 -250q0 -113 71.5 -184t184.5 -71zM677 742l113 7q37 17 37 39q0 13 -13.5 22t-27.5 9l47 28q20 -1 43 -14q17 -14 17 -37q0 -47 -79 -78q-33 -13 -64 -19q124 -98 124 -261
q0 -30 -5 -61q-27 -168 -157.5 -280.5t-300.5 -112.5q-148 0 -242.5 90.5t-94.5 237.5q0 200 165 343q133 115 297 115q76 0 141 -28zM613 957q2 11 -6.5 18.5t-19.5 7.5q-22 0 -28 -29h-33q3 24 26 44.5t47 20.5q25 0 45.5 -18.5t16.5 -43.5q-7 -44 -64 -61
q-55 -23 -61 -55q0 8 -4 24t-4 24q0 17 18 27q30 11 39 15q25 12 28 26z" />
    <glyph glyph-name="glyph344" unicode="&#x1edf;" horiz-adv-x="540" 
d="M333 396q-77 0 -132.5 -56t-55.5 -133q0 -59 38.5 -98t97.5 -39q77 0 132.5 56t55.5 133q0 59 -38.5 98t-97.5 39zM439 464l76 -8q12 -1 18.5 12t6.5 26q0 12 -6 15q-7 2 -32 0l33 31q60 6 60 -42q0 -14 -10 -28q-14 -20 -91 -41q66 -59 66 -155q0 -22 -3 -41
q-17 -107 -99.5 -178t-190.5 -71q-94 0 -153.5 57t-59.5 151q0 129 103 218q84 72 189 72q49 0 93 -18zM423 665q2 11 -6.5 18.5t-19.5 7.5q-22 0 -28 -29h-33q3 24 26 44.5t47 20.5t45 -18t18 -42q-7 -47 -68 -65q-53 -22 -58 -53q0 8 -4 24t-4 24q0 17 18 27q30 11 39 15
q25 12 28 26z" />
    <glyph glyph-name="glyph345" unicode="&#x1ee0;" horiz-adv-x="828" 
d="M425 72q143 0 248.5 107t105.5 249q0 115 -71 184.5t-186 69.5q-145 0 -249 -105t-104 -250q0 -113 71.5 -184t184.5 -71zM677 742l113 7q37 17 37 39q0 13 -13.5 22t-27.5 9l47 28q20 -1 43 -14q17 -14 17 -37q0 -47 -79 -78q-33 -13 -64 -19q124 -98 124 -261
q0 -30 -5 -61q-27 -168 -157.5 -280.5t-300.5 -112.5q-148 0 -242.5 90.5t-94.5 237.5q0 200 165 343q133 115 297 115q76 0 141 -28zM442 858l-26 28l6 5q70 58 106 58q22 0 61.5 -19t44.5 -19q27 1 64 38l27 -27q-59 -64 -117 -65q-17 0 -54 19t-53 19q-27 0 -59 -37z" />
    <glyph glyph-name="glyph346" unicode="&#x1ee1;" horiz-adv-x="540" 
d="M333 396q-77 0 -132.5 -56t-55.5 -133q0 -59 38.5 -98t97.5 -39q77 0 132.5 56t55.5 133q0 59 -38.5 98t-97.5 39zM439 464l76 -8q12 -1 18.5 12t6.5 26q0 12 -6 15q-7 2 -32 0l33 31q60 6 60 -42q0 -14 -10 -28q-14 -20 -91 -41q66 -59 66 -155q0 -22 -3 -41
q-17 -107 -99.5 -178t-190.5 -71q-94 0 -153.5 57t-59.5 151q0 129 103 218q84 72 189 72q49 0 93 -18zM261 566l-25 27l6 4q58 54 100 55q20 0 57.5 -18t43.5 -18q26 1 61 36l25 -25q-56 -61 -111 -62q-16 0 -51 18t-50 18q-26 0 -56 -35z" />
    <glyph glyph-name="glyph347" unicode="&#x1ee2;" horiz-adv-x="828" 
d="M425 72q143 0 248.5 107t105.5 249q0 115 -71 184.5t-186 69.5q-145 0 -249 -105t-104 -250q0 -113 71.5 -184t184.5 -71zM677 742l113 7q37 17 37 39q0 13 -13.5 22t-27.5 9l47 28q20 -1 43 -14q17 -14 17 -37q0 -47 -79 -78q-33 -13 -64 -19q124 -98 124 -261
q0 -30 -5 -61q-27 -168 -157.5 -280.5t-300.5 -112.5q-148 0 -242.5 90.5t-94.5 237.5q0 200 165 343q133 115 297 115q76 0 141 -28zM411 -60q22 0 34.5 -15t9.5 -37t-21 -37t-40 -15t-34 15t-9 37t20.5 37t39.5 15z" />
    <glyph glyph-name="glyph348" unicode="&#x1ee3;" horiz-adv-x="540" 
d="M333 396q-77 0 -132.5 -56t-55.5 -133q0 -59 38.5 -98t97.5 -39q77 0 132.5 56t55.5 133q0 59 -38.5 98t-97.5 39zM439 464l76 -8q12 -1 18.5 12t6.5 26q0 12 -6 15q-7 2 -32 0l33 31q60 6 60 -42q0 -14 -10 -28q-14 -20 -91 -41q66 -59 66 -155q0 -22 -3 -41
q-17 -107 -99.5 -178t-190.5 -71q-94 0 -153.5 57t-59.5 151q0 129 103 218q84 72 189 72q49 0 93 -18zM259 -65q20 0 32 -14.5t9 -34.5q-3 -21 -20 -35t-38 -14t-32 14t-8 35q3 20 19.5 34.5t37.5 14.5z" />
    <glyph glyph-name="glyph349" unicode="&#x1ee4;" horiz-adv-x="669" 
d="M178 754h94l-70 -445q-6 -38 -6 -74q0 -163 150 -163q183 0 220 237l70 445h94l-75 -477q-20 -129 -106 -209q-89 -84 -217 -84q-108 0 -171 63t-63 171q0 27 5 59zM332 -60q22 0 34.5 -15t9.5 -37t-21 -37t-40 -15t-34 15t-9 37t20.5 37t39.5 15z" />
    <glyph glyph-name="glyph350" unicode="&#x1ee5;" horiz-adv-x="512" 
d="M132 468h90l-41 -259q-4 -25 -4 -47q0 -94 90 -94q108 0 130 141l41 259h90l-42 -269q-34 -215 -233 -215q-168 0 -168 161q0 22 5 54zM246 -65q20 0 32 -14.5t9 -34.5q-3 -21 -20 -35t-38 -14t-32 14t-8 35q3 20 19.5 34.5t37.5 14.5z" />
    <glyph glyph-name="glyph351" unicode="&#x1ee6;" horiz-adv-x="669" 
d="M178 754h94l-70 -445q-6 -38 -6 -74q0 -163 150 -163q183 0 220 237l70 445h94l-75 -477q-20 -129 -106 -209q-89 -84 -217 -84q-108 0 -171 63t-63 171q0 27 5 59zM533 908q2 11 -6.5 18.5t-19.5 7.5q-22 0 -28 -29h-33q3 24 26 44.5t47 20.5q25 0 45.5 -18.5
t16.5 -43.5q-7 -44 -64 -61q-55 -23 -61 -55q0 8 -4 24t-4 24q0 17 18 27q30 11 39 15q25 12 28 26z" />
    <glyph glyph-name="glyph352" unicode="&#x1ee7;" horiz-adv-x="512" 
d="M132 468h90l-41 -259q-4 -25 -4 -47q0 -94 90 -94q108 0 130 141l41 259h90l-42 -269q-34 -215 -233 -215q-168 0 -168 161q0 22 5 54zM407 629q2 11 -6.5 18.5t-19.5 7.5q-22 0 -28 -29h-33q3 24 26 44.5t47 20.5t45 -18t18 -42q-7 -47 -68 -65q-53 -22 -58 -53
q0 8 -4 24t-4 24q0 17 18 27q30 11 39 15q25 12 28 26z" />
    <glyph glyph-name="glyph353" unicode="&#x1ee8;" horiz-adv-x="669" 
d="M724 717l-69 -440q-20 -129 -106 -209q-89 -84 -217 -84q-108 0 -171 63t-63 171q0 27 5 59l75 477h94l-70 -445q-6 -38 -6 -74q0 -163 150 -163q183 0 220 237l70 445l93 -8q27 19 27 40q0 14 -17.5 21.5t-31.5 4.5l38 35q23 2 42 -5q30 -15 30 -46t-32 -54
q-26 -19 -61 -25zM564 1000l60 -50l-169 -145l-16 46z" />
    <glyph glyph-name="glyph354" unicode="&#x1ee9;" horiz-adv-x="512" 
d="M537 509q-7 2 -32 0l33 31q59 6 59 -41q0 -53 -75 -71q-9 -65 -28 -196q-18 -113 -66 -173q-60 -75 -175 -75q-168 0 -168 161q0 22 5 54l42 269h90l-41 -259q-4 -25 -4 -47q0 -94 90 -94q108 0 130 141l41 259l80 -12q11 -2 18 12q7 11 7 26q0 12 -6 15zM432 714l57 -47
l-160 -138l-16 44z" />
    <glyph glyph-name="glyph355" unicode="&#x1eea;" horiz-adv-x="669" 
d="M724 717l-69 -440q-20 -129 -106 -209q-89 -84 -217 -84q-108 0 -171 63t-63 171q0 27 5 59l75 477h94l-70 -445q-6 -38 -6 -74q0 -163 150 -163q183 0 220 237l70 445l93 -8q27 19 27 40q0 14 -17.5 21.5t-31.5 4.5l38 35q23 2 42 -5q30 -15 30 -46t-32 -54
q-26 -19 -61 -25zM474 850l-16 -46l-169 145l60 50z" />
    <glyph glyph-name="glyph356" unicode="&#x1eeb;" horiz-adv-x="512" 
d="M537 509q-7 2 -32 0l33 31q59 6 59 -41q0 -53 -75 -71q-9 -65 -28 -196q-18 -113 -66 -173q-60 -75 -175 -75q-168 0 -168 161q0 22 5 54l42 269h90l-41 -259q-4 -25 -4 -47q0 -94 90 -94q108 0 130 141l41 259l80 -12q11 -2 18 12q7 11 7 26q0 12 -6 15zM346 573
l-15 -44l-161 138l57 47z" />
    <glyph glyph-name="glyph357" unicode="&#x1eec;" horiz-adv-x="669" 
d="M724 717l-69 -440q-20 -129 -106 -209q-89 -84 -217 -84q-108 0 -171 63t-63 171q0 27 5 59l75 477h94l-70 -445q-6 -38 -6 -74q0 -163 150 -163q183 0 220 237l70 445l93 -8q27 19 27 40q0 14 -17.5 21.5t-31.5 4.5l38 35q23 2 42 -5q30 -15 30 -46t-32 -54
q-26 -19 -61 -25zM533 908q2 11 -6.5 18.5t-19.5 7.5q-22 0 -28 -29h-33q3 24 26 44.5t47 20.5q25 0 45.5 -18.5t16.5 -43.5q-7 -44 -64 -61q-55 -23 -61 -55q0 8 -4 24t-4 24q0 17 18 27q30 11 39 15q25 12 28 26z" />
    <glyph glyph-name="glyph358" unicode="&#x1eed;" horiz-adv-x="512" 
d="M537 509q-7 2 -32 0l33 31q59 6 59 -41q0 -53 -75 -71q-9 -65 -28 -196q-18 -113 -66 -173q-60 -75 -175 -75q-168 0 -168 161q0 22 5 54l42 269h90l-41 -259q-4 -25 -4 -47q0 -94 90 -94q108 0 130 141l41 259l80 -12q11 -2 18 12q7 11 7 26q0 12 -6 15zM407 629
q2 11 -6.5 18.5t-19.5 7.5q-22 0 -28 -29h-33q3 24 26 44.5t47 20.5t45 -18t18 -42q-7 -47 -68 -65q-53 -22 -58 -53q0 8 -4 24t-4 24q0 17 18 27q30 11 39 15q25 12 28 26z" />
    <glyph glyph-name="glyph359" unicode="&#x1eee;" horiz-adv-x="669" 
d="M724 717l-69 -440q-20 -129 -106 -209q-89 -84 -217 -84q-108 0 -171 63t-63 171q0 27 5 59l75 477h94l-70 -445q-6 -38 -6 -74q0 -163 150 -163q183 0 220 237l70 445l93 -8q27 19 27 40q0 14 -17.5 21.5t-31.5 4.5l38 35q23 2 42 -5q30 -15 30 -46t-32 -54
q-26 -19 -61 -25zM341 805l-26 28l6 5q70 58 106 58q22 0 61.5 -19t44.5 -19q27 1 64 38l27 -27q-59 -64 -117 -65q-17 0 -54 19t-53 19q-27 0 -59 -37z" />
    <glyph glyph-name="glyph360" unicode="&#x1eef;" horiz-adv-x="512" 
d="M537 509q-7 2 -32 0l33 31q59 6 59 -41q0 -53 -75 -71q-9 -65 -28 -196q-18 -113 -66 -173q-60 -75 -175 -75q-168 0 -168 161q0 22 5 54l42 269h90l-41 -259q-4 -25 -4 -47q0 -94 90 -94q108 0 130 141l41 259l80 -12q11 -2 18 12q7 11 7 26q0 12 -6 15zM210 543l-25 27
l6 4q58 54 100 55q20 0 57.5 -18t43.5 -18q26 1 61 36l25 -25q-56 -61 -111 -62q-16 0 -51 18t-50 18q-26 0 -56 -35z" />
    <glyph glyph-name="glyph361" unicode="&#x1ef0;" horiz-adv-x="669" 
d="M724 717l-69 -440q-20 -129 -106 -209q-89 -84 -217 -84q-108 0 -171 63t-63 171q0 27 5 59l75 477h94l-70 -445q-6 -38 -6 -74q0 -163 150 -163q183 0 220 237l70 445l93 -8q27 19 27 40q0 14 -17.5 21.5t-31.5 4.5l38 35q23 2 42 -5q30 -15 30 -46t-32 -54
q-26 -19 -61 -25zM332 -60q22 0 34.5 -15t9.5 -37t-21 -37t-40 -15t-34 15t-9 37t20.5 37t39.5 15z" />
    <glyph glyph-name="glyph362" unicode="&#x1ef1;" horiz-adv-x="512" 
d="M537 509q-7 2 -32 0l33 31q59 6 59 -41q0 -53 -75 -71q-9 -65 -28 -196q-18 -113 -66 -173q-60 -75 -175 -75q-168 0 -168 161q0 22 5 54l42 269h90l-41 -259q-4 -25 -4 -47q0 -94 90 -94q108 0 130 141l41 259l80 -12q11 -2 18 12q7 11 7 26q0 12 -6 15zM246 -65
q20 0 32 -14.5t9 -34.5q-3 -21 -20 -35t-38 -14t-32 14t-8 35q3 20 19.5 34.5t37.5 14.5z" />
    <glyph glyph-name="glyph363" unicode="&#x1ef2;" horiz-adv-x="573" 
d="M292 328l-179 426h108l134 -322l236 322h108l-313 -426l-52 -328h-94zM424 850l-16 -46l-169 145l60 50z" />
    <glyph glyph-name="glyph364" unicode="&#x1ef3;" horiz-adv-x="484" 
d="M214 80l-153 388h105l111 -297l194 297h101l-495 -736h-102zM334 563l-15 -44l-161 138l57 47z" />
    <glyph glyph-name="glyph365" unicode="&#x1ef4;" horiz-adv-x="573" 
d="M292 328l-179 426h108l134 -322l236 322h108l-313 -426l-52 -328h-94zM281 -40q22 0 34.5 -15t9.5 -37t-21 -37t-40 -15t-34 15t-9 37t20.5 37t39.5 15z" />
    <glyph glyph-name="glyph366" unicode="&#x1ef5;" horiz-adv-x="484" 
d="M214 80l-153 388h105l111 -297l194 297h101l-495 -736h-102zM318 -55q20 0 32 -14.5t9 -34.5q-3 -21 -20 -35t-38 -14t-32 14t-8 35q3 20 19.5 34.5t37.5 14.5z" />
    <glyph glyph-name="glyph367" unicode="&#x1ef6;" horiz-adv-x="573" 
d="M292 328l-179 426h108l134 -322l236 322h108l-313 -426l-52 -328h-94zM482 908q2 11 -6.5 18.5t-19.5 7.5q-22 0 -28 -29h-33q3 24 26 44.5t47 20.5q25 0 45.5 -18.5t16.5 -43.5q-7 -44 -64 -61q-55 -23 -61 -55q0 8 -4 24t-4 24q0 17 18 27q30 11 39 15q25 12 28 26z
" />
    <glyph glyph-name="glyph368" unicode="&#x1ef7;" horiz-adv-x="484" 
d="M214 80l-153 388h105l111 -297l194 297h101l-495 -736h-102zM395 614q2 11 -6.5 18.5t-19.5 7.5q-22 0 -28 -29h-33q3 24 26 44.5t47 20.5t45 -18t18 -42q-7 -47 -68 -65q-53 -22 -58 -53q0 8 -4 24t-4 24q0 17 18 27q30 11 39 15q25 12 28 26z" />
    <glyph glyph-name="glyph369" unicode="&#x1ef8;" horiz-adv-x="573" 
d="M292 328l-179 426h108l134 -322l236 322h108l-313 -426l-52 -328h-94zM279 804l-26 28l6 5q70 58 106 58q22 0 61.5 -19t44.5 -19q27 1 64 38l27 -27q-59 -64 -117 -65q-17 0 -54 19t-53 19q-27 0 -59 -37z" />
    <glyph glyph-name="glyph370" unicode="&#x1ef9;" horiz-adv-x="484" 
d="M214 80l-153 388h105l111 -297l194 297h101l-495 -736h-102zM197 529l-25 27l6 4q58 54 100 55q20 0 57.5 -18t43.5 -18q26 1 61 36l25 -25q-56 -61 -111 -62q-16 0 -51 18t-50 18q-26 0 -56 -35z" />
    <glyph glyph-name="endash" unicode="&#x2013;" horiz-adv-x="500" 
d="M57 358h500l-12 -75h-500z" />
    <glyph glyph-name="emdash" unicode="&#x2014;" horiz-adv-x="1000" 
d="M57 358h1000l-12 -75h-1000z" />
    <glyph glyph-name="quoteleft" unicode="&#x2018;" horiz-adv-x="277" 
d="M214 472l-74 31l175 267l52 -23z" />
    <glyph glyph-name="quoteright" unicode="&#x2019;" horiz-adv-x="277" 
d="M260 770l74 -31l-175 -267l-53 23z" />
    <glyph glyph-name="quotesinglbase" unicode="&#x201a;" horiz-adv-x="277" 
d="M183 119l73 -31l-175 -267l-52 23z" />
    <glyph glyph-name="quotedblleft" unicode="&#x201c;" horiz-adv-x="439" 
d="M380 472l-74 31l175 267l52 -23zM214 472l-74 31l175 267l52 -23z" />
    <glyph glyph-name="quotedblright" unicode="&#x201d;" horiz-adv-x="439" 
d="M256 770l74 -31l-175 -267l-53 23zM422 770l74 -31l-175 -267l-53 23z" />
    <glyph glyph-name="quotedblbase" unicode="&#x201e;" horiz-adv-x="439" 
d="M179 119l73 -31l-175 -267l-52 23zM345 119l73 -31l-175 -267l-52 23z" />
    <glyph glyph-name="dagger" unicode="&#x2020;" 
d="M381 868h90l-43 -275h181l-14 -86h-181l-94 -595h-90l94 595h-181l14 86h181z" />
    <glyph glyph-name="daggerdbl" unicode="&#x2021;" 
d="M381 868h90l-37 -239h181l-14 -86h-181l-19 -122h181l-14 -86h-181l-67 -422h-90l67 422h-181l14 86h181l19 122h-181l14 86h181z" />
    <glyph glyph-name="bullet" unicode="&#x2022;" 
d="M319 189q-70 0 -115.5 44.5t-45.5 114.5q0 88 66.5 153t154.5 65q70 0 115.5 -44.5t45.5 -114.5q0 -88 -66.5 -153t-154.5 -65z" />
    <glyph glyph-name="ellipsis" unicode="&#x2026;" horiz-adv-x="1000" 
d="M516 100q24 0 38 -17.5t11 -40.5q-4 -24 -24 -41t-44 -17t-38 17t-10 41t23.5 41t43.5 17zM850 100q24 0 38 -17.5t11 -40.5q-4 -24 -24 -41t-44 -17t-38 17t-10 41t23.5 41t43.5 17zM182 100q24 0 38 -17.5t11 -40.5q-4 -24 -24 -41t-44 -17t-38 17t-10 41t23.5 41
t43.5 17z" />
    <glyph glyph-name="perthousand" unicode="&#x2030;" horiz-adv-x="1110" 
d="M320 770q65 0 108 -40.5t43 -105.5q0 -79 -62.5 -138t-142.5 -59q-64 0 -107.5 40.5t-43.5 104.5q0 80 62.5 139t142.5 59zM310 710q-52 0 -93.5 -38t-41.5 -90q0 -41 29.5 -68t70.5 -27q52 0 93.5 38t41.5 90q0 42 -29 68.5t-71 26.5zM679 770l41 -26l-561 -760l-42 25z
M573 327q65 0 108 -41t43 -105q0 -80 -63 -138.5t-143 -58.5q-64 0 -107 40.5t-43 104.5q0 80 62.5 139t142.5 59zM563 267q-52 0 -93.5 -38t-41.5 -90q0 -41 29.5 -68t70.5 -27q52 0 93.5 38t41.5 90q0 42 -29 68.5t-71 26.5zM965 327q65 0 108 -41t43 -105
q0 -80 -63 -138.5t-143 -58.5q-64 0 -107 40.5t-43 104.5q0 80 62.5 139t142.5 59zM955 267q-52 0 -93.5 -38t-41.5 -90q0 -41 29.5 -68t70.5 -27q52 0 93.5 38t41.5 90q0 42 -29 68.5t-71 26.5z" />
    <glyph glyph-name="guilsinglleft" unicode="&#x2039;" horiz-adv-x="336" 
d="M162 320l118 -191l-62 -41l-145 232l220 240l49 -41z" />
    <glyph glyph-name="guilsinglright" unicode="&#x203a;" horiz-adv-x="336" 
d="M96 129l180 191l-118 199l63 41l144 -240l-219 -232z" />
    <glyph glyph-name="fraction" unicode="&#x2044;" horiz-adv-x="165" 
d="M399 770l47 -26l-561 -760l-46 28z" />
    <glyph glyph-name="franc" unicode="&#x20a3;" horiz-adv-x="1035" 
d="M542 668h-271l-34 -212h262l-13 -86h-262l-59 -370h-94l119 754h365zM884 468l-12 -76h3q50 90 142 90q38 0 71 -23l-54 -82q-19 19 -52 19q-110 0 -136 -166l-36 -230h-90l74 468h90z" />
    <glyph glyph-name="u20AB" unicode="&#x20ab;" horiz-adv-x="393" 
d="M197 501q-48 0 -84 -88q-20 -49 -20 -90q0 -51 39 -51q41 0 74 71q28 60 28 107q0 51 -37 51zM200 267q-53 -62 -106 -62q-91 0 -91 102q0 82 54 153q58 78 137 78q34 0 61 -24l20 75h-100l10 36h100l2 16q0 31 -48 32l7 33q68 2 128 14l15 3q6 0 6 -9l-3 -12l-19 -77h65
l-10 -36h-65l-69 -280q-5 -20 -5 -27q0 -15 12 -15q6 0 49 42l20 -18q-70 -86 -117 -86q-43 0 -53 62zM9 160h221v-56h-221v56z" />
    <glyph glyph-name="trademark" unicode="&#x2122;" horiz-adv-x="940" 
d="M1025 754l-66 -421h-64l56 357h-2l-200 -357h-39l-84 357h-2l-56 -357h-64l66 421h105l74 -297l172 297h104zM493 754l-10 -64h-138l-56 -357h-64l56 357h-138l10 64h340z" />
    <glyph glyph-name="minus" unicode="&#x2212;" 
d="M67 213l13 86h512l-13 -86h-512z" />
    <glyph glyph-name="SF370000" unicode="&#x255f;" horiz-adv-x="718" 
d="M555 189h-346l-116 -189h-101l484 786l236 -786h-101zM530 275l-86 305l-182 -305h268z" />
    <glyph glyph-name="SF420000" unicode="&#x2560;" horiz-adv-x="681" 
d="M72 0l119 754h405l-13 -86h-311l-34 -211h302l-13 -86h-302l-45 -285h311l-14 -86h-405z" />
    <glyph glyph-name="SF190000" unicode="&#x2561;" horiz-adv-x="429" 
d="M282 754l-119 -754h-94l119 754h94z" />
    <glyph glyph-name="SF200000" unicode="&#x2562;" horiz-adv-x="773" 
d="M536 770q145 0 241.5 -93.5t96.5 -238.5q0 -30 -5 -61q-27 -167 -158 -280t-300 -113q-147 0 -242 91t-95 237q0 201 164 343q134 115 298 115zM425 72q141 0 247.5 107.5t106.5 248.5q0 113 -71.5 183.5t-185.5 70.5q-131 0 -230 -87.5t-119 -217.5q-4 -26 -4 -49
q0 -112 72 -184t184 -72z" />
    <glyph glyph-name="SF230000" unicode="&#x2563;" horiz-adv-x="811" 
d="M178 754h94l-70 -445q-6 -38 -6 -74q0 -163 150 -163q183 0 220 237l70 445h94l-75 -477q-20 -129 -106 -209q-89 -84 -217 -84q-108 0 -171 63t-63 171q0 27 5 59z" />
    <glyph glyph-name="SF470000" unicode="&#x2564;" horiz-adv-x="699" 
d="M292 328l-179 426h108l134 -322l236 322h108l-313 -426l-52 -328h-94z" />
    <glyph glyph-name="SF480000" unicode="&#x2565;" horiz-adv-x="541" 
d="M274 64q81 0 133 63q49 58 49 141q0 61 -34 97.5t-94 36.5q-77 0 -129 -64q-49 -59 -49 -138q0 -59 33 -97.5t91 -38.5zM575 468l-74 -468h-90l12 73h-2q-75 -89 -174 -89q-88 0 -139 58q-49 55 -49 145q0 115 74 202q77 93 190 93q102 0 148 -92h2l12 78h90z" />
    <glyph glyph-name="SF410000" unicode="&#x2566;" horiz-adv-x="431" 
d="M508 219h-357q-2 -13 -2 -26q0 -55 32 -92t86 -37q85 0 155 91l69 -43q-92 -128 -238 -128q-90 0 -142.5 54t-52.5 144q0 23 4 48q18 113 85 180q72 72 183 72q89 0 137 -50.5t48 -140.5q0 -23 -5 -58zM166 287h262q0 54 -28.5 85.5t-81.5 31.5q-52 0 -93.5 -33
t-58.5 -84z" />
    <glyph glyph-name="SF450000" unicode="&#x2567;" horiz-adv-x="314" 
d="M246 468l-74 -468h-90l74 468h90zM245 745q26 0 41 -18.5t11 -44.5q-4 -25 -25 -43t-47 -18q-25 0 -40.5 18t-11.5 43q4 26 25 44.5t47 18.5z" />
    <glyph glyph-name="SF460000" unicode="&#x2568;" horiz-adv-x="314" 
d="M246 468l-74 -468h-90l74 468h90z" />
    <glyph glyph-name="SF400000" unicode="&#x2569;" horiz-adv-x="498" 
d="M346 482q94 0 154 -57.5t60 -150.5q0 -22 -3 -41q-17 -106 -100 -177.5t-190 -71.5q-94 0 -153.5 57.5t-59.5 150.5q0 22 3 41q17 106 99.5 177.5t189.5 71.5zM333 396q-75 0 -131.5 -56.5t-56.5 -131.5q0 -59 38.5 -98.5t97.5 -39.5q76 0 132 56.5t56 132.5
q0 59 -38.5 98t-97.5 39z" />
    <glyph glyph-name="SF540000" unicode="&#x256a;" horiz-adv-x="557" 
d="M132 468h90l-41 -259q-4 -25 -4 -48q0 -93 90 -93q108 0 130 141l41 259h90l-42 -269q-34 -215 -233 -215q-168 0 -168 161q0 22 5 54z" />
    <glyph glyph-name="SF530000" unicode="&#x256b;" horiz-adv-x="497" 
d="M214 80l-153 388h105l111 -297l194 297h101l-495 -736h-102z" />
    <glyph glyph-name="circle" unicode="&#x25cb;" horiz-adv-x="718" 
d="M396 821l182 145l138 -145l-66 -46l-87 96l-116 -96zM519 1154l76 -44l-187 -149l-40 27z" />
    <glyph glyph-name="H18533" unicode="&#x25cf;" horiz-adv-x="718" 
d="M396 821l182 145l138 -145l-66 -46l-87 96l-116 -96zM496 1111l90 44l99 -166l-48 -27z" />
    <glyph glyph-name="invbullet" unicode="&#x25d8;" horiz-adv-x="718" 
d="M396 821l182 145l138 -145l-66 -46l-87 96l-116 -96zM614 903q9 27 11 64q1 11 8 13q3 0 8 1q67 11 67 54q0 35 -28 35q-5 0 -14 -1t-14 -1q-21 0 -21 18q0 28 32 28q47 0 76.5 -25t25.5 -71q-6 -59 -87 -81q-25 -7 -31 -34h-33z" />
    <glyph glyph-name="invcircle" unicode="&#x25d9;" horiz-adv-x="718" 
d="M396 821l182 145l138 -145l-66 -46l-87 96l-116 -96zM477 993v0l-41 40l4 5q61 76 120 76q31 0 84 -26.5t69 -26.5q34 0 71 48l41 -39q-53 -82 -131 -82q-26 0 -77.5 25.5t-75.5 25.5q-35 0 -64 -46z" />
    <glyph glyph-name="fi" unicode="&#xf001;" horiz-adv-x="512" 
d="M504 468l-74 -468h-90l74 468h90zM503 745q26 0 41 -18.5t11 -44.5q-4 -25 -25 -43t-47 -18q-25 0 -40.5 18t-11.5 43q4 26 25 44.5t47 18.5zM431 868l-14 -91q-40 19 -57 19q-64 0 -84 -127l-32 -201h124l-13 -84h-124l-61 -384h-90l61 384h-41l13 84h41l36 228
q29 184 180 184q33 0 61 -12z" />
    <glyph glyph-name="fl" unicode="&#xf002;" horiz-adv-x="497" 
d="M568 868l-137 -868h-90l137 868h90zM431 868l-14 -91q-40 19 -57 19q-64 0 -84 -127l-32 -201h124l-13 -84h-124l-61 -384h-90l61 384h-41l13 84h41l36 228q29 184 180 184q33 0 61 -12z" />
    <glyph glyph-name="periodcentered" horiz-adv-x="289" 
d="M195 314q24 0 38 -17.5t11 -40.5q-4 -24 -24 -41t-44 -17t-38 17t-10 41t23.5 41t43.5 17z" />
    <glyph glyph-name="HT" horiz-adv-x="289" 
 />
    <glyph glyph-name="nonmarkingreturn" horiz-adv-x="289" 
 />
    <glyph glyph-name="glyph231" horiz-adv-x="289" 
 />
    <glyph glyph-name="glyph232" horiz-adv-x="289" 
 />
    <glyph glyph-name="glyph258" horiz-adv-x="278" 
 />
    <glyph glyph-name="glyph259" horiz-adv-x="278" 
 />
    <glyph glyph-name="glyph275" horiz-adv-x="249" 
 />
    <glyph glyph-name="glyph276" horiz-adv-x="249" 
 />
    <glyph glyph-name="glyph261" horiz-adv-x="500" 
d="M253 522q9 27 11 64q1 11 8 13q3 0 8 1q67 11 67 54q0 35 -28 35q-5 0 -14 -1t-14 -1q-21 0 -21 18q0 28 32 28q47 0 76.5 -25t25.5 -71q-6 -59 -87 -81q-25 -7 -31 -34h-33z" />
    <glyph glyph-name="glyph262" horiz-adv-x="541" 
d="M193 589l182 145l138 -145l-66 -46l-87 96l-116 -96zM315 923l76 -44l-187 -149l-40 27z" />
    <glyph glyph-name="glyph263" horiz-adv-x="541" 
d="M193 589l182 145l138 -145l-66 -46l-87 96l-116 -96zM293 879l90 44l99 -166l-48 -27z" />
    <glyph glyph-name="glyph264" horiz-adv-x="541" 
d="M193 589l182 145l138 -145l-66 -46l-87 96l-116 -96zM411 671q9 27 11 64q1 11 8 13q3 0 8 1q67 11 67 54q0 35 -28 35q-5 0 -14 -1t-14 -1q-21 0 -21 18q0 28 32 28q47 0 76.5 -25t25.5 -71q-6 -59 -87 -81q-25 -7 -31 -34h-33z" />
    <glyph glyph-name="glyph265" horiz-adv-x="541" 
d="M193 589l182 145l138 -145l-66 -46l-87 96l-116 -96zM274 761v0l-41 40l4 5q61 76 120 76q31 0 84 -26.5t69 -26.5q34 0 71 48l41 -39q-53 -82 -131 -82q-26 0 -77.5 25.5t-75.5 25.5q-35 0 -64 -46z" />
    <glyph glyph-name="glyph266" horiz-adv-x="541" 
d="M211 693h72q20 -75 90 -75t115 75h71q-21 -62 -76 -101.5t-120 -39.5q-64 0 -107 39t-45 102zM394 923l76 -44l-187 -149l-40 27z" />
    <glyph glyph-name="glyph267" horiz-adv-x="541" 
d="M211 693h72q20 -75 90 -75t115 75h71q-21 -62 -76 -101.5t-120 -39.5q-64 0 -107 39t-45 102zM240 879l90 44l99 -166l-48 -27z" />
    <glyph glyph-name="glyph268" horiz-adv-x="541" 
d="M211 693h72q20 -75 90 -75t115 75h71q-21 -62 -76 -101.5t-120 -39.5q-64 0 -107 39t-45 102zM306 671q9 27 11 64q1 11 8 13q3 0 8 1q67 11 67 54q0 35 -28 35q-5 0 -14 -1t-14 -1q-21 0 -21 18q0 28 32 28q47 0 76.5 -25t25.5 -71q-6 -59 -87 -81q-25 -7 -31 -34h-33z
" />
    <glyph glyph-name="glyph269" horiz-adv-x="541" 
d="M211 693h72q20 -75 90 -75t115 75h71q-21 -62 -76 -101.5t-120 -39.5q-64 0 -107 39t-45 102zM274 761v0l-41 40l4 5q61 76 120 76q31 0 84 -26.5t69 -26.5q34 0 71 48l41 -39q-53 -82 -131 -82q-26 0 -77.5 25.5t-75.5 25.5q-35 0 -64 -46z" />
    <glyph glyph-name="glyph270" horiz-adv-x="249" 
 />
  </font>
</defs>
</svg>
